<svg width="1779" height="1779" viewBox="0 0 1779 1779" fill="none" xmlns="http://www.w3.org/2000/svg">
<path d="M1365 419.333C1365 549.306 1259.7 654.667 1129.81 654.667H889.5V184H1129.81C1259.7 184 1365 289.362 1365 419.333Z" stroke="black" stroke-width="80"/>
<path d="M414 419.333C414 549.306 519.3 654.667 649.194 654.667H889.5V184H649.194C519.3 184 414 289.362 414 419.333Z" stroke="black" stroke-width="80"/>
<path d="M414 890C414 1019.97 519.3 1125.33 649.194 1125.33H889.5V654.667H649.194C519.3 654.667 414 760.028 414 890Z" stroke="black" stroke-width="80"/>
<path d="M414 1360.67C414 1490.64 520.571 1596 650.465 1596C781.771 1596 889.5 1489.49 889.5 1358.11V1125.33H649.194C519.3 1125.33 414 1230.69 414 1360.67Z" stroke="black" stroke-width="80"/>
<path d="M889.5 890C889.5 1019.97 994.799 1125.33 1124.69 1125.33H1129.81C1259.7 1125.33 1365 1019.97 1365 890C1365 760.028 1259.7 654.667 1129.81 654.667H1124.69C994.799 654.667 889.5 760.028 889.5 890Z" stroke="black" stroke-width="80"/>
</svg>
