<svg width="261" height="332" viewBox="0 0 261 332" fill="none" xmlns="http://www.w3.org/2000/svg">
<rect width="261" height="332" rx="20" fill="#342B67"/>
<path d="M67.1044 87.324C65.9524 87.324 65.0074 87.144 64.2694 86.784C63.5314 86.406 62.9824 85.911 62.6224 85.299C62.2624 84.687 62.0824 84.012 62.0824 83.274C62.0824 82.032 62.5684 81.024 63.5404 80.25C64.5124 79.476 65.9704 79.089 67.9144 79.089H71.3164V78.765C71.3164 77.847 71.0554 77.172 70.5334 76.74C70.0114 76.308 69.3634 76.092 68.5894 76.092C67.8874 76.092 67.2754 76.263 66.7534 76.605C66.2314 76.929 65.9074 77.415 65.7814 78.063H62.4064C62.4964 77.091 62.8204 76.245 63.3784 75.525C63.9544 74.805 64.6924 74.256 65.5924 73.878C66.4924 73.482 67.5004 73.284 68.6164 73.284C70.5244 73.284 72.0274 73.761 73.1254 74.715C74.2234 75.669 74.7724 77.019 74.7724 78.765V87H71.8294L71.5054 84.84C71.1094 85.56 70.5514 86.154 69.8314 86.622C69.1294 87.09 68.2204 87.324 67.1044 87.324ZM67.8874 84.624C68.8774 84.624 69.6424 84.3 70.1824 83.652C70.7404 83.004 71.0914 82.203 71.2354 81.249H68.2924C67.3744 81.249 66.7174 81.42 66.3214 81.762C65.9254 82.086 65.7274 82.491 65.7274 82.977C65.7274 83.499 65.9254 83.904 66.3214 84.192C66.7174 84.48 67.2394 84.624 67.8874 84.624ZM80.5576 87L76.6426 73.608H80.0716L82.3936 83.247L85.0936 73.608H88.9276L91.6276 83.247L93.9766 73.608H97.4056L93.4636 87H89.8726L87.0106 76.983L84.1486 87H80.5576ZM103.518 87.324C102.366 87.324 101.421 87.144 100.683 86.784C99.9445 86.406 99.3955 85.911 99.0355 85.299C98.6755 84.687 98.4955 84.012 98.4955 83.274C98.4955 82.032 98.9815 81.024 99.9535 80.25C100.926 79.476 102.384 79.089 104.328 79.089H107.73V78.765C107.73 77.847 107.469 77.172 106.947 76.74C106.425 76.308 105.777 76.092 105.003 76.092C104.301 76.092 103.689 76.263 103.167 76.605C102.645 76.929 102.321 77.415 102.195 78.063H98.8195C98.9095 77.091 99.2335 76.245 99.7915 75.525C100.368 74.805 101.106 74.256 102.006 73.878C102.906 73.482 103.914 73.284 105.03 73.284C106.938 73.284 108.441 73.761 109.539 74.715C110.637 75.669 111.186 77.019 111.186 78.765V87H108.243L107.919 84.84C107.523 85.56 106.965 86.154 106.245 86.622C105.543 87.09 104.634 87.324 103.518 87.324ZM104.301 84.624C105.291 84.624 106.056 84.3 106.596 83.652C107.154 83.004 107.505 82.203 107.649 81.249H104.706C103.788 81.249 103.131 81.42 102.735 81.762C102.339 82.086 102.141 82.491 102.141 82.977C102.141 83.499 102.339 83.904 102.735 84.192C103.131 84.48 103.653 84.624 104.301 84.624ZM114.484 87V73.608H117.562L117.886 76.119C118.372 75.255 119.029 74.571 119.857 74.067C120.703 73.545 121.693 73.284 122.827 73.284V76.929H121.855C121.099 76.929 120.424 77.046 119.83 77.28C119.236 77.514 118.768 77.919 118.426 78.495C118.102 79.071 117.94 79.872 117.94 80.898V87H114.484ZM131.458 87.324C130.108 87.324 128.911 87.036 127.867 86.46C126.823 85.884 126.004 85.074 125.41 84.03C124.816 82.986 124.519 81.78 124.519 80.412C124.519 79.026 124.807 77.793 125.383 76.713C125.977 75.633 126.787 74.796 127.813 74.202C128.857 73.59 130.081 73.284 131.485 73.284C132.799 73.284 133.96 73.572 134.968 74.148C135.976 74.724 136.759 75.516 137.317 76.524C137.893 77.514 138.181 78.621 138.181 79.845C138.181 80.043 138.172 80.25 138.154 80.466C138.154 80.682 138.145 80.907 138.127 81.141H127.948C128.02 82.185 128.38 83.004 129.028 83.598C129.694 84.192 130.495 84.489 131.431 84.489C132.133 84.489 132.718 84.336 133.186 84.03C133.672 83.706 134.032 83.292 134.266 82.788H137.776C137.524 83.634 137.101 84.408 136.507 85.11C135.931 85.794 135.211 86.334 134.347 86.73C133.501 87.126 132.538 87.324 131.458 87.324ZM131.485 76.092C130.639 76.092 129.892 76.335 129.244 76.821C128.596 77.289 128.182 78.009 128.002 78.981H134.671C134.617 78.099 134.293 77.397 133.699 76.875C133.105 76.353 132.367 76.092 131.485 76.092ZM141.088 87V73.608H144.139L144.409 75.876C144.823 75.084 145.417 74.454 146.191 73.986C146.983 73.518 147.91 73.284 148.972 73.284C150.628 73.284 151.915 73.806 152.833 74.85C153.751 75.894 154.21 77.424 154.21 79.44V87H150.754V79.764C150.754 78.612 150.52 77.73 150.052 77.118C149.584 76.506 148.855 76.2 147.865 76.2C146.893 76.2 146.092 76.542 145.462 77.226C144.85 77.91 144.544 78.864 144.544 80.088V87H141.088ZM164.022 87.324C162.672 87.324 161.475 87.036 160.431 86.46C159.387 85.884 158.568 85.074 157.974 84.03C157.38 82.986 157.083 81.78 157.083 80.412C157.083 79.026 157.371 77.793 157.947 76.713C158.541 75.633 159.351 74.796 160.377 74.202C161.421 73.59 162.645 73.284 164.049 73.284C165.363 73.284 166.524 73.572 167.532 74.148C168.54 74.724 169.323 75.516 169.881 76.524C170.457 77.514 170.745 78.621 170.745 79.845C170.745 80.043 170.736 80.25 170.718 80.466C170.718 80.682 170.709 80.907 170.691 81.141H160.512C160.584 82.185 160.944 83.004 161.592 83.598C162.258 84.192 163.059 84.489 163.995 84.489C164.697 84.489 165.282 84.336 165.75 84.03C166.236 83.706 166.596 83.292 166.83 82.788H170.34C170.088 83.634 169.665 84.408 169.071 85.11C168.495 85.794 167.775 86.334 166.911 86.73C166.065 87.126 165.102 87.324 164.022 87.324ZM164.049 76.092C163.203 76.092 162.456 76.335 161.808 76.821C161.16 77.289 160.746 78.009 160.566 78.981H167.235C167.181 78.099 166.857 77.397 166.263 76.875C165.669 76.353 164.931 76.092 164.049 76.092ZM179.186 87.324C177.998 87.324 176.954 87.135 176.054 86.757C175.154 86.361 174.434 85.821 173.894 85.137C173.354 84.453 173.03 83.661 172.922 82.761H176.405C176.513 83.283 176.801 83.733 177.269 84.111C177.755 84.471 178.376 84.651 179.132 84.651C179.888 84.651 180.437 84.498 180.779 84.192C181.139 83.886 181.319 83.535 181.319 83.139C181.319 82.563 181.067 82.176 180.563 81.978C180.059 81.762 179.357 81.555 178.457 81.357C177.881 81.231 177.296 81.078 176.702 80.898C176.108 80.718 175.559 80.493 175.055 80.223C174.569 79.935 174.173 79.575 173.867 79.143C173.561 78.693 173.408 78.144 173.408 77.496C173.408 76.308 173.876 75.309 174.812 74.499C175.766 73.689 177.098 73.284 178.808 73.284C180.392 73.284 181.652 73.653 182.588 74.391C183.542 75.129 184.109 76.146 184.289 77.442H181.022C180.824 76.452 180.077 75.957 178.781 75.957C178.133 75.957 177.629 76.083 177.269 76.335C176.927 76.587 176.756 76.902 176.756 77.28C176.756 77.676 177.017 77.991 177.539 78.225C178.061 78.459 178.754 78.675 179.618 78.873C180.554 79.089 181.409 79.332 182.183 79.602C182.975 79.854 183.605 80.241 184.073 80.763C184.541 81.267 184.775 81.996 184.775 82.95C184.793 83.778 184.577 84.525 184.127 85.191C183.677 85.857 183.029 86.379 182.183 86.757C181.337 87.135 180.338 87.324 179.186 87.324ZM193.372 87.324C192.184 87.324 191.14 87.135 190.24 86.757C189.34 86.361 188.62 85.821 188.08 85.137C187.54 84.453 187.216 83.661 187.108 82.761H190.591C190.699 83.283 190.987 83.733 191.455 84.111C191.941 84.471 192.562 84.651 193.318 84.651C194.074 84.651 194.623 84.498 194.965 84.192C195.325 83.886 195.505 83.535 195.505 83.139C195.505 82.563 195.253 82.176 194.749 81.978C194.245 81.762 193.543 81.555 192.643 81.357C192.067 81.231 191.482 81.078 190.888 80.898C190.294 80.718 189.745 80.493 189.241 80.223C188.755 79.935 188.359 79.575 188.053 79.143C187.747 78.693 187.594 78.144 187.594 77.496C187.594 76.308 188.062 75.309 188.998 74.499C189.952 73.689 191.284 73.284 192.994 73.284C194.578 73.284 195.838 73.653 196.774 74.391C197.728 75.129 198.295 76.146 198.475 77.442H195.208C195.01 76.452 194.263 75.957 192.967 75.957C192.319 75.957 191.815 76.083 191.455 76.335C191.113 76.587 190.942 76.902 190.942 77.28C190.942 77.676 191.203 77.991 191.725 78.225C192.247 78.459 192.94 78.675 193.804 78.873C194.74 79.089 195.595 79.332 196.369 79.602C197.161 79.854 197.791 80.241 198.259 80.763C198.727 81.267 198.961 81.996 198.961 82.95C198.979 83.778 198.763 84.525 198.313 85.191C197.863 85.857 197.215 86.379 196.369 86.757C195.523 87.135 194.524 87.324 193.372 87.324Z" fill="white"/>
<rect x="100.617" y="231.627" width="53.5969" height="100.372" fill="#E5D3FF"/>
<path d="M91.8469 154.643C96.2091 154.643 99.8275 157.948 100.504 162.276H100.617V191.636H100.613C100.464 196.527 96.596 200.444 91.8469 200.444V154.643Z" fill="#EDE1FF"/>
<path fill-rule="evenodd" clip-rule="evenodd" d="M100.32 158.877C100.32 158.891 100.32 158.906 100.32 158.921C100.32 158.936 100.32 158.95 100.32 158.965V188.313V188.626H100.326C100.527 193.834 105.71 198.006 112.074 198.006C118.439 198.006 123.622 193.834 123.822 188.626H123.828V188.319C123.828 188.317 123.828 188.315 123.828 188.313C123.828 188.311 123.828 188.309 123.828 188.307V157.357H123.676C122.769 152.747 117.92 149.228 112.074 149.228C106.228 149.228 101.379 152.747 100.472 157.357H100.32V158.877Z" fill="white"/>
<path fill-rule="evenodd" clip-rule="evenodd" d="M150.103 150.501C149.084 145.114 143.628 141 137.051 141C130.474 141 125.019 145.114 123.999 150.501H123.828V186.678V187.044H123.835C124.06 193.131 129.891 198.006 137.051 198.006C144.211 198.006 150.042 193.131 150.267 187.044H150.274L150.274 186.678L150.274 152.352C150.274 152.344 150.274 152.336 150.274 152.328C150.274 152.32 150.274 152.312 150.274 152.304V150.501H150.103Z" fill="white"/>
<path d="M137.648 141C143.949 141 149.176 145.078 150.152 150.42H150.316V186.651H150.31C150.094 192.687 144.508 197.52 137.648 197.52V141Z" fill="#EDE1FF"/>
<path fill-rule="evenodd" clip-rule="evenodd" d="M150.017 157.46C150.014 157.483 150.011 157.506 150.009 157.529C150.007 157.552 150.004 157.575 150.002 157.598L146.332 192.734C146.331 192.741 146.33 192.748 146.329 192.755C146.329 192.762 146.328 192.769 146.327 192.775L146.29 193.13L146.296 193.131C145.848 199.394 150.588 204.944 157.051 205.619C163.514 206.294 169.299 201.844 170.155 195.623L170.161 195.624L174.076 158.149L173.921 158.133C173.578 152.512 169.094 147.779 163.158 147.159C157.221 146.539 151.857 150.243 150.359 155.672L150.205 155.656L150.017 157.46Z" fill="white"/>
<path d="M163.43 147.822C169.547 148.441 174.166 153.169 174.52 158.785L174.679 158.801L174.484 160.608L174.477 160.673L174.47 160.737L170.645 196.238L170.639 196.237C169.757 202.452 163.796 206.898 157.138 206.223L163.43 147.822Z" fill="#EDE1FF"/>
<path d="M162.718 235.526L171.755 194.718L139.98 192.648L137.648 235.526H162.718Z" fill="white"/>
<ellipse cx="135.699" cy="220.908" rx="31.1837" ry="21.4388" fill="#EDE1FF"/>
<ellipse cx="134.237" cy="223.344" rx="31.6709" ry="20.9515" fill="#EDE1FF"/>
<ellipse cx="146.906" cy="217.497" rx="19.977" ry="20.9515" fill="#EDE1FF"/>
<rect x="100.617" y="231.627" width="18.5153" height="100.372" fill="white"/>
<path fill-rule="evenodd" clip-rule="evenodd" d="M160.92 206.6C166.866 206.271 171.721 201.493 172.015 195.414C172.33 188.918 167.32 183.397 160.825 183.083C159.805 183.033 158.81 183.115 157.854 183.313L116.369 181.301L116.368 181.307C110.039 181.201 104.726 186.142 104.417 192.51C104.108 198.878 108.918 204.31 115.228 204.817L115.228 204.823L115.551 204.838C115.57 204.839 115.589 204.84 115.608 204.841C115.626 204.842 115.645 204.843 115.664 204.844L160.899 207.038L160.92 206.6Z" fill="white"/>
<path d="M88.349 199.148C87.0881 181.536 101.235 166.649 118.888 167.012L141.356 167.473C159.165 167.838 172.735 183.551 170.504 201.224L168.379 218.053C166.486 233.05 153.731 244.296 138.616 244.296H119.51C103.773 244.296 90.7106 232.135 89.5868 216.438L88.349 199.148Z" fill="#E5D3FF"/>
<path fill-rule="evenodd" clip-rule="evenodd" d="M86 163.626V191.248V191.542H86.0037C86.1256 196.437 89.283 200.357 93.1603 200.357C97.0375 200.357 100.195 196.437 100.317 191.542H100.321V191.253C100.321 191.251 100.321 191.249 100.321 191.248C100.321 191.246 100.321 191.245 100.321 191.243V163.631C100.321 163.629 100.321 163.628 100.321 163.626C100.321 163.625 100.321 163.623 100.321 163.622V162.157H100.228C99.6757 157.825 96.7216 154.517 93.1603 154.517C89.5989 154.517 86.6449 157.825 86.0927 162.157H86V163.626Z" fill="white"/>
<path d="M91.8469 154.643C96.2091 154.643 99.8275 157.948 100.504 162.276H100.617V191.636H100.613C100.464 196.527 96.596 200.444 91.8469 200.444V154.643Z" fill="#EDE1FF"/>
<path fill-rule="evenodd" clip-rule="evenodd" d="M100.32 158.877C100.32 158.891 100.32 158.906 100.32 158.921C100.32 158.936 100.32 158.95 100.32 158.965V188.313V188.626H100.326C100.527 193.834 105.71 198.006 112.074 198.006C118.439 198.006 123.622 193.834 123.822 188.626H123.828V188.319C123.828 188.317 123.828 188.315 123.828 188.313C123.828 188.311 123.828 188.309 123.828 188.307V157.357H123.676C122.769 152.747 117.92 149.228 112.074 149.228C106.228 149.228 101.379 152.747 100.472 157.357H100.32V158.877Z" fill="white"/>
<path fill-rule="evenodd" clip-rule="evenodd" d="M150.103 150.501C149.084 145.114 143.628 141 137.051 141C130.474 141 125.019 145.114 123.999 150.501H123.828V186.678V187.044H123.835C124.06 193.131 129.891 198.006 137.051 198.006C144.211 198.006 150.042 193.131 150.267 187.044H150.274L150.274 186.678L150.274 152.352C150.274 152.344 150.274 152.336 150.274 152.328C150.274 152.32 150.274 152.312 150.274 152.304V150.501H150.103Z" fill="white"/>
<path d="M137.648 141C143.949 141 149.176 145.078 150.152 150.42H150.316V186.651H150.31C150.094 192.687 144.508 197.52 137.648 197.52V141Z" fill="#EDE1FF"/>
<path fill-rule="evenodd" clip-rule="evenodd" d="M150.017 157.46C150.014 157.483 150.011 157.506 150.009 157.529C150.007 157.552 150.004 157.575 150.002 157.598L146.332 192.734C146.331 192.741 146.33 192.748 146.329 192.755C146.329 192.762 146.328 192.769 146.327 192.775L146.29 193.13L146.296 193.131C145.848 199.394 150.588 204.944 157.051 205.619C163.514 206.294 169.299 201.844 170.155 195.623L170.161 195.624L174.076 158.149L173.921 158.133C173.578 152.512 169.094 147.779 163.158 147.159C157.221 146.539 151.857 150.243 150.359 155.672L150.205 155.656L150.017 157.46Z" fill="white"/>
<path d="M114.26 149.771C120.076 149.771 124.901 153.286 125.803 157.891H125.954V189.125H125.948C125.749 194.328 120.592 198.495 114.26 198.495V149.771Z" fill="#EDE1FF"/>
<path d="M163.43 147.822C169.547 148.441 174.166 153.169 174.52 158.785L174.679 158.801L174.484 160.608L174.477 160.673L174.47 160.737L170.645 196.238L170.639 196.237C169.757 202.452 163.796 206.898 157.138 206.223L163.43 147.822Z" fill="#EDE1FF"/>
<path d="M132.891 193.623L131.801 221.849L149.428 223.613L167.348 227.73L171 210.5L173 196.5L132.891 193.623Z" fill="white"/>
<ellipse cx="135.699" cy="220.908" rx="31.1837" ry="21.4388" fill="#BDA5CF"/>
<ellipse cx="134.237" cy="223.344" rx="31.6709" ry="20.9515" fill="#E5D3FF"/>
<ellipse cx="147.88" cy="223.832" rx="19.977" ry="20.4643" fill="#E5D3FF"/>
<path fill-rule="evenodd" clip-rule="evenodd" d="M161.52 207.105C167.681 207.012 172.789 202.142 173.092 195.901C173.405 189.452 168.467 183.963 162.038 183.578L162.039 183.516L116.368 181.301L116.368 181.307C110.039 181.201 104.726 186.142 104.417 192.51C104.108 198.878 108.918 204.31 115.228 204.817L115.228 204.823L161.5 208L161.52 207.105Z" fill="white"/>
</svg>
