<svg width="261" height="333" viewBox="0 0 261 333" fill="none" xmlns="http://www.w3.org/2000/svg">
<rect width="261" height="332" rx="20" fill="#342B67"/>
<path d="M178.064 221.534C178.064 220.372 179.006 219.431 180.167 219.431H202.889C204.051 219.431 204.993 220.372 204.993 221.534C204.993 222.695 204.051 223.637 202.889 223.637H180.167C179.006 223.637 178.064 222.695 178.064 221.534Z" fill="#FDFCF7"/>
<path d="M177.897 245.346C177.897 244.184 178.839 243.243 180.001 243.243H202.723C203.884 243.243 204.826 244.184 204.826 245.346C204.826 246.507 203.884 247.449 202.723 247.449H180.001C178.839 247.449 177.897 246.507 177.897 245.346Z" fill="#FDFCF7"/>
<path d="M177.897 233.44C177.897 232.278 178.839 231.337 180.001 231.337H202.723C203.884 231.337 204.826 232.278 204.826 233.44C204.826 234.601 203.884 235.543 202.723 235.543H180.001C178.839 235.543 177.897 234.601 177.897 233.44Z" fill="#FDFCF7"/>
<path fill-rule="evenodd" clip-rule="evenodd" d="M171 183.075V267H92V183H92.0001C92.0001 159.804 109.685 141 131.5 141C153.315 141 171 159.804 171 183C171 183.025 171 183.05 171 183.075Z" fill="#FAD49B" fill-opacity="0.5"/>
<path d="M213 332H48L103 266L109 188L131.5 141L153.5 188L160.5 266L213 332Z" fill="#FAD49B" fill-opacity="0.5"/>
<path fill-rule="evenodd" clip-rule="evenodd" d="M178.168 180.626L178.168 180.756V273.879H84.9153V180.626L84.9155 180.626C84.9155 154.875 105.791 134 131.542 134C157.293 134 178.168 154.875 178.168 180.626ZM170.854 266.399V183.172L170.854 183.12C170.854 160.123 153.29 141.48 131.625 141.48C109.959 141.48 92.3956 160.123 92.3956 183.12H92.3955V266.399H170.854Z" fill="white"/>
<path fill-rule="evenodd" clip-rule="evenodd" d="M178.168 180.626L178.168 180.756V273.879H84.9153V180.626L84.9155 180.626C84.9155 154.875 105.791 134 131.542 134C157.293 134 178.168 154.875 178.168 180.626ZM170.854 266.399V183.172L170.854 183.12C170.854 160.123 153.29 141.48 131.625 141.48C109.959 141.48 92.3956 160.123 92.3956 183.12H92.3955V266.399H170.854Z" fill="white"/>
<path fill-rule="evenodd" clip-rule="evenodd" d="M53 261.398C53 264.16 55.2386 266.398 58 266.398H87.3123C90.0738 266.398 92.3123 264.16 92.3123 261.398V183.298C92.3126 183.238 92.3127 183.179 92.3127 183.119C92.3127 160.123 74.7492 141.48 53.0835 141.48C53.0373 141.48 53 141.517 53 141.564V261.398Z" fill="#FAD49B"/>
<path d="M59.3999 221.534C59.3999 220.372 60.3415 219.431 61.5029 219.431H84.2254C85.3869 219.431 86.3284 220.372 86.3284 221.534C86.3284 222.695 85.3869 223.637 84.2254 223.637H61.5029C60.3415 223.637 59.3999 222.695 59.3999 221.534Z" fill="#FDFCF7"/>
<path d="M59.2334 245.346C59.2334 244.184 60.175 243.243 61.3364 243.243H84.0589C85.2204 243.243 86.1619 244.184 86.1619 245.346C86.1619 246.507 85.2204 247.449 84.0589 247.449H61.3364C60.175 247.449 59.2334 246.507 59.2334 245.346Z" fill="#FDFCF7"/>
<path d="M59.2334 233.44C59.2334 232.278 60.175 231.337 61.3364 231.337H84.0589C85.2204 231.337 86.1619 232.278 86.1619 233.44C86.1619 234.601 85.2204 235.543 84.0589 235.543H61.3364C60.175 235.543 59.2334 234.601 59.2334 233.44Z" fill="#FDFCF7"/>
<path fill-rule="evenodd" clip-rule="evenodd" d="M210 261.399C210 264.16 207.761 266.399 205 266.399H175.687C172.926 266.399 170.687 264.16 170.687 261.399V183.316C170.687 183.25 170.687 183.185 170.687 183.119C170.687 160.123 188.251 141.48 209.916 141.48C209.962 141.48 210 141.517 210 141.564V261.399Z" fill="#FAD49B"/>
<path d="M177.064 221.103C177.064 219.942 178.005 219 179.167 219H201.889C203.051 219 203.992 219.942 203.992 221.103C203.992 222.265 203.051 223.206 201.889 223.206H179.167C178.005 223.206 177.064 222.265 177.064 221.103Z" fill="#FDFCF7"/>
<path d="M176.897 244.915C176.897 243.754 177.839 242.812 179 242.812H201.723C202.884 242.812 203.826 243.754 203.826 244.915C203.826 246.077 202.884 247.018 201.723 247.018H179C177.839 247.018 176.897 246.077 176.897 244.915Z" fill="#FDFCF7"/>
<path d="M176.897 233.009C176.897 231.847 177.839 230.906 179 230.906H201.723C202.884 230.906 203.826 231.847 203.826 233.009C203.826 234.17 202.884 235.112 201.723 235.112H179C177.839 235.112 176.897 234.17 176.897 233.009Z" fill="#FDFCF7"/>
<rect x="131" y="137" width="1" height="130" fill="#F4F4F4"/>
<rect x="92.3955" y="180.626" width="1.24669" height="78.2922" transform="rotate(-90 92.3955 180.626)" fill="#F4F4F4"/>
<rect x="92.3955" y="224.26" width="1.24669" height="78.2922" transform="rotate(-90 92.3955 224.26)" fill="#F4F4F4"/>
<rect x="104.054" y="153.272" width="1.24669" height="38.179" transform="rotate(-45 104.054 153.272)" fill="#F4F4F4"/>
<rect width="1.24669" height="38.179" transform="matrix(-0.707107 -0.707107 -0.707107 0.707107 159.419 153.083)" fill="#F4F4F4"/>
<rect x="131" y="274" width="1" height="58" fill="#7268A3"/>
<path d="M80 293H182" stroke="#7268A2"/>
<path d="M55 323L206 323" stroke="#7268A2"/>
<path d="M131.5 323L97 332" stroke="#7268A2"/>
<path d="M132 323L166.5 332" stroke="#7268A2"/>
<path d="M77.9856 87.324C76.6356 87.324 75.4386 87.036 74.3946 86.46C73.3506 85.884 72.5316 85.074 71.9376 84.03C71.3436 82.986 71.0466 81.78 71.0466 80.412C71.0466 79.026 71.3346 77.793 71.9106 76.713C72.5046 75.633 73.3146 74.796 74.3406 74.202C75.3846 73.59 76.6086 73.284 78.0126 73.284C79.3266 73.284 80.4876 73.572 81.4956 74.148C82.5036 74.724 83.2866 75.516 83.8446 76.524C84.4206 77.514 84.7086 78.621 84.7086 79.845C84.7086 80.043 84.6996 80.25 84.6816 80.466C84.6816 80.682 84.6726 80.907 84.6546 81.141H74.4756C74.5476 82.185 74.9076 83.004 75.5556 83.598C76.2216 84.192 77.0226 84.489 77.9586 84.489C78.6606 84.489 79.2456 84.336 79.7136 84.03C80.1996 83.706 80.5596 83.292 80.7936 82.788H84.3036C84.0516 83.634 83.6286 84.408 83.0346 85.11C82.4586 85.794 81.7386 86.334 80.8746 86.73C80.0286 87.126 79.0656 87.324 77.9856 87.324ZM78.0126 76.092C77.1666 76.092 76.4196 76.335 75.7716 76.821C75.1236 77.289 74.7096 78.009 74.5296 78.981H81.1986C81.1446 78.099 80.8206 77.397 80.2266 76.875C79.6326 76.353 78.8946 76.092 78.0126 76.092ZM85.4235 87L90.2835 80.304L85.4235 73.608H89.1225L92.5245 78.36L95.8995 73.608H99.6255L94.7385 80.304L99.6255 87H95.8995L92.5245 82.248L89.1225 87H85.4235ZM101.827 92.94V73.608H104.905L105.283 75.525C105.715 74.931 106.282 74.409 106.984 73.959C107.704 73.509 108.631 73.284 109.765 73.284C111.025 73.284 112.15 73.59 113.14 74.202C114.13 74.814 114.913 75.651 115.489 76.713C116.065 77.775 116.353 78.981 116.353 80.331C116.353 81.681 116.065 82.887 115.489 83.949C114.913 84.993 114.13 85.821 113.14 86.433C112.15 87.027 111.025 87.324 109.765 87.324C108.757 87.324 107.875 87.135 107.119 86.757C106.363 86.379 105.751 85.848 105.283 85.164V92.94H101.827ZM109.036 84.3C110.134 84.3 111.043 83.931 111.763 83.193C112.483 82.455 112.843 81.501 112.843 80.331C112.843 79.161 112.483 78.198 111.763 77.442C111.043 76.686 110.134 76.308 109.036 76.308C107.92 76.308 107.002 76.686 106.282 77.442C105.58 78.18 105.229 79.134 105.229 80.304C105.229 81.474 105.58 82.437 106.282 83.193C107.002 83.931 107.92 84.3 109.036 84.3ZM125.867 87.324C124.571 87.324 123.401 87.027 122.357 86.433C121.331 85.839 120.512 85.02 119.9 83.976C119.306 82.914 119.009 81.69 119.009 80.304C119.009 78.918 119.315 77.703 119.927 76.659C120.539 75.597 121.358 74.769 122.384 74.175C123.428 73.581 124.598 73.284 125.894 73.284C127.172 73.284 128.324 73.581 129.35 74.175C130.394 74.769 131.213 75.597 131.807 76.659C132.419 77.703 132.725 78.918 132.725 80.304C132.725 81.69 132.419 82.914 131.807 83.976C131.213 85.02 130.394 85.839 129.35 86.433C128.306 87.027 127.145 87.324 125.867 87.324ZM125.867 84.327C126.767 84.327 127.55 83.994 128.216 83.328C128.882 82.644 129.215 81.636 129.215 80.304C129.215 78.972 128.882 77.973 128.216 77.307C127.55 76.623 126.776 76.281 125.894 76.281C124.976 76.281 124.184 76.623 123.518 77.307C122.87 77.973 122.546 78.972 122.546 80.304C122.546 81.636 122.87 82.644 123.518 83.328C124.184 83.994 124.967 84.327 125.867 84.327ZM141.35 87.324C140.162 87.324 139.118 87.135 138.218 86.757C137.318 86.361 136.598 85.821 136.058 85.137C135.518 84.453 135.194 83.661 135.086 82.761H138.569C138.677 83.283 138.965 83.733 139.433 84.111C139.919 84.471 140.54 84.651 141.296 84.651C142.052 84.651 142.601 84.498 142.943 84.192C143.303 83.886 143.483 83.535 143.483 83.139C143.483 82.563 143.231 82.176 142.727 81.978C142.223 81.762 141.521 81.555 140.621 81.357C140.045 81.231 139.46 81.078 138.866 80.898C138.272 80.718 137.723 80.493 137.219 80.223C136.733 79.935 136.337 79.575 136.031 79.143C135.725 78.693 135.572 78.144 135.572 77.496C135.572 76.308 136.04 75.309 136.976 74.499C137.93 73.689 139.262 73.284 140.972 73.284C142.556 73.284 143.816 73.653 144.752 74.391C145.706 75.129 146.273 76.146 146.453 77.442H143.186C142.988 76.452 142.241 75.957 140.945 75.957C140.297 75.957 139.793 76.083 139.433 76.335C139.091 76.587 138.92 76.902 138.92 77.28C138.92 77.676 139.181 77.991 139.703 78.225C140.225 78.459 140.918 78.675 141.782 78.873C142.718 79.089 143.573 79.332 144.347 79.602C145.139 79.854 145.769 80.241 146.237 80.763C146.705 81.267 146.939 81.996 146.939 82.95C146.957 83.778 146.741 84.525 146.291 85.191C145.841 85.857 145.193 86.379 144.347 86.757C143.501 87.135 142.502 87.324 141.35 87.324ZM155.022 87.324C153.348 87.324 152.052 86.802 151.134 85.758C150.234 84.714 149.784 83.184 149.784 81.168V73.608H153.213V80.844C153.213 81.996 153.447 82.878 153.915 83.49C154.383 84.102 155.121 84.408 156.129 84.408C157.083 84.408 157.866 84.066 158.478 83.382C159.108 82.698 159.423 81.744 159.423 80.52V73.608H162.879V87H159.828L159.558 84.732C159.144 85.524 158.541 86.154 157.749 86.622C156.975 87.09 156.066 87.324 155.022 87.324ZM166.427 87V73.608H169.505L169.829 76.119C170.315 75.255 170.972 74.571 171.8 74.067C172.646 73.545 173.636 73.284 174.77 73.284V76.929H173.798C173.042 76.929 172.367 77.046 171.773 77.28C171.179 77.514 170.711 77.919 170.369 78.495C170.045 79.071 169.883 79.872 169.883 80.898V87H166.427ZM183.402 87.324C182.052 87.324 180.855 87.036 179.811 86.46C178.767 85.884 177.948 85.074 177.354 84.03C176.76 82.986 176.463 81.78 176.463 80.412C176.463 79.026 176.751 77.793 177.327 76.713C177.921 75.633 178.731 74.796 179.757 74.202C180.801 73.59 182.025 73.284 183.429 73.284C184.743 73.284 185.904 73.572 186.912 74.148C187.92 74.724 188.703 75.516 189.261 76.524C189.837 77.514 190.125 78.621 190.125 79.845C190.125 80.043 190.116 80.25 190.098 80.466C190.098 80.682 190.089 80.907 190.071 81.141H179.892C179.964 82.185 180.324 83.004 180.972 83.598C181.638 84.192 182.439 84.489 183.375 84.489C184.077 84.489 184.662 84.336 185.13 84.03C185.616 83.706 185.976 83.292 186.21 82.788H189.72C189.468 83.634 189.045 84.408 188.451 85.11C187.875 85.794 187.155 86.334 186.291 86.73C185.445 87.126 184.482 87.324 183.402 87.324ZM183.429 76.092C182.583 76.092 181.836 76.335 181.188 76.821C180.54 77.289 180.126 78.009 179.946 78.981H186.615C186.561 78.099 186.237 77.397 185.643 76.875C185.049 76.353 184.311 76.092 183.429 76.092Z" fill="white"/>
</svg>
