<svg width="261" height="332" viewBox="0 0 261 332" fill="none" xmlns="http://www.w3.org/2000/svg">
<rect width="261" height="332" rx="20" fill="#342B67"/>
<path d="M77.9856 87.324C76.6356 87.324 75.4386 87.036 74.3946 86.46C73.3506 85.884 72.5316 85.074 71.9376 84.03C71.3436 82.986 71.0466 81.78 71.0466 80.412C71.0466 79.026 71.3346 77.793 71.9106 76.713C72.5046 75.633 73.3146 74.796 74.3406 74.202C75.3846 73.59 76.6086 73.284 78.0126 73.284C79.3266 73.284 80.4876 73.572 81.4956 74.148C82.5036 74.724 83.2866 75.516 83.8446 76.524C84.4206 77.514 84.7086 78.621 84.7086 79.845C84.7086 80.043 84.6996 80.25 84.6816 80.466C84.6816 80.682 84.6726 80.907 84.6546 81.141H74.4756C74.5476 82.185 74.9076 83.004 75.5556 83.598C76.2216 84.192 77.0226 84.489 77.9586 84.489C78.6606 84.489 79.2456 84.336 79.7136 84.03C80.1996 83.706 80.5596 83.292 80.7936 82.788H84.3036C84.0516 83.634 83.6286 84.408 83.0346 85.11C82.4586 85.794 81.7386 86.334 80.8746 86.73C80.0286 87.126 79.0656 87.324 77.9856 87.324ZM78.0126 76.092C77.1666 76.092 76.4196 76.335 75.7716 76.821C75.1236 77.289 74.7096 78.009 74.5296 78.981H81.1986C81.1446 78.099 80.8206 77.397 80.2266 76.875C79.6326 76.353 78.8946 76.092 78.0126 76.092ZM85.4235 87L90.2835 80.304L85.4235 73.608H89.1225L92.5245 78.36L95.8995 73.608H99.6255L94.7385 80.304L99.6255 87H95.8995L92.5245 82.248L89.1225 87H85.4235ZM101.827 92.94V73.608H104.905L105.283 75.525C105.715 74.931 106.282 74.409 106.984 73.959C107.704 73.509 108.631 73.284 109.765 73.284C111.025 73.284 112.15 73.59 113.14 74.202C114.13 74.814 114.913 75.651 115.489 76.713C116.065 77.775 116.353 78.981 116.353 80.331C116.353 81.681 116.065 82.887 115.489 83.949C114.913 84.993 114.13 85.821 113.14 86.433C112.15 87.027 111.025 87.324 109.765 87.324C108.757 87.324 107.875 87.135 107.119 86.757C106.363 86.379 105.751 85.848 105.283 85.164V92.94H101.827ZM109.036 84.3C110.134 84.3 111.043 83.931 111.763 83.193C112.483 82.455 112.843 81.501 112.843 80.331C112.843 79.161 112.483 78.198 111.763 77.442C111.043 76.686 110.134 76.308 109.036 76.308C107.92 76.308 107.002 76.686 106.282 77.442C105.58 78.18 105.229 79.134 105.229 80.304C105.229 81.474 105.58 82.437 106.282 83.193C107.002 83.931 107.92 84.3 109.036 84.3ZM125.867 87.324C124.571 87.324 123.401 87.027 122.357 86.433C121.331 85.839 120.512 85.02 119.9 83.976C119.306 82.914 119.009 81.69 119.009 80.304C119.009 78.918 119.315 77.703 119.927 76.659C120.539 75.597 121.358 74.769 122.384 74.175C123.428 73.581 124.598 73.284 125.894 73.284C127.172 73.284 128.324 73.581 129.35 74.175C130.394 74.769 131.213 75.597 131.807 76.659C132.419 77.703 132.725 78.918 132.725 80.304C132.725 81.69 132.419 82.914 131.807 83.976C131.213 85.02 130.394 85.839 129.35 86.433C128.306 87.027 127.145 87.324 125.867 87.324ZM125.867 84.327C126.767 84.327 127.55 83.994 128.216 83.328C128.882 82.644 129.215 81.636 129.215 80.304C129.215 78.972 128.882 77.973 128.216 77.307C127.55 76.623 126.776 76.281 125.894 76.281C124.976 76.281 124.184 76.623 123.518 77.307C122.87 77.973 122.546 78.972 122.546 80.304C122.546 81.636 122.87 82.644 123.518 83.328C124.184 83.994 124.967 84.327 125.867 84.327ZM141.35 87.324C140.162 87.324 139.118 87.135 138.218 86.757C137.318 86.361 136.598 85.821 136.058 85.137C135.518 84.453 135.194 83.661 135.086 82.761H138.569C138.677 83.283 138.965 83.733 139.433 84.111C139.919 84.471 140.54 84.651 141.296 84.651C142.052 84.651 142.601 84.498 142.943 84.192C143.303 83.886 143.483 83.535 143.483 83.139C143.483 82.563 143.231 82.176 142.727 81.978C142.223 81.762 141.521 81.555 140.621 81.357C140.045 81.231 139.46 81.078 138.866 80.898C138.272 80.718 137.723 80.493 137.219 80.223C136.733 79.935 136.337 79.575 136.031 79.143C135.725 78.693 135.572 78.144 135.572 77.496C135.572 76.308 136.04 75.309 136.976 74.499C137.93 73.689 139.262 73.284 140.972 73.284C142.556 73.284 143.816 73.653 144.752 74.391C145.706 75.129 146.273 76.146 146.453 77.442H143.186C142.988 76.452 142.241 75.957 140.945 75.957C140.297 75.957 139.793 76.083 139.433 76.335C139.091 76.587 138.92 76.902 138.92 77.28C138.92 77.676 139.181 77.991 139.703 78.225C140.225 78.459 140.918 78.675 141.782 78.873C142.718 79.089 143.573 79.332 144.347 79.602C145.139 79.854 145.769 80.241 146.237 80.763C146.705 81.267 146.939 81.996 146.939 82.95C146.957 83.778 146.741 84.525 146.291 85.191C145.841 85.857 145.193 86.379 144.347 86.757C143.501 87.135 142.502 87.324 141.35 87.324ZM155.022 87.324C153.348 87.324 152.052 86.802 151.134 85.758C150.234 84.714 149.784 83.184 149.784 81.168V73.608H153.213V80.844C153.213 81.996 153.447 82.878 153.915 83.49C154.383 84.102 155.121 84.408 156.129 84.408C157.083 84.408 157.866 84.066 158.478 83.382C159.108 82.698 159.423 81.744 159.423 80.52V73.608H162.879V87H159.828L159.558 84.732C159.144 85.524 158.541 86.154 157.749 86.622C156.975 87.09 156.066 87.324 155.022 87.324ZM166.427 87V73.608H169.505L169.829 76.119C170.315 75.255 170.972 74.571 171.8 74.067C172.646 73.545 173.636 73.284 174.77 73.284V76.929H173.798C173.042 76.929 172.367 77.046 171.773 77.28C171.179 77.514 170.711 77.919 170.369 78.495C170.045 79.071 169.883 79.872 169.883 80.898V87H166.427ZM183.402 87.324C182.052 87.324 180.855 87.036 179.811 86.46C178.767 85.884 177.948 85.074 177.354 84.03C176.76 82.986 176.463 81.78 176.463 80.412C176.463 79.026 176.751 77.793 177.327 76.713C177.921 75.633 178.731 74.796 179.757 74.202C180.801 73.59 182.025 73.284 183.429 73.284C184.743 73.284 185.904 73.572 186.912 74.148C187.92 74.724 188.703 75.516 189.261 76.524C189.837 77.514 190.125 78.621 190.125 79.845C190.125 80.043 190.116 80.25 190.098 80.466C190.098 80.682 190.089 80.907 190.071 81.141H179.892C179.964 82.185 180.324 83.004 180.972 83.598C181.638 84.192 182.439 84.489 183.375 84.489C184.077 84.489 184.662 84.336 185.13 84.03C185.616 83.706 185.976 83.292 186.21 82.788H189.72C189.468 83.634 189.045 84.408 188.451 85.11C187.875 85.794 187.155 86.334 186.291 86.73C185.445 87.126 184.482 87.324 183.402 87.324ZM183.429 76.092C182.583 76.092 181.836 76.335 181.188 76.821C180.54 77.289 180.126 78.009 179.946 78.981H186.615C186.561 78.099 186.237 77.397 185.643 76.875C185.049 76.353 184.311 76.092 183.429 76.092Z" fill="white"/>
<path d="M88.8614 143.016L85.7894 131.8H87.2294L89.6454 141.416L92.3974 131.8H93.8854L96.5574 141.416L99.0054 131.8H100.445L97.3094 143H95.7734L93.1014 133.752L90.3654 143L88.8614 143.016ZM105.182 143.192C104.424 143.192 103.752 143.021 103.166 142.68C102.579 142.328 102.115 141.843 101.774 141.224C101.443 140.605 101.278 139.875 101.278 139.032C101.278 138.2 101.443 137.475 101.774 136.856C102.104 136.227 102.563 135.741 103.15 135.4C103.747 135.048 104.435 134.872 105.214 134.872C105.982 134.872 106.643 135.048 107.198 135.4C107.763 135.741 108.195 136.195 108.494 136.76C108.792 137.325 108.942 137.933 108.942 138.584C108.942 138.701 108.936 138.819 108.926 138.936C108.926 139.053 108.926 139.187 108.926 139.336H102.606C102.638 139.944 102.776 140.451 103.022 140.856C103.278 141.251 103.592 141.549 103.966 141.752C104.35 141.955 104.755 142.056 105.182 142.056C105.736 142.056 106.2 141.928 106.574 141.672C106.947 141.416 107.219 141.069 107.39 140.632H108.718C108.504 141.368 108.094 141.981 107.486 142.472C106.888 142.952 106.12 143.192 105.182 143.192ZM105.182 136.008C104.542 136.008 103.971 136.205 103.47 136.6C102.979 136.984 102.696 137.549 102.622 138.296H107.614C107.582 137.581 107.336 137.021 106.878 136.616C106.419 136.211 105.854 136.008 105.182 136.008ZM115.917 143V131.48H117.261V136.424C117.528 135.933 117.907 135.555 118.397 135.288C118.888 135.011 119.421 134.872 119.997 134.872C120.915 134.872 121.651 135.16 122.205 135.736C122.76 136.301 123.037 137.176 123.037 138.36V143H121.709V138.504C121.709 136.851 121.043 136.024 119.709 136.024C119.016 136.024 118.435 136.275 117.965 136.776C117.496 137.267 117.261 137.971 117.261 138.888V143H115.917ZM129.17 143.192C128.423 143.192 127.751 143.021 127.154 142.68C126.556 142.339 126.082 141.859 125.73 141.24C125.388 140.611 125.218 139.875 125.218 139.032C125.218 138.189 125.394 137.459 125.746 136.84C126.098 136.211 126.572 135.725 127.17 135.384C127.778 135.043 128.455 134.872 129.202 134.872C129.948 134.872 130.62 135.043 131.218 135.384C131.815 135.725 132.284 136.211 132.626 136.84C132.978 137.459 133.154 138.189 133.154 139.032C133.154 139.875 132.978 140.611 132.626 141.24C132.274 141.859 131.794 142.339 131.186 142.68C130.588 143.021 129.916 143.192 129.17 143.192ZM129.17 142.04C129.628 142.04 130.055 141.928 130.45 141.704C130.844 141.48 131.164 141.144 131.41 140.696C131.655 140.248 131.778 139.693 131.778 139.032C131.778 138.371 131.655 137.816 131.41 137.368C131.175 136.92 130.86 136.584 130.466 136.36C130.071 136.136 129.65 136.024 129.202 136.024C128.743 136.024 128.316 136.136 127.922 136.36C127.527 136.584 127.207 136.92 126.962 137.368C126.716 137.816 126.594 138.371 126.594 139.032C126.594 139.693 126.716 140.248 126.962 140.696C127.207 141.144 127.522 141.48 127.906 141.704C128.3 141.928 128.722 142.04 129.17 142.04ZM135.502 146.52V135.064H136.718L136.846 136.376C137.102 135.992 137.465 135.645 137.934 135.336C138.414 135.027 139.022 134.872 139.758 134.872C140.548 134.872 141.236 135.053 141.822 135.416C142.409 135.779 142.862 136.275 143.182 136.904C143.513 137.533 143.678 138.248 143.678 139.048C143.678 139.848 143.513 140.563 143.182 141.192C142.862 141.811 142.404 142.301 141.806 142.664C141.22 143.016 140.532 143.192 139.742 143.192C139.092 143.192 138.51 143.059 137.998 142.792C137.497 142.525 137.113 142.152 136.846 141.672V146.52H135.502ZM139.598 142.024C140.132 142.024 140.601 141.901 141.006 141.656C141.412 141.4 141.732 141.048 141.966 140.6C142.201 140.152 142.318 139.629 142.318 139.032C142.318 138.435 142.201 137.912 141.966 137.464C141.732 137.016 141.412 136.669 141.006 136.424C140.601 136.168 140.132 136.04 139.598 136.04C139.065 136.04 138.596 136.168 138.19 136.424C137.785 136.669 137.465 137.016 137.23 137.464C136.996 137.912 136.878 138.435 136.878 139.032C136.878 139.629 136.996 140.152 137.23 140.6C137.465 141.048 137.785 141.4 138.19 141.656C138.596 141.901 139.065 142.024 139.598 142.024ZM149.597 143.192C148.84 143.192 148.168 143.021 147.581 142.68C146.995 142.328 146.531 141.843 146.189 141.224C145.859 140.605 145.693 139.875 145.693 139.032C145.693 138.2 145.859 137.475 146.189 136.856C146.52 136.227 146.979 135.741 147.565 135.4C148.163 135.048 148.851 134.872 149.629 134.872C150.397 134.872 151.059 135.048 151.613 135.4C152.179 135.741 152.611 136.195 152.909 136.76C153.208 137.325 153.357 137.933 153.357 138.584C153.357 138.701 153.352 138.819 153.341 138.936C153.341 139.053 153.341 139.187 153.341 139.336H147.021C147.053 139.944 147.192 140.451 147.437 140.856C147.693 141.251 148.008 141.549 148.381 141.752C148.765 141.955 149.171 142.056 149.597 142.056C150.152 142.056 150.616 141.928 150.989 141.672C151.363 141.416 151.635 141.069 151.805 140.632H153.133C152.92 141.368 152.509 141.981 151.901 142.472C151.304 142.952 150.536 143.192 149.597 143.192ZM149.597 136.008C148.957 136.008 148.387 136.205 147.885 136.6C147.395 136.984 147.112 137.549 147.037 138.296H152.029C151.997 137.581 151.752 137.021 151.293 136.616C150.835 136.211 150.269 136.008 149.597 136.008ZM163.469 143C162.744 143 162.173 142.824 161.757 142.472C161.341 142.12 161.133 141.485 161.133 140.568V136.2H159.757V135.064H161.133L161.309 133.16H162.477V135.064H164.813V136.2H162.477V140.568C162.477 141.069 162.578 141.411 162.781 141.592C162.984 141.763 163.341 141.848 163.853 141.848H164.685V143H163.469ZM170.398 143.192C169.651 143.192 168.979 143.021 168.382 142.68C167.784 142.339 167.31 141.859 166.958 141.24C166.616 140.611 166.446 139.875 166.446 139.032C166.446 138.189 166.622 137.459 166.974 136.84C167.326 136.211 167.8 135.725 168.398 135.384C169.006 135.043 169.683 134.872 170.43 134.872C171.176 134.872 171.848 135.043 172.446 135.384C173.043 135.725 173.512 136.211 173.854 136.84C174.206 137.459 174.382 138.189 174.382 139.032C174.382 139.875 174.206 140.611 173.854 141.24C173.502 141.859 173.022 142.339 172.414 142.68C171.816 143.021 171.144 143.192 170.398 143.192ZM170.398 142.04C170.856 142.04 171.283 141.928 171.678 141.704C172.072 141.48 172.392 141.144 172.638 140.696C172.883 140.248 173.006 139.693 173.006 139.032C173.006 138.371 172.883 137.816 172.638 137.368C172.403 136.92 172.088 136.584 171.694 136.36C171.299 136.136 170.878 136.024 170.43 136.024C169.971 136.024 169.544 136.136 169.15 136.36C168.755 136.584 168.435 136.92 168.19 137.368C167.944 137.816 167.822 138.371 167.822 139.032C167.822 139.693 167.944 140.248 168.19 140.696C168.435 141.144 168.75 141.48 169.134 141.704C169.528 141.928 169.95 142.04 170.398 142.04ZM76.9371 165.52V154.064H78.1531L78.2811 155.376C78.5371 154.992 78.8998 154.645 79.3691 154.336C79.8491 154.027 80.4571 153.872 81.1931 153.872C81.9825 153.872 82.6705 154.053 83.2571 154.416C83.8438 154.779 84.2971 155.275 84.6171 155.904C84.9478 156.533 85.1131 157.248 85.1131 158.048C85.1131 158.848 84.9478 159.563 84.6171 160.192C84.2971 160.811 83.8385 161.301 83.2411 161.664C82.6545 162.016 81.9665 162.192 81.1771 162.192C80.5265 162.192 79.9451 162.059 79.4331 161.792C78.9318 161.525 78.5478 161.152 78.2811 160.672V165.52H76.9371ZM81.0331 161.024C81.5665 161.024 82.0358 160.901 82.4411 160.656C82.8465 160.4 83.1665 160.048 83.4011 159.6C83.6358 159.152 83.7531 158.629 83.7531 158.032C83.7531 157.435 83.6358 156.912 83.4011 156.464C83.1665 156.016 82.8465 155.669 82.4411 155.424C82.0358 155.168 81.5665 155.04 81.0331 155.04C80.4998 155.04 80.0305 155.168 79.6251 155.424C79.2198 155.669 78.8998 156.016 78.6651 156.464C78.4305 156.912 78.3131 157.435 78.3131 158.032C78.3131 158.629 78.4305 159.152 78.6651 159.6C78.8998 160.048 79.2198 160.4 79.6251 160.656C80.0305 160.901 80.4998 161.024 81.0331 161.024ZM87.464 162V154.064H88.68L88.792 155.584C89.0373 155.061 89.4107 154.645 89.912 154.336C90.4133 154.027 91.032 153.872 91.768 153.872V155.28H91.4C90.9307 155.28 90.4987 155.365 90.104 155.536C89.7093 155.696 89.3947 155.973 89.16 156.368C88.9253 156.763 88.808 157.307 88.808 158V162H87.464ZM97.0756 162.192C96.329 162.192 95.657 162.021 95.0596 161.68C94.4623 161.339 93.9876 160.859 93.6356 160.24C93.2943 159.611 93.1236 158.875 93.1236 158.032C93.1236 157.189 93.2996 156.459 93.6516 155.84C94.0036 155.211 94.4783 154.725 95.0756 154.384C95.6836 154.043 96.361 153.872 97.1076 153.872C97.8543 153.872 98.5263 154.043 99.1236 154.384C99.721 154.725 100.19 155.211 100.532 155.84C100.884 156.459 101.06 157.189 101.06 158.032C101.06 158.875 100.884 159.611 100.532 160.24C100.18 160.859 99.6996 161.339 99.0916 161.68C98.4943 162.021 97.8223 162.192 97.0756 162.192ZM97.0756 161.04C97.5343 161.04 97.961 160.928 98.3556 160.704C98.7503 160.48 99.0703 160.144 99.3156 159.696C99.561 159.248 99.6836 158.693 99.6836 158.032C99.6836 157.371 99.561 156.816 99.3156 156.368C99.081 155.92 98.7663 155.584 98.3716 155.36C97.977 155.136 97.5556 155.024 97.1076 155.024C96.649 155.024 96.2223 155.136 95.8276 155.36C95.433 155.584 95.113 155.92 94.8676 156.368C94.6223 156.816 94.4996 157.371 94.4996 158.032C94.4996 158.693 94.6223 159.248 94.8676 159.696C95.113 160.144 95.4276 160.48 95.8116 160.704C96.2063 160.928 96.6276 161.04 97.0756 161.04ZM105.29 162L102.282 154.064H103.69L106.074 160.704L108.474 154.064H109.85L106.842 162H105.29ZM112.642 152.304C112.375 152.304 112.151 152.219 111.97 152.048C111.799 151.867 111.714 151.643 111.714 151.376C111.714 151.12 111.799 150.907 111.97 150.736C112.151 150.565 112.375 150.48 112.642 150.48C112.898 150.48 113.117 150.565 113.298 150.736C113.479 150.907 113.57 151.12 113.57 151.376C113.57 151.643 113.479 151.867 113.298 152.048C113.117 152.219 112.898 152.304 112.642 152.304ZM111.97 162V154.064H113.314V162H111.97ZM119.734 162.192C118.945 162.192 118.251 162.011 117.654 161.648C117.067 161.285 116.609 160.789 116.278 160.16C115.958 159.531 115.798 158.816 115.798 158.016C115.798 157.216 115.963 156.507 116.294 155.888C116.625 155.259 117.083 154.768 117.67 154.416C118.257 154.053 118.95 153.872 119.75 153.872C120.401 153.872 120.977 154.005 121.478 154.272C121.979 154.539 122.369 154.912 122.646 155.392V150.48H123.99V162H122.774L122.646 160.688C122.39 161.072 122.022 161.419 121.542 161.728C121.062 162.037 120.459 162.192 119.734 162.192ZM119.878 161.024C120.411 161.024 120.881 160.901 121.286 160.656C121.702 160.4 122.022 160.048 122.246 159.6C122.481 159.152 122.598 158.629 122.598 158.032C122.598 157.435 122.481 156.912 122.246 156.464C122.022 156.016 121.702 155.669 121.286 155.424C120.881 155.168 120.411 155.04 119.878 155.04C119.355 155.04 118.886 155.168 118.47 155.424C118.065 155.669 117.745 156.016 117.51 156.464C117.286 156.912 117.174 157.435 117.174 158.032C117.174 158.629 117.286 159.152 117.51 159.6C117.745 160.048 118.065 160.4 118.47 160.656C118.886 160.901 119.355 161.024 119.878 161.024ZM130.229 162.192C129.472 162.192 128.8 162.021 128.213 161.68C127.626 161.328 127.162 160.843 126.821 160.224C126.49 159.605 126.325 158.875 126.325 158.032C126.325 157.2 126.49 156.475 126.821 155.856C127.152 155.227 127.61 154.741 128.197 154.4C128.794 154.048 129.482 153.872 130.261 153.872C131.029 153.872 131.69 154.048 132.245 154.4C132.81 154.741 133.242 155.195 133.541 155.76C133.84 156.325 133.989 156.933 133.989 157.584C133.989 157.701 133.984 157.819 133.973 157.936C133.973 158.053 133.973 158.187 133.973 158.336H127.653C127.685 158.944 127.824 159.451 128.069 159.856C128.325 160.251 128.64 160.549 129.013 160.752C129.397 160.955 129.802 161.056 130.229 161.056C130.784 161.056 131.248 160.928 131.621 160.672C131.994 160.416 132.266 160.069 132.437 159.632H133.765C133.552 160.368 133.141 160.981 132.533 161.472C131.936 161.952 131.168 162.192 130.229 162.192ZM130.229 155.008C129.589 155.008 129.018 155.205 128.517 155.6C128.026 155.984 127.744 156.549 127.669 157.296H132.661C132.629 156.581 132.384 156.021 131.925 155.616C131.466 155.211 130.901 155.008 130.229 155.008ZM143.605 162.192C142.943 162.192 142.394 162.08 141.957 161.856C141.519 161.632 141.194 161.333 140.981 160.96C140.767 160.587 140.661 160.181 140.661 159.744C140.661 158.933 140.97 158.309 141.589 157.872C142.207 157.435 143.05 157.216 144.117 157.216H146.261V157.12C146.261 156.427 146.079 155.904 145.717 155.552C145.354 155.189 144.869 155.008 144.261 155.008C143.738 155.008 143.285 155.141 142.901 155.408C142.527 155.664 142.293 156.043 142.197 156.544H140.821C140.874 155.968 141.066 155.483 141.397 155.088C141.738 154.693 142.159 154.395 142.661 154.192C143.162 153.979 143.695 153.872 144.261 153.872C145.37 153.872 146.202 154.171 146.757 154.768C147.322 155.355 147.605 156.139 147.605 157.12V162H146.405L146.325 160.576C146.101 161.024 145.77 161.408 145.333 161.728C144.906 162.037 144.33 162.192 143.605 162.192ZM143.813 161.056C144.325 161.056 144.762 160.923 145.125 160.656C145.498 160.389 145.781 160.043 145.973 159.616C146.165 159.189 146.261 158.741 146.261 158.272V158.256H144.229C143.439 158.256 142.879 158.395 142.549 158.672C142.229 158.939 142.069 159.275 142.069 159.68C142.069 160.096 142.218 160.432 142.517 160.688C142.826 160.933 143.258 161.056 143.813 161.056ZM154.815 162V154.064H156.031L156.111 155.488C156.367 154.987 156.735 154.592 157.215 154.304C157.695 154.016 158.239 153.872 158.847 153.872C159.786 153.872 160.533 154.16 161.087 154.736C161.653 155.301 161.935 156.176 161.935 157.36V162H160.591V157.504C160.591 155.851 159.909 155.024 158.543 155.024C157.861 155.024 157.29 155.275 156.831 155.776C156.383 156.267 156.159 156.971 156.159 157.888V162H154.815ZM168.02 162.192C167.262 162.192 166.59 162.021 166.004 161.68C165.417 161.328 164.953 160.843 164.612 160.224C164.281 159.605 164.116 158.875 164.116 158.032C164.116 157.2 164.281 156.475 164.612 155.856C164.942 155.227 165.401 154.741 165.988 154.4C166.585 154.048 167.273 153.872 168.052 153.872C168.82 153.872 169.481 154.048 170.036 154.4C170.601 154.741 171.033 155.195 171.332 155.76C171.63 156.325 171.78 156.933 171.78 157.584C171.78 157.701 171.774 157.819 171.764 157.936C171.764 158.053 171.764 158.187 171.764 158.336H165.444C165.476 158.944 165.614 159.451 165.86 159.856C166.116 160.251 166.43 160.549 166.804 160.752C167.188 160.955 167.593 161.056 168.02 161.056C168.574 161.056 169.038 160.928 169.412 160.672C169.785 160.416 170.057 160.069 170.228 159.632H171.556C171.342 160.368 170.932 160.981 170.324 161.472C169.726 161.952 168.958 162.192 168.02 162.192ZM168.02 155.008C167.38 155.008 166.809 155.205 166.308 155.6C165.817 155.984 165.534 156.549 165.46 157.296H170.452C170.42 156.581 170.174 156.021 169.716 155.616C169.257 155.211 168.692 155.008 168.02 155.008ZM175.328 162L173.008 154.064H174.352L176.032 160.288L177.888 154.064H179.408L181.28 160.288L182.944 154.064H184.304L181.984 162H180.608L178.656 155.456L176.704 162H175.328ZM75.2294 181.192C74.4827 181.192 73.8107 181.021 73.2134 180.68C72.616 180.339 72.1414 179.859 71.7894 179.24C71.448 178.611 71.2774 177.875 71.2774 177.032C71.2774 176.189 71.4534 175.459 71.8054 174.84C72.1574 174.211 72.632 173.725 73.2294 173.384C73.8374 173.043 74.5147 172.872 75.2614 172.872C76.008 172.872 76.68 173.043 77.2774 173.384C77.8747 173.725 78.344 174.211 78.6854 174.84C79.0374 175.459 79.2134 176.189 79.2134 177.032C79.2134 177.875 79.0374 178.611 78.6854 179.24C78.3334 179.859 77.8534 180.339 77.2454 180.68C76.648 181.021 75.976 181.192 75.2294 181.192ZM75.2294 180.04C75.688 180.04 76.1147 179.928 76.5094 179.704C76.904 179.48 77.224 179.144 77.4694 178.696C77.7147 178.248 77.8374 177.693 77.8374 177.032C77.8374 176.371 77.7147 175.816 77.4694 175.368C77.2347 174.92 76.92 174.584 76.5254 174.36C76.1307 174.136 75.7094 174.024 75.2614 174.024C74.8027 174.024 74.376 174.136 73.9814 174.36C73.5867 174.584 73.2667 174.92 73.0214 175.368C72.776 175.816 72.6534 176.371 72.6534 177.032C72.6534 177.693 72.776 178.248 73.0214 178.696C73.2667 179.144 73.5814 179.48 73.9654 179.704C74.36 179.928 74.7814 180.04 75.2294 180.04ZM81.5621 184.52V173.064H82.7781L82.9061 174.376C83.1621 173.992 83.5248 173.645 83.9941 173.336C84.4741 173.027 85.0821 172.872 85.8181 172.872C86.6075 172.872 87.2955 173.053 87.8821 173.416C88.4688 173.779 88.9221 174.275 89.2421 174.904C89.5728 175.533 89.7381 176.248 89.7381 177.048C89.7381 177.848 89.5728 178.563 89.2421 179.192C88.9221 179.811 88.4635 180.301 87.8661 180.664C87.2795 181.016 86.5915 181.192 85.8021 181.192C85.1515 181.192 84.5701 181.059 84.0581 180.792C83.5568 180.525 83.1728 180.152 82.9061 179.672V184.52H81.5621ZM85.6581 180.024C86.1915 180.024 86.6608 179.901 87.0661 179.656C87.4715 179.4 87.7915 179.048 88.0261 178.6C88.2608 178.152 88.3781 177.629 88.3781 177.032C88.3781 176.435 88.2608 175.912 88.0261 175.464C87.7915 175.016 87.4715 174.669 87.0661 174.424C86.6608 174.168 86.1915 174.04 85.6581 174.04C85.1248 174.04 84.6555 174.168 84.2501 174.424C83.8448 174.669 83.5248 175.016 83.2901 175.464C83.0555 175.912 82.9381 176.435 82.9381 177.032C82.9381 177.629 83.0555 178.152 83.2901 178.6C83.5248 179.048 83.8448 179.4 84.2501 179.656C84.6555 179.901 85.1248 180.024 85.6581 180.024ZM92.089 184.52V173.064H93.305L93.433 174.376C93.689 173.992 94.0517 173.645 94.521 173.336C95.001 173.027 95.609 172.872 96.345 172.872C97.1343 172.872 97.8223 173.053 98.409 173.416C98.9957 173.779 99.449 174.275 99.769 174.904C100.1 175.533 100.265 176.248 100.265 177.048C100.265 177.848 100.1 178.563 99.769 179.192C99.449 179.811 98.9903 180.301 98.393 180.664C97.8063 181.016 97.1183 181.192 96.329 181.192C95.6783 181.192 95.097 181.059 94.585 180.792C94.0837 180.525 93.6997 180.152 93.433 179.672V184.52H92.089ZM96.185 180.024C96.7183 180.024 97.1877 179.901 97.593 179.656C97.9983 179.4 98.3183 179.048 98.553 178.6C98.7877 178.152 98.905 177.629 98.905 177.032C98.905 176.435 98.7877 175.912 98.553 175.464C98.3183 175.016 97.9983 174.669 97.593 174.424C97.1877 174.168 96.7183 174.04 96.185 174.04C95.6517 174.04 95.1823 174.168 94.777 174.424C94.3717 174.669 94.0517 175.016 93.817 175.464C93.5823 175.912 93.465 176.435 93.465 177.032C93.465 177.629 93.5823 178.152 93.817 178.6C94.0517 179.048 94.3717 179.4 94.777 179.656C95.1823 179.901 95.6517 180.024 96.185 180.024ZM106.232 181.192C105.485 181.192 104.813 181.021 104.216 180.68C103.619 180.339 103.144 179.859 102.792 179.24C102.451 178.611 102.28 177.875 102.28 177.032C102.28 176.189 102.456 175.459 102.808 174.84C103.16 174.211 103.635 173.725 104.232 173.384C104.84 173.043 105.517 172.872 106.264 172.872C107.011 172.872 107.683 173.043 108.28 173.384C108.877 173.725 109.347 174.211 109.688 174.84C110.04 175.459 110.216 176.189 110.216 177.032C110.216 177.875 110.04 178.611 109.688 179.24C109.336 179.859 108.856 180.339 108.248 180.68C107.651 181.021 106.979 181.192 106.232 181.192ZM106.232 180.04C106.691 180.04 107.117 179.928 107.512 179.704C107.907 179.48 108.227 179.144 108.472 178.696C108.717 178.248 108.84 177.693 108.84 177.032C108.84 176.371 108.717 175.816 108.472 175.368C108.237 174.92 107.923 174.584 107.528 174.36C107.133 174.136 106.712 174.024 106.264 174.024C105.805 174.024 105.379 174.136 104.984 174.36C104.589 174.584 104.269 174.92 104.024 175.368C103.779 175.816 103.656 176.371 103.656 177.032C103.656 177.693 103.779 178.248 104.024 178.696C104.269 179.144 104.584 179.48 104.968 179.704C105.363 179.928 105.784 180.04 106.232 180.04ZM112.565 181V173.064H113.781L113.893 174.584C114.138 174.061 114.511 173.645 115.013 173.336C115.514 173.027 116.133 172.872 116.869 172.872V174.28H116.501C116.031 174.28 115.599 174.365 115.205 174.536C114.81 174.696 114.495 174.973 114.261 175.368C114.026 175.763 113.909 176.307 113.909 177V181H112.565ZM121.993 181C121.268 181 120.697 180.824 120.281 180.472C119.865 180.12 119.657 179.485 119.657 178.568V174.2H118.281V173.064H119.657L119.833 171.16H121.001V173.064H123.337V174.2H121.001V178.568C121.001 179.069 121.102 179.411 121.305 179.592C121.508 179.763 121.865 179.848 122.377 179.848H123.209V181H121.993ZM128.421 181.192C127.482 181.192 126.735 180.909 126.181 180.344C125.626 179.768 125.349 178.888 125.349 177.704V173.064H126.693V177.56C126.693 179.213 127.37 180.04 128.725 180.04C129.418 180.04 129.989 179.795 130.437 179.304C130.895 178.803 131.125 178.093 131.125 177.176V173.064H132.469V181H131.253L131.157 179.576C130.911 180.077 130.543 180.472 130.053 180.76C129.573 181.048 129.029 181.192 128.421 181.192ZM135.161 181V173.064H136.377L136.457 174.488C136.713 173.987 137.081 173.592 137.561 173.304C138.041 173.016 138.585 172.872 139.193 172.872C140.132 172.872 140.878 173.16 141.433 173.736C141.998 174.301 142.281 175.176 142.281 176.36V181H140.937V176.504C140.937 174.851 140.254 174.024 138.889 174.024C138.206 174.024 137.636 174.275 137.177 174.776C136.729 175.267 136.505 175.971 136.505 176.888V181H135.161ZM145.613 171.304C145.346 171.304 145.122 171.219 144.941 171.048C144.77 170.867 144.685 170.643 144.685 170.376C144.685 170.12 144.77 169.907 144.941 169.736C145.122 169.565 145.346 169.48 145.613 169.48C145.869 169.48 146.088 169.565 146.269 169.736C146.45 169.907 146.541 170.12 146.541 170.376C146.541 170.643 146.45 170.867 146.269 171.048C146.088 171.219 145.869 171.304 145.613 171.304ZM144.941 181V173.064H146.285V181H144.941ZM152.241 181C151.516 181 150.945 180.824 150.529 180.472C150.113 180.12 149.905 179.485 149.905 178.568V174.2H148.529V173.064H149.905L150.081 171.16H151.249V173.064H153.585V174.2H151.249V178.568C151.249 179.069 151.351 179.411 151.553 179.592C151.756 179.763 152.113 179.848 152.625 179.848H153.457V181H152.241ZM156.637 184.52L158.605 180.232H158.141L154.989 173.064H156.445L159.069 179.24L161.853 173.064H163.245L158.045 184.52H156.637ZM170.29 181V174.2H169.09V173.064H170.29V171.688C170.29 170.92 170.482 170.36 170.866 170.008C171.25 169.656 171.81 169.48 172.546 169.48H173.346V170.632H172.754C172.348 170.632 172.06 170.717 171.89 170.888C171.719 171.048 171.634 171.325 171.634 171.72V173.064H173.586V174.2H171.634V181H170.29ZM178.969 181.192C178.223 181.192 177.551 181.021 176.953 180.68C176.356 180.339 175.881 179.859 175.529 179.24C175.188 178.611 175.017 177.875 175.017 177.032C175.017 176.189 175.193 175.459 175.545 174.84C175.897 174.211 176.372 173.725 176.969 173.384C177.577 173.043 178.255 172.872 179.001 172.872C179.748 172.872 180.42 173.043 181.017 173.384C181.615 173.725 182.084 174.211 182.425 174.84C182.777 175.459 182.953 176.189 182.953 177.032C182.953 177.875 182.777 178.611 182.425 179.24C182.073 179.859 181.593 180.339 180.985 180.68C180.388 181.021 179.716 181.192 178.969 181.192ZM178.969 180.04C179.428 180.04 179.855 179.928 180.249 179.704C180.644 179.48 180.964 179.144 181.209 178.696C181.455 178.248 181.577 177.693 181.577 177.032C181.577 176.371 181.455 175.816 181.209 175.368C180.975 174.92 180.66 174.584 180.265 174.36C179.871 174.136 179.449 174.024 179.001 174.024C178.543 174.024 178.116 174.136 177.721 174.36C177.327 174.584 177.007 174.92 176.761 175.368C176.516 175.816 176.393 176.371 176.393 177.032C176.393 177.693 176.516 178.248 176.761 178.696C177.007 179.144 177.321 179.48 177.705 179.704C178.1 179.928 178.521 180.04 178.969 180.04ZM185.302 181V173.064H186.518L186.63 174.584C186.875 174.061 187.249 173.645 187.75 173.336C188.251 173.027 188.87 172.872 189.606 172.872V174.28H189.238C188.769 174.28 188.337 174.365 187.942 174.536C187.547 174.696 187.233 174.973 186.998 175.368C186.763 175.763 186.646 176.307 186.646 177V181H185.302ZM59.9403 203.52V192.064H61.1563L61.2843 193.376C61.5403 192.992 61.9029 192.645 62.3723 192.336C62.8523 192.027 63.4603 191.872 64.1963 191.872C64.9856 191.872 65.6736 192.053 66.2603 192.416C66.8469 192.779 67.3003 193.275 67.6203 193.904C67.9509 194.533 68.1163 195.248 68.1163 196.048C68.1163 196.848 67.9509 197.563 67.6203 198.192C67.3003 198.811 66.8416 199.301 66.2443 199.664C65.6576 200.016 64.9696 200.192 64.1803 200.192C63.5296 200.192 62.9483 200.059 62.4363 199.792C61.9349 199.525 61.5509 199.152 61.2843 198.672V203.52H59.9403ZM64.0363 199.024C64.5696 199.024 65.0389 198.901 65.4443 198.656C65.8496 198.4 66.1696 198.048 66.4043 197.6C66.6389 197.152 66.7563 196.629 66.7563 196.032C66.7563 195.435 66.6389 194.912 66.4043 194.464C66.1696 194.016 65.8496 193.669 65.4443 193.424C65.0389 193.168 64.5696 193.04 64.0363 193.04C63.5029 193.04 63.0336 193.168 62.6283 193.424C62.2229 193.669 61.9029 194.016 61.6683 194.464C61.4336 194.912 61.3163 195.435 61.3163 196.032C61.3163 196.629 61.4336 197.152 61.6683 197.6C61.9029 198.048 62.2229 198.4 62.6283 198.656C63.0336 198.901 63.5029 199.024 64.0363 199.024ZM74.0351 200.192C73.2778 200.192 72.6058 200.021 72.0191 199.68C71.4325 199.328 70.9685 198.843 70.6271 198.224C70.2965 197.605 70.1311 196.875 70.1311 196.032C70.1311 195.2 70.2965 194.475 70.6271 193.856C70.9578 193.227 71.4165 192.741 72.0031 192.4C72.6005 192.048 73.2885 191.872 74.0671 191.872C74.8351 191.872 75.4965 192.048 76.0511 192.4C76.6165 192.741 77.0485 193.195 77.3471 193.76C77.6458 194.325 77.7951 194.933 77.7951 195.584C77.7951 195.701 77.7898 195.819 77.7791 195.936C77.7791 196.053 77.7791 196.187 77.7791 196.336H71.4591C71.4911 196.944 71.6298 197.451 71.8751 197.856C72.1311 198.251 72.4458 198.549 72.8191 198.752C73.2031 198.955 73.6085 199.056 74.0351 199.056C74.5898 199.056 75.0538 198.928 75.4271 198.672C75.8005 198.416 76.0725 198.069 76.2431 197.632H77.5711C77.3578 198.368 76.9471 198.981 76.3391 199.472C75.7418 199.952 74.9738 200.192 74.0351 200.192ZM74.0351 193.008C73.3951 193.008 72.8245 193.205 72.3231 193.6C71.8325 193.984 71.5498 194.549 71.4751 195.296H76.4671C76.4351 194.581 76.1898 194.021 75.7311 193.616C75.2725 193.211 74.7071 193.008 74.0351 193.008ZM83.6725 200.192C82.9258 200.192 82.2538 200.021 81.6565 199.68C81.0592 199.339 80.5845 198.859 80.2325 198.24C79.8912 197.611 79.7205 196.875 79.7205 196.032C79.7205 195.189 79.8965 194.459 80.2485 193.84C80.6005 193.211 81.0752 192.725 81.6725 192.384C82.2805 192.043 82.9578 191.872 83.7045 191.872C84.4512 191.872 85.1232 192.043 85.7205 192.384C86.3178 192.725 86.7872 193.211 87.1285 193.84C87.4805 194.459 87.6565 195.189 87.6565 196.032C87.6565 196.875 87.4805 197.611 87.1285 198.24C86.7765 198.859 86.2965 199.339 85.6885 199.68C85.0912 200.021 84.4192 200.192 83.6725 200.192ZM83.6725 199.04C84.1312 199.04 84.5578 198.928 84.9525 198.704C85.3472 198.48 85.6672 198.144 85.9125 197.696C86.1578 197.248 86.2805 196.693 86.2805 196.032C86.2805 195.371 86.1578 194.816 85.9125 194.368C85.6778 193.92 85.3632 193.584 84.9685 193.36C84.5738 193.136 84.1525 193.024 83.7045 193.024C83.2458 193.024 82.8192 193.136 82.4245 193.36C82.0298 193.584 81.7098 193.92 81.4645 194.368C81.2192 194.816 81.0965 195.371 81.0965 196.032C81.0965 196.693 81.2192 197.248 81.4645 197.696C81.7098 198.144 82.0245 198.48 82.4085 198.704C82.8032 198.928 83.2245 199.04 83.6725 199.04ZM90.0053 203.52V192.064H91.2213L91.3493 193.376C91.6053 192.992 91.9679 192.645 92.4373 192.336C92.9173 192.027 93.5253 191.872 94.2613 191.872C95.0506 191.872 95.7386 192.053 96.3253 192.416C96.9119 192.779 97.3653 193.275 97.6853 193.904C98.0159 194.533 98.1813 195.248 98.1813 196.048C98.1813 196.848 98.0159 197.563 97.6853 198.192C97.3653 198.811 96.9066 199.301 96.3093 199.664C95.7226 200.016 95.0346 200.192 94.2453 200.192C93.5946 200.192 93.0133 200.059 92.5013 199.792C91.9999 199.525 91.6159 199.152 91.3493 198.672V203.52H90.0053ZM94.1013 199.024C94.6346 199.024 95.1039 198.901 95.5093 198.656C95.9146 198.4 96.2346 198.048 96.4693 197.6C96.7039 197.152 96.8213 196.629 96.8213 196.032C96.8213 195.435 96.7039 194.912 96.4693 194.464C96.2346 194.016 95.9146 193.669 95.5093 193.424C95.1039 193.168 94.6346 193.04 94.1013 193.04C93.5679 193.04 93.0986 193.168 92.6933 193.424C92.2879 193.669 91.9679 194.016 91.7333 194.464C91.4986 194.912 91.3813 195.435 91.3813 196.032C91.3813 196.629 91.4986 197.152 91.7333 197.6C91.9679 198.048 92.2879 198.4 92.6933 198.656C93.0986 198.901 93.5679 199.024 94.1013 199.024ZM100.532 200V188.48H101.876V200H100.532ZM108.127 200.192C107.37 200.192 106.698 200.021 106.111 199.68C105.524 199.328 105.06 198.843 104.719 198.224C104.388 197.605 104.223 196.875 104.223 196.032C104.223 195.2 104.388 194.475 104.719 193.856C105.05 193.227 105.508 192.741 106.095 192.4C106.692 192.048 107.38 191.872 108.159 191.872C108.927 191.872 109.588 192.048 110.143 192.4C110.708 192.741 111.14 193.195 111.439 193.76C111.738 194.325 111.887 194.933 111.887 195.584C111.887 195.701 111.882 195.819 111.871 195.936C111.871 196.053 111.871 196.187 111.871 196.336H105.551C105.583 196.944 105.722 197.451 105.967 197.856C106.223 198.251 106.538 198.549 106.911 198.752C107.295 198.955 107.7 199.056 108.127 199.056C108.682 199.056 109.146 198.928 109.519 198.672C109.892 198.416 110.164 198.069 110.335 197.632H111.663C111.45 198.368 111.039 198.981 110.431 199.472C109.834 199.952 109.066 200.192 108.127 200.192ZM108.127 193.008C107.487 193.008 106.916 193.205 106.415 193.6C105.924 193.984 105.642 194.549 105.567 195.296H110.559C110.527 194.581 110.282 194.021 109.823 193.616C109.364 193.211 108.799 193.008 108.127 193.008ZM113.076 201.904L114.004 198.368H115.396L114.004 201.904H113.076ZM122.187 200V192.064H123.403L123.515 193.584C123.76 193.061 124.133 192.645 124.635 192.336C125.136 192.027 125.755 191.872 126.491 191.872V193.28H126.123C125.653 193.28 125.221 193.365 124.827 193.536C124.432 193.696 124.117 193.973 123.883 194.368C123.648 194.763 123.531 195.307 123.531 196V200H122.187ZM131.75 200.192C130.993 200.192 130.321 200.021 129.734 199.68C129.147 199.328 128.683 198.843 128.342 198.224C128.011 197.605 127.846 196.875 127.846 196.032C127.846 195.2 128.011 194.475 128.342 193.856C128.673 193.227 129.131 192.741 129.718 192.4C130.315 192.048 131.003 191.872 131.782 191.872C132.55 191.872 133.211 192.048 133.766 192.4C134.331 192.741 134.763 193.195 135.062 193.76C135.361 194.325 135.51 194.933 135.51 195.584C135.51 195.701 135.505 195.819 135.494 195.936C135.494 196.053 135.494 196.187 135.494 196.336H129.174C129.206 196.944 129.345 197.451 129.59 197.856C129.846 198.251 130.161 198.549 130.534 198.752C130.918 198.955 131.323 199.056 131.75 199.056C132.305 199.056 132.769 198.928 133.142 198.672C133.515 198.416 133.787 198.069 133.958 197.632H135.286C135.073 198.368 134.662 198.981 134.054 199.472C133.457 199.952 132.689 200.192 131.75 200.192ZM131.75 193.008C131.11 193.008 130.539 193.205 130.038 193.6C129.547 193.984 129.265 194.549 129.19 195.296H134.182C134.15 194.581 133.905 194.021 133.446 193.616C132.987 193.211 132.422 193.008 131.75 193.008ZM140.861 197.504C140.413 197.504 140.002 197.445 139.629 197.328L138.829 198.08C138.946 198.165 139.09 198.24 139.261 198.304C139.442 198.357 139.698 198.411 140.029 198.464C140.359 198.507 140.823 198.555 141.421 198.608C142.487 198.683 143.25 198.928 143.709 199.344C144.167 199.76 144.397 200.304 144.397 200.976C144.397 201.435 144.269 201.872 144.013 202.288C143.767 202.704 143.383 203.045 142.861 203.312C142.349 203.579 141.687 203.712 140.877 203.712C140.162 203.712 139.527 203.616 138.973 203.424C138.418 203.243 137.986 202.96 137.677 202.576C137.367 202.203 137.213 201.728 137.213 201.152C137.213 200.853 137.293 200.528 137.453 200.176C137.613 199.835 137.911 199.509 138.349 199.2C138.114 199.104 137.911 199.003 137.741 198.896C137.581 198.779 137.431 198.651 137.293 198.512V198.144L138.653 196.8C138.023 196.267 137.709 195.563 137.709 194.688C137.709 194.165 137.831 193.691 138.077 193.264C138.322 192.837 138.679 192.501 139.149 192.256C139.618 192 140.189 191.872 140.861 191.872C141.319 191.872 141.735 191.936 142.109 192.064H145.037V193.072L143.549 193.136C143.858 193.584 144.013 194.101 144.013 194.688C144.013 195.211 143.885 195.685 143.629 196.112C143.383 196.539 143.026 196.88 142.557 197.136C142.098 197.381 141.533 197.504 140.861 197.504ZM140.861 196.4C141.426 196.4 141.874 196.256 142.205 195.968C142.546 195.669 142.717 195.243 142.717 194.688C142.717 194.144 142.546 193.728 142.205 193.44C141.874 193.141 141.426 192.992 140.861 192.992C140.285 192.992 139.826 193.141 139.485 193.44C139.154 193.728 138.989 194.144 138.989 194.688C138.989 195.243 139.154 195.669 139.485 195.968C139.826 196.256 140.285 196.4 140.861 196.4ZM138.525 201.024C138.525 201.557 138.749 201.952 139.197 202.208C139.645 202.475 140.205 202.608 140.877 202.608C141.538 202.608 142.066 202.464 142.461 202.176C142.866 201.888 143.069 201.504 143.069 201.024C143.069 200.683 142.93 200.384 142.653 200.128C142.375 199.883 141.863 199.739 141.117 199.696C140.53 199.653 140.023 199.6 139.597 199.536C139.159 199.771 138.871 200.021 138.733 200.288C138.594 200.565 138.525 200.811 138.525 201.024ZM149.673 200.192C149.011 200.192 148.462 200.08 148.025 199.856C147.587 199.632 147.262 199.333 147.049 198.96C146.835 198.587 146.729 198.181 146.729 197.744C146.729 196.933 147.038 196.309 147.657 195.872C148.275 195.435 149.118 195.216 150.185 195.216H152.329V195.12C152.329 194.427 152.147 193.904 151.785 193.552C151.422 193.189 150.937 193.008 150.329 193.008C149.806 193.008 149.353 193.141 148.969 193.408C148.595 193.664 148.361 194.043 148.265 194.544H146.889C146.942 193.968 147.134 193.483 147.465 193.088C147.806 192.693 148.227 192.395 148.729 192.192C149.23 191.979 149.763 191.872 150.329 191.872C151.438 191.872 152.27 192.171 152.825 192.768C153.39 193.355 153.673 194.139 153.673 195.12V200H152.473L152.393 198.576C152.169 199.024 151.838 199.408 151.401 199.728C150.974 200.037 150.398 200.192 149.673 200.192ZM149.881 199.056C150.393 199.056 150.83 198.923 151.193 198.656C151.566 198.389 151.849 198.043 152.041 197.616C152.233 197.189 152.329 196.741 152.329 196.272V196.256H150.297C149.507 196.256 148.947 196.395 148.617 196.672C148.297 196.939 148.137 197.275 148.137 197.68C148.137 198.096 148.286 198.432 148.585 198.688C148.894 198.933 149.326 199.056 149.881 199.056ZM156.169 200V192.064H157.385L157.497 193.584C157.742 193.061 158.116 192.645 158.617 192.336C159.118 192.027 159.737 191.872 160.473 191.872V193.28H160.105C159.636 193.28 159.204 193.365 158.809 193.536C158.414 193.696 158.1 193.973 157.865 194.368C157.63 194.763 157.513 195.307 157.513 196V200H156.169ZM165.765 200.192C164.975 200.192 164.282 200.011 163.685 199.648C163.098 199.285 162.639 198.789 162.309 198.16C161.989 197.531 161.829 196.816 161.829 196.016C161.829 195.216 161.994 194.507 162.325 193.888C162.655 193.259 163.114 192.768 163.701 192.416C164.287 192.053 164.981 191.872 165.781 191.872C166.431 191.872 167.007 192.005 167.509 192.272C168.01 192.539 168.399 192.912 168.677 193.392V188.48H170.021V200H168.805L168.677 198.688C168.421 199.072 168.053 199.419 167.573 199.728C167.093 200.037 166.49 200.192 165.765 200.192ZM165.909 199.024C166.442 199.024 166.911 198.901 167.317 198.656C167.733 198.4 168.053 198.048 168.277 197.6C168.511 197.152 168.629 196.629 168.629 196.032C168.629 195.435 168.511 194.912 168.277 194.464C168.053 194.016 167.733 193.669 167.317 193.424C166.911 193.168 166.442 193.04 165.909 193.04C165.386 193.04 164.917 193.168 164.501 193.424C164.095 193.669 163.775 194.016 163.541 194.464C163.317 194.912 163.205 195.435 163.205 196.032C163.205 196.629 163.317 197.152 163.541 197.6C163.775 198.048 164.095 198.4 164.501 198.656C164.917 198.901 165.386 199.024 165.909 199.024ZM172.692 200V188.48H174.036V200H172.692ZM180.286 200.192C179.529 200.192 178.857 200.021 178.27 199.68C177.684 199.328 177.22 198.843 176.878 198.224C176.548 197.605 176.382 196.875 176.382 196.032C176.382 195.2 176.548 194.475 176.878 193.856C177.209 193.227 177.668 192.741 178.254 192.4C178.852 192.048 179.54 191.872 180.318 191.872C181.086 191.872 181.748 192.048 182.302 192.4C182.868 192.741 183.3 193.195 183.598 193.76C183.897 194.325 184.046 194.933 184.046 195.584C184.046 195.701 184.041 195.819 184.03 195.936C184.03 196.053 184.03 196.187 184.03 196.336H177.71C177.742 196.944 177.881 197.451 178.126 197.856C178.382 198.251 178.697 198.549 179.07 198.752C179.454 198.955 179.86 199.056 180.286 199.056C180.841 199.056 181.305 198.928 181.678 198.672C182.052 198.416 182.324 198.069 182.494 197.632H183.822C183.609 198.368 183.198 198.981 182.59 199.472C181.993 199.952 181.225 200.192 180.286 200.192ZM180.286 193.008C179.646 193.008 179.076 193.205 178.574 193.6C178.084 193.984 177.801 194.549 177.726 195.296H182.718C182.686 194.581 182.441 194.021 181.982 193.616C181.524 193.211 180.958 193.008 180.286 193.008ZM189.348 200.192C188.398 200.192 187.609 199.952 186.98 199.472C186.35 198.992 185.982 198.341 185.876 197.52H187.252C187.337 197.936 187.556 198.299 187.908 198.608C188.27 198.907 188.756 199.056 189.364 199.056C189.929 199.056 190.345 198.939 190.612 198.704C190.878 198.459 191.012 198.171 191.012 197.84C191.012 197.36 190.836 197.04 190.484 196.88C190.142 196.72 189.657 196.576 189.028 196.448C188.601 196.363 188.174 196.24 187.748 196.08C187.321 195.92 186.964 195.696 186.676 195.408C186.388 195.109 186.244 194.72 186.244 194.24C186.244 193.547 186.5 192.981 187.012 192.544C187.534 192.096 188.238 191.872 189.124 191.872C189.966 191.872 190.654 192.085 191.188 192.512C191.732 192.928 192.046 193.525 192.132 194.304H190.804C190.75 193.899 190.574 193.584 190.276 193.36C189.988 193.125 189.598 193.008 189.108 193.008C188.628 193.008 188.254 193.109 187.988 193.312C187.732 193.515 187.604 193.781 187.604 194.112C187.604 194.432 187.769 194.683 188.1 194.864C188.441 195.045 188.9 195.2 189.476 195.328C189.966 195.435 190.43 195.568 190.868 195.728C191.316 195.877 191.678 196.107 191.956 196.416C192.244 196.715 192.388 197.152 192.388 197.728C192.398 198.443 192.126 199.035 191.572 199.504C191.028 199.963 190.286 200.192 189.348 200.192ZM197.828 200.192C196.878 200.192 196.089 199.952 195.46 199.472C194.83 198.992 194.462 198.341 194.356 197.52H195.732C195.817 197.936 196.036 198.299 196.388 198.608C196.75 198.907 197.236 199.056 197.844 199.056C198.409 199.056 198.825 198.939 199.092 198.704C199.358 198.459 199.492 198.171 199.492 197.84C199.492 197.36 199.316 197.04 198.964 196.88C198.622 196.72 198.137 196.576 197.508 196.448C197.081 196.363 196.654 196.24 196.228 196.08C195.801 195.92 195.444 195.696 195.156 195.408C194.868 195.109 194.724 194.72 194.724 194.24C194.724 193.547 194.98 192.981 195.492 192.544C196.014 192.096 196.718 191.872 197.604 191.872C198.446 191.872 199.134 192.085 199.668 192.512C200.212 192.928 200.526 193.525 200.612 194.304H199.284C199.23 193.899 199.054 193.584 198.756 193.36C198.468 193.125 198.078 193.008 197.588 193.008C197.108 193.008 196.734 193.109 196.468 193.312C196.212 193.515 196.084 193.781 196.084 194.112C196.084 194.432 196.249 194.683 196.58 194.864C196.921 195.045 197.38 195.2 197.956 195.328C198.446 195.435 198.91 195.568 199.348 195.728C199.796 195.877 200.158 196.107 200.436 196.416C200.724 196.715 200.868 197.152 200.868 197.728C200.878 198.443 200.606 199.035 200.052 199.504C199.508 199.963 198.766 200.192 197.828 200.192ZM73.2594 219.192C72.5127 219.192 71.8407 219.021 71.2434 218.68C70.646 218.339 70.1714 217.859 69.8194 217.24C69.478 216.611 69.3074 215.875 69.3074 215.032C69.3074 214.189 69.4834 213.459 69.8354 212.84C70.1874 212.211 70.662 211.725 71.2594 211.384C71.8674 211.043 72.5447 210.872 73.2914 210.872C74.038 210.872 74.71 211.043 75.3074 211.384C75.9047 211.725 76.374 212.211 76.7154 212.84C77.0674 213.459 77.2434 214.189 77.2434 215.032C77.2434 215.875 77.0674 216.611 76.7154 217.24C76.3634 217.859 75.8834 218.339 75.2754 218.68C74.678 219.021 74.006 219.192 73.2594 219.192ZM73.2594 218.04C73.718 218.04 74.1447 217.928 74.5394 217.704C74.934 217.48 75.254 217.144 75.4994 216.696C75.7447 216.248 75.8674 215.693 75.8674 215.032C75.8674 214.371 75.7447 213.816 75.4994 213.368C75.2647 212.92 74.95 212.584 74.5554 212.36C74.1607 212.136 73.7394 212.024 73.2914 212.024C72.8327 212.024 72.406 212.136 72.0114 212.36C71.6167 212.584 71.2967 212.92 71.0514 213.368C70.806 213.816 70.6834 214.371 70.6834 215.032C70.6834 215.693 70.806 216.248 71.0514 216.696C71.2967 217.144 71.6114 217.48 71.9954 217.704C72.39 217.928 72.8114 218.04 73.2594 218.04ZM80.0241 219V212.2H78.8241V211.064H80.0241V209.688C80.0241 208.92 80.2161 208.36 80.6001 208.008C80.9841 207.656 81.5441 207.48 82.2801 207.48H83.0801V208.632H82.4881C82.0828 208.632 81.7948 208.717 81.6241 208.888C81.4535 209.048 81.3681 209.325 81.3681 209.72V211.064H83.3201V212.2H81.3681V219H80.0241ZM93.1546 219.192C92.2053 219.192 91.416 218.952 90.7866 218.472C90.1573 217.992 89.7893 217.341 89.6826 216.52H91.0586C91.144 216.936 91.3626 217.299 91.7146 217.608C92.0773 217.907 92.5626 218.056 93.1706 218.056C93.736 218.056 94.152 217.939 94.4186 217.704C94.6853 217.459 94.8186 217.171 94.8186 216.84C94.8186 216.36 94.6426 216.04 94.2906 215.88C93.9493 215.72 93.464 215.576 92.8346 215.448C92.408 215.363 91.9813 215.24 91.5546 215.08C91.128 214.92 90.7706 214.696 90.4826 214.408C90.1946 214.109 90.0506 213.72 90.0506 213.24C90.0506 212.547 90.3066 211.981 90.8186 211.544C91.3413 211.096 92.0453 210.872 92.9306 210.872C93.7733 210.872 94.4613 211.085 94.9946 211.512C95.5386 211.928 95.8533 212.525 95.9386 213.304H94.6106C94.5573 212.899 94.3813 212.584 94.0826 212.36C93.7946 212.125 93.4053 212.008 92.9146 212.008C92.4346 212.008 92.0613 212.109 91.7946 212.312C91.5386 212.515 91.4106 212.781 91.4106 213.112C91.4106 213.432 91.576 213.683 91.9066 213.864C92.248 214.045 92.7066 214.2 93.2826 214.328C93.7733 214.435 94.2373 214.568 94.6746 214.728C95.1226 214.877 95.4853 215.107 95.7626 215.416C96.0506 215.715 96.1946 216.152 96.1946 216.728C96.2053 217.443 95.9333 218.035 95.3786 218.504C94.8346 218.963 94.0933 219.192 93.1546 219.192ZM98.5946 219V207.48H99.9386V214.408L103.187 211.064H104.835L101.315 214.648L105.283 219H103.571L99.9386 214.888V219H98.5946ZM107.953 209.304C107.686 209.304 107.462 209.219 107.281 209.048C107.11 208.867 107.025 208.643 107.025 208.376C107.025 208.12 107.11 207.907 107.281 207.736C107.462 207.565 107.686 207.48 107.953 207.48C108.209 207.48 108.428 207.565 108.609 207.736C108.79 207.907 108.881 208.12 108.881 208.376C108.881 208.643 108.79 208.867 108.609 209.048C108.428 209.219 108.209 209.304 107.953 209.304ZM107.281 219V211.064H108.625V219H107.281ZM111.445 219V207.48H112.789V219H111.445ZM115.472 219V207.48H116.816V219H115.472ZM124.213 219V207.48H125.557V219H124.213ZM131.808 219.192C131.051 219.192 130.379 219.021 129.792 218.68C129.206 218.328 128.742 217.843 128.4 217.224C128.07 216.605 127.904 215.875 127.904 215.032C127.904 214.2 128.07 213.475 128.4 212.856C128.731 212.227 129.19 211.741 129.776 211.4C130.374 211.048 131.062 210.872 131.84 210.872C132.608 210.872 133.27 211.048 133.824 211.4C134.39 211.741 134.822 212.195 135.12 212.76C135.419 213.325 135.568 213.933 135.568 214.584C135.568 214.701 135.563 214.819 135.552 214.936C135.552 215.053 135.552 215.187 135.552 215.336H129.232C129.264 215.944 129.403 216.451 129.648 216.856C129.904 217.251 130.219 217.549 130.592 217.752C130.976 217.955 131.382 218.056 131.808 218.056C132.363 218.056 132.827 217.928 133.2 217.672C133.574 217.416 133.846 217.069 134.016 216.632H135.344C135.131 217.368 134.72 217.981 134.112 218.472C133.515 218.952 132.747 219.192 131.808 219.192ZM131.808 212.008C131.168 212.008 130.598 212.205 130.096 212.6C129.606 212.984 129.323 213.549 129.248 214.296H134.24C134.208 213.581 133.963 213.021 133.504 212.616C133.046 212.211 132.48 212.008 131.808 212.008ZM139.805 219L136.797 211.064H138.205L140.589 217.704L142.989 211.064H144.365L141.357 219H139.805ZM149.503 219.192C148.745 219.192 148.073 219.021 147.487 218.68C146.9 218.328 146.436 217.843 146.095 217.224C145.764 216.605 145.599 215.875 145.599 215.032C145.599 214.2 145.764 213.475 146.095 212.856C146.425 212.227 146.884 211.741 147.471 211.4C148.068 211.048 148.756 210.872 149.535 210.872C150.303 210.872 150.964 211.048 151.519 211.4C152.084 211.741 152.516 212.195 152.815 212.76C153.113 213.325 153.263 213.933 153.263 214.584C153.263 214.701 153.257 214.819 153.247 214.936C153.247 215.053 153.247 215.187 153.247 215.336H146.927C146.959 215.944 147.097 216.451 147.343 216.856C147.599 217.251 147.913 217.549 148.287 217.752C148.671 217.955 149.076 218.056 149.503 218.056C150.057 218.056 150.521 217.928 150.895 217.672C151.268 217.416 151.54 217.069 151.711 216.632H153.039C152.825 217.368 152.415 217.981 151.807 218.472C151.209 218.952 150.441 219.192 149.503 219.192ZM149.503 212.008C148.863 212.008 148.292 212.205 147.791 212.6C147.3 212.984 147.017 213.549 146.943 214.296H151.935C151.903 213.581 151.657 213.021 151.199 212.616C150.74 212.211 150.175 212.008 149.503 212.008ZM155.524 219V207.48H156.868V219H155.524ZM166.905 219.192C166.244 219.192 165.695 219.08 165.257 218.856C164.82 218.632 164.495 218.333 164.281 217.96C164.068 217.587 163.961 217.181 163.961 216.744C163.961 215.933 164.271 215.309 164.889 214.872C165.508 214.435 166.351 214.216 167.417 214.216H169.561V214.12C169.561 213.427 169.38 212.904 169.017 212.552C168.655 212.189 168.169 212.008 167.561 212.008C167.039 212.008 166.585 212.141 166.201 212.408C165.828 212.664 165.593 213.043 165.497 213.544H164.121C164.175 212.968 164.367 212.483 164.697 212.088C165.039 211.693 165.46 211.395 165.961 211.192C166.463 210.979 166.996 210.872 167.561 210.872C168.671 210.872 169.503 211.171 170.057 211.768C170.623 212.355 170.905 213.139 170.905 214.12V219H169.705L169.625 217.576C169.401 218.024 169.071 218.408 168.633 218.728C168.207 219.037 167.631 219.192 166.905 219.192ZM167.113 218.056C167.625 218.056 168.063 217.923 168.425 217.656C168.799 217.389 169.081 217.043 169.273 216.616C169.465 216.189 169.561 215.741 169.561 215.272V215.256H167.529C166.74 215.256 166.18 215.395 165.849 215.672C165.529 215.939 165.369 216.275 165.369 216.68C165.369 217.096 165.519 217.432 165.817 217.688C166.127 217.933 166.559 218.056 167.113 218.056ZM173.402 219V211.064H174.618L174.698 212.488C174.954 211.987 175.322 211.592 175.802 211.304C176.282 211.016 176.826 210.872 177.434 210.872C178.372 210.872 179.119 211.16 179.674 211.736C180.239 212.301 180.522 213.176 180.522 214.36V219H179.178V214.504C179.178 212.851 178.495 212.024 177.13 212.024C176.447 212.024 175.876 212.275 175.418 212.776C174.97 213.267 174.746 213.971 174.746 214.888V219H173.402ZM186.638 219.192C185.848 219.192 185.155 219.011 184.558 218.648C183.971 218.285 183.512 217.789 183.182 217.16C182.862 216.531 182.702 215.816 182.702 215.016C182.702 214.216 182.867 213.507 183.198 212.888C183.528 212.259 183.987 211.768 184.574 211.416C185.16 211.053 185.854 210.872 186.654 210.872C187.304 210.872 187.88 211.005 188.382 211.272C188.883 211.539 189.272 211.912 189.55 212.392V207.48H190.894V219H189.678L189.55 217.688C189.294 218.072 188.926 218.419 188.446 218.728C187.966 219.037 187.363 219.192 186.638 219.192ZM186.782 218.024C187.315 218.024 187.784 217.901 188.19 217.656C188.606 217.4 188.926 217.048 189.15 216.6C189.384 216.152 189.502 215.629 189.502 215.032C189.502 214.435 189.384 213.912 189.15 213.464C188.926 213.016 188.606 212.669 188.19 212.424C187.784 212.168 187.315 212.04 186.782 212.04C186.259 212.04 185.79 212.168 185.374 212.424C184.968 212.669 184.648 213.016 184.414 213.464C184.19 213.912 184.078 214.435 184.078 215.032C184.078 215.629 184.19 216.152 184.414 216.6C184.648 217.048 184.968 217.4 185.374 217.656C185.79 217.901 186.259 218.024 186.782 218.024ZM87.6103 238.192C86.9596 238.192 86.3783 238.059 85.8663 237.792C85.3649 237.525 84.9809 237.152 84.7143 236.672L84.5863 238H83.3703V226.48H84.7143V231.376C84.9703 230.992 85.3329 230.645 85.8023 230.336C86.2823 230.027 86.8903 229.872 87.6263 229.872C88.4156 229.872 89.1036 230.053 89.6903 230.416C90.2769 230.779 90.7303 231.275 91.0503 231.904C91.3809 232.533 91.5463 233.248 91.5463 234.048C91.5463 234.848 91.3809 235.563 91.0503 236.192C90.7303 236.811 90.2716 237.301 89.6743 237.664C89.0876 238.016 88.3996 238.192 87.6103 238.192ZM87.4663 237.024C87.9996 237.024 88.4689 236.901 88.8743 236.656C89.2796 236.4 89.5996 236.048 89.8343 235.6C90.0689 235.152 90.1863 234.629 90.1863 234.032C90.1863 233.435 90.0689 232.912 89.8343 232.464C89.5996 232.016 89.2796 231.669 88.8743 231.424C88.4689 231.168 87.9996 231.04 87.4663 231.04C86.9329 231.04 86.4636 231.168 86.0583 231.424C85.6529 231.669 85.3329 232.016 85.0983 232.464C84.8636 232.912 84.7463 233.435 84.7463 234.032C84.7463 234.629 84.8636 235.152 85.0983 235.6C85.3329 236.048 85.6529 236.4 86.0583 236.656C86.4636 236.901 86.9329 237.024 87.4663 237.024ZM96.5371 238.192C95.8758 238.192 95.3265 238.08 94.8891 237.856C94.4518 237.632 94.1265 237.333 93.9131 236.96C93.6998 236.587 93.5931 236.181 93.5931 235.744C93.5931 234.933 93.9025 234.309 94.5211 233.872C95.1398 233.435 95.9825 233.216 97.0491 233.216H99.1931V233.12C99.1931 232.427 99.0118 231.904 98.6491 231.552C98.2865 231.189 97.8011 231.008 97.1931 231.008C96.6705 231.008 96.2171 231.141 95.8331 231.408C95.4598 231.664 95.2251 232.043 95.1291 232.544H93.7531C93.8065 231.968 93.9985 231.483 94.3291 231.088C94.6705 230.693 95.0918 230.395 95.5931 230.192C96.0945 229.979 96.6278 229.872 97.1931 229.872C98.3025 229.872 99.1345 230.171 99.6891 230.768C100.254 231.355 100.537 232.139 100.537 233.12V238H99.3371L99.2571 236.576C99.0331 237.024 98.7025 237.408 98.2651 237.728C97.8385 238.037 97.2625 238.192 96.5371 238.192ZM96.7451 237.056C97.2571 237.056 97.6945 236.923 98.0571 236.656C98.4305 236.389 98.7131 236.043 98.9051 235.616C99.0971 235.189 99.1931 234.741 99.1931 234.272V234.256H97.1611C96.3718 234.256 95.8118 234.395 95.4811 234.672C95.1611 234.939 95.0011 235.275 95.0011 235.68C95.0011 236.096 95.1505 236.432 95.4491 236.688C95.7585 236.933 96.1905 237.056 96.7451 237.056ZM106.681 238.192C105.924 238.192 105.241 238.021 104.633 237.68C104.036 237.328 103.561 236.843 103.209 236.224C102.868 235.595 102.697 234.864 102.697 234.032C102.697 233.2 102.868 232.475 103.209 231.856C103.561 231.227 104.036 230.741 104.633 230.4C105.241 230.048 105.924 229.872 106.681 229.872C107.62 229.872 108.409 230.117 109.049 230.608C109.7 231.099 110.111 231.755 110.281 232.576H108.905C108.799 232.085 108.537 231.707 108.121 231.44C107.705 231.163 107.22 231.024 106.665 231.024C106.217 231.024 105.796 231.136 105.401 231.36C105.007 231.584 104.687 231.92 104.441 232.368C104.196 232.816 104.073 233.371 104.073 234.032C104.073 234.693 104.196 235.248 104.441 235.696C104.687 236.144 105.007 236.485 105.401 236.72C105.796 236.944 106.217 237.056 106.665 237.056C107.22 237.056 107.705 236.923 108.121 236.656C108.537 236.379 108.799 235.989 108.905 235.488H110.281C110.121 236.288 109.716 236.939 109.065 237.44C108.415 237.941 107.62 238.192 106.681 238.192ZM112.638 238V226.48H113.982V233.408L117.23 230.064H118.878L115.358 233.648L119.326 238H117.614L113.982 233.888V238H112.638ZM124.317 235.504C123.869 235.504 123.458 235.445 123.085 235.328L122.285 236.08C122.402 236.165 122.546 236.24 122.717 236.304C122.898 236.357 123.154 236.411 123.485 236.464C123.816 236.507 124.28 236.555 124.877 236.608C125.944 236.683 126.706 236.928 127.165 237.344C127.624 237.76 127.853 238.304 127.853 238.976C127.853 239.435 127.725 239.872 127.469 240.288C127.224 240.704 126.84 241.045 126.317 241.312C125.805 241.579 125.144 241.712 124.333 241.712C123.618 241.712 122.984 241.616 122.429 241.424C121.874 241.243 121.442 240.96 121.133 240.576C120.824 240.203 120.669 239.728 120.669 239.152C120.669 238.853 120.749 238.528 120.909 238.176C121.069 237.835 121.368 237.509 121.805 237.2C121.57 237.104 121.368 237.003 121.197 236.896C121.037 236.779 120.888 236.651 120.749 236.512V236.144L122.109 234.8C121.48 234.267 121.165 233.563 121.165 232.688C121.165 232.165 121.288 231.691 121.533 231.264C121.778 230.837 122.136 230.501 122.605 230.256C123.074 230 123.645 229.872 124.317 229.872C124.776 229.872 125.192 229.936 125.565 230.064H128.493V231.072L127.005 231.136C127.314 231.584 127.469 232.101 127.469 232.688C127.469 233.211 127.341 233.685 127.085 234.112C126.84 234.539 126.482 234.88 126.013 235.136C125.554 235.381 124.989 235.504 124.317 235.504ZM124.317 234.4C124.882 234.4 125.33 234.256 125.661 233.968C126.002 233.669 126.173 233.243 126.173 232.688C126.173 232.144 126.002 231.728 125.661 231.44C125.33 231.141 124.882 230.992 124.317 230.992C123.741 230.992 123.282 231.141 122.941 231.44C122.61 231.728 122.445 232.144 122.445 232.688C122.445 233.243 122.61 233.669 122.941 233.968C123.282 234.256 123.741 234.4 124.317 234.4ZM121.981 239.024C121.981 239.557 122.205 239.952 122.653 240.208C123.101 240.475 123.661 240.608 124.333 240.608C124.994 240.608 125.522 240.464 125.917 240.176C126.322 239.888 126.525 239.504 126.525 239.024C126.525 238.683 126.386 238.384 126.109 238.128C125.832 237.883 125.32 237.739 124.573 237.696C123.986 237.653 123.48 237.6 123.053 237.536C122.616 237.771 122.328 238.021 122.189 238.288C122.05 238.565 121.981 238.811 121.981 239.024ZM130.489 238V230.064H131.705L131.817 231.584C132.062 231.061 132.436 230.645 132.937 230.336C133.438 230.027 134.057 229.872 134.793 229.872V231.28H134.425C133.956 231.28 133.524 231.365 133.129 231.536C132.734 231.696 132.42 231.973 132.185 232.368C131.95 232.763 131.833 233.307 131.833 234V238H130.489ZM140.101 238.192C139.354 238.192 138.682 238.021 138.085 237.68C137.487 237.339 137.013 236.859 136.661 236.24C136.319 235.611 136.149 234.875 136.149 234.032C136.149 233.189 136.325 232.459 136.677 231.84C137.029 231.211 137.503 230.725 138.101 230.384C138.709 230.043 139.386 229.872 140.133 229.872C140.879 229.872 141.551 230.043 142.149 230.384C142.746 230.725 143.215 231.211 143.557 231.84C143.909 232.459 144.085 233.189 144.085 234.032C144.085 234.875 143.909 235.611 143.557 236.24C143.205 236.859 142.725 237.339 142.117 237.68C141.519 238.021 140.847 238.192 140.101 238.192ZM140.101 237.04C140.559 237.04 140.986 236.928 141.381 236.704C141.775 236.48 142.095 236.144 142.341 235.696C142.586 235.248 142.709 234.693 142.709 234.032C142.709 233.371 142.586 232.816 142.341 232.368C142.106 231.92 141.791 231.584 141.397 231.36C141.002 231.136 140.581 231.024 140.133 231.024C139.674 231.024 139.247 231.136 138.853 231.36C138.458 231.584 138.138 231.92 137.893 232.368C137.647 232.816 137.525 233.371 137.525 234.032C137.525 234.693 137.647 235.248 137.893 235.696C138.138 236.144 138.453 236.48 138.837 236.704C139.231 236.928 139.653 237.04 140.101 237.04ZM149.329 238.192C148.391 238.192 147.644 237.909 147.089 237.344C146.535 236.768 146.257 235.888 146.257 234.704V230.064H147.601V234.56C147.601 236.213 148.279 237.04 149.633 237.04C150.327 237.04 150.897 236.795 151.345 236.304C151.804 235.803 152.033 235.093 152.033 234.176V230.064H153.377V238H152.161L152.065 236.576C151.82 237.077 151.452 237.472 150.961 237.76C150.481 238.048 149.937 238.192 149.329 238.192ZM156.07 238V230.064H157.286L157.366 231.488C157.622 230.987 157.99 230.592 158.47 230.304C158.95 230.016 159.494 229.872 160.102 229.872C161.04 229.872 161.787 230.16 162.342 230.736C162.907 231.301 163.19 232.176 163.19 233.36V238H161.846V233.504C161.846 231.851 161.163 231.024 159.798 231.024C159.115 231.024 158.544 231.275 158.086 231.776C157.638 232.267 157.414 232.971 157.414 233.888V238H156.07ZM169.306 238.192C168.517 238.192 167.823 238.011 167.226 237.648C166.639 237.285 166.181 236.789 165.85 236.16C165.53 235.531 165.37 234.816 165.37 234.016C165.37 233.216 165.535 232.507 165.866 231.888C166.197 231.259 166.655 230.768 167.242 230.416C167.829 230.053 168.522 229.872 169.322 229.872C169.973 229.872 170.549 230.005 171.05 230.272C171.551 230.539 171.941 230.912 172.218 231.392V226.48H173.562V238H172.346L172.218 236.688C171.962 237.072 171.594 237.419 171.114 237.728C170.634 238.037 170.031 238.192 169.306 238.192ZM169.45 237.024C169.983 237.024 170.453 236.901 170.858 236.656C171.274 236.4 171.594 236.048 171.818 235.6C172.053 235.152 172.17 234.629 172.17 234.032C172.17 233.435 172.053 232.912 171.818 232.464C171.594 232.016 171.274 231.669 170.858 231.424C170.453 231.168 169.983 231.04 169.45 231.04C168.927 231.04 168.458 231.168 168.042 231.424C167.637 231.669 167.317 232.016 167.082 232.464C166.858 232.912 166.746 233.435 166.746 234.032C166.746 234.629 166.858 235.152 167.082 235.6C167.317 236.048 167.637 236.4 168.042 236.656C168.458 236.901 168.927 237.024 169.45 237.024ZM176.697 238.08C176.43 238.08 176.206 237.995 176.025 237.824C175.854 237.643 175.769 237.424 175.769 237.168C175.769 236.912 175.854 236.699 176.025 236.528C176.206 236.347 176.43 236.256 176.697 236.256C176.953 236.256 177.166 236.347 177.337 236.528C177.518 236.699 177.609 236.912 177.609 237.168C177.609 237.424 177.518 237.643 177.337 237.824C177.166 237.995 176.953 238.08 176.697 238.08Z" fill="white"/>
</svg>
