<svg width="77" height="54" viewBox="0 0 77 54" fill="none" xmlns="http://www.w3.org/2000/svg">
<path d="M76.4294 16.0978C69.7706 39.6713 62.4343 44.8272 42.0167 46.565C40.7654 40.5301 45.8961 25.9878 76.4294 16.0978Z" fill="#BDA4D3"/>
<path d="M24.7156 23.6464C26.7919 21.1041 24.2537 15.5953 19.0463 11.3421C13.8389 7.08885 7.93412 5.70179 5.85773 8.244C3.78135 10.7862 6.31963 16.295 11.5271 20.5482C16.7345 24.8015 22.6392 26.1886 24.7156 23.6464Z" fill="#FBD59C"/>
<path d="M26.754 21.1573C26.7892 17.8751 21.3674 15.1559 14.6441 15.0839C7.92085 15.0119 2.44209 17.6143 2.40693 20.8965C2.37177 24.1787 7.79352 26.8979 14.5168 26.9699C21.24 27.0419 26.7188 24.4395 26.754 21.1573Z" fill="#FBD59C"/>
<path d="M27.7525 13.6817C27.8245 6.9584 25.2221 1.47956 21.9398 1.44441C18.6576 1.40925 15.9385 6.83109 15.8665 13.5544C15.7945 20.2776 18.3968 25.7564 21.6791 25.7916C24.9613 25.8267 27.6804 20.4049 27.7525 13.6817Z" fill="#FBD59C"/>
<path d="M31.9811 20.8601C37.2785 16.7194 39.9341 11.2662 37.9126 8.6801C35.8912 6.09399 29.9581 7.35427 24.6608 11.495C19.3634 15.6357 16.7078 21.0889 18.7292 23.675C20.7507 26.2611 26.6838 25.0008 31.9811 20.8601Z" fill="#FBD59C"/>
<path d="M41.0907 21.4005C41.1258 18.1182 35.7041 15.3991 28.9808 15.3271C22.2576 15.255 16.7788 17.8574 16.7436 21.1396C16.7084 24.4219 22.1302 27.141 28.8535 27.2131C35.5767 27.2851 41.0555 24.6827 41.0907 21.4005Z" fill="#FBD59C"/>
<path d="M18.8046 31.9419C24.102 27.8012 26.7577 22.348 24.7362 19.7619C22.7147 17.1758 16.7816 18.4361 11.4843 22.5768C6.18692 26.7175 3.5313 32.1707 5.55275 34.7568C7.57421 37.3429 13.5073 36.0827 18.8046 31.9419Z" fill="#FBD59C"/>
<path d="M27.5513 30.5559C27.6233 23.8327 25.0209 18.3539 21.7387 18.3187C18.4565 18.2836 15.7373 23.7054 15.6653 30.4286C15.5933 37.1519 18.1957 42.6307 21.4779 42.6658C24.7601 42.701 27.4793 37.2792 27.5513 30.5559Z" fill="#FBD59C"/>
<path d="M37.6097 35.0096C39.686 32.4674 37.1478 26.9586 31.9404 22.7053C26.7329 18.4521 20.8282 17.065 18.7518 19.6072C16.6754 22.1494 19.2137 27.6583 24.4211 31.9115C29.6286 36.1648 35.5333 37.5518 37.6097 35.0096Z" fill="#FBD59C"/>
</svg>
