<svg width="1284" height="7368" viewBox="0 0 1284 7368" fill="none" xmlns="http://www.w3.org/2000/svg">
<rect x="2" width="1280" height="7368" fill="#03113A"/>
<circle cx="213.123" cy="3932.06" r="3.98566" fill="#C4C4C4"/>
<circle cx="424.363" cy="3841.99" r="3.98566" fill="#C4C4C4"/>
<circle cx="344.251" cy="3875.86" r="1.99283" fill="#C4C4C4"/>
<circle cx="922.973" cy="4168.38" r="1.99283" fill="#C4C4C4"/>
<circle cx="501.286" cy="4018.55" r="1.99283" fill="#C4C4C4"/>
<circle cx="26.9928" cy="4022.54" r="1.99283" fill="#C4C4C4"/>
<circle cx="538.751" cy="4173.87" r="1.99283" fill="#C4C4C4"/>
<circle cx="1088.22" cy="4289.24" r="1.99283" fill="white"/>
<circle cx="691.334" cy="4169.61" r="1.1957" fill="white"/>
<circle cx="683.404" cy="4163.07" r="0.797131" fill="white"/>
<circle cx="988.333" cy="4064.98" r="1.99283" fill="#C4C4C4"/>
<circle cx="582.992" cy="3968.73" r="3.98566" fill="#C4C4C4"/>
<circle cx="32.9713" cy="4261.75" r="3.98566" fill="#C4C4C4"/>
<circle cx="344.251" cy="3875.86" r="1.99283" fill="#C4C4C4"/>
<circle cx="297.22" cy="3942.82" r="1.99283" fill="#C4C4C4"/>
<circle cx="1248.2" cy="3959.92" r="3.98566" fill="#C4C4C4"/>
<g clip-path="url(#clip0)">
<path d="M728.917 3995.89C730.242 3996.28 731.632 3995.52 732.023 3994.2C732.414 3992.87 731.658 3991.48 730.334 3991.09C729.01 3990.7 727.619 3991.46 727.228 3992.78C726.837 3994.1 727.593 3995.49 728.917 3995.89Z" fill="#C4C4C4"/>
</g>
<path d="M741 3868.26C742.381 3868.26 743.5 3867.14 743.5 3865.76C743.5 3864.38 742.381 3863.26 741 3863.26C739.619 3863.26 738.5 3864.38 738.5 3865.76C738.5 3867.14 739.619 3868.26 741 3868.26Z" fill="#C4C4C4"/>
<path d="M1065 1762.26C1066.38 1762.26 1067.5 1761.14 1067.5 1759.76C1067.5 1758.38 1066.38 1757.26 1065 1757.26C1063.62 1757.26 1062.5 1758.38 1062.5 1759.76C1062.5 1761.14 1063.62 1762.26 1065 1762.26Z" fill="#C4C4C4"/>
<path d="M1162.5 2701.26C1165.26 2701.26 1167.5 2699.02 1167.5 2696.26C1167.5 2693.5 1165.26 2691.26 1162.5 2691.26C1159.74 2691.26 1157.5 2693.5 1157.5 2696.26C1157.5 2699.02 1159.74 2701.26 1162.5 2701.26Z" fill="#C4C4C4"/>
<path d="M933.5 2589.26C936.261 2589.26 938.5 2587.02 938.5 2584.26C938.5 2581.5 936.261 2579.26 933.5 2579.26C930.739 2579.26 928.5 2581.5 928.5 2584.26C928.5 2587.02 930.739 2589.26 933.5 2589.26Z" fill="#C4C4C4"/>
<path d="M664.5 2845.26C667.261 2845.26 669.5 2843.02 669.5 2840.26C669.5 2837.5 667.261 2835.26 664.5 2835.26C661.739 2835.26 659.5 2837.5 659.5 2840.26C659.5 2843.02 661.739 2845.26 664.5 2845.26Z" fill="#C4C4C4"/>
<path d="M100.5 2514.26C103.261 2514.26 105.5 2512.02 105.5 2509.26C105.5 2506.5 103.261 2504.26 100.5 2504.26C97.7386 2504.26 95.5 2506.5 95.5 2509.26C95.5 2512.02 97.7386 2514.26 100.5 2514.26Z" fill="#C4C4C4"/>
<path d="M405.5 2747.26C408.261 2747.26 410.5 2745.02 410.5 2742.26C410.5 2739.5 408.261 2737.26 405.5 2737.26C402.739 2737.26 400.5 2739.5 400.5 2742.26C400.5 2745.02 402.739 2747.26 405.5 2747.26Z" fill="#C4C4C4"/>
<path d="M1155 1112.26C1156.38 1112.26 1157.5 1111.14 1157.5 1109.76C1157.5 1108.38 1156.38 1107.26 1155 1107.26C1153.62 1107.26 1152.5 1108.38 1152.5 1109.76C1152.5 1111.14 1153.62 1112.26 1155 1112.26Z" fill="#C4C4C4"/>
<path d="M1197 2491.26C1198.38 2491.26 1199.5 2490.14 1199.5 2488.76C1199.5 2487.38 1198.38 2486.26 1197 2486.26C1195.62 2486.26 1194.5 2487.38 1194.5 2488.76C1194.5 2490.14 1195.62 2491.26 1197 2491.26Z" fill="#C4C4C4"/>
<path d="M1166 3057.26C1167.38 3057.26 1168.5 3056.14 1168.5 3054.76C1168.5 3053.38 1167.38 3052.26 1166 3052.26C1164.62 3052.26 1163.5 3053.38 1163.5 3054.76C1163.5 3056.14 1164.62 3057.26 1166 3057.26Z" fill="#C4C4C4"/>
<path d="M621 2578.26C622.381 2578.26 623.5 2577.14 623.5 2575.76C623.5 2574.38 622.381 2573.26 621 2573.26C619.619 2573.26 618.5 2574.38 618.5 2575.76C618.5 2577.14 619.619 2578.26 621 2578.26Z" fill="#C4C4C4"/>
<path d="M642 3023.26C643.381 3023.26 644.5 3022.14 644.5 3020.76C644.5 3019.38 643.381 3018.26 642 3018.26C640.619 3018.26 639.5 3019.38 639.5 3020.76C639.5 3022.14 640.619 3023.26 642 3023.26Z" fill="#C4C4C4"/>
<path d="M287.5 1026.86C290.261 1026.86 292.5 1024.62 292.5 1021.86C292.5 1019.1 290.261 1016.86 287.5 1016.86C284.739 1016.86 282.5 1019.1 282.5 1021.86C282.5 1024.62 284.739 1026.86 287.5 1026.86Z" fill="#C4C4C4"/>
<path d="M1115.5 1392.86C1118.26 1392.86 1120.5 1390.62 1120.5 1387.86C1120.5 1385.1 1118.26 1382.86 1115.5 1382.86C1112.74 1382.86 1110.5 1385.1 1110.5 1387.86C1110.5 1390.62 1112.74 1392.86 1115.5 1392.86Z" fill="#C4C4C4"/>
<path d="M86.5 1204.86C89.2614 1204.86 91.5 1202.62 91.5 1199.86C91.5 1197.1 89.2614 1194.86 86.5 1194.86C83.7386 1194.86 81.5 1197.1 81.5 1199.86C81.5 1202.62 83.7386 1204.86 86.5 1204.86Z" fill="#C4C4C4"/>
<path d="M128 3526.26C129.381 3526.26 130.5 3525.14 130.5 3523.76C130.5 3522.38 129.381 3521.26 128 3521.26C126.619 3521.26 125.5 3522.38 125.5 3523.76C125.5 3525.14 126.619 3526.26 128 3526.26Z" fill="#C4C4C4"/>
<circle cx="68.5" cy="256.261" r="5" fill="#C4C4C4"/>
<circle cx="264.5" cy="127.261" r="5" fill="#C4C4C4"/>
<circle cx="529.5" cy="14.261" r="5" fill="#C4C4C4"/>
<circle cx="429" cy="56.761" r="2.5" fill="#C4C4C4"/>
<circle cx="1155.01" cy="423.724" r="2.5" fill="#C4C4C4"/>
<circle cx="626" cy="235.761" r="2.5" fill="#C4C4C4"/>
<circle cx="1268" cy="113.761" r="2.5" fill="#C4C4C4"/>
<circle cx="31" cy="240.761" r="2.5" fill="#C4C4C4"/>
<circle cx="673" cy="430.605" r="2.5" fill="#C4C4C4"/>
<circle cx="851.5" cy="432.389" r="2.5" fill="white"/>
<circle cx="864.415" cy="425.261" r="1.5" fill="white"/>
<circle cx="854.468" cy="417.062" r="1" fill="white"/>
<circle cx="1237" cy="294.003" r="2.5" fill="#C4C4C4"/>
<circle cx="728.5" cy="173.261" r="5" fill="#C4C4C4"/>
<circle cx="38.5" cy="540.859" r="5" fill="#C4C4C4"/>
<circle cx="429" cy="56.761" r="2.5" fill="#C4C4C4"/>
<circle cx="370" cy="140.761" r="2.5" fill="#C4C4C4"/>
<circle cx="1052.19" cy="19.261" r="5" fill="#C4C4C4"/>
<path d="M2 2392C158 2625.91 740.5 2427.45 1282 2622.87V2685.14C1198.67 2657.8 952.8 2628.03 636 2727.67C319.2 2827.31 81.33 2740.84 2 2685.14V2392Z" fill="#BDA4D3" fill-opacity="0.5"/>
<path d="M1282 2582.76C706.55 2495.16 173.134 2684.79 1.99996 2481.76" stroke="#F8E589" stroke-opacity="0.55" stroke-width="4"/>
<path d="M1283 2793.16C696.584 2591.66 457.211 2858.66 2.00007 2445.16" stroke="#FFF9DE" stroke-opacity="0.55" stroke-width="2"/>
<path d="M1283 492.318C1127 800.318 544.5 539 3 796.318V878.318C86.3333 842.318 332.2 803.118 649 934.318C965.8 1065.52 1203.67 951.652 1283 878.318V492.318Z" fill="#BDA4D3" fill-opacity="0.5"/>
<path d="M3.5 775.261C589 573.761 828 840.761 1282.5 427.261" stroke="#FFF9DE" stroke-opacity="0.55" stroke-width="2"/>
<path d="M2.5 757.261C577.5 672.261 1110.5 856.261 1281.5 659.261" stroke="#F8E589" stroke-opacity="0.55" stroke-width="4"/>
<defs>
<clipPath id="clip0">
<rect width="6" height="6" fill="white" transform="translate(727.531 3989.99) rotate(16.4565)"/>
</clipPath>
</defs>
</svg>
