<svg width="144" height="143" viewBox="0 0 144 143" fill="none" xmlns="http://www.w3.org/2000/svg">
<ellipse cx="72" cy="71.5" rx="72" ry="71.5" fill="#D5BDEA"/>
<path d="M55.0508 107.262H81.1345V140.459H55.0508V107.262Z" fill="#BDA4D3"/>
<path d="M81.2903 113.692C77.8378 117.541 67.7563 124.651 55.0508 122.292V117.132C57.3525 117.459 63.1528 117.918 67.9404 117.132C72.728 116.345 78.8352 109.924 81.2903 106.811V113.692Z" fill="#443B77" fill-opacity="0.69"/>
<circle cx="32.2275" cy="81.6782" r="14.2275" fill="#443B77"/>
<circle cx="32.2275" cy="81.6782" r="14.2275" fill="#443B77"/>
<circle cx="39.6379" cy="81.9607" r="3.55687" fill="#8E7EB1"/>
<circle cx="64.5359" cy="81.9607" r="3.55687" fill="#8E7EB1"/>
<rect x="47.5483" y="81.3682" width="2.62028" height="14.3295" rx="1.31014" transform="rotate(3.18848 47.5483 81.3682)" fill="#B57EB2"/>
<path fill-rule="evenodd" clip-rule="evenodd" d="M87.064 61.2167H77.322C77.1188 61.0428 76.9082 60.8657 76.6899 60.6856C59.2667 46.3115 43.8438 54.1742 36.8515 61.2167H36.1988C36.2798 61.1268 36.3605 61.0424 36.4407 60.9643C36.2678 61.0577 36.0785 61.1423 35.8752 61.2167H36.1988C34.5343 63.0666 32.7426 67.3111 31.9329 69.5782L31.9325 69.5751V69.5642L31.9314 69.5672L31.9325 69.5751V92.235L31.9323 92.3392L31.9325 92.4435V95.007H32.0715C33.4689 108.323 45.2149 118.719 59.498 118.719C73.4022 118.719 84.902 108.868 86.7916 96.0608C87.3628 96.1477 87.9488 96.1928 88.546 96.1928C94.6029 96.1928 99.513 91.5481 99.513 85.8186C99.513 80.0891 94.6029 75.4444 88.546 75.4444C88.0434 75.4444 87.5486 75.4764 87.064 75.5383V61.2167ZM37.1443 60.4428C37.3005 60.2782 37.4171 60.1009 37.4873 59.9145C37.7429 60.0632 37.7136 60.2226 37.2682 60.3896C37.2272 60.405 37.1859 60.4228 37.1443 60.4428Z" fill="#BDA4D3"/>
<ellipse cx="73.9915" cy="97.6806" rx="8.14168" ry="8.09418" fill="#B57EB2"/>
<path fill-rule="evenodd" clip-rule="evenodd" d="M34.9976 104.79C37.9919 103.594 40.1061 100.681 40.1061 97.2763C40.1061 92.8062 36.4613 89.1825 31.9651 89.1821V92.7757C31.9648 92.8304 31.9646 92.8851 31.9646 92.9399C31.9646 92.9946 31.9648 93.0493 31.9651 93.104V95.542H32.1012C32.4504 98.8496 33.458 101.972 34.9976 104.79Z" fill="#B57EB2"/>
<path d="M52.0378 100.636C54.8002 102.018 58.4834 102.938 62.1666 97.874" stroke="#B57EB2" stroke-width="2.6" stroke-linecap="round" stroke-linejoin="round"/>
<circle cx="70.0672" cy="90.1204" r="1.45486" fill="white"/>
<circle cx="35.0769" cy="89.1995" r="1.45486" fill="white"/>
<path d="M61.6612 77.9115C61.9525 78.0982 63.0158 78.6135 63.9644 78.5646C65.9668 78.3865 65.692 79.899 63.4973 79.4062C61.3025 78.9133 61.3699 77.7247 61.6612 77.9115Z" fill="#03113A"/>
<path d="M37.9486 77.912C38.2398 78.0987 39.3032 78.6139 40.2518 78.5651C42.2542 78.387 41.9794 79.8995 39.7846 79.4066C37.5899 78.9138 37.6573 77.7252 37.9486 77.912Z" fill="#03113A"/>
<ellipse cx="41.3798" cy="81.9602" rx="3.03995" ry="3.55687" fill="#03113A"/>
<ellipse cx="65.0527" cy="81.9602" rx="3.03995" ry="3.55687" fill="#03113A"/>
<path d="M46.5785 92.1568L49.6465 85.5664C49.8724 85.0811 50.5998 85.2421 50.5998 85.7774V93.0496C50.5998 93.3695 50.3036 93.6071 49.9913 93.5377L46.9234 92.856C46.6114 92.7866 46.4437 92.4465 46.5785 92.1568Z" fill="#B57EB2"/>
<path fill-rule="evenodd" clip-rule="evenodd" d="M86.5536 78.7044C80.8405 78.7873 75.7502 82.8198 74.5521 88.6477C73.1676 95.3823 77.5046 101.964 84.2392 103.349C90.9738 104.733 97.5556 100.396 98.9401 93.6615C99.4299 91.2795 99.2038 88.9166 98.409 86.796C102.518 86.1116 105.979 82.9733 106.868 78.6487C108.022 73.0366 104.408 67.5517 98.7955 66.3979C93.1834 65.2441 87.6985 68.8583 86.5447 74.4705C86.2479 75.9141 86.2666 77.3492 86.5536 78.7044Z" fill="#443B77"/>
<path d="M94.425 100.904C96.2896 100.077 101.04 92.2778 106.1 80.9113L92.7172 70.9413L78.7615 89.2748L94.425 100.904Z" fill="#443B77"/>
<path d="M75.2603 86.6749C75.4084 84.6405 80.8444 77.3954 89.8313 68.7907L99.7892 76.2849L85.2186 94.1691L75.2603 86.6749Z" fill="#443B77"/>
<path d="M51.7903 54.4094C36.3772 54.8836 32.5237 69.3285 31.0417 74.2686L29.2634 73.0829L31.0573 65.8471C31.2082 65.1082 31.3942 64.3574 31.6149 63.5979C35.6834 49.6009 51.5568 32.7009 76.9852 34.5502C89.1378 34.5502 94.1767 37.5003 99.2156 41.0572C127.908 57.8818 122.434 80.4745 116.111 89.6677C111.171 100.145 97.4372 118.374 82.0241 107.466C82.6169 106.676 84.1582 104.324 85.5809 101.241C87.0037 98.1588 85.3833 81.9751 84.3953 74.2686C77.2816 73.6758 74.8115 67.4372 74.6139 65.066C74.6139 61.7067 67.2034 53.9351 51.7903 54.4094Z" fill="#60578E"/>
<path d="M75.5491 85.7765C75.1159 86.6781 74.7852 87.6468 74.5746 88.6709C73.7062 92.8953 75.089 97.0597 77.9026 99.9188L103.091 68.3851C101.875 67.4397 100.429 66.7518 98.8183 66.4206C95.1737 65.6714 91.5828 66.9329 89.1969 69.4467C81.6334 76.7736 76.7178 83.0289 75.5491 85.7765Z" fill="#443B77"/>
<path d="M51.7903 54.4094C36.3772 54.8836 32.5237 69.3285 31.0417 74.2686L29.2634 73.0829L31.0573 65.8471C31.2082 65.1082 31.3942 64.3574 31.6149 63.5979C35.6834 49.6009 51.5568 32.7009 76.9852 34.5502C89.1378 34.5502 94.1767 37.5003 99.2156 41.0572C127.908 57.8818 122.434 80.4745 116.111 89.6677C111.171 100.145 97.4372 118.374 82.0241 107.466C82.6169 106.676 84.1582 104.324 85.5809 101.241C87.0037 98.1588 85.3833 81.9751 84.3953 74.2686C77.2816 73.6758 74.8115 67.4372 74.6139 65.066C74.6139 61.7067 67.2034 53.9351 51.7903 54.4094Z" fill="#443B77"/>
<path d="M51.7903 54.2521C36.3772 54.7264 32.5237 69.1713 31.0417 74.1114L29.2634 72.9257L31.0573 65.6899C31.2082 64.951 31.3942 64.2001 31.6149 63.4407C35.6834 49.4437 51.5568 32.5436 76.9852 34.3929C68.3174 35.2087 55.0507 49.4109 51.7903 54.2521Z" fill="#443B77"/>
<path d="M105.907 86.8394C97.4354 99.2701 90.9438 103.299 88.7569 103.759L86.3398 106.061C86.7619 106.406 87.9483 107.616 92.0948 106.061C98.9314 103.497 103.49 93.3617 105.907 86.8394Z" fill="#342B67"/>
<path d="M108.483 30.8637C103.47 33.8318 95.4371 42.4716 103.404 53.2867C108.931 50.2439 117.683 41.4994 108.483 30.8637Z" fill="#443B77"/>
<path d="M131.869 46.5662C125.699 42.4911 111.377 38.1154 103.452 53.2129C109.993 57.8334 124.833 62.9726 131.869 46.5662Z" fill="#443B77"/>
<circle cx="111.96" cy="49.9626" r="3.26046" fill="#F8E589"/>
<circle cx="100.697" cy="42.8493" r="2.07484" fill="#F8E589"/>
<circle cx="91.8051" cy="58.8547" r="3.26046" fill="#F8E589"/>
<path d="M84.0986 60.3362C65.1286 45.2197 46.4551 51.7406 35.1917 55.5937L35.6066 54.6705V54.7045C62.7574 42.5521 80.3441 55.1985 85.2842 57.6686L84.0986 60.3362Z" fill="#F8E589"/>
<path d="M85.8772 56.9368C66.9072 41.8203 48.2336 48.3412 36.9702 52.1943L37.3852 51.2711V51.3051C64.536 39.1526 82.1227 51.7991 87.0628 54.2692L85.8772 56.9368Z" fill="#F8E589"/>
<circle cx="111.96" cy="49.9626" r="3.26046" fill="#F8E589"/>
<circle cx="104.847" cy="82.5671" r="3.26046" fill="#F8E589"/>
<circle cx="100.697" cy="42.8493" r="2.07484" fill="#F8E589"/>
<path fill-rule="evenodd" clip-rule="evenodd" d="M93.0362 57.6201C92.9064 57.6352 92.7744 57.6429 92.6405 57.6429C92.1023 57.6429 91.5933 57.5177 91.1412 57.2948C90.8152 57.9351 90.292 58.4582 89.6516 58.7841C89.8746 59.2363 89.9999 59.7453 89.9999 60.2836C89.9999 60.4174 89.9921 60.5494 89.9771 60.6792C90.7069 60.7549 91.3682 61.0618 91.8862 61.5254C92.214 61.232 92.5992 61.0013 93.0229 60.8524C93.0566 60.2251 93.2606 59.6431 93.5895 59.1517C93.2904 58.7048 93.0946 58.1829 93.0362 57.6201ZM96.0175 53.8933C95.8402 52.1847 94.396 50.8525 92.6405 50.8525C91.3192 50.8525 90.1741 51.6074 89.613 52.7094C89.1608 52.4865 88.6519 52.3613 88.1136 52.3613C86.2385 52.3613 84.7184 53.8813 84.7184 55.7565C84.7184 56.2947 84.8437 56.8037 85.0667 57.2559C83.9645 57.8169 83.2095 58.9621 83.2095 60.2836C83.2095 62.0391 84.5418 63.4834 86.2505 63.6606C86.2354 63.7903 86.2277 63.9223 86.2277 64.0562C86.2277 65.9313 87.7477 67.4514 89.6229 67.4514C90.4924 67.4514 91.2855 67.1245 91.8862 66.587C92.4868 67.1245 93.28 67.4514 94.1495 67.4514C95.9624 67.4514 97.4435 66.0304 97.5397 64.2415C98.8611 63.7769 99.8083 62.5179 99.8083 61.0377C99.8083 60.3399 99.5977 59.6912 99.2367 59.1517C99.5977 58.6122 99.8083 57.9635 99.8083 57.2657C99.8083 55.3906 98.2882 53.8705 96.4131 53.8705C96.2793 53.8705 96.1473 53.8782 96.0175 53.8933Z" fill="#F8E589"/>
</svg>
