<svg width="351" height="447" viewBox="0 0 351 447" fill="none" xmlns="http://www.w3.org/2000/svg">
<rect x="0.511475" width="350" height="445" rx="20" fill="#342B67"/>
<path d="M350.011 276C250.011 402.5 93.0114 330.5 1.01145 393.5C-0.321888 403.5 -1.38856 426.5 5.01145 438.5C13.0114 453.5 47.0114 438.5 200.011 444.5C353.011 450.5 340.511 442.5 346.011 438.5C350.411 435.3 350.511 420.167 350.011 413V276Z" fill="#FAD49B" fill-opacity="0.5"/>
<path d="M135.077 98C133.205 98 131.705 97.544 130.577 96.632C129.449 95.72 128.885 94.1 128.885 91.772V83.996H125.825V80.144H128.885L129.425 75.356H133.493V80.144H138.317V83.996H133.493V91.808C133.493 92.672 133.673 93.272 134.033 93.608C134.417 93.92 135.065 94.076 135.977 94.076H138.209V98H135.077ZM142.273 98V72.08H146.881V82.88C147.481 81.896 148.285 81.128 149.293 80.576C150.325 80 151.501 79.712 152.821 79.712C155.029 79.712 156.733 80.408 157.933 81.8C159.157 83.192 159.769 85.232 159.769 87.92V98H155.197V88.352C155.197 86.816 154.885 85.64 154.261 84.824C153.661 84.008 152.701 83.6 151.381 83.6C150.085 83.6 149.005 84.056 148.141 84.968C147.301 85.88 146.881 87.152 146.881 88.784V98H142.273ZM164.176 98V80.144H168.28L168.712 83.492C169.36 82.34 170.236 81.428 171.34 80.756C172.468 80.06 173.788 79.712 175.3 79.712V84.572H174.004C172.996 84.572 172.096 84.728 171.304 85.04C170.512 85.352 169.888 85.892 169.432 86.66C169 87.428 168.784 88.496 168.784 89.864V98H164.176ZM180.933 77.372C180.093 77.372 179.397 77.12 178.845 76.616C178.317 76.112 178.053 75.476 178.053 74.708C178.053 73.94 178.317 73.316 178.845 72.836C179.397 72.332 180.093 72.08 180.933 72.08C181.773 72.08 182.457 72.332 182.985 72.836C183.537 73.316 183.813 73.94 183.813 74.708C183.813 75.476 183.537 76.112 182.985 76.616C182.457 77.12 181.773 77.372 180.933 77.372ZM178.629 98V80.144H183.237V98H178.629ZM192.871 98L186.319 80.144H191.143L195.679 93.644L200.215 80.144H205.039L198.451 98H192.871ZM215.742 98.432C213.942 98.432 212.346 98.048 210.954 97.28C209.562 96.512 208.47 95.432 207.678 94.04C206.886 92.648 206.49 91.04 206.49 89.216C206.49 87.368 206.874 85.724 207.642 84.284C208.434 82.844 209.514 81.728 210.882 80.936C212.274 80.12 213.906 79.712 215.778 79.712C217.53 79.712 219.078 80.096 220.422 80.864C221.766 81.632 222.81 82.688 223.554 84.032C224.322 85.352 224.706 86.828 224.706 88.46C224.706 88.724 224.694 89 224.67 89.288C224.67 89.576 224.658 89.876 224.634 90.188H211.062C211.158 91.58 211.638 92.672 212.502 93.464C213.39 94.256 214.458 94.652 215.706 94.652C216.642 94.652 217.422 94.448 218.046 94.04C218.694 93.608 219.174 93.056 219.486 92.384H224.166C223.83 93.512 223.266 94.544 222.474 95.48C221.706 96.392 220.746 97.112 219.594 97.64C218.466 98.168 217.182 98.432 215.742 98.432ZM215.778 83.456C214.65 83.456 213.654 83.78 212.79 84.428C211.926 85.052 211.374 86.012 211.134 87.308H220.026C219.954 86.132 219.522 85.196 218.73 84.5C217.938 83.804 216.954 83.456 215.778 83.456Z" fill="white"/>
<ellipse cx="167.181" cy="173" rx="1.9619" ry="2" fill="white"/>
<ellipse cx="169.143" cy="139" rx="2.94286" ry="3" fill="white"/>
<ellipse cx="179.443" cy="152.5" rx="5.39524" ry="5.5" fill="white"/>
<path d="M179.961 340.668C179.452 315.081 193.884 286.157 206.241 282.018C218.598 277.879 201.949 329.548 179.961 340.668Z" fill="#F6F1FF"/>
<path d="M177.985 258.363C172.696 363.357 186.584 385.934 204.265 398" stroke="#F6F1FF" stroke-width="4"/>
<path d="M179.124 258.848C174.132 354.83 185.611 382.011 204.744 396.934" stroke="#BDA4D3" stroke-width="2"/>
<path d="M180.338 340.44C179.499 340.627 179.701 337.775 179.86 336.709L186.557 328.714L194.688 316.456L199.471 306.863L204.733 295.137L209.038 282.346C216.212 286.61 205.405 308.584 199.95 319.121C192.775 332.978 182.73 339.907 180.338 340.44Z" fill="#BDA4D3"/>
<ellipse cx="151.723" cy="258.538" rx="26.7232" ry="8.31874" fill="#FAD49B"/>
<ellipse rx="27.2872" ry="8.17429" transform="matrix(0.887652 0.460515 -0.386231 0.922402 152.38 250.22)" fill="#FAD49B"/>
<ellipse rx="28.8276" ry="7.74975" transform="matrix(0.520362 0.853946 -0.79808 0.602552 162.966 239.607)" fill="#FAD49B"/>
<ellipse rx="25.2519" ry="8.31874" transform="matrix(-1 0 0 1 202.748 258.538)" fill="#FAD49B"/>
<ellipse rx="26.1107" ry="8.10874" transform="matrix(-0.876575 0.481265 0.367917 0.929859 202.128 250.22)" fill="#FAD49B"/>
<ellipse rx="28.4066" ry="7.4808" transform="matrix(-0.498999 0.866602 0.781252 0.624215 192.125 239.607)" fill="#FAD49B"/>
<ellipse rx="29.2393" ry="7.19587" transform="matrix(0.0107542 0.999942 0.998893 0.0470306 178.942 233.576)" fill="#FAD49B"/>
</svg>
