<svg width="261" height="332" viewBox="0 0 261 332" fill="none" xmlns="http://www.w3.org/2000/svg">
<rect x="0.380371" width="260.155" height="330.768" rx="20" fill="#342B67"/>
<path d="M260.163 205.15C185.833 299.178 69.1353 245.66 0.751806 292.488C-0.239259 299.921 -1.03211 317.017 3.725 325.936C9.67139 337.086 34.9436 325.936 148.668 330.396C262.393 334.856 253.102 328.91 257.19 325.936C260.46 323.558 260.535 312.309 260.163 306.982V205.15Z" fill="#FAD49B" fill-opacity="0.5"/>
<path d="M100.132 82.4216C98.7278 82.4216 97.6028 82.0796 96.7568 81.3956C95.9108 80.7116 95.4878 79.4966 95.4878 77.7506V71.9186H93.1928V69.0296H95.4878L95.8928 65.4386H98.9438V69.0296H102.562V71.9186H98.9438V77.7776C98.9438 78.4256 99.0788 78.8756 99.3488 79.1276C99.6368 79.3616 100.123 79.4786 100.807 79.4786H102.481V82.4216H100.132ZM105.529 82.4216V62.9816H108.985V71.0816C109.435 70.3436 110.038 69.7676 110.794 69.3536C111.568 68.9216 112.45 68.7056 113.44 68.7056C115.096 68.7056 116.374 69.2276 117.274 70.2716C118.192 71.3156 118.651 72.8456 118.651 74.8616V82.4216H115.222V75.1856C115.222 74.0336 114.988 73.1516 114.52 72.5396C114.07 71.9276 113.35 71.6216 112.36 71.6216C111.388 71.6216 110.578 71.9636 109.93 72.6476C109.3 73.3316 108.985 74.2856 108.985 75.5096V82.4216H105.529ZM121.956 82.4216V69.0296H125.034L125.358 71.5406C125.844 70.6766 126.501 69.9926 127.329 69.4886C128.175 68.9666 129.165 68.7056 130.299 68.7056V72.3506H129.327C128.571 72.3506 127.896 72.4676 127.302 72.7016C126.708 72.9356 126.24 73.3406 125.898 73.9166C125.574 74.4926 125.412 75.2936 125.412 76.3196V82.4216H121.956ZM134.524 66.9506C133.894 66.9506 133.372 66.7616 132.958 66.3836C132.562 66.0056 132.364 65.5286 132.364 64.9526C132.364 64.3766 132.562 63.9086 132.958 63.5486C133.372 63.1706 133.894 62.9816 134.524 62.9816C135.154 62.9816 135.667 63.1706 136.063 63.5486C136.477 63.9086 136.684 64.3766 136.684 64.9526C136.684 65.5286 136.477 66.0056 136.063 66.3836C135.667 66.7616 135.154 66.9506 134.524 66.9506ZM132.796 82.4216V69.0296H136.252V82.4216H132.796ZM143.477 82.4216L138.563 69.0296H142.181L145.583 79.1546L148.985 69.0296H152.603L147.662 82.4216H143.477ZM160.631 82.7456C159.281 82.7456 158.084 82.4576 157.04 81.8816C155.996 81.3056 155.177 80.4956 154.583 79.4516C153.989 78.4076 153.692 77.2016 153.692 75.8336C153.692 74.4476 153.98 73.2146 154.556 72.1346C155.15 71.0546 155.96 70.2176 156.986 69.6236C158.03 69.0116 159.254 68.7056 160.658 68.7056C161.972 68.7056 163.133 68.9936 164.141 69.5696C165.149 70.1456 165.932 70.9376 166.49 71.9456C167.066 72.9356 167.354 74.0426 167.354 75.2666C167.354 75.4646 167.345 75.6716 167.327 75.8876C167.327 76.1036 167.318 76.3286 167.3 76.5626H157.121C157.193 77.6066 157.553 78.4256 158.201 79.0196C158.867 79.6136 159.668 79.9106 160.604 79.9106C161.306 79.9106 161.891 79.7576 162.359 79.4516C162.845 79.1276 163.205 78.7136 163.439 78.2096H166.949C166.697 79.0556 166.274 79.8296 165.68 80.5316C165.104 81.2156 164.384 81.7556 163.52 82.1516C162.674 82.5476 161.711 82.7456 160.631 82.7456ZM160.658 71.5136C159.812 71.5136 159.065 71.7566 158.417 72.2426C157.769 72.7106 157.355 73.4306 157.175 74.4026H163.844C163.79 73.5206 163.466 72.8186 162.872 72.2966C162.278 71.7746 161.54 71.5136 160.658 71.5136Z" fill="white"/>
<ellipse cx="124.265" cy="128.591" rx="1.45828" ry="1.4866" fill="white"/>
<ellipse cx="125.724" cy="103.319" rx="2.18742" ry="2.2299" fill="white"/>
<ellipse cx="133.38" cy="113.353" rx="4.01027" ry="4.08814" fill="white"/>
<path d="M133.764 253.218C133.386 234.199 144.113 212.7 153.298 209.623C162.483 206.547 150.108 244.953 133.764 253.218Z" fill="#F6F1FF"/>
<path d="M132.295 192.041C128.364 270.083 138.687 286.864 151.829 295.833" stroke="#F6F1FF" stroke-width="4"/>
<path d="M133.142 192.401C129.431 263.744 137.964 283.948 152.185 295.04" stroke="#BDA4D3" stroke-width="2"/>
<path d="M134.045 253.048C133.421 253.187 133.571 251.067 133.689 250.275L138.667 244.333L144.711 235.221L148.266 228.091L152.177 219.375L155.377 209.867C160.71 213.037 152.677 229.37 148.622 237.202C143.289 247.502 135.822 252.652 134.045 253.048Z" fill="#BDA4D3"/>
<ellipse cx="112.775" cy="192.171" rx="19.8633" ry="6.18331" fill="#FAD49B"/>
<ellipse rx="20.2825" ry="6.07594" transform="matrix(0.887652 0.460515 -0.386231 0.922402 113.264 185.988)" fill="#FAD49B"/>
<ellipse rx="21.4275" ry="5.76038" transform="matrix(0.520362 0.853946 -0.79808 0.602552 121.132 178.099)" fill="#FAD49B"/>
<ellipse rx="18.7697" ry="6.18331" transform="matrix(-1 0 0 1 150.702 192.171)" fill="#FAD49B"/>
<ellipse rx="19.408" ry="6.02722" transform="matrix(-0.876575 0.481265 0.367917 0.929859 150.242 185.988)" fill="#FAD49B"/>
<ellipse rx="21.1146" ry="5.56047" transform="matrix(-0.498999 0.866602 0.781252 0.624215 142.806 178.099)" fill="#FAD49B"/>
<ellipse rx="21.7336" ry="5.34868" transform="matrix(0.0107542 0.999942 0.998893 0.0470306 133.007 173.617)" fill="#FAD49B"/>
</svg>
