<svg width="350" height="445" viewBox="0 0 350 445" fill="none" xmlns="http://www.w3.org/2000/svg">
<rect width="350" height="445" rx="20" fill="#342B67"/>
<path d="M134.566 116C132.694 116 131.194 115.544 130.066 114.632C128.938 113.72 128.374 112.1 128.374 109.772V101.996H125.314V98.144H128.374L128.914 93.356H132.982V98.144H137.806V101.996H132.982V109.808C132.982 110.672 133.162 111.272 133.522 111.608C133.906 111.92 134.554 112.076 135.466 112.076H137.698V116H134.566ZM141.762 116V90.08H146.37V100.88C146.97 99.896 147.774 99.128 148.782 98.576C149.814 98 150.99 97.712 152.31 97.712C154.518 97.712 156.222 98.408 157.422 99.8C158.646 101.192 159.258 103.232 159.258 105.92V116H154.686V106.352C154.686 104.816 154.374 103.64 153.75 102.824C153.15 102.008 152.19 101.6 150.87 101.6C149.574 101.6 148.494 102.056 147.63 102.968C146.79 103.88 146.37 105.152 146.37 106.784V116H141.762ZM163.664 116V98.144H167.768L168.2 101.492C168.848 100.34 169.724 99.428 170.828 98.756C171.956 98.06 173.276 97.712 174.788 97.712V102.572H173.492C172.484 102.572 171.584 102.728 170.792 103.04C170 103.352 169.376 103.892 168.92 104.66C168.488 105.428 168.272 106.496 168.272 107.864V116H163.664ZM180.422 95.372C179.582 95.372 178.886 95.12 178.334 94.616C177.806 94.112 177.542 93.476 177.542 92.708C177.542 91.94 177.806 91.316 178.334 90.836C178.886 90.332 179.582 90.08 180.422 90.08C181.262 90.08 181.946 90.332 182.474 90.836C183.026 91.316 183.302 91.94 183.302 92.708C183.302 93.476 183.026 94.112 182.474 94.616C181.946 95.12 181.262 95.372 180.422 95.372ZM178.118 116V98.144H182.726V116H178.118ZM192.359 116L185.807 98.144H190.631L195.167 111.644L199.703 98.144H204.527L197.939 116H192.359ZM215.231 116.432C213.431 116.432 211.835 116.048 210.443 115.28C209.051 114.512 207.959 113.432 207.167 112.04C206.375 110.648 205.979 109.04 205.979 107.216C205.979 105.368 206.363 103.724 207.131 102.284C207.923 100.844 209.003 99.728 210.371 98.936C211.763 98.12 213.395 97.712 215.267 97.712C217.019 97.712 218.567 98.096 219.911 98.864C221.255 99.632 222.299 100.688 223.043 102.032C223.811 103.352 224.195 104.828 224.195 106.46C224.195 106.724 224.183 107 224.159 107.288C224.159 107.576 224.147 107.876 224.123 108.188H210.551C210.647 109.58 211.127 110.672 211.991 111.464C212.879 112.256 213.947 112.652 215.195 112.652C216.131 112.652 216.911 112.448 217.535 112.04C218.183 111.608 218.663 111.056 218.975 110.384H223.655C223.319 111.512 222.755 112.544 221.963 113.48C221.195 114.392 220.235 115.112 219.083 115.64C217.955 116.168 216.671 116.432 215.231 116.432ZM215.267 101.456C214.139 101.456 213.143 101.78 212.279 102.428C211.415 103.052 210.863 104.012 210.623 105.308H219.515C219.443 104.132 219.011 103.196 218.219 102.5C217.427 101.804 216.443 101.456 215.267 101.456Z" fill="white"/>
<path d="M71.7653 175.022L67.5413 159.6H69.5213L72.8433 172.822L76.6273 159.6H78.6733L82.3473 172.822L85.7133 159.6H87.6933L83.3813 175H81.2693L77.5953 162.284L73.8333 175L71.7653 175.022ZM94.2056 175.264C93.1643 175.264 92.2403 175.029 91.4336 174.56C90.6269 174.076 89.9889 173.409 89.5196 172.558C89.0649 171.707 88.8376 170.703 88.8376 169.544C88.8376 168.4 89.0649 167.403 89.5196 166.552C89.9743 165.687 90.6049 165.019 91.4116 164.55C92.2329 164.066 93.1789 163.824 94.2496 163.824C95.3056 163.824 96.2149 164.066 96.9776 164.55C97.7549 165.019 98.3489 165.643 98.7596 166.42C99.1703 167.197 99.3756 168.033 99.3756 168.928C99.3756 169.089 99.3683 169.251 99.3536 169.412C99.3536 169.573 99.3536 169.757 99.3536 169.962H90.6636C90.7076 170.798 90.8983 171.495 91.2356 172.052C91.5876 172.595 92.0203 173.005 92.5336 173.284C93.0616 173.563 93.6189 173.702 94.2056 173.702C94.9683 173.702 95.6063 173.526 96.1196 173.174C96.6329 172.822 97.0069 172.345 97.2416 171.744H99.0676C98.7743 172.756 98.2096 173.599 97.3736 174.274C96.5523 174.934 95.4963 175.264 94.2056 175.264ZM94.2056 165.386C93.3256 165.386 92.5409 165.657 91.8516 166.2C91.1769 166.728 90.7883 167.505 90.6856 168.532H97.5496C97.5056 167.549 97.1683 166.779 96.5376 166.222C95.9069 165.665 95.1296 165.386 94.2056 165.386ZM112.597 175.264C111.688 175.264 110.933 175.11 110.331 174.802C109.73 174.494 109.283 174.083 108.989 173.57C108.696 173.057 108.549 172.499 108.549 171.898C108.549 170.783 108.975 169.925 109.825 169.324C110.676 168.723 111.835 168.422 113.301 168.422H116.249V168.29C116.249 167.337 116 166.618 115.501 166.134C115.003 165.635 114.335 165.386 113.499 165.386C112.781 165.386 112.157 165.569 111.629 165.936C111.116 166.288 110.793 166.809 110.661 167.498H108.769C108.843 166.706 109.107 166.039 109.561 165.496C110.031 164.953 110.61 164.543 111.299 164.264C111.989 163.971 112.722 163.824 113.499 163.824C115.025 163.824 116.169 164.235 116.931 165.056C117.709 165.863 118.097 166.941 118.097 168.29V175H116.447L116.337 173.042C116.029 173.658 115.575 174.186 114.973 174.626C114.387 175.051 113.595 175.264 112.597 175.264ZM112.883 173.702C113.587 173.702 114.189 173.519 114.687 173.152C115.201 172.785 115.589 172.309 115.853 171.722C116.117 171.135 116.249 170.519 116.249 169.874V169.852H113.455C112.37 169.852 111.6 170.043 111.145 170.424C110.705 170.791 110.485 171.253 110.485 171.81C110.485 172.382 110.691 172.844 111.101 173.196C111.527 173.533 112.121 173.702 112.883 173.702ZM122.652 161.668C122.285 161.668 121.977 161.551 121.728 161.316C121.493 161.067 121.376 160.759 121.376 160.392C121.376 160.04 121.493 159.747 121.728 159.512C121.977 159.277 122.285 159.16 122.652 159.16C123.004 159.16 123.304 159.277 123.554 159.512C123.803 159.747 123.928 160.04 123.928 160.392C123.928 160.759 123.803 161.067 123.554 161.316C123.304 161.551 123.004 161.668 122.652 161.668ZM121.728 175V164.088H123.576V175H121.728ZM127.453 175V164.088H129.125L129.257 165.672C129.609 165.085 130.079 164.631 130.665 164.308C131.252 163.985 131.912 163.824 132.645 163.824C133.511 163.824 134.251 164 134.867 164.352C135.498 164.704 135.982 165.239 136.319 165.958C136.701 165.298 137.221 164.777 137.881 164.396C138.556 164.015 139.282 163.824 140.059 163.824C141.365 163.824 142.406 164.22 143.183 165.012C143.961 165.789 144.349 166.992 144.349 168.62V175H142.523V168.818C142.523 167.689 142.296 166.838 141.841 166.266C141.387 165.694 140.734 165.408 139.883 165.408C139.003 165.408 138.27 165.753 137.683 166.442C137.111 167.117 136.825 168.085 136.825 169.346V175H134.977V168.818C134.977 167.689 134.75 166.838 134.295 166.266C133.841 165.694 133.188 165.408 132.337 165.408C131.472 165.408 130.746 165.753 130.159 166.442C129.587 167.117 129.301 168.085 129.301 169.346V175H127.453ZM158.587 175C157.59 175 156.805 174.758 156.233 174.274C155.661 173.79 155.375 172.917 155.375 171.656V165.65H153.483V164.088H155.375L155.617 161.47H157.223V164.088H160.435V165.65H157.223V171.656C157.223 172.345 157.363 172.815 157.641 173.064C157.92 173.299 158.411 173.416 159.115 173.416H160.259V175H158.587ZM168.114 175.264C167.088 175.264 166.164 175.029 165.342 174.56C164.521 174.091 163.868 173.431 163.384 172.58C162.915 171.715 162.68 170.703 162.68 169.544C162.68 168.385 162.922 167.381 163.406 166.53C163.89 165.665 164.543 164.997 165.364 164.528C166.2 164.059 167.132 163.824 168.158 163.824C169.185 163.824 170.109 164.059 170.93 164.528C171.752 164.997 172.397 165.665 172.866 166.53C173.35 167.381 173.592 168.385 173.592 169.544C173.592 170.703 173.35 171.715 172.866 172.58C172.382 173.431 171.722 174.091 170.886 174.56C170.065 175.029 169.141 175.264 168.114 175.264ZM168.114 173.68C168.745 173.68 169.332 173.526 169.874 173.218C170.417 172.91 170.857 172.448 171.194 171.832C171.532 171.216 171.7 170.453 171.7 169.544C171.7 168.635 171.532 167.872 171.194 167.256C170.872 166.64 170.439 166.178 169.896 165.87C169.354 165.562 168.774 165.408 168.158 165.408C167.528 165.408 166.941 165.562 166.398 165.87C165.856 166.178 165.416 166.64 165.078 167.256C164.741 167.872 164.572 168.635 164.572 169.544C164.572 170.453 164.741 171.216 165.078 171.832C165.416 172.448 165.848 172.91 166.376 173.218C166.919 173.526 167.498 173.68 168.114 173.68ZM188.32 175.264C187.279 175.264 186.34 175.029 185.504 174.56C184.683 174.076 184.03 173.409 183.546 172.558C183.077 171.693 182.842 170.688 182.842 169.544C182.842 168.4 183.077 167.403 183.546 166.552C184.03 165.687 184.683 165.019 185.504 164.55C186.34 164.066 187.279 163.824 188.32 163.824C189.611 163.824 190.696 164.161 191.576 164.836C192.471 165.511 193.035 166.413 193.27 167.542H191.378C191.231 166.867 190.872 166.347 190.3 165.98C189.728 165.599 189.061 165.408 188.298 165.408C187.682 165.408 187.103 165.562 186.56 165.87C186.017 166.178 185.577 166.64 185.24 167.256C184.903 167.872 184.734 168.635 184.734 169.544C184.734 170.453 184.903 171.216 185.24 171.832C185.577 172.448 186.017 172.917 186.56 173.24C187.103 173.548 187.682 173.702 188.298 173.702C189.061 173.702 189.728 173.519 190.3 173.152C190.872 172.771 191.231 172.235 191.378 171.546H193.27C193.05 172.646 192.493 173.541 191.598 174.23C190.703 174.919 189.611 175.264 188.32 175.264ZM196.511 175V164.088H198.183L198.337 166.178C198.674 165.459 199.188 164.887 199.877 164.462C200.566 164.037 201.417 163.824 202.429 163.824V165.76H201.923C201.278 165.76 200.684 165.877 200.141 166.112C199.598 166.332 199.166 166.713 198.843 167.256C198.52 167.799 198.359 168.547 198.359 169.5V175H196.511ZM209.661 175.264C208.62 175.264 207.696 175.029 206.889 174.56C206.082 174.076 205.444 173.409 204.975 172.558C204.52 171.707 204.293 170.703 204.293 169.544C204.293 168.4 204.52 167.403 204.975 166.552C205.43 165.687 206.06 165.019 206.867 164.55C207.688 164.066 208.634 163.824 209.705 163.824C210.761 163.824 211.67 164.066 212.433 164.55C213.21 165.019 213.804 165.643 214.215 166.42C214.626 167.197 214.831 168.033 214.831 168.928C214.831 169.089 214.824 169.251 214.809 169.412C214.809 169.573 214.809 169.757 214.809 169.962H206.119C206.163 170.798 206.354 171.495 206.691 172.052C207.043 172.595 207.476 173.005 207.989 173.284C208.517 173.563 209.074 173.702 209.661 173.702C210.424 173.702 211.062 173.526 211.575 173.174C212.088 172.822 212.462 172.345 212.697 171.744H214.523C214.23 172.756 213.665 173.599 212.829 174.274C212.008 174.934 210.952 175.264 209.661 175.264ZM209.661 165.386C208.781 165.386 207.996 165.657 207.307 166.2C206.632 166.728 206.244 167.505 206.141 168.532H213.005C212.961 167.549 212.624 166.779 211.993 166.222C211.362 165.665 210.585 165.386 209.661 165.386ZM221.57 175.264C220.661 175.264 219.906 175.11 219.304 174.802C218.703 174.494 218.256 174.083 217.962 173.57C217.669 173.057 217.522 172.499 217.522 171.898C217.522 170.783 217.948 169.925 218.798 169.324C219.649 168.723 220.808 168.422 222.274 168.422H225.222V168.29C225.222 167.337 224.973 166.618 224.474 166.134C223.976 165.635 223.308 165.386 222.472 165.386C221.754 165.386 221.13 165.569 220.602 165.936C220.089 166.288 219.766 166.809 219.634 167.498H217.742C217.816 166.706 218.08 166.039 218.534 165.496C219.004 164.953 219.583 164.543 220.272 164.264C220.962 163.971 221.695 163.824 222.472 163.824C223.998 163.824 225.142 164.235 225.904 165.056C226.682 165.863 227.07 166.941 227.07 168.29V175H225.42L225.31 173.042C225.002 173.658 224.548 174.186 223.946 174.626C223.36 175.051 222.568 175.264 221.57 175.264ZM221.856 173.702C222.56 173.702 223.162 173.519 223.66 173.152C224.174 172.785 224.562 172.309 224.826 171.722C225.09 171.135 225.222 170.519 225.222 169.874V169.852H222.428C221.343 169.852 220.573 170.043 220.118 170.424C219.678 170.791 219.458 171.253 219.458 171.81C219.458 172.382 219.664 172.844 220.074 173.196C220.5 173.533 221.094 173.702 221.856 173.702ZM234.514 175C233.517 175 232.732 174.758 232.16 174.274C231.588 173.79 231.302 172.917 231.302 171.656V165.65H229.41V164.088H231.302L231.544 161.47H233.15V164.088H236.362V165.65H233.15V171.656C233.15 172.345 233.289 172.815 233.568 173.064C233.847 173.299 234.338 173.416 235.042 173.416H236.186V175H234.514ZM243.975 175.264C242.934 175.264 242.01 175.029 241.203 174.56C240.396 174.076 239.758 173.409 239.289 172.558C238.834 171.707 238.607 170.703 238.607 169.544C238.607 168.4 238.834 167.403 239.289 166.552C239.744 165.687 240.374 165.019 241.181 164.55C242.002 164.066 242.948 163.824 244.019 163.824C245.075 163.824 245.984 164.066 246.747 164.55C247.524 165.019 248.118 165.643 248.529 166.42C248.94 167.197 249.145 168.033 249.145 168.928C249.145 169.089 249.138 169.251 249.123 169.412C249.123 169.573 249.123 169.757 249.123 169.962H240.433C240.477 170.798 240.668 171.495 241.005 172.052C241.357 172.595 241.79 173.005 242.303 173.284C242.831 173.563 243.388 173.702 243.975 173.702C244.738 173.702 245.376 173.526 245.889 173.174C246.402 172.822 246.776 172.345 247.011 171.744H248.837C248.544 172.756 247.979 173.599 247.143 174.274C246.322 174.934 245.266 175.264 243.975 175.264ZM243.975 165.386C243.095 165.386 242.31 165.657 241.621 166.2C240.946 166.728 240.558 167.505 240.455 168.532H247.319C247.275 167.549 246.938 166.779 246.307 166.222C245.676 165.665 244.899 165.386 243.975 165.386ZM262.367 175.264C261.457 175.264 260.702 175.11 260.101 174.802C259.499 174.494 259.052 174.083 258.759 173.57C258.465 173.057 258.319 172.499 258.319 171.898C258.319 170.783 258.744 169.925 259.595 169.324C260.445 168.723 261.604 168.422 263.071 168.422H266.019V168.29C266.019 167.337 265.769 166.618 265.271 166.134C264.772 165.635 264.105 165.386 263.269 165.386C262.55 165.386 261.927 165.569 261.399 165.936C260.885 166.288 260.563 166.809 260.431 167.498H258.539C258.612 166.706 258.876 166.039 259.331 165.496C259.8 164.953 260.379 164.543 261.069 164.264C261.758 163.971 262.491 163.824 263.269 163.824C264.794 163.824 265.938 164.235 266.701 165.056C267.478 165.863 267.867 166.941 267.867 168.29V175H266.217L266.107 173.042C265.799 173.658 265.344 174.186 264.743 174.626C264.156 175.051 263.364 175.264 262.367 175.264ZM262.653 173.702C263.357 173.702 263.958 173.519 264.457 173.152C264.97 172.785 265.359 172.309 265.623 171.722C265.887 171.135 266.019 170.519 266.019 169.874V169.852H263.225C262.139 169.852 261.369 170.043 260.915 170.424C260.475 170.791 260.255 171.253 260.255 171.81C260.255 172.382 260.46 172.844 260.871 173.196C261.296 173.533 261.89 173.702 262.653 173.702ZM271.299 175V164.088H272.971L273.081 166.046C273.433 165.357 273.939 164.814 274.599 164.418C275.259 164.022 276.007 163.824 276.843 163.824C278.134 163.824 279.16 164.22 279.923 165.012C280.7 165.789 281.089 166.992 281.089 168.62V175H279.241V168.818C279.241 166.545 278.302 165.408 276.425 165.408C275.486 165.408 274.702 165.753 274.071 166.442C273.455 167.117 273.147 168.085 273.147 169.346V175H271.299ZM72.7487 200.264C71.7074 200.264 70.7834 200.029 69.9767 199.56C69.1701 199.076 68.5321 198.409 68.0627 197.558C67.6081 196.707 67.3807 195.703 67.3807 194.544C67.3807 193.4 67.6081 192.403 68.0627 191.552C68.5174 190.687 69.1481 190.019 69.9547 189.55C70.7761 189.066 71.7221 188.824 72.7927 188.824C73.8487 188.824 74.7581 189.066 75.5207 189.55C76.2981 190.019 76.8921 190.643 77.3027 191.42C77.7134 192.197 77.9187 193.033 77.9187 193.928C77.9187 194.089 77.9114 194.251 77.8967 194.412C77.8967 194.573 77.8967 194.757 77.8967 194.962H69.2067C69.2507 195.798 69.4414 196.495 69.7787 197.052C70.1307 197.595 70.5634 198.005 71.0767 198.284C71.6047 198.563 72.1621 198.702 72.7487 198.702C73.5114 198.702 74.1494 198.526 74.6627 198.174C75.1761 197.822 75.5501 197.345 75.7847 196.744H77.6107C77.3174 197.756 76.7527 198.599 75.9167 199.274C75.0954 199.934 74.0394 200.264 72.7487 200.264ZM72.7487 190.386C71.8687 190.386 71.0841 190.657 70.3947 191.2C69.7201 191.728 69.3314 192.505 69.2287 193.532H76.0927C76.0487 192.549 75.7114 191.779 75.0807 191.222C74.4501 190.665 73.6727 190.386 72.7487 190.386ZM81.0281 200V189.088H82.7001L82.8101 191.046C83.1621 190.357 83.6681 189.814 84.3281 189.418C84.9881 189.022 85.7361 188.824 86.5721 188.824C87.8628 188.824 88.8895 189.22 89.6521 190.012C90.4295 190.789 90.8181 191.992 90.8181 193.62V200H88.9701V193.818C88.9701 191.545 88.0315 190.408 86.1541 190.408C85.2155 190.408 84.4308 190.753 83.8001 191.442C83.1841 192.117 82.8761 193.085 82.8761 194.346V200H81.0281ZM97.2091 200L93.0731 189.088H95.0091L98.2871 198.218L101.587 189.088H103.479L99.3431 200H97.2091ZM107.318 186.668C106.951 186.668 106.643 186.551 106.394 186.316C106.159 186.067 106.042 185.759 106.042 185.392C106.042 185.04 106.159 184.747 106.394 184.512C106.643 184.277 106.951 184.16 107.318 184.16C107.67 184.16 107.97 184.277 108.22 184.512C108.469 184.747 108.594 185.04 108.594 185.392C108.594 185.759 108.469 186.067 108.22 186.316C107.97 186.551 107.67 186.668 107.318 186.668ZM106.394 200V189.088H108.242V200H106.394ZM112.119 200V189.088H113.791L113.945 191.178C114.283 190.459 114.796 189.887 115.485 189.462C116.175 189.037 117.025 188.824 118.037 188.824V190.76H117.531C116.886 190.76 116.292 190.877 115.749 191.112C115.207 191.332 114.774 191.713 114.451 192.256C114.129 192.799 113.967 193.547 113.967 194.5V200H112.119ZM125.335 200.264C124.309 200.264 123.385 200.029 122.563 199.56C121.742 199.091 121.089 198.431 120.605 197.58C120.136 196.715 119.901 195.703 119.901 194.544C119.901 193.385 120.143 192.381 120.627 191.53C121.111 190.665 121.764 189.997 122.585 189.528C123.421 189.059 124.353 188.824 125.379 188.824C126.406 188.824 127.33 189.059 128.151 189.528C128.973 189.997 129.618 190.665 130.087 191.53C130.571 192.381 130.813 193.385 130.813 194.544C130.813 195.703 130.571 196.715 130.087 197.58C129.603 198.431 128.943 199.091 128.107 199.56C127.286 200.029 126.362 200.264 125.335 200.264ZM125.335 198.68C125.966 198.68 126.553 198.526 127.095 198.218C127.638 197.91 128.078 197.448 128.415 196.832C128.753 196.216 128.921 195.453 128.921 194.544C128.921 193.635 128.753 192.872 128.415 192.256C128.093 191.64 127.66 191.178 127.117 190.87C126.575 190.562 125.995 190.408 125.379 190.408C124.749 190.408 124.162 190.562 123.619 190.87C123.077 191.178 122.637 191.64 122.299 192.256C121.962 192.872 121.793 193.635 121.793 194.544C121.793 195.453 121.962 196.216 122.299 196.832C122.637 197.448 123.069 197.91 123.597 198.218C124.14 198.526 124.719 198.68 125.335 198.68ZM134.043 200V189.088H135.715L135.825 191.046C136.177 190.357 136.683 189.814 137.343 189.418C138.003 189.022 138.751 188.824 139.587 188.824C140.878 188.824 141.904 189.22 142.667 190.012C143.444 190.789 143.833 191.992 143.833 193.62V200H141.985V193.818C141.985 191.545 141.046 190.408 139.169 190.408C138.23 190.408 137.446 190.753 136.815 191.442C136.199 192.117 135.891 193.085 135.891 194.346V200H134.043ZM147.293 200V189.088H148.965L149.097 190.672C149.449 190.085 149.918 189.631 150.505 189.308C151.091 188.985 151.751 188.824 152.485 188.824C153.35 188.824 154.091 189 154.707 189.352C155.337 189.704 155.821 190.239 156.159 190.958C156.54 190.298 157.061 189.777 157.721 189.396C158.395 189.015 159.121 188.824 159.899 188.824C161.204 188.824 162.245 189.22 163.023 190.012C163.8 190.789 164.189 191.992 164.189 193.62V200H162.363V193.818C162.363 192.689 162.135 191.838 161.681 191.266C161.226 190.694 160.573 190.408 159.723 190.408C158.843 190.408 158.109 190.753 157.523 191.442C156.951 192.117 156.665 193.085 156.665 194.346V200H154.817V193.818C154.817 192.689 154.589 191.838 154.135 191.266C153.68 190.694 153.027 190.408 152.177 190.408C151.311 190.408 150.585 190.753 149.999 191.442C149.427 192.117 149.141 193.085 149.141 194.346V200H147.293ZM172.538 200.264C171.497 200.264 170.573 200.029 169.766 199.56C168.96 199.076 168.322 198.409 167.852 197.558C167.398 196.707 167.17 195.703 167.17 194.544C167.17 193.4 167.398 192.403 167.852 191.552C168.307 190.687 168.938 190.019 169.744 189.55C170.566 189.066 171.512 188.824 172.582 188.824C173.638 188.824 174.548 189.066 175.31 189.55C176.088 190.019 176.682 190.643 177.092 191.42C177.503 192.197 177.708 193.033 177.708 193.928C177.708 194.089 177.701 194.251 177.686 194.412C177.686 194.573 177.686 194.757 177.686 194.962H168.996C169.04 195.798 169.231 196.495 169.568 197.052C169.92 197.595 170.353 198.005 170.866 198.284C171.394 198.563 171.952 198.702 172.538 198.702C173.301 198.702 173.939 198.526 174.452 198.174C174.966 197.822 175.34 197.345 175.574 196.744H177.4C177.107 197.756 176.542 198.599 175.706 199.274C174.885 199.934 173.829 200.264 172.538 200.264ZM172.538 190.386C171.658 190.386 170.874 190.657 170.184 191.2C169.51 191.728 169.121 192.505 169.018 193.532H175.882C175.838 192.549 175.501 191.779 174.87 191.222C174.24 190.665 173.462 190.386 172.538 190.386ZM180.818 200V189.088H182.49L182.6 191.046C182.952 190.357 183.458 189.814 184.118 189.418C184.778 189.022 185.526 188.824 186.362 188.824C187.653 188.824 188.679 189.22 189.442 190.012C190.219 190.789 190.608 191.992 190.608 193.62V200H188.76V193.818C188.76 191.545 187.821 190.408 185.944 190.408C185.005 190.408 184.221 190.753 183.59 191.442C182.974 192.117 182.666 193.085 182.666 194.346V200H180.818ZM198.38 200C197.382 200 196.598 199.758 196.026 199.274C195.454 198.79 195.168 197.917 195.168 196.656V190.65H193.276V189.088H195.168L195.41 186.47H197.016V189.088H200.228V190.65H197.016V196.656C197.016 197.345 197.155 197.815 197.434 198.064C197.712 198.299 198.204 198.416 198.908 198.416H200.052V200H198.38ZM214.03 200C213.032 200 212.248 199.758 211.676 199.274C211.104 198.79 210.818 197.917 210.818 196.656V190.65H208.926V189.088H210.818L211.06 186.47H212.666V189.088H215.878V190.65H212.666V196.656C212.666 197.345 212.805 197.815 213.084 198.064C213.362 198.299 213.854 198.416 214.558 198.416H215.702V200H214.03ZM223.557 200.264C222.53 200.264 221.606 200.029 220.785 199.56C219.964 199.091 219.311 198.431 218.827 197.58C218.358 196.715 218.123 195.703 218.123 194.544C218.123 193.385 218.365 192.381 218.849 191.53C219.333 190.665 219.986 189.997 220.807 189.528C221.643 189.059 222.574 188.824 223.601 188.824C224.628 188.824 225.552 189.059 226.373 189.528C227.194 189.997 227.84 190.665 228.309 191.53C228.793 192.381 229.035 193.385 229.035 194.544C229.035 195.703 228.793 196.715 228.309 197.58C227.825 198.431 227.165 199.091 226.329 199.56C225.508 200.029 224.584 200.264 223.557 200.264ZM223.557 198.68C224.188 198.68 224.774 198.526 225.317 198.218C225.86 197.91 226.3 197.448 226.637 196.832C226.974 196.216 227.143 195.453 227.143 194.544C227.143 193.635 226.974 192.872 226.637 192.256C226.314 191.64 225.882 191.178 225.339 190.87C224.796 190.562 224.217 190.408 223.601 190.408C222.97 190.408 222.384 190.562 221.841 190.87C221.298 191.178 220.858 191.64 220.521 192.256C220.184 192.872 220.015 193.635 220.015 194.544C220.015 195.453 220.184 196.216 220.521 196.832C220.858 197.448 221.291 197.91 221.819 198.218C222.362 198.526 222.941 198.68 223.557 198.68ZM238.747 200V184.16H240.595V190.958C240.961 190.283 241.482 189.763 242.157 189.396C242.831 189.015 243.565 188.824 244.357 188.824C245.618 188.824 246.63 189.22 247.393 190.012C248.155 190.789 248.537 191.992 248.537 193.62V200H246.711V193.818C246.711 191.545 245.794 190.408 243.961 190.408C243.007 190.408 242.208 190.753 241.563 191.442C240.917 192.117 240.595 193.085 240.595 194.346V200H238.747ZM256.902 200.264C255.861 200.264 254.937 200.029 254.13 199.56C253.324 199.076 252.686 198.409 252.216 197.558C251.762 196.707 251.534 195.703 251.534 194.544C251.534 193.4 251.762 192.403 252.216 191.552C252.671 190.687 253.302 190.019 254.108 189.55C254.93 189.066 255.876 188.824 256.946 188.824C258.002 188.824 258.912 189.066 259.674 189.55C260.452 190.019 261.046 190.643 261.456 191.42C261.867 192.197 262.072 193.033 262.072 193.928C262.072 194.089 262.065 194.251 262.05 194.412C262.05 194.573 262.05 194.757 262.05 194.962H253.36C253.404 195.798 253.595 196.495 253.932 197.052C254.284 197.595 254.717 198.005 255.23 198.284C255.758 198.563 256.316 198.702 256.902 198.702C257.665 198.702 258.303 198.526 258.816 198.174C259.33 197.822 259.704 197.345 259.938 196.744H261.764C261.471 197.756 260.906 198.599 260.07 199.274C259.249 199.934 258.193 200.264 256.902 200.264ZM256.902 190.386C256.022 190.386 255.238 190.657 254.548 191.2C253.874 191.728 253.485 192.505 253.382 193.532H260.246C260.202 192.549 259.865 191.779 259.234 191.222C258.604 190.665 257.826 190.386 256.902 190.386ZM265.182 200V184.16H267.03V200H265.182ZM270.719 204.84V189.088H272.391L272.567 190.892C272.919 190.364 273.418 189.887 274.063 189.462C274.723 189.037 275.559 188.824 276.571 188.824C277.656 188.824 278.602 189.073 279.409 189.572C280.216 190.071 280.839 190.753 281.279 191.618C281.734 192.483 281.961 193.466 281.961 194.566C281.961 195.666 281.734 196.649 281.279 197.514C280.839 198.365 280.208 199.039 279.387 199.538C278.58 200.022 277.634 200.264 276.549 200.264C275.654 200.264 274.855 200.081 274.151 199.714C273.462 199.347 272.934 198.834 272.567 198.174V204.84H270.719ZM276.351 198.658C277.084 198.658 277.73 198.489 278.287 198.152C278.844 197.8 279.284 197.316 279.607 196.7C279.93 196.084 280.091 195.365 280.091 194.544C280.091 193.723 279.93 193.004 279.607 192.388C279.284 191.772 278.844 191.295 278.287 190.958C277.73 190.606 277.084 190.43 276.351 190.43C275.618 190.43 274.972 190.606 274.415 190.958C273.858 191.295 273.418 191.772 273.095 192.388C272.772 193.004 272.611 193.723 272.611 194.544C272.611 195.365 272.772 196.084 273.095 196.7C273.418 197.316 273.858 197.8 274.415 198.152C274.972 198.489 275.618 198.658 276.351 198.658ZM77.121 225.264C76.2263 225.264 75.427 225.081 74.723 224.714C74.0336 224.347 73.5056 223.834 73.139 223.174L72.963 225H71.291V209.16H73.139V215.892C73.491 215.364 73.9896 214.887 74.635 214.462C75.295 214.037 76.131 213.824 77.143 213.824C78.2283 213.824 79.1743 214.073 79.981 214.572C80.7876 215.071 81.411 215.753 81.851 216.618C82.3056 217.483 82.533 218.466 82.533 219.566C82.533 220.666 82.3056 221.649 81.851 222.514C81.411 223.365 80.7803 224.039 79.959 224.538C79.1523 225.022 78.2063 225.264 77.121 225.264ZM76.923 223.658C77.6563 223.658 78.3016 223.489 78.859 223.152C79.4163 222.8 79.8563 222.316 80.179 221.7C80.5016 221.084 80.663 220.365 80.663 219.544C80.663 218.723 80.5016 218.004 80.179 217.388C79.8563 216.772 79.4163 216.295 78.859 215.958C78.3016 215.606 77.6563 215.43 76.923 215.43C76.1896 215.43 75.5443 215.606 74.987 215.958C74.4296 216.295 73.9896 216.772 73.667 217.388C73.3443 218.004 73.183 218.723 73.183 219.544C73.183 220.365 73.3443 221.084 73.667 221.7C73.9896 222.316 74.4296 222.8 74.987 223.152C75.5443 223.489 76.1896 223.658 76.923 223.658ZM85.7654 225V214.088H87.4374L87.5914 216.178C87.9288 215.459 88.4421 214.887 89.1314 214.462C89.8208 214.037 90.6714 213.824 91.6834 213.824V215.76H91.1774C90.5321 215.76 89.9381 215.877 89.3954 216.112C88.8528 216.332 88.4201 216.713 88.0974 217.256C87.7748 217.799 87.6134 218.547 87.6134 219.5V225H85.7654ZM98.9154 225.264C97.8741 225.264 96.9501 225.029 96.1434 224.56C95.3367 224.076 94.6987 223.409 94.2294 222.558C93.7747 221.707 93.5474 220.703 93.5474 219.544C93.5474 218.4 93.7747 217.403 94.2294 216.552C94.6841 215.687 95.3147 215.019 96.1214 214.55C96.9427 214.066 97.8887 213.824 98.9594 213.824C100.015 213.824 100.925 214.066 101.687 214.55C102.465 215.019 103.059 215.643 103.469 216.42C103.88 217.197 104.085 218.033 104.085 218.928C104.085 219.089 104.078 219.251 104.063 219.412C104.063 219.573 104.063 219.757 104.063 219.962H95.3734C95.4174 220.798 95.6081 221.495 95.9454 222.052C96.2974 222.595 96.7301 223.005 97.2434 223.284C97.7714 223.563 98.3287 223.702 98.9154 223.702C99.6781 223.702 100.316 223.526 100.829 223.174C101.343 222.822 101.717 222.345 101.951 221.744H103.777C103.484 222.756 102.919 223.599 102.083 224.274C101.262 224.934 100.206 225.264 98.9154 225.264ZM98.9154 215.386C98.0354 215.386 97.2507 215.657 96.5614 216.2C95.8867 216.728 95.4981 217.505 95.3954 218.532H102.259C102.215 217.549 101.878 216.779 101.247 216.222C100.617 215.665 99.8394 215.386 98.9154 215.386ZM110.825 225.264C109.915 225.264 109.16 225.11 108.559 224.802C107.957 224.494 107.51 224.083 107.217 223.57C106.923 223.057 106.777 222.499 106.777 221.898C106.777 220.783 107.202 219.925 108.053 219.324C108.903 218.723 110.062 218.422 111.529 218.422H114.477V218.29C114.477 217.337 114.227 216.618 113.729 216.134C113.23 215.635 112.563 215.386 111.727 215.386C111.008 215.386 110.385 215.569 109.857 215.936C109.343 216.288 109.021 216.809 108.889 217.498H106.997C107.07 216.706 107.334 216.039 107.789 215.496C108.258 214.953 108.837 214.543 109.527 214.264C110.216 213.971 110.949 213.824 111.727 213.824C113.252 213.824 114.396 214.235 115.159 215.056C115.936 215.863 116.325 216.941 116.325 218.29V225H114.675L114.565 223.042C114.257 223.658 113.802 224.186 113.201 224.626C112.614 225.051 111.822 225.264 110.825 225.264ZM111.111 223.702C111.815 223.702 112.416 223.519 112.915 223.152C113.428 222.785 113.817 222.309 114.081 221.722C114.345 221.135 114.477 220.519 114.477 219.874V219.852H111.683C110.597 219.852 109.827 220.043 109.373 220.424C108.933 220.791 108.713 221.253 108.713 221.81C108.713 222.382 108.918 222.844 109.329 223.196C109.754 223.533 110.348 223.702 111.111 223.702ZM119.757 225V209.16H121.605V218.686L126.071 214.088H128.337L123.497 219.016L128.953 225H126.599L121.605 219.346V225H119.757ZM142.297 225C141.3 225 140.515 224.758 139.943 224.274C139.371 223.79 139.085 222.917 139.085 221.656V215.65H137.193V214.088H139.085L139.327 211.47H140.933V214.088H144.145V215.65H140.933V221.656C140.933 222.345 141.073 222.815 141.351 223.064C141.63 223.299 142.121 223.416 142.825 223.416H143.969V225H142.297ZM151.758 225.264C150.717 225.264 149.793 225.029 148.986 224.56C148.18 224.076 147.542 223.409 147.072 222.558C146.618 221.707 146.39 220.703 146.39 219.544C146.39 218.4 146.618 217.403 147.072 216.552C147.527 215.687 148.158 215.019 148.964 214.55C149.786 214.066 150.732 213.824 151.802 213.824C152.858 213.824 153.768 214.066 154.53 214.55C155.308 215.019 155.902 215.643 156.312 216.42C156.723 217.197 156.928 218.033 156.928 218.928C156.928 219.089 156.921 219.251 156.906 219.412C156.906 219.573 156.906 219.757 156.906 219.962H148.216C148.26 220.798 148.451 221.495 148.788 222.052C149.14 222.595 149.573 223.005 150.086 223.284C150.614 223.563 151.172 223.702 151.758 223.702C152.521 223.702 153.159 223.526 153.672 223.174C154.186 222.822 154.56 222.345 154.794 221.744H156.62C156.327 222.756 155.762 223.599 154.926 224.274C154.105 224.934 153.049 225.264 151.758 225.264ZM151.758 215.386C150.878 215.386 150.094 215.657 149.404 216.2C148.73 216.728 148.341 217.505 148.238 218.532H155.102C155.058 217.549 154.721 216.779 154.09 216.222C153.46 215.665 152.682 215.386 151.758 215.386ZM165.054 225.264C164.012 225.264 163.074 225.029 162.238 224.56C161.416 224.076 160.764 223.409 160.28 222.558C159.81 221.693 159.576 220.688 159.576 219.544C159.576 218.4 159.81 217.403 160.28 216.552C160.764 215.687 161.416 215.019 162.238 214.55C163.074 214.066 164.012 213.824 165.054 213.824C166.344 213.824 167.43 214.161 168.31 214.836C169.204 215.511 169.769 216.413 170.004 217.542H168.112C167.965 216.867 167.606 216.347 167.034 215.98C166.462 215.599 165.794 215.408 165.032 215.408C164.416 215.408 163.836 215.562 163.294 215.87C162.751 216.178 162.311 216.64 161.974 217.256C161.636 217.872 161.468 218.635 161.468 219.544C161.468 220.453 161.636 221.216 161.974 221.832C162.311 222.448 162.751 222.917 163.294 223.24C163.836 223.548 164.416 223.702 165.032 223.702C165.794 223.702 166.462 223.519 167.034 223.152C167.606 222.771 167.965 222.235 168.112 221.546H170.004C169.784 222.646 169.226 223.541 168.332 224.23C167.437 224.919 166.344 225.264 165.054 225.264ZM173.245 225V209.16H175.093V215.958C175.459 215.283 175.98 214.763 176.655 214.396C177.329 214.015 178.063 213.824 178.855 213.824C180.116 213.824 181.128 214.22 181.891 215.012C182.653 215.789 183.035 216.992 183.035 218.62V225H181.209V218.818C181.209 216.545 180.292 215.408 178.459 215.408C177.505 215.408 176.706 215.753 176.061 216.442C175.415 217.117 175.093 218.085 175.093 219.346V225H173.245ZM194.099 211.668C193.732 211.668 193.424 211.551 193.175 211.316C192.94 211.067 192.823 210.759 192.823 210.392C192.823 210.04 192.94 209.747 193.175 209.512C193.424 209.277 193.732 209.16 194.099 209.16C194.451 209.16 194.751 209.277 195.001 209.512C195.25 209.747 195.375 210.04 195.375 210.392C195.375 210.759 195.25 211.067 195.001 211.316C194.751 211.551 194.451 211.668 194.099 211.668ZM193.175 225V214.088H195.023V225H193.175ZM198.9 225V214.088H200.572L200.682 216.046C201.034 215.357 201.54 214.814 202.2 214.418C202.86 214.022 203.608 213.824 204.444 213.824C205.735 213.824 206.762 214.22 207.524 215.012C208.302 215.789 208.69 216.992 208.69 218.62V225H206.842V218.818C206.842 216.545 205.904 215.408 204.026 215.408C203.088 215.408 202.303 215.753 201.672 216.442C201.056 217.117 200.748 218.085 200.748 219.346V225H198.9ZM217.1 225.264C216.015 225.264 215.062 225.015 214.24 224.516C213.434 224.017 212.803 223.335 212.348 222.47C211.908 221.605 211.688 220.622 211.688 219.522C211.688 218.422 211.916 217.447 212.37 216.596C212.825 215.731 213.456 215.056 214.262 214.572C215.069 214.073 216.022 213.824 217.122 213.824C218.017 213.824 218.809 214.007 219.498 214.374C220.188 214.741 220.723 215.254 221.104 215.914V209.16H222.952V225H221.28L221.104 223.196C220.752 223.724 220.246 224.201 219.586 224.626C218.926 225.051 218.098 225.264 217.1 225.264ZM217.298 223.658C218.032 223.658 218.677 223.489 219.234 223.152C219.806 222.8 220.246 222.316 220.554 221.7C220.877 221.084 221.038 220.365 221.038 219.544C221.038 218.723 220.877 218.004 220.554 217.388C220.246 216.772 219.806 216.295 219.234 215.958C218.677 215.606 218.032 215.43 217.298 215.43C216.58 215.43 215.934 215.606 215.362 215.958C214.805 216.295 214.365 216.772 214.042 217.388C213.734 218.004 213.58 218.723 213.58 219.544C213.58 220.365 213.734 221.084 214.042 221.7C214.365 222.316 214.805 222.8 215.362 223.152C215.934 223.489 216.58 223.658 217.298 223.658ZM230.607 225.264C229.316 225.264 228.289 224.875 227.527 224.098C226.764 223.306 226.383 222.096 226.383 220.468V214.088H228.231V220.27C228.231 222.543 229.162 223.68 231.025 223.68C231.978 223.68 232.763 223.343 233.379 222.668C234.009 221.979 234.325 221.003 234.325 219.742V214.088H236.173V225H234.501L234.369 223.042C234.031 223.731 233.525 224.274 232.851 224.67C232.191 225.066 231.443 225.264 230.607 225.264ZM244.055 225.264C242.749 225.264 241.664 224.934 240.799 224.274C239.933 223.614 239.427 222.719 239.281 221.59H241.173C241.29 222.162 241.591 222.661 242.075 223.086C242.573 223.497 243.241 223.702 244.077 223.702C244.854 223.702 245.426 223.541 245.793 223.218C246.159 222.881 246.343 222.485 246.343 222.03C246.343 221.37 246.101 220.93 245.617 220.71C245.147 220.49 244.48 220.292 243.615 220.116C243.028 219.999 242.441 219.83 241.855 219.61C241.268 219.39 240.777 219.082 240.381 218.686C239.985 218.275 239.787 217.74 239.787 217.08C239.787 216.127 240.139 215.349 240.843 214.748C241.561 214.132 242.529 213.824 243.747 213.824C244.905 213.824 245.851 214.117 246.585 214.704C247.333 215.276 247.765 216.097 247.883 217.168H246.057C245.983 216.611 245.741 216.178 245.331 215.87C244.935 215.547 244.399 215.386 243.725 215.386C243.065 215.386 242.551 215.525 242.185 215.804C241.833 216.083 241.657 216.449 241.657 216.904C241.657 217.344 241.884 217.689 242.339 217.938C242.808 218.187 243.439 218.4 244.231 218.576C244.905 218.723 245.543 218.906 246.145 219.126C246.761 219.331 247.259 219.647 247.641 220.072C248.037 220.483 248.235 221.084 248.235 221.876C248.249 222.859 247.875 223.673 247.113 224.318C246.365 224.949 245.345 225.264 244.055 225.264ZM255.352 225C254.355 225 253.57 224.758 252.998 224.274C252.426 223.79 252.14 222.917 252.14 221.656V215.65H250.248V214.088H252.14L252.382 211.47H253.988V214.088H257.2V215.65H253.988V221.656C253.988 222.345 254.128 222.815 254.406 223.064C254.685 223.299 255.176 223.416 255.88 223.416H257.024V225H255.352ZM260.208 225V214.088H261.88L262.034 216.178C262.372 215.459 262.885 214.887 263.574 214.462C264.264 214.037 265.114 213.824 266.126 213.824V215.76H265.62C264.975 215.76 264.381 215.877 263.838 216.112C263.296 216.332 262.863 216.713 262.54 217.256C262.218 217.799 262.056 218.547 262.056 219.5V225H260.208ZM270.048 229.84L272.754 223.944H272.116L267.782 214.088H269.784L273.392 222.58L277.22 214.088H279.134L271.984 229.84H270.048ZM92.6787 250.264C91.3733 250.264 90.288 249.934 89.4227 249.274C88.5573 248.614 88.0513 247.719 87.9047 246.59H89.7967C89.914 247.162 90.2147 247.661 90.6987 248.086C91.1973 248.497 91.8647 248.702 92.7007 248.702C93.478 248.702 94.05 248.541 94.4167 248.218C94.7833 247.881 94.9667 247.485 94.9667 247.03C94.9667 246.37 94.7247 245.93 94.2407 245.71C93.7713 245.49 93.104 245.292 92.2387 245.116C91.652 244.999 91.0653 244.83 90.4787 244.61C89.892 244.39 89.4007 244.082 89.0047 243.686C88.6087 243.275 88.4107 242.74 88.4107 242.08C88.4107 241.127 88.7627 240.349 89.4667 239.748C90.1853 239.132 91.1533 238.824 92.3707 238.824C93.5293 238.824 94.4753 239.117 95.2087 239.704C95.9567 240.276 96.3893 241.097 96.5067 242.168H94.6807C94.6073 241.611 94.3653 241.178 93.9547 240.87C93.5587 240.547 93.0233 240.386 92.3487 240.386C91.6887 240.386 91.1753 240.525 90.8087 240.804C90.4567 241.083 90.2807 241.449 90.2807 241.904C90.2807 242.344 90.508 242.689 90.9627 242.938C91.432 243.187 92.0627 243.4 92.8547 243.576C93.5293 243.723 94.1673 243.906 94.7687 244.126C95.3847 244.331 95.8833 244.647 96.2647 245.072C96.6607 245.483 96.8587 246.084 96.8587 246.876C96.8733 247.859 96.4993 248.673 95.7367 249.318C94.9887 249.949 93.9693 250.264 92.6787 250.264ZM103.977 250C102.979 250 102.195 249.758 101.623 249.274C101.051 248.79 100.765 247.917 100.765 246.656V240.65H98.8725V239.088H100.765L101.007 236.47H102.613V239.088H105.825V240.65H102.613V246.656C102.613 247.345 102.752 247.815 103.031 248.064C103.309 248.299 103.801 248.416 104.505 248.416H105.649V250H103.977ZM113.438 250.264C112.396 250.264 111.472 250.029 110.666 249.56C109.859 249.076 109.221 248.409 108.752 247.558C108.297 246.707 108.07 245.703 108.07 244.544C108.07 243.4 108.297 242.403 108.752 241.552C109.206 240.687 109.837 240.019 110.644 239.55C111.465 239.066 112.411 238.824 113.482 238.824C114.538 238.824 115.447 239.066 116.21 239.55C116.987 240.019 117.581 240.643 117.992 241.42C118.402 242.197 118.608 243.033 118.608 243.928C118.608 244.089 118.6 244.251 118.586 244.412C118.586 244.573 118.586 244.757 118.586 244.962H109.896C109.94 245.798 110.13 246.495 110.468 247.052C110.82 247.595 111.252 248.005 111.766 248.284C112.294 248.563 112.851 248.702 113.438 248.702C114.2 248.702 114.838 248.526 115.352 248.174C115.865 247.822 116.239 247.345 116.474 246.744H118.3C118.006 247.756 117.442 248.599 116.606 249.274C115.784 249.934 114.728 250.264 113.438 250.264ZM113.438 240.386C112.558 240.386 111.773 240.657 111.084 241.2C110.409 241.728 110.02 242.505 109.918 243.532H116.782C116.738 242.549 116.4 241.779 115.77 241.222C115.139 240.665 114.362 240.386 113.438 240.386ZM121.717 250V239.088H123.389L123.543 241.178C123.88 240.459 124.394 239.887 125.083 239.462C125.772 239.037 126.623 238.824 127.635 238.824V240.76H127.129C126.484 240.76 125.89 240.877 125.347 241.112C124.804 241.332 124.372 241.713 124.049 242.256C123.726 242.799 123.565 243.547 123.565 244.5V250H121.717ZM134.867 250.264C133.826 250.264 132.902 250.029 132.095 249.56C131.288 249.076 130.65 248.409 130.181 247.558C129.726 246.707 129.499 245.703 129.499 244.544C129.499 243.4 129.726 242.403 130.181 241.552C130.636 240.687 131.266 240.019 132.073 239.55C132.894 239.066 133.84 238.824 134.911 238.824C135.967 238.824 136.876 239.066 137.639 239.55C138.416 240.019 139.01 240.643 139.421 241.42C139.832 242.197 140.037 243.033 140.037 243.928C140.037 244.089 140.03 244.251 140.015 244.412C140.015 244.573 140.015 244.757 140.015 244.962H131.325C131.369 245.798 131.56 246.495 131.897 247.052C132.249 247.595 132.682 248.005 133.195 248.284C133.723 248.563 134.28 248.702 134.867 248.702C135.63 248.702 136.268 248.526 136.781 248.174C137.294 247.822 137.668 247.345 137.903 246.744H139.729C139.436 247.756 138.871 248.599 138.035 249.274C137.214 249.934 136.158 250.264 134.867 250.264ZM134.867 240.386C133.987 240.386 133.202 240.657 132.513 241.2C131.838 241.728 131.45 242.505 131.347 243.532H138.211C138.167 242.549 137.83 241.779 137.199 241.222C136.568 240.665 135.791 240.386 134.867 240.386ZM148.118 250.264C147.092 250.264 146.168 250.029 145.346 249.56C144.525 249.091 143.872 248.431 143.388 247.58C142.919 246.715 142.684 245.703 142.684 244.544C142.684 243.385 142.926 242.381 143.41 241.53C143.894 240.665 144.547 239.997 145.368 239.528C146.204 239.059 147.136 238.824 148.162 238.824C149.189 238.824 150.113 239.059 150.934 239.528C151.756 239.997 152.401 240.665 152.87 241.53C153.354 242.381 153.596 243.385 153.596 244.544C153.596 245.703 153.354 246.715 152.87 247.58C152.386 248.431 151.726 249.091 150.89 249.56C150.069 250.029 149.145 250.264 148.118 250.264ZM148.118 248.68C148.749 248.68 149.336 248.526 149.878 248.218C150.421 247.91 150.861 247.448 151.198 246.832C151.536 246.216 151.704 245.453 151.704 244.544C151.704 243.635 151.536 242.872 151.198 242.256C150.876 241.64 150.443 241.178 149.9 240.87C149.358 240.562 148.778 240.408 148.162 240.408C147.532 240.408 146.945 240.562 146.402 240.87C145.86 241.178 145.42 241.64 145.082 242.256C144.745 242.872 144.576 243.635 144.576 244.544C144.576 245.453 144.745 246.216 145.082 246.832C145.42 247.448 145.852 247.91 146.38 248.218C146.923 248.526 147.502 248.68 148.118 248.68ZM160.708 250C159.711 250 158.926 249.758 158.354 249.274C157.782 248.79 157.496 247.917 157.496 246.656V240.65H155.604V239.088H157.496L157.738 236.47H159.344V239.088H162.556V240.65H159.344V246.656C159.344 247.345 159.483 247.815 159.762 248.064C160.041 248.299 160.532 248.416 161.236 248.416H162.38V250H160.708ZM166.752 254.84L169.458 248.944H168.82L164.486 239.088H166.488L170.096 247.58L173.924 239.088H175.838L168.688 254.84H166.752ZM178.449 254.84V239.088H180.121L180.297 240.892C180.649 240.364 181.147 239.887 181.793 239.462C182.453 239.037 183.289 238.824 184.301 238.824C185.386 238.824 186.332 239.073 187.139 239.572C187.945 240.071 188.569 240.753 189.009 241.618C189.463 242.483 189.691 243.466 189.691 244.566C189.691 245.666 189.463 246.649 189.009 247.514C188.569 248.365 187.938 249.039 187.117 249.538C186.31 250.022 185.364 250.264 184.279 250.264C183.384 250.264 182.585 250.081 181.881 249.714C181.191 249.347 180.663 248.834 180.297 248.174V254.84H178.449ZM184.081 248.658C184.814 248.658 185.459 248.489 186.017 248.152C186.574 247.8 187.014 247.316 187.337 246.7C187.659 246.084 187.821 245.365 187.821 244.544C187.821 243.723 187.659 243.004 187.337 242.388C187.014 241.772 186.574 241.295 186.017 240.958C185.459 240.606 184.814 240.43 184.081 240.43C183.347 240.43 182.702 240.606 182.145 240.958C181.587 241.295 181.147 241.772 180.825 242.388C180.502 243.004 180.341 243.723 180.341 244.544C180.341 245.365 180.502 246.084 180.825 246.7C181.147 247.316 181.587 247.8 182.145 248.152C182.702 248.489 183.347 248.658 184.081 248.658ZM197.829 250.264C196.788 250.264 195.864 250.029 195.057 249.56C194.25 249.076 193.612 248.409 193.143 247.558C192.688 246.707 192.461 245.703 192.461 244.544C192.461 243.4 192.688 242.403 193.143 241.552C193.598 240.687 194.228 240.019 195.035 239.55C195.856 239.066 196.802 238.824 197.873 238.824C198.929 238.824 199.838 239.066 200.601 239.55C201.378 240.019 201.972 240.643 202.383 241.42C202.794 242.197 202.999 243.033 202.999 243.928C202.999 244.089 202.992 244.251 202.977 244.412C202.977 244.573 202.977 244.757 202.977 244.962H194.287C194.331 245.798 194.522 246.495 194.859 247.052C195.211 247.595 195.644 248.005 196.157 248.284C196.685 248.563 197.242 248.702 197.829 248.702C198.592 248.702 199.23 248.526 199.743 248.174C200.256 247.822 200.63 247.345 200.865 246.744H202.691C202.398 247.756 201.833 248.599 200.997 249.274C200.176 249.934 199.12 250.264 197.829 250.264ZM197.829 240.386C196.949 240.386 196.164 240.657 195.475 241.2C194.8 241.728 194.412 242.505 194.309 243.532H201.173C201.129 242.549 200.792 241.779 200.161 241.222C199.53 240.665 198.753 240.386 197.829 240.386ZM210.288 250.264C208.983 250.264 207.898 249.934 207.032 249.274C206.167 248.614 205.661 247.719 205.514 246.59H207.406C207.524 247.162 207.824 247.661 208.308 248.086C208.807 248.497 209.474 248.702 210.31 248.702C211.088 248.702 211.66 248.541 212.026 248.218C212.393 247.881 212.576 247.485 212.576 247.03C212.576 246.37 212.334 245.93 211.85 245.71C211.381 245.49 210.714 245.292 209.848 245.116C209.262 244.999 208.675 244.83 208.088 244.61C207.502 244.39 207.01 244.082 206.614 243.686C206.218 243.275 206.02 242.74 206.02 242.08C206.02 241.127 206.372 240.349 207.076 239.748C207.795 239.132 208.763 238.824 209.98 238.824C211.139 238.824 212.085 239.117 212.818 239.704C213.566 240.276 213.999 241.097 214.116 242.168H212.29C212.217 241.611 211.975 241.178 211.564 240.87C211.168 240.547 210.633 240.386 209.958 240.386C209.298 240.386 208.785 240.525 208.418 240.804C208.066 241.083 207.89 241.449 207.89 241.904C207.89 242.344 208.118 242.689 208.572 242.938C209.042 243.187 209.672 243.4 210.464 243.576C211.139 243.723 211.777 243.906 212.378 244.126C212.994 244.331 213.493 244.647 213.874 245.072C214.27 245.483 214.468 246.084 214.468 246.876C214.483 247.859 214.109 248.673 213.346 249.318C212.598 249.949 211.579 250.264 210.288 250.264ZM227.881 250.264C226.971 250.264 226.216 250.11 225.615 249.802C225.013 249.494 224.566 249.083 224.273 248.57C223.979 248.057 223.833 247.499 223.833 246.898C223.833 245.783 224.258 244.925 225.109 244.324C225.959 243.723 227.118 243.422 228.585 243.422H231.533V243.29C231.533 242.337 231.283 241.618 230.785 241.134C230.286 240.635 229.619 240.386 228.783 240.386C228.064 240.386 227.441 240.569 226.913 240.936C226.399 241.288 226.077 241.809 225.945 242.498H224.053C224.126 241.706 224.39 241.039 224.845 240.496C225.314 239.953 225.893 239.543 226.583 239.264C227.272 238.971 228.005 238.824 228.783 238.824C230.308 238.824 231.452 239.235 232.215 240.056C232.992 240.863 233.381 241.941 233.381 243.29V250H231.731L231.621 248.042C231.313 248.658 230.858 249.186 230.257 249.626C229.67 250.051 228.878 250.264 227.881 250.264ZM228.167 248.702C228.871 248.702 229.472 248.519 229.971 248.152C230.484 247.785 230.873 247.309 231.137 246.722C231.401 246.135 231.533 245.519 231.533 244.874V244.852H228.739C227.653 244.852 226.883 245.043 226.429 245.424C225.989 245.791 225.769 246.253 225.769 246.81C225.769 247.382 225.974 247.844 226.385 248.196C226.81 248.533 227.404 248.702 228.167 248.702ZM236.813 250V239.088H238.485L238.595 241.046C238.947 240.357 239.453 239.814 240.113 239.418C240.773 239.022 241.521 238.824 242.357 238.824C243.648 238.824 244.674 239.22 245.437 240.012C246.214 240.789 246.603 241.992 246.603 243.62V250H244.755V243.818C244.755 241.545 243.816 240.408 241.939 240.408C241 240.408 240.216 240.753 239.585 241.442C238.969 242.117 238.661 243.085 238.661 244.346V250H236.813ZM255.013 250.264C253.928 250.264 252.974 250.015 252.153 249.516C251.346 249.017 250.716 248.335 250.261 247.47C249.821 246.605 249.601 245.622 249.601 244.522C249.601 243.422 249.828 242.447 250.283 241.596C250.738 240.731 251.368 240.056 252.175 239.572C252.982 239.073 253.935 238.824 255.035 238.824C255.93 238.824 256.722 239.007 257.411 239.374C258.1 239.741 258.636 240.254 259.017 240.914V234.16H260.865V250H259.193L259.017 248.196C258.665 248.724 258.159 249.201 257.499 249.626C256.839 250.051 256.01 250.264 255.013 250.264ZM255.211 248.658C255.944 248.658 256.59 248.489 257.147 248.152C257.719 247.8 258.159 247.316 258.467 246.7C258.79 246.084 258.951 245.365 258.951 244.544C258.951 243.723 258.79 243.004 258.467 242.388C258.159 241.772 257.719 241.295 257.147 240.958C256.59 240.606 255.944 240.43 255.211 240.43C254.492 240.43 253.847 240.606 253.275 240.958C252.718 241.295 252.278 241.772 251.955 242.388C251.647 243.004 251.493 243.723 251.493 244.544C251.493 245.365 251.647 246.084 251.955 246.7C252.278 247.316 252.718 247.8 253.275 248.152C253.847 248.489 254.492 248.658 255.211 248.658ZM82.5655 275.264C81.2602 275.264 80.1749 274.934 79.3095 274.274C78.4442 273.614 77.9382 272.719 77.7915 271.59H79.6835C79.8009 272.162 80.1015 272.661 80.5855 273.086C81.0842 273.497 81.7515 273.702 82.5875 273.702C83.3649 273.702 83.9369 273.541 84.3035 273.218C84.6702 272.881 84.8535 272.485 84.8535 272.03C84.8535 271.37 84.6115 270.93 84.1275 270.71C83.6582 270.49 82.9909 270.292 82.1255 270.116C81.5389 269.999 80.9522 269.83 80.3655 269.61C79.7789 269.39 79.2875 269.082 78.8915 268.686C78.4955 268.275 78.2975 267.74 78.2975 267.08C78.2975 266.127 78.6495 265.349 79.3535 264.748C80.0722 264.132 81.0402 263.824 82.2575 263.824C83.4162 263.824 84.3622 264.117 85.0955 264.704C85.8435 265.276 86.2762 266.097 86.3935 267.168H84.5675C84.4942 266.611 84.2522 266.178 83.8415 265.87C83.4455 265.547 82.9102 265.386 82.2355 265.386C81.5755 265.386 81.0622 265.525 80.6955 265.804C80.3435 266.083 80.1675 266.449 80.1675 266.904C80.1675 267.344 80.3949 267.689 80.8495 267.938C81.3189 268.187 81.9495 268.4 82.7415 268.576C83.4162 268.723 84.0542 268.906 84.6555 269.126C85.2715 269.331 85.7702 269.647 86.1515 270.072C86.5475 270.483 86.7455 271.084 86.7455 271.876C86.7602 272.859 86.3862 273.673 85.6235 274.318C84.8755 274.949 83.8562 275.264 82.5655 275.264ZM90.0455 275V259.16H91.8935V265.958C92.2602 265.283 92.7809 264.763 93.4555 264.396C94.1302 264.015 94.8635 263.824 95.6555 263.824C96.9169 263.824 97.9289 264.22 98.6915 265.012C99.4542 265.789 99.8355 266.992 99.8355 268.62V275H98.0095V268.818C98.0095 266.545 97.0929 265.408 95.2595 265.408C94.3062 265.408 93.5069 265.753 92.8615 266.442C92.2162 267.117 91.8935 268.085 91.8935 269.346V275H90.0455ZM108.267 275.264C107.241 275.264 106.317 275.029 105.495 274.56C104.674 274.091 104.021 273.431 103.537 272.58C103.068 271.715 102.833 270.703 102.833 269.544C102.833 268.385 103.075 267.381 103.559 266.53C104.043 265.665 104.696 264.997 105.517 264.528C106.353 264.059 107.285 263.824 108.311 263.824C109.338 263.824 110.262 264.059 111.083 264.528C111.905 264.997 112.55 265.665 113.019 266.53C113.503 267.381 113.745 268.385 113.745 269.544C113.745 270.703 113.503 271.715 113.019 272.58C112.535 273.431 111.875 274.091 111.039 274.56C110.218 275.029 109.294 275.264 108.267 275.264ZM108.267 273.68C108.898 273.68 109.485 273.526 110.027 273.218C110.57 272.91 111.01 272.448 111.347 271.832C111.685 271.216 111.853 270.453 111.853 269.544C111.853 268.635 111.685 267.872 111.347 267.256C111.025 266.64 110.592 266.178 110.049 265.87C109.507 265.562 108.927 265.408 108.311 265.408C107.681 265.408 107.094 265.562 106.551 265.87C106.009 266.178 105.569 266.64 105.231 267.256C104.894 267.872 104.725 268.635 104.725 269.544C104.725 270.453 104.894 271.216 105.231 271.832C105.569 272.448 106.001 272.91 106.529 273.218C107.072 273.526 107.651 273.68 108.267 273.68ZM118.767 275L115.577 264.088H117.425L119.735 272.646L122.287 264.088H124.377L126.951 272.646L129.239 264.088H131.109L127.919 275H126.027L123.343 266.002L120.659 275H118.767ZM144.607 275C143.61 275 142.825 274.758 142.253 274.274C141.681 273.79 141.395 272.917 141.395 271.656V265.65H139.503V264.088H141.395L141.637 261.47H143.243V264.088H146.455V265.65H143.243V271.656C143.243 272.345 143.382 272.815 143.661 273.064C143.94 273.299 144.431 273.416 145.135 273.416H146.279V275H144.607ZM149.463 275V259.16H151.311V265.958C151.677 265.283 152.198 264.763 152.873 264.396C153.547 264.015 154.281 263.824 155.073 263.824C156.334 263.824 157.346 264.22 158.109 265.012C158.871 265.789 159.253 266.992 159.253 268.62V275H157.427V268.818C157.427 266.545 156.51 265.408 154.677 265.408C153.723 265.408 152.924 265.753 152.279 266.442C151.633 267.117 151.311 268.085 151.311 269.346V275H149.463ZM166.343 275.264C165.433 275.264 164.678 275.11 164.077 274.802C163.475 274.494 163.028 274.083 162.735 273.57C162.441 273.057 162.295 272.499 162.295 271.898C162.295 270.783 162.72 269.925 163.571 269.324C164.421 268.723 165.58 268.422 167.047 268.422H169.995V268.29C169.995 267.337 169.745 266.618 169.247 266.134C168.748 265.635 168.081 265.386 167.245 265.386C166.526 265.386 165.903 265.569 165.375 265.936C164.861 266.288 164.539 266.809 164.407 267.498H162.515C162.588 266.706 162.852 266.039 163.307 265.496C163.776 264.953 164.355 264.543 165.045 264.264C165.734 263.971 166.467 263.824 167.245 263.824C168.77 263.824 169.914 264.235 170.677 265.056C171.454 265.863 171.843 266.941 171.843 268.29V275H170.193L170.083 273.042C169.775 273.658 169.32 274.186 168.719 274.626C168.132 275.051 167.34 275.264 166.343 275.264ZM166.629 273.702C167.333 273.702 167.934 273.519 168.433 273.152C168.946 272.785 169.335 272.309 169.599 271.722C169.863 271.135 169.995 270.519 169.995 269.874V269.852H167.201C166.115 269.852 165.345 270.043 164.891 270.424C164.451 270.791 164.231 271.253 164.231 271.81C164.231 272.382 164.436 272.844 164.847 273.196C165.272 273.533 165.866 273.702 166.629 273.702ZM179.286 275C178.289 275 177.504 274.758 176.932 274.274C176.36 273.79 176.074 272.917 176.074 271.656V265.65H174.182V264.088H176.074L176.316 261.47H177.922V264.088H181.134V265.65H177.922V271.656C177.922 272.345 178.061 272.815 178.34 273.064C178.619 273.299 179.11 273.416 179.814 273.416H180.958V275H179.286ZM191.218 275V265.65H189.568V264.088H191.218V262.196C191.218 261.14 191.482 260.37 192.01 259.886C192.538 259.402 193.308 259.16 194.32 259.16H195.42V260.744H194.606C194.049 260.744 193.653 260.861 193.418 261.096C193.184 261.316 193.066 261.697 193.066 262.24V264.088H195.75V265.65H193.066V275H191.218ZM203.087 275.264C202.045 275.264 201.121 275.029 200.315 274.56C199.508 274.076 198.87 273.409 198.401 272.558C197.946 271.707 197.719 270.703 197.719 269.544C197.719 268.4 197.946 267.403 198.401 266.552C198.855 265.687 199.486 265.019 200.293 264.55C201.114 264.066 202.06 263.824 203.131 263.824C204.187 263.824 205.096 264.066 205.859 264.55C206.636 265.019 207.23 265.643 207.641 266.42C208.051 267.197 208.257 268.033 208.257 268.928C208.257 269.089 208.249 269.251 208.235 269.412C208.235 269.573 208.235 269.757 208.235 269.962H199.545C199.589 270.798 199.779 271.495 200.117 272.052C200.469 272.595 200.901 273.005 201.415 273.284C201.943 273.563 202.5 273.702 203.087 273.702C203.849 273.702 204.487 273.526 205.001 273.174C205.514 272.822 205.888 272.345 206.123 271.744H207.949C207.655 272.756 207.091 273.599 206.255 274.274C205.433 274.934 204.377 275.264 203.087 275.264ZM203.087 265.386C202.207 265.386 201.422 265.657 200.733 266.2C200.058 266.728 199.669 267.505 199.567 268.532H206.431C206.387 267.549 206.049 266.779 205.419 266.222C204.788 265.665 204.011 265.386 203.087 265.386ZM211.366 275V264.088H213.038L213.17 265.672C213.522 265.085 213.991 264.631 214.578 264.308C215.165 263.985 215.825 263.824 216.558 263.824C217.423 263.824 218.164 264 218.78 264.352C219.411 264.704 219.895 265.239 220.232 265.958C220.613 265.298 221.134 264.777 221.794 264.396C222.469 264.015 223.195 263.824 223.972 263.824C225.277 263.824 226.319 264.22 227.096 265.012C227.873 265.789 228.262 266.992 228.262 268.62V275H226.436V268.818C226.436 267.689 226.209 266.838 225.754 266.266C225.299 265.694 224.647 265.408 223.796 265.408C222.916 265.408 222.183 265.753 221.596 266.442C221.024 267.117 220.738 268.085 220.738 269.346V275H218.89V268.818C218.89 267.689 218.663 266.838 218.208 266.266C217.753 265.694 217.101 265.408 216.25 265.408C215.385 265.408 214.659 265.753 214.072 266.442C213.5 267.117 213.214 268.085 213.214 269.346V275H211.366ZM235.336 275.264C234.426 275.264 233.671 275.11 233.07 274.802C232.468 274.494 232.021 274.083 231.728 273.57C231.434 273.057 231.288 272.499 231.288 271.898C231.288 270.783 231.713 269.925 232.564 269.324C233.414 268.723 234.573 268.422 236.04 268.422H238.988V268.29C238.988 267.337 238.738 266.618 238.24 266.134C237.741 265.635 237.074 265.386 236.238 265.386C235.519 265.386 234.896 265.569 234.368 265.936C233.854 266.288 233.532 266.809 233.4 267.498H231.508C231.581 266.706 231.845 266.039 232.3 265.496C232.769 264.953 233.348 264.543 234.038 264.264C234.727 263.971 235.46 263.824 236.238 263.824C237.763 263.824 238.907 264.235 239.67 265.056C240.447 265.863 240.836 266.941 240.836 268.29V275H239.186L239.076 273.042C238.768 273.658 238.313 274.186 237.712 274.626C237.125 275.051 236.333 275.264 235.336 275.264ZM235.622 273.702C236.326 273.702 236.927 273.519 237.426 273.152C237.939 272.785 238.328 272.309 238.592 271.722C238.856 271.135 238.988 270.519 238.988 269.874V269.852H236.194C235.108 269.852 234.338 270.043 233.884 270.424C233.444 270.791 233.224 271.253 233.224 271.81C233.224 272.382 233.429 272.844 233.84 273.196C234.265 273.533 234.859 273.702 235.622 273.702ZM244.268 275V259.16H246.116V275H244.268ZM254.711 275.264C253.67 275.264 252.746 275.029 251.939 274.56C251.132 274.076 250.494 273.409 250.025 272.558C249.57 271.707 249.343 270.703 249.343 269.544C249.343 268.4 249.57 267.403 250.025 266.552C250.48 265.687 251.11 265.019 251.917 264.55C252.738 264.066 253.684 263.824 254.755 263.824C255.811 263.824 256.72 264.066 257.483 264.55C258.26 265.019 258.854 265.643 259.265 266.42C259.676 267.197 259.881 268.033 259.881 268.928C259.881 269.089 259.874 269.251 259.859 269.412C259.859 269.573 259.859 269.757 259.859 269.962H251.169C251.213 270.798 251.404 271.495 251.741 272.052C252.093 272.595 252.526 273.005 253.039 273.284C253.567 273.563 254.124 273.702 254.711 273.702C255.474 273.702 256.112 273.526 256.625 273.174C257.138 272.822 257.512 272.345 257.747 271.744H259.573C259.28 272.756 258.715 273.599 257.879 274.274C257.058 274.934 256.002 275.264 254.711 275.264ZM254.711 265.386C253.831 265.386 253.046 265.657 252.357 266.2C251.682 266.728 251.294 267.505 251.191 268.532H258.055C258.011 267.549 257.674 266.779 257.043 266.222C256.412 265.665 255.635 265.386 254.711 265.386ZM267.17 275.264C265.865 275.264 264.78 274.934 263.914 274.274C263.049 273.614 262.543 272.719 262.396 271.59H264.288C264.406 272.162 264.706 272.661 265.19 273.086C265.689 273.497 266.356 273.702 267.192 273.702C267.97 273.702 268.542 273.541 268.908 273.218C269.275 272.881 269.458 272.485 269.458 272.03C269.458 271.37 269.216 270.93 268.732 270.71C268.263 270.49 267.596 270.292 266.73 270.116C266.144 269.999 265.557 269.83 264.97 269.61C264.384 269.39 263.892 269.082 263.496 268.686C263.1 268.275 262.902 267.74 262.902 267.08C262.902 266.127 263.254 265.349 263.958 264.748C264.677 264.132 265.645 263.824 266.862 263.824C268.021 263.824 268.967 264.117 269.7 264.704C270.448 265.276 270.881 266.097 270.998 267.168H269.172C269.099 266.611 268.857 266.178 268.446 265.87C268.05 265.547 267.515 265.386 266.84 265.386C266.18 265.386 265.667 265.525 265.3 265.804C264.948 266.083 264.772 266.449 264.772 266.904C264.772 267.344 265 267.689 265.454 267.938C265.924 268.187 266.554 268.4 267.346 268.576C268.021 268.723 268.659 268.906 269.26 269.126C269.876 269.331 270.375 269.647 270.756 270.072C271.152 270.483 271.35 271.084 271.35 271.876C271.365 272.859 270.991 273.673 270.228 274.318C269.48 274.949 268.461 275.264 267.17 275.264ZM119.205 300.264C118.296 300.264 117.541 300.11 116.939 299.802C116.338 299.494 115.891 299.083 115.597 298.57C115.304 298.057 115.157 297.499 115.157 296.898C115.157 295.783 115.583 294.925 116.433 294.324C117.284 293.723 118.443 293.422 119.909 293.422H122.857V293.29C122.857 292.337 122.608 291.618 122.109 291.134C121.611 290.635 120.943 290.386 120.107 290.386C119.389 290.386 118.765 290.569 118.237 290.936C117.724 291.288 117.401 291.809 117.269 292.498H115.377C115.451 291.706 115.715 291.039 116.169 290.496C116.639 289.953 117.218 289.543 117.907 289.264C118.597 288.971 119.33 288.824 120.107 288.824C121.633 288.824 122.777 289.235 123.539 290.056C124.317 290.863 124.705 291.941 124.705 293.29V300H123.055L122.945 298.042C122.637 298.658 122.183 299.186 121.581 299.626C120.995 300.051 120.203 300.264 119.205 300.264ZM119.491 298.702C120.195 298.702 120.797 298.519 121.295 298.152C121.809 297.785 122.197 297.309 122.461 296.722C122.725 296.135 122.857 295.519 122.857 294.874V294.852H120.063C118.978 294.852 118.208 295.043 117.753 295.424C117.313 295.791 117.093 296.253 117.093 296.81C117.093 297.382 117.299 297.844 117.709 298.196C118.135 298.533 118.729 298.702 119.491 298.702ZM128.138 300V289.088H129.81L129.92 291.046C130.272 290.357 130.778 289.814 131.438 289.418C132.098 289.022 132.846 288.824 133.682 288.824C134.972 288.824 135.999 289.22 136.762 290.012C137.539 290.789 137.928 291.992 137.928 293.62V300H136.08V293.818C136.08 291.545 135.141 290.408 133.264 290.408C132.325 290.408 131.54 290.753 130.91 291.442C130.294 292.117 129.986 293.085 129.986 294.346V300H128.138ZM146.338 300.264C145.252 300.264 144.299 300.015 143.478 299.516C142.671 299.017 142.04 298.335 141.586 297.47C141.146 296.605 140.926 295.622 140.926 294.522C140.926 293.422 141.153 292.447 141.608 291.596C142.062 290.731 142.693 290.056 143.5 289.572C144.306 289.073 145.26 288.824 146.36 288.824C147.254 288.824 148.046 289.007 148.736 289.374C149.425 289.741 149.96 290.254 150.342 290.914V284.16H152.19V300H150.518L150.342 298.196C149.99 298.724 149.484 299.201 148.824 299.626C148.164 300.051 147.335 300.264 146.338 300.264ZM146.536 298.658C147.269 298.658 147.914 298.489 148.472 298.152C149.044 297.8 149.484 297.316 149.792 296.7C150.114 296.084 150.276 295.365 150.276 294.544C150.276 293.723 150.114 293.004 149.792 292.388C149.484 291.772 149.044 291.295 148.472 290.958C147.914 290.606 147.269 290.43 146.536 290.43C145.817 290.43 145.172 290.606 144.6 290.958C144.042 291.295 143.602 291.772 143.28 292.388C142.972 293.004 142.818 293.723 142.818 294.544C142.818 295.365 142.972 296.084 143.28 296.7C143.602 297.316 144.042 297.8 144.6 298.152C145.172 298.489 145.817 298.658 146.536 298.658ZM166.656 296.568C166.04 296.568 165.476 296.487 164.962 296.326L163.862 297.36C164.024 297.477 164.222 297.58 164.456 297.668C164.706 297.741 165.058 297.815 165.512 297.888C165.967 297.947 166.605 298.013 167.426 298.086C168.893 298.189 169.942 298.526 170.572 299.098C171.203 299.67 171.518 300.418 171.518 301.342C171.518 301.973 171.342 302.574 170.99 303.146C170.653 303.718 170.125 304.187 169.406 304.554C168.702 304.921 167.793 305.104 166.678 305.104C165.696 305.104 164.823 304.972 164.06 304.708C163.298 304.459 162.704 304.07 162.278 303.542C161.853 303.029 161.64 302.376 161.64 301.584C161.64 301.173 161.75 300.726 161.97 300.242C162.19 299.773 162.601 299.325 163.202 298.9C162.88 298.768 162.601 298.629 162.366 298.482C162.146 298.321 161.941 298.145 161.75 297.954V297.448L163.62 295.6C162.755 294.867 162.322 293.899 162.322 292.696C162.322 291.977 162.491 291.325 162.828 290.738C163.166 290.151 163.657 289.689 164.302 289.352C164.948 289 165.732 288.824 166.656 288.824C167.287 288.824 167.859 288.912 168.372 289.088H172.398V290.474L170.352 290.562C170.778 291.178 170.99 291.889 170.99 292.696C170.99 293.415 170.814 294.067 170.462 294.654C170.125 295.241 169.634 295.71 168.988 296.062C168.358 296.399 167.58 296.568 166.656 296.568ZM166.656 295.05C167.434 295.05 168.05 294.852 168.504 294.456C168.974 294.045 169.208 293.459 169.208 292.696C169.208 291.948 168.974 291.376 168.504 290.98C168.05 290.569 167.434 290.364 166.656 290.364C165.864 290.364 165.234 290.569 164.764 290.98C164.31 291.376 164.082 291.948 164.082 292.696C164.082 293.459 164.31 294.045 164.764 294.456C165.234 294.852 165.864 295.05 166.656 295.05ZM163.444 301.408C163.444 302.141 163.752 302.684 164.368 303.036C164.984 303.403 165.754 303.586 166.678 303.586C167.588 303.586 168.314 303.388 168.856 302.992C169.414 302.596 169.692 302.068 169.692 301.408C169.692 300.939 169.502 300.528 169.12 300.176C168.739 299.839 168.035 299.641 167.008 299.582C166.202 299.523 165.505 299.45 164.918 299.362C164.317 299.685 163.921 300.029 163.73 300.396C163.54 300.777 163.444 301.115 163.444 301.408ZM179.619 300.264C178.578 300.264 177.654 300.029 176.847 299.56C176.041 299.076 175.403 298.409 174.933 297.558C174.479 296.707 174.251 295.703 174.251 294.544C174.251 293.4 174.479 292.403 174.933 291.552C175.388 290.687 176.019 290.019 176.825 289.55C177.647 289.066 178.593 288.824 179.663 288.824C180.719 288.824 181.629 289.066 182.391 289.55C183.169 290.019 183.763 290.643 184.173 291.42C184.584 292.197 184.789 293.033 184.789 293.928C184.789 294.089 184.782 294.251 184.767 294.412C184.767 294.573 184.767 294.757 184.767 294.962H176.077C176.121 295.798 176.312 296.495 176.649 297.052C177.001 297.595 177.434 298.005 177.947 298.284C178.475 298.563 179.033 298.702 179.619 298.702C180.382 298.702 181.02 298.526 181.533 298.174C182.047 297.822 182.421 297.345 182.655 296.744H184.481C184.188 297.756 183.623 298.599 182.787 299.274C181.966 299.934 180.91 300.264 179.619 300.264ZM179.619 290.386C178.739 290.386 177.955 290.657 177.265 291.2C176.591 291.728 176.202 292.505 176.099 293.532H182.963C182.919 292.549 182.582 291.779 181.951 291.222C181.321 290.665 180.543 290.386 179.619 290.386ZM187.899 300V289.088H189.571L189.681 291.046C190.033 290.357 190.539 289.814 191.199 289.418C191.859 289.022 192.607 288.824 193.443 288.824C194.733 288.824 195.76 289.22 196.523 290.012C197.3 290.789 197.689 291.992 197.689 293.62V300H195.841V293.818C195.841 291.545 194.902 290.408 193.025 290.408C192.086 290.408 191.301 290.753 190.671 291.442C190.055 292.117 189.747 293.085 189.747 294.346V300H187.899ZM206.099 300.264C205.013 300.264 204.06 300.015 203.239 299.516C202.432 299.017 201.801 298.335 201.347 297.47C200.907 296.605 200.687 295.622 200.687 294.522C200.687 293.422 200.914 292.447 201.369 291.596C201.823 290.731 202.454 290.056 203.261 289.572C204.067 289.073 205.021 288.824 206.121 288.824C207.015 288.824 207.807 289.007 208.497 289.374C209.186 289.741 209.721 290.254 210.103 290.914V284.16H211.951V300H210.279L210.103 298.196C209.751 298.724 209.245 299.201 208.585 299.626C207.925 300.051 207.096 300.264 206.099 300.264ZM206.297 298.658C207.03 298.658 207.675 298.489 208.233 298.152C208.805 297.8 209.245 297.316 209.553 296.7C209.875 296.084 210.037 295.365 210.037 294.544C210.037 293.723 209.875 293.004 209.553 292.388C209.245 291.772 208.805 291.295 208.233 290.958C207.675 290.606 207.03 290.43 206.297 290.43C205.578 290.43 204.933 290.606 204.361 290.958C203.803 291.295 203.363 291.772 203.041 292.388C202.733 293.004 202.579 293.723 202.579 294.544C202.579 295.365 202.733 296.084 203.041 296.7C203.363 297.316 203.803 297.8 204.361 298.152C204.933 298.489 205.578 298.658 206.297 298.658ZM220.529 300.264C219.488 300.264 218.564 300.029 217.757 299.56C216.95 299.076 216.312 298.409 215.843 297.558C215.388 296.707 215.161 295.703 215.161 294.544C215.161 293.4 215.388 292.403 215.843 291.552C216.298 290.687 216.928 290.019 217.735 289.55C218.556 289.066 219.502 288.824 220.573 288.824C221.629 288.824 222.538 289.066 223.301 289.55C224.078 290.019 224.672 290.643 225.083 291.42C225.494 292.197 225.699 293.033 225.699 293.928C225.699 294.089 225.692 294.251 225.677 294.412C225.677 294.573 225.677 294.757 225.677 294.962H216.987C217.031 295.798 217.222 296.495 217.559 297.052C217.911 297.595 218.344 298.005 218.857 298.284C219.385 298.563 219.942 298.702 220.529 298.702C221.292 298.702 221.93 298.526 222.443 298.174C222.956 297.822 223.33 297.345 223.565 296.744H225.391C225.098 297.756 224.533 298.599 223.697 299.274C222.876 299.934 221.82 300.264 220.529 300.264ZM220.529 290.386C219.649 290.386 218.864 290.657 218.175 291.2C217.5 291.728 217.112 292.505 217.009 293.532H223.873C223.829 292.549 223.492 291.779 222.861 291.222C222.23 290.665 221.453 290.386 220.529 290.386ZM228.808 300V289.088H230.48L230.634 291.178C230.972 290.459 231.485 289.887 232.174 289.462C232.864 289.037 233.714 288.824 234.726 288.824V290.76H234.22C233.575 290.76 232.981 290.877 232.438 291.112C231.896 291.332 231.463 291.713 231.14 292.256C230.818 292.799 230.656 293.547 230.656 294.5V300H228.808ZM82.9617 325V314.088H84.6337L84.7657 315.672C85.1177 315.085 85.587 314.631 86.1737 314.308C86.7604 313.985 87.4204 313.824 88.1537 313.824C89.019 313.824 89.7597 314 90.3757 314.352C91.0064 314.704 91.4904 315.239 91.8277 315.958C92.209 315.298 92.7297 314.777 93.3897 314.396C94.0644 314.015 94.7904 313.824 95.5677 313.824C96.873 313.824 97.9144 314.22 98.6917 315.012C99.469 315.789 99.8577 316.992 99.8577 318.62V325H98.0317V318.818C98.0317 317.689 97.8044 316.838 97.3497 316.266C96.895 315.694 96.2424 315.408 95.3917 315.408C94.5117 315.408 93.7784 315.753 93.1917 316.442C92.6197 317.117 92.3337 318.085 92.3337 319.346V325H90.4857V318.818C90.4857 317.689 90.2584 316.838 89.8037 316.266C89.349 315.694 88.6964 315.408 87.8457 315.408C86.9804 315.408 86.2544 315.753 85.6677 316.442C85.0957 317.117 84.8097 318.085 84.8097 319.346V325H82.9617ZM104.423 311.668C104.057 311.668 103.749 311.551 103.499 311.316C103.265 311.067 103.147 310.759 103.147 310.392C103.147 310.04 103.265 309.747 103.499 309.512C103.749 309.277 104.057 309.16 104.423 309.16C104.775 309.16 105.076 309.277 105.325 309.512C105.575 309.747 105.699 310.04 105.699 310.392C105.699 310.759 105.575 311.067 105.325 311.316C105.076 311.551 104.775 311.668 104.423 311.668ZM103.499 325V314.088H105.347V325H103.499ZM109.225 325V314.088H110.897L111.007 316.046C111.359 315.357 111.865 314.814 112.525 314.418C113.185 314.022 113.933 313.824 114.769 313.824C116.06 313.824 117.086 314.22 117.849 315.012C118.626 315.789 119.015 316.992 119.015 318.62V325H117.167V318.818C117.167 316.545 116.228 315.408 114.351 315.408C113.412 315.408 112.628 315.753 111.997 316.442C111.381 317.117 111.073 318.085 111.073 319.346V325H109.225ZM127.447 325.264C126.42 325.264 125.496 325.029 124.675 324.56C123.854 324.091 123.201 323.431 122.717 322.58C122.248 321.715 122.013 320.703 122.013 319.544C122.013 318.385 122.255 317.381 122.739 316.53C123.223 315.665 123.876 314.997 124.697 314.528C125.533 314.059 126.464 313.824 127.491 313.824C128.518 313.824 129.442 314.059 130.263 314.528C131.084 314.997 131.73 315.665 132.199 316.53C132.683 317.381 132.925 318.385 132.925 319.544C132.925 320.703 132.683 321.715 132.199 322.58C131.715 323.431 131.055 324.091 130.219 324.56C129.398 325.029 128.474 325.264 127.447 325.264ZM127.447 323.68C128.078 323.68 128.664 323.526 129.207 323.218C129.75 322.91 130.19 322.448 130.527 321.832C130.864 321.216 131.033 320.453 131.033 319.544C131.033 318.635 130.864 317.872 130.527 317.256C130.204 316.64 129.772 316.178 129.229 315.87C128.686 315.562 128.107 315.408 127.491 315.408C126.86 315.408 126.274 315.562 125.731 315.87C125.188 316.178 124.748 316.64 124.411 317.256C124.074 317.872 123.905 318.635 123.905 319.544C123.905 320.453 124.074 321.216 124.411 321.832C124.748 322.448 125.181 322.91 125.709 323.218C126.252 323.526 126.831 323.68 127.447 323.68ZM136.154 325V314.088H137.826L137.98 316.178C138.318 315.459 138.831 314.887 139.52 314.462C140.21 314.037 141.06 313.824 142.072 313.824V315.76H141.566C140.921 315.76 140.327 315.877 139.784 316.112C139.242 316.332 138.809 316.713 138.486 317.256C138.164 317.799 138.002 318.547 138.002 319.5V325H136.154ZM145.929 311.668C145.562 311.668 145.254 311.551 145.005 311.316C144.77 311.067 144.653 310.759 144.653 310.392C144.653 310.04 144.77 309.747 145.005 309.512C145.254 309.277 145.562 309.16 145.929 309.16C146.281 309.16 146.581 309.277 146.831 309.512C147.08 309.747 147.205 310.04 147.205 310.392C147.205 310.759 147.08 311.067 146.831 311.316C146.581 311.551 146.281 311.668 145.929 311.668ZM145.005 325V314.088H146.853V325H145.005ZM155.042 325C154.045 325 153.26 324.758 152.688 324.274C152.116 323.79 151.83 322.917 151.83 321.656V315.65H149.938V314.088H151.83L152.072 311.47H153.678V314.088H156.89V315.65H153.678V321.656C153.678 322.345 153.818 322.815 154.096 323.064C154.375 323.299 154.866 323.416 155.57 323.416H156.714V325H155.042ZM161.02 311.668C160.653 311.668 160.345 311.551 160.096 311.316C159.861 311.067 159.744 310.759 159.744 310.392C159.744 310.04 159.861 309.747 160.096 309.512C160.345 309.277 160.653 309.16 161.02 309.16C161.372 309.16 161.673 309.277 161.922 309.512C162.171 309.747 162.296 310.04 162.296 310.392C162.296 310.759 162.171 311.067 161.922 311.316C161.673 311.551 161.372 311.668 161.02 311.668ZM160.096 325V314.088H161.944V325H160.096ZM170.728 325.264C169.686 325.264 168.762 325.029 167.956 324.56C167.149 324.076 166.511 323.409 166.042 322.558C165.587 321.707 165.36 320.703 165.36 319.544C165.36 318.4 165.587 317.403 166.042 316.552C166.496 315.687 167.127 315.019 167.934 314.55C168.755 314.066 169.701 313.824 170.772 313.824C171.828 313.824 172.737 314.066 173.5 314.55C174.277 315.019 174.871 315.643 175.282 316.42C175.692 317.197 175.898 318.033 175.898 318.928C175.898 319.089 175.89 319.251 175.876 319.412C175.876 319.573 175.876 319.757 175.876 319.962H167.186C167.23 320.798 167.42 321.495 167.758 322.052C168.11 322.595 168.542 323.005 169.056 323.284C169.584 323.563 170.141 323.702 170.728 323.702C171.49 323.702 172.128 323.526 172.642 323.174C173.155 322.822 173.529 322.345 173.764 321.744H175.59C175.296 322.756 174.732 323.599 173.896 324.274C173.074 324.934 172.018 325.264 170.728 325.264ZM170.728 315.386C169.848 315.386 169.063 315.657 168.374 316.2C167.699 316.728 167.31 317.505 167.208 318.532H174.072C174.028 317.549 173.69 316.779 173.06 316.222C172.429 315.665 171.652 315.386 170.728 315.386ZM183.187 325.264C181.882 325.264 180.797 324.934 179.931 324.274C179.066 323.614 178.56 322.719 178.413 321.59H180.305C180.423 322.162 180.723 322.661 181.207 323.086C181.706 323.497 182.373 323.702 183.209 323.702C183.987 323.702 184.559 323.541 184.925 323.218C185.292 322.881 185.475 322.485 185.475 322.03C185.475 321.37 185.233 320.93 184.749 320.71C184.28 320.49 183.613 320.292 182.747 320.116C182.161 319.999 181.574 319.83 180.987 319.61C180.401 319.39 179.909 319.082 179.513 318.686C179.117 318.275 178.919 317.74 178.919 317.08C178.919 316.127 179.271 315.349 179.975 314.748C180.694 314.132 181.662 313.824 182.879 313.824C184.038 313.824 184.984 314.117 185.717 314.704C186.465 315.276 186.898 316.097 187.015 317.168H185.189C185.116 316.611 184.874 316.178 184.463 315.87C184.067 315.547 183.532 315.386 182.857 315.386C182.197 315.386 181.684 315.525 181.317 315.804C180.965 316.083 180.789 316.449 180.789 316.904C180.789 317.344 181.017 317.689 181.471 317.938C181.941 318.187 182.571 318.4 183.363 318.576C184.038 318.723 184.676 318.906 185.277 319.126C185.893 319.331 186.392 319.647 186.773 320.072C187.169 320.483 187.367 321.084 187.367 321.876C187.382 322.859 187.008 323.673 186.245 324.318C185.497 324.949 184.478 325.264 183.187 325.264ZM202.979 325.264C202.085 325.264 201.285 325.081 200.581 324.714C199.892 324.347 199.364 323.834 198.997 323.174L198.821 325H197.149V309.16H198.997V315.892C199.349 315.364 199.848 314.887 200.493 314.462C201.153 314.037 201.989 313.824 203.001 313.824C204.087 313.824 205.033 314.073 205.839 314.572C206.646 315.071 207.269 315.753 207.709 316.618C208.164 317.483 208.391 318.466 208.391 319.566C208.391 320.666 208.164 321.649 207.709 322.514C207.269 323.365 206.639 324.039 205.817 324.538C205.011 325.022 204.065 325.264 202.979 325.264ZM202.781 323.658C203.515 323.658 204.16 323.489 204.717 323.152C205.275 322.8 205.715 322.316 206.037 321.7C206.36 321.084 206.521 320.365 206.521 319.544C206.521 318.723 206.36 318.004 206.037 317.388C205.715 316.772 205.275 316.295 204.717 315.958C204.16 315.606 203.515 315.43 202.781 315.43C202.048 315.43 201.403 315.606 200.845 315.958C200.288 316.295 199.848 316.772 199.525 317.388C199.203 318.004 199.041 318.723 199.041 319.544C199.041 320.365 199.203 321.084 199.525 321.7C199.848 322.316 200.288 322.8 200.845 323.152C201.403 323.489 202.048 323.658 202.781 323.658ZM216.53 325.264C215.489 325.264 214.565 325.029 213.758 324.56C212.951 324.076 212.313 323.409 211.844 322.558C211.389 321.707 211.162 320.703 211.162 319.544C211.162 318.4 211.389 317.403 211.844 316.552C212.299 315.687 212.929 315.019 213.736 314.55C214.557 314.066 215.503 313.824 216.574 313.824C217.63 313.824 218.539 314.066 219.302 314.55C220.079 315.019 220.673 315.643 221.084 316.42C221.495 317.197 221.7 318.033 221.7 318.928C221.7 319.089 221.693 319.251 221.678 319.412C221.678 319.573 221.678 319.757 221.678 319.962H212.988C213.032 320.798 213.223 321.495 213.56 322.052C213.912 322.595 214.345 323.005 214.858 323.284C215.386 323.563 215.943 323.702 216.53 323.702C217.293 323.702 217.931 323.526 218.444 323.174C218.957 322.822 219.331 322.345 219.566 321.744H221.392C221.099 322.756 220.534 323.599 219.698 324.274C218.877 324.934 217.821 325.264 216.53 325.264ZM216.53 315.386C215.65 315.386 214.865 315.657 214.176 316.2C213.501 316.728 213.113 317.505 213.01 318.532H219.874C219.83 317.549 219.493 316.779 218.862 316.222C218.231 315.665 217.454 315.386 216.53 315.386ZM224.809 325V309.16H226.657V325H224.809ZM235.318 325.264C234.292 325.264 233.368 325.029 232.546 324.56C231.725 324.091 231.072 323.431 230.588 322.58C230.119 321.715 229.884 320.703 229.884 319.544C229.884 318.385 230.126 317.381 230.61 316.53C231.094 315.665 231.747 314.997 232.568 314.528C233.404 314.059 234.336 313.824 235.362 313.824C236.389 313.824 237.313 314.059 238.134 314.528C238.956 314.997 239.601 315.665 240.07 316.53C240.554 317.381 240.796 318.385 240.796 319.544C240.796 320.703 240.554 321.715 240.07 322.58C239.586 323.431 238.926 324.091 238.09 324.56C237.269 325.029 236.345 325.264 235.318 325.264ZM235.318 323.68C235.949 323.68 236.536 323.526 237.078 323.218C237.621 322.91 238.061 322.448 238.398 321.832C238.736 321.216 238.904 320.453 238.904 319.544C238.904 318.635 238.736 317.872 238.398 317.256C238.076 316.64 237.643 316.178 237.1 315.87C236.558 315.562 235.978 315.408 235.362 315.408C234.732 315.408 234.145 315.562 233.602 315.87C233.06 316.178 232.62 316.64 232.282 317.256C231.945 317.872 231.776 318.635 231.776 319.544C231.776 320.453 231.945 321.216 232.282 321.832C232.62 322.448 233.052 322.91 233.58 323.218C234.123 323.526 234.702 323.68 235.318 323.68ZM244.026 325V314.088H245.698L245.808 316.046C246.16 315.357 246.666 314.814 247.326 314.418C247.986 314.022 248.734 313.824 249.57 313.824C250.86 313.824 251.887 314.22 252.65 315.012C253.427 315.789 253.816 316.992 253.816 318.62V325H251.968V318.818C251.968 316.545 251.029 315.408 249.152 315.408C248.213 315.408 247.428 315.753 246.798 316.442C246.182 317.117 245.874 318.085 245.874 319.346V325H244.026ZM261.588 321.568C260.972 321.568 260.407 321.487 259.894 321.326L258.794 322.36C258.955 322.477 259.153 322.58 259.388 322.668C259.637 322.741 259.989 322.815 260.444 322.888C260.898 322.947 261.536 323.013 262.358 323.086C263.824 323.189 264.873 323.526 265.504 324.098C266.134 324.67 266.45 325.418 266.45 326.342C266.45 326.973 266.274 327.574 265.922 328.146C265.584 328.718 265.056 329.187 264.338 329.554C263.634 329.921 262.724 330.104 261.61 330.104C260.627 330.104 259.754 329.972 258.992 329.708C258.229 329.459 257.635 329.07 257.21 328.542C256.784 328.029 256.572 327.376 256.572 326.584C256.572 326.173 256.682 325.726 256.902 325.242C257.122 324.773 257.532 324.325 258.134 323.9C257.811 323.768 257.532 323.629 257.298 323.482C257.078 323.321 256.872 323.145 256.682 322.954V322.448L258.552 320.6C257.686 319.867 257.254 318.899 257.254 317.696C257.254 316.977 257.422 316.325 257.76 315.738C258.097 315.151 258.588 314.689 259.234 314.352C259.879 314 260.664 313.824 261.588 313.824C262.218 313.824 262.79 313.912 263.304 314.088H267.33V315.474L265.284 315.562C265.709 316.178 265.922 316.889 265.922 317.696C265.922 318.415 265.746 319.067 265.394 319.654C265.056 320.241 264.565 320.71 263.92 321.062C263.289 321.399 262.512 321.568 261.588 321.568ZM261.588 320.05C262.365 320.05 262.981 319.852 263.436 319.456C263.905 319.045 264.14 318.459 264.14 317.696C264.14 316.948 263.905 316.376 263.436 315.98C262.981 315.569 262.365 315.364 261.588 315.364C260.796 315.364 260.165 315.569 259.696 315.98C259.241 316.376 259.014 316.948 259.014 317.696C259.014 318.459 259.241 319.045 259.696 319.456C260.165 319.852 260.796 320.05 261.588 320.05ZM258.376 326.408C258.376 327.141 258.684 327.684 259.3 328.036C259.916 328.403 260.686 328.586 261.61 328.586C262.519 328.586 263.245 328.388 263.788 327.992C264.345 327.596 264.624 327.068 264.624 326.408C264.624 325.939 264.433 325.528 264.052 325.176C263.67 324.839 262.966 324.641 261.94 324.582C261.133 324.523 260.436 324.45 259.85 324.362C259.248 324.685 258.852 325.029 258.662 325.396C258.471 325.777 258.376 326.115 258.376 326.408ZM108.201 350.264C107.291 350.264 106.536 350.11 105.935 349.802C105.333 349.494 104.886 349.083 104.593 348.57C104.299 348.057 104.153 347.499 104.153 346.898C104.153 345.783 104.578 344.925 105.429 344.324C106.279 343.723 107.438 343.422 108.905 343.422H111.853V343.29C111.853 342.337 111.603 341.618 111.105 341.134C110.606 340.635 109.939 340.386 109.103 340.386C108.384 340.386 107.761 340.569 107.233 340.936C106.719 341.288 106.397 341.809 106.265 342.498H104.373C104.446 341.706 104.71 341.039 105.165 340.496C105.634 339.953 106.213 339.543 106.903 339.264C107.592 338.971 108.325 338.824 109.103 338.824C110.628 338.824 111.772 339.235 112.535 340.056C113.312 340.863 113.701 341.941 113.701 343.29V350H112.051L111.941 348.042C111.633 348.658 111.178 349.186 110.577 349.626C109.99 350.051 109.198 350.264 108.201 350.264ZM108.487 348.702C109.191 348.702 109.792 348.519 110.291 348.152C110.804 347.785 111.193 347.309 111.457 346.722C111.721 346.135 111.853 345.519 111.853 344.874V344.852H109.059C107.973 344.852 107.203 345.043 106.749 345.424C106.309 345.791 106.089 346.253 106.089 346.81C106.089 347.382 106.294 347.844 106.705 348.196C107.13 348.533 107.724 348.702 108.487 348.702ZM117.133 350V339.088H118.805L118.915 341.046C119.267 340.357 119.773 339.814 120.433 339.418C121.093 339.022 121.841 338.824 122.677 338.824C123.968 338.824 124.994 339.22 125.757 340.012C126.534 340.789 126.923 341.992 126.923 343.62V350H125.075V343.818C125.075 341.545 124.136 340.408 122.259 340.408C121.32 340.408 120.536 340.753 119.905 341.442C119.289 342.117 118.981 343.085 118.981 344.346V350H117.133ZM135.333 350.264C134.248 350.264 133.294 350.015 132.473 349.516C131.666 349.017 131.036 348.335 130.581 347.47C130.141 346.605 129.921 345.622 129.921 344.522C129.921 343.422 130.148 342.447 130.603 341.596C131.058 340.731 131.688 340.056 132.495 339.572C133.302 339.073 134.255 338.824 135.355 338.824C136.25 338.824 137.042 339.007 137.731 339.374C138.42 339.741 138.956 340.254 139.337 340.914V334.16H141.185V350H139.513L139.337 348.196C138.985 348.724 138.479 349.201 137.819 349.626C137.159 350.051 136.33 350.264 135.333 350.264ZM135.531 348.658C136.264 348.658 136.91 348.489 137.467 348.152C138.039 347.8 138.479 347.316 138.787 346.7C139.11 346.084 139.271 345.365 139.271 344.544C139.271 343.723 139.11 343.004 138.787 342.388C138.479 341.772 138.039 341.295 137.467 340.958C136.91 340.606 136.264 340.43 135.531 340.43C134.812 340.43 134.167 340.606 133.595 340.958C133.038 341.295 132.598 341.772 132.275 342.388C131.967 343.004 131.813 343.723 131.813 344.544C131.813 345.365 131.967 346.084 132.275 346.7C132.598 347.316 133.038 347.8 133.595 348.152C134.167 348.489 134.812 348.658 135.531 348.658ZM155.52 350.264C154.214 350.264 153.129 349.934 152.264 349.274C151.398 348.614 150.892 347.719 150.746 346.59H152.638C152.755 347.162 153.056 347.661 153.54 348.086C154.038 348.497 154.706 348.702 155.542 348.702C156.319 348.702 156.891 348.541 157.258 348.218C157.624 347.881 157.808 347.485 157.808 347.03C157.808 346.37 157.566 345.93 157.082 345.71C156.612 345.49 155.945 345.292 155.08 345.116C154.493 344.999 153.906 344.83 153.32 344.61C152.733 344.39 152.242 344.082 151.846 343.686C151.45 343.275 151.252 342.74 151.252 342.08C151.252 341.127 151.604 340.349 152.308 339.748C153.026 339.132 153.994 338.824 155.212 338.824C156.37 338.824 157.316 339.117 158.05 339.704C158.798 340.276 159.23 341.097 159.348 342.168H157.522C157.448 341.611 157.206 341.178 156.796 340.87C156.4 340.547 155.864 340.386 155.19 340.386C154.53 340.386 154.016 340.525 153.65 340.804C153.298 341.083 153.122 341.449 153.122 341.904C153.122 342.344 153.349 342.689 153.804 342.938C154.273 343.187 154.904 343.4 155.696 343.576C156.37 343.723 157.008 343.906 157.61 344.126C158.226 344.331 158.724 344.647 159.106 345.072C159.502 345.483 159.7 346.084 159.7 346.876C159.714 347.859 159.34 348.673 158.578 349.318C157.83 349.949 156.81 350.264 155.52 350.264ZM166.982 350.264C165.691 350.264 164.664 349.875 163.902 349.098C163.139 348.306 162.758 347.096 162.758 345.468V339.088H164.606V345.27C164.606 347.543 165.537 348.68 167.4 348.68C168.353 348.68 169.138 348.343 169.754 347.668C170.384 346.979 170.7 346.003 170.7 344.742V339.088H172.548V350H170.876L170.744 348.042C170.406 348.731 169.9 349.274 169.226 349.67C168.566 350.066 167.818 350.264 166.982 350.264ZM181.265 350.264C180.224 350.264 179.285 350.029 178.449 349.56C177.628 349.076 176.975 348.409 176.491 347.558C176.022 346.693 175.787 345.688 175.787 344.544C175.787 343.4 176.022 342.403 176.491 341.552C176.975 340.687 177.628 340.019 178.449 339.55C179.285 339.066 180.224 338.824 181.265 338.824C182.556 338.824 183.641 339.161 184.521 339.836C185.416 340.511 185.981 341.413 186.215 342.542H184.323C184.177 341.867 183.817 341.347 183.245 340.98C182.673 340.599 182.006 340.408 181.243 340.408C180.627 340.408 180.048 340.562 179.505 340.87C178.963 341.178 178.523 341.64 178.185 342.256C177.848 342.872 177.679 343.635 177.679 344.544C177.679 345.453 177.848 346.216 178.185 346.832C178.523 347.448 178.963 347.917 179.505 348.24C180.048 348.548 180.627 348.702 181.243 348.702C182.006 348.702 182.673 348.519 183.245 348.152C183.817 347.771 184.177 347.235 184.323 346.546H186.215C185.995 347.646 185.438 348.541 184.543 349.23C183.649 349.919 182.556 350.264 181.265 350.264ZM194.472 350.264C193.431 350.264 192.492 350.029 191.656 349.56C190.835 349.076 190.182 348.409 189.698 347.558C189.229 346.693 188.994 345.688 188.994 344.544C188.994 343.4 189.229 342.403 189.698 341.552C190.182 340.687 190.835 340.019 191.656 339.55C192.492 339.066 193.431 338.824 194.472 338.824C195.763 338.824 196.848 339.161 197.728 339.836C198.623 340.511 199.188 341.413 199.422 342.542H197.53C197.384 341.867 197.024 341.347 196.452 340.98C195.88 340.599 195.213 340.408 194.45 340.408C193.834 340.408 193.255 340.562 192.712 340.87C192.17 341.178 191.73 341.64 191.392 342.256C191.055 342.872 190.886 343.635 190.886 344.544C190.886 345.453 191.055 346.216 191.392 346.832C191.73 347.448 192.17 347.917 192.712 348.24C193.255 348.548 193.834 348.702 194.45 348.702C195.213 348.702 195.88 348.519 196.452 348.152C197.024 347.771 197.384 347.235 197.53 346.546H199.422C199.202 347.646 198.645 348.541 197.75 349.23C196.856 349.919 195.763 350.264 194.472 350.264ZM207.569 350.264C206.528 350.264 205.604 350.029 204.797 349.56C203.991 349.076 203.353 348.409 202.883 347.558C202.429 346.707 202.201 345.703 202.201 344.544C202.201 343.4 202.429 342.403 202.883 341.552C203.338 340.687 203.969 340.019 204.775 339.55C205.597 339.066 206.543 338.824 207.613 338.824C208.669 338.824 209.579 339.066 210.341 339.55C211.119 340.019 211.713 340.643 212.123 341.42C212.534 342.197 212.739 343.033 212.739 343.928C212.739 344.089 212.732 344.251 212.717 344.412C212.717 344.573 212.717 344.757 212.717 344.962H204.027C204.071 345.798 204.262 346.495 204.599 347.052C204.951 347.595 205.384 348.005 205.897 348.284C206.425 348.563 206.983 348.702 207.569 348.702C208.332 348.702 208.97 348.526 209.483 348.174C209.997 347.822 210.371 347.345 210.605 346.744H212.431C212.138 347.756 211.573 348.599 210.737 349.274C209.916 349.934 208.86 350.264 207.569 350.264ZM207.569 340.386C206.689 340.386 205.905 340.657 205.215 341.2C204.541 341.728 204.152 342.505 204.049 343.532H210.913C210.869 342.549 210.532 341.779 209.901 341.222C209.271 340.665 208.493 340.386 207.569 340.386ZM220.755 350.264C219.713 350.264 218.789 350.029 217.983 349.56C217.176 349.076 216.538 348.409 216.069 347.558C215.614 346.707 215.387 345.703 215.387 344.544C215.387 343.4 215.614 342.403 216.069 341.552C216.523 340.687 217.154 340.019 217.961 339.55C218.782 339.066 219.728 338.824 220.799 338.824C221.855 338.824 222.764 339.066 223.527 339.55C224.304 340.019 224.898 340.643 225.309 341.42C225.719 342.197 225.925 343.033 225.925 343.928C225.925 344.089 225.917 344.251 225.903 344.412C225.903 344.573 225.903 344.757 225.903 344.962H217.213C217.257 345.798 217.447 346.495 217.785 347.052C218.137 347.595 218.569 348.005 219.083 348.284C219.611 348.563 220.168 348.702 220.755 348.702C221.517 348.702 222.155 348.526 222.669 348.174C223.182 347.822 223.556 347.345 223.791 346.744H225.617C225.323 347.756 224.759 348.599 223.923 349.274C223.101 349.934 222.045 350.264 220.755 350.264ZM220.755 340.386C219.875 340.386 219.09 340.657 218.401 341.2C217.726 341.728 217.337 342.505 217.235 343.532H224.099C224.055 342.549 223.717 341.779 223.087 341.222C222.456 340.665 221.679 340.386 220.755 340.386ZM233.984 350.264C232.899 350.264 231.945 350.015 231.124 349.516C230.317 349.017 229.687 348.335 229.232 347.47C228.792 346.605 228.572 345.622 228.572 344.522C228.572 343.422 228.799 342.447 229.254 341.596C229.709 340.731 230.339 340.056 231.146 339.572C231.953 339.073 232.906 338.824 234.006 338.824C234.901 338.824 235.693 339.007 236.382 339.374C237.071 339.741 237.607 340.254 237.988 340.914V334.16H239.836V350H238.164L237.988 348.196C237.636 348.724 237.13 349.201 236.47 349.626C235.81 350.051 234.981 350.264 233.984 350.264ZM234.182 348.658C234.915 348.658 235.561 348.489 236.118 348.152C236.69 347.8 237.13 347.316 237.438 346.7C237.761 346.084 237.922 345.365 237.922 344.544C237.922 343.723 237.761 343.004 237.438 342.388C237.13 341.772 236.69 341.295 236.118 340.958C235.561 340.606 234.915 340.43 234.182 340.43C233.463 340.43 232.818 340.606 232.246 340.958C231.689 341.295 231.249 341.772 230.926 342.388C230.618 343.004 230.464 343.723 230.464 344.544C230.464 345.365 230.618 346.084 230.926 346.7C231.249 347.316 231.689 347.8 232.246 348.152C232.818 348.489 233.463 348.658 234.182 348.658ZM244.146 350.11C243.78 350.11 243.472 349.993 243.222 349.758C242.988 349.509 242.87 349.208 242.87 348.856C242.87 348.504 242.988 348.211 243.222 347.976C243.472 347.727 243.78 347.602 244.146 347.602C244.498 347.602 244.792 347.727 245.026 347.976C245.276 348.211 245.4 348.504 245.4 348.856C245.4 349.208 245.276 349.509 245.026 349.758C244.792 349.993 244.498 350.11 244.146 350.11Z" fill="white"/>
</svg>
