<svg width="262" height="332" viewBox="0 0 262 332" fill="none" xmlns="http://www.w3.org/2000/svg">
<rect x="0.258301" width="261.124" height="332" rx="20" fill="#342B67"/>
<path d="M100.653 86.5441C99.2565 86.5441 98.1374 86.2039 97.2958 85.5235C96.4542 84.8431 96.0335 83.6345 96.0335 81.8976V76.0962H93.7505V73.2223H96.0335L96.4363 69.6502H99.4713V73.2223H103.07V76.0962H99.4713V81.9245C99.4713 82.5691 99.6056 83.0167 99.8742 83.2674C100.161 83.5002 100.644 83.6166 101.325 83.6166H102.99V86.5441H100.653Z" fill="white"/>
<path d="M106.022 86.5441V67.2061H109.46V75.2636C109.908 74.5295 110.507 73.9565 111.259 73.5446C112.029 73.1149 112.907 72.9 113.892 72.9C115.539 72.9 116.81 73.4193 117.705 74.4578C118.619 75.4964 119.075 77.0183 119.075 79.0238V86.5441H115.664V79.3461C115.664 78.2001 115.431 77.3227 114.966 76.7139C114.518 76.1051 113.802 75.8008 112.817 75.8008C111.85 75.8008 111.045 76.141 110.4 76.8214C109.773 77.5018 109.46 78.4508 109.46 79.6684V86.5441H106.022Z" fill="white"/>
<path d="M122.363 86.5441V73.2223H125.425L125.747 75.7202C126.23 74.8607 126.884 74.1803 127.708 73.6789C128.549 73.1597 129.534 72.9 130.662 72.9V76.5259H129.695C128.943 76.5259 128.272 76.6423 127.681 76.8751C127.09 77.1079 126.624 77.5107 126.284 78.0837C125.962 78.6567 125.801 79.4535 125.801 80.4741V86.5441H122.363Z" fill="white"/>
<path d="M134.865 71.1542C134.238 71.1542 133.719 70.9662 133.307 70.5902C132.913 70.2142 132.716 69.7397 132.716 69.1667C132.716 68.5937 132.913 68.1282 133.307 67.7701C133.719 67.3941 134.238 67.2061 134.865 67.2061C135.492 67.2061 136.002 67.3941 136.396 67.7701C136.808 68.1282 137.014 68.5937 137.014 69.1667C137.014 69.7397 136.808 70.2142 136.396 70.5902C136.002 70.9662 135.492 71.1542 134.865 71.1542ZM133.146 86.5441V73.2223H136.584V86.5441H133.146Z" fill="white"/>
<path d="M143.771 86.5441L138.883 73.2223H142.482L145.866 83.2943L149.25 73.2223H152.849L147.934 86.5441H143.771Z" fill="white"/>
<path d="M160.835 86.8664C159.492 86.8664 158.301 86.5799 157.263 86.007C156.224 85.434 155.409 84.6282 154.819 83.5897C154.228 82.5512 153.932 81.3515 153.932 79.9907C153.932 78.6119 154.219 77.3854 154.792 76.3111C155.383 75.2367 156.188 74.4041 157.209 73.8132C158.248 73.2044 159.465 72.9 160.862 72.9C162.169 72.9 163.324 73.1865 164.326 73.7595C165.329 74.3325 166.108 75.1203 166.663 76.1231C167.236 77.1079 167.523 78.2091 167.523 79.4266C167.523 79.6236 167.514 79.8295 167.496 80.0444C167.496 80.2593 167.487 80.4831 167.469 80.7158H157.343C157.415 81.7544 157.773 82.5691 158.418 83.16C159.08 83.7508 159.877 84.0463 160.808 84.0463C161.506 84.0463 162.088 83.8941 162.554 83.5897C163.037 83.2674 163.395 82.8556 163.628 82.3542H167.12C166.869 83.1958 166.448 83.9657 165.857 84.664C165.284 85.3444 164.568 85.8816 163.709 86.2755C162.867 86.6695 161.909 86.8664 160.835 86.8664ZM160.862 75.6933C160.02 75.6933 159.277 75.935 158.632 76.4185C157.988 76.884 157.576 77.6003 157.397 78.5672H164.031C163.977 77.6898 163.655 76.9915 163.064 76.4722C162.473 75.9529 161.739 75.6933 160.862 75.6933Z" fill="white"/>
<path d="M53.8 130.578L50.6486 119.072H52.1258L54.6042 128.937L57.4273 119.072H58.9538L61.6949 128.937L64.2061 119.072H65.6833L62.4663 130.562H60.8906L58.1495 121.075L55.3428 130.562L53.8 130.578Z" fill="white"/>
<path d="M70.542 130.759C69.7651 130.759 69.0757 130.584 68.4739 130.234C67.872 129.872 67.3961 129.375 67.0459 128.74C66.7067 128.105 66.5371 127.356 66.5371 126.491C66.5371 125.638 66.7067 124.894 67.0459 124.259C67.3851 123.613 67.8556 123.116 68.4575 122.765C69.0702 122.404 69.776 122.224 70.5748 122.224C71.3626 122.224 72.0411 122.404 72.6101 122.765C73.19 123.116 73.6332 123.581 73.9396 124.161C74.246 124.741 74.3991 125.364 74.3991 126.032C74.3991 126.152 74.3937 126.272 74.3827 126.393C74.3827 126.513 74.3827 126.65 74.3827 126.803H67.8994C67.9322 127.427 68.0745 127.947 68.3262 128.362C68.5888 128.767 68.9116 129.074 69.2946 129.282C69.6885 129.49 70.1043 129.593 70.542 129.593C71.111 129.593 71.587 129.462 71.9699 129.2C72.3529 128.937 72.632 128.581 72.807 128.133H74.1694C73.9505 128.888 73.5292 129.517 72.9055 130.02C72.2927 130.513 71.5049 130.759 70.542 130.759ZM70.542 123.389C69.8854 123.389 69.3 123.592 68.7857 123.996C68.2824 124.39 67.9924 124.97 67.9158 125.736H73.0368C73.004 125.003 72.7523 124.429 72.2818 124.013C71.8113 123.597 71.2313 123.389 70.542 123.389Z" fill="white"/>
<path d="M84.2634 130.759C83.585 130.759 83.0214 130.644 82.5728 130.414C82.1242 130.184 81.7904 129.878 81.5716 129.495C81.3527 129.112 81.2433 128.696 81.2433 128.248C81.2433 127.416 81.5606 126.776 82.1953 126.327C82.8299 125.879 83.6944 125.654 84.7886 125.654H86.988V125.556C86.988 124.844 86.802 124.308 86.43 123.947C86.0579 123.575 85.5601 123.389 84.9363 123.389C84.4002 123.389 83.9351 123.526 83.5412 123.799C83.1582 124.062 82.9175 124.451 82.819 124.965H81.4074C81.4622 124.374 81.6591 123.876 81.9983 123.471C82.3485 123.066 82.7807 122.76 83.295 122.552C83.8093 122.333 84.3564 122.224 84.9363 122.224C86.0743 122.224 86.9278 122.53 87.4968 123.143C88.0768 123.745 88.3668 124.549 88.3668 125.556V130.562H87.1358L87.0537 129.101C86.8239 129.561 86.4847 129.955 86.036 130.283C85.5984 130.6 85.0075 130.759 84.2634 130.759ZM84.4768 129.593C85.002 129.593 85.4506 129.457 85.8227 129.183C86.2057 128.91 86.4956 128.554 86.6926 128.116C86.8895 127.679 86.988 127.219 86.988 126.738V126.721H84.9035C84.0938 126.721 83.5193 126.863 83.1801 127.148C82.8518 127.421 82.6877 127.766 82.6877 128.182C82.6877 128.609 82.8409 128.953 83.1473 129.216C83.4646 129.468 83.9078 129.593 84.4768 129.593Z" fill="white"/>
<path d="M91.7646 120.615C91.4911 120.615 91.2613 120.528 91.0752 120.353C90.9002 120.167 90.8126 119.937 90.8126 119.663C90.8126 119.401 90.9002 119.182 91.0752 119.007C91.2613 118.832 91.4911 118.744 91.7646 118.744C92.0272 118.744 92.2515 118.832 92.4376 119.007C92.6236 119.182 92.7166 119.401 92.7166 119.663C92.7166 119.937 92.6236 120.167 92.4376 120.353C92.2515 120.528 92.0272 120.615 91.7646 120.615ZM91.0752 130.562V122.421H92.454V130.562H91.0752Z" fill="white"/>
<path d="M95.347 130.562V122.421H96.5944L96.6929 123.603C96.9555 123.165 97.3057 122.826 97.7433 122.585C98.181 122.344 98.6734 122.224 99.2206 122.224C99.8662 122.224 100.419 122.355 100.878 122.618C101.349 122.88 101.71 123.28 101.962 123.816C102.246 123.324 102.635 122.935 103.127 122.651C103.63 122.366 104.172 122.224 104.752 122.224C105.726 122.224 106.503 122.519 107.083 123.11C107.663 123.69 107.953 124.587 107.953 125.802V130.562H106.59V125.95C106.59 125.107 106.421 124.472 106.081 124.046C105.742 123.619 105.255 123.406 104.621 123.406C103.964 123.406 103.417 123.663 102.979 124.177C102.552 124.68 102.339 125.403 102.339 126.344V130.562H100.96V125.95C100.96 125.107 100.791 124.472 100.452 124.046C100.112 123.619 99.6254 123.406 98.9908 123.406C98.3452 123.406 97.8035 123.663 97.3658 124.177C96.9391 124.68 96.7257 125.403 96.7257 126.344V130.562H95.347Z" fill="white"/>
<path d="M118.575 130.562C117.831 130.562 117.246 130.381 116.819 130.02C116.392 129.659 116.179 129.008 116.179 128.067V123.586H114.767V122.421H116.179L116.359 120.468H117.557V122.421H119.954V123.586H117.557V128.067C117.557 128.581 117.661 128.931 117.869 129.117C118.077 129.293 118.444 129.38 118.969 129.38H119.822V130.562H118.575Z" fill="white"/>
<path d="M125.683 130.759C124.917 130.759 124.227 130.584 123.615 130.234C123.002 129.883 122.515 129.391 122.154 128.756C121.804 128.111 121.629 127.356 121.629 126.491C121.629 125.627 121.809 124.877 122.17 124.243C122.531 123.597 123.018 123.099 123.631 122.749C124.255 122.399 124.95 122.224 125.716 122.224C126.482 122.224 127.171 122.399 127.784 122.749C128.397 123.099 128.878 123.597 129.228 124.243C129.589 124.877 129.77 125.627 129.77 126.491C129.77 127.356 129.589 128.111 129.228 128.756C128.867 129.391 128.375 129.883 127.751 130.234C127.138 130.584 126.449 130.759 125.683 130.759ZM125.683 129.577C126.153 129.577 126.591 129.462 126.996 129.232C127.401 129.003 127.729 128.658 127.981 128.198C128.232 127.739 128.358 127.17 128.358 126.491C128.358 125.813 128.232 125.244 127.981 124.784C127.74 124.325 127.417 123.98 127.012 123.75C126.607 123.52 126.175 123.406 125.716 123.406C125.245 123.406 124.807 123.52 124.403 123.75C123.998 123.98 123.669 124.325 123.418 124.784C123.166 125.244 123.04 125.813 123.04 126.491C123.04 127.17 123.166 127.739 123.418 128.198C123.669 128.658 123.992 129.003 124.386 129.232C124.791 129.462 125.223 129.577 125.683 129.577Z" fill="white"/>
<path d="M140.758 130.759C139.981 130.759 139.28 130.584 138.657 130.234C138.044 129.872 137.557 129.375 137.196 128.74C136.846 128.094 136.671 127.345 136.671 126.491C136.671 125.638 136.846 124.894 137.196 124.259C137.557 123.613 138.044 123.116 138.657 122.765C139.28 122.404 139.981 122.224 140.758 122.224C141.721 122.224 142.53 122.475 143.187 122.979C143.854 123.482 144.276 124.155 144.451 124.998H143.039C142.93 124.494 142.662 124.106 142.235 123.832C141.808 123.548 141.31 123.406 140.741 123.406C140.282 123.406 139.849 123.52 139.445 123.75C139.04 123.98 138.711 124.325 138.46 124.784C138.208 125.244 138.082 125.813 138.082 126.491C138.082 127.17 138.208 127.739 138.46 128.198C138.711 128.658 139.04 129.008 139.445 129.249C139.849 129.479 140.282 129.593 140.741 129.593C141.31 129.593 141.808 129.457 142.235 129.183C142.662 128.899 142.93 128.499 143.039 127.985H144.451C144.287 128.806 143.871 129.473 143.203 129.987C142.536 130.502 141.721 130.759 140.758 130.759Z" fill="white"/>
<path d="M146.869 130.562V122.421H148.116L148.231 123.98C148.483 123.444 148.866 123.017 149.38 122.7C149.894 122.382 150.529 122.224 151.284 122.224V123.668H150.906C150.425 123.668 149.982 123.756 149.577 123.931C149.172 124.095 148.849 124.379 148.608 124.784C148.368 125.189 148.247 125.747 148.247 126.458V130.562H146.869Z" fill="white"/>
<path d="M156.679 130.759C155.903 130.759 155.213 130.584 154.611 130.234C154.009 129.872 153.534 129.375 153.183 128.74C152.844 128.105 152.675 127.356 152.675 126.491C152.675 125.638 152.844 124.894 153.183 124.259C153.523 123.613 153.993 123.116 154.595 122.765C155.208 122.404 155.913 122.224 156.712 122.224C157.5 122.224 158.179 122.404 158.748 122.765C159.327 123.116 159.771 123.581 160.077 124.161C160.383 124.741 160.537 125.364 160.537 126.032C160.537 126.152 160.531 126.272 160.52 126.393C160.52 126.513 160.52 126.65 160.52 126.803H154.037C154.07 127.427 154.212 127.947 154.464 128.362C154.726 128.767 155.049 129.074 155.432 129.282C155.826 129.49 156.242 129.593 156.679 129.593C157.248 129.593 157.724 129.462 158.107 129.2C158.49 128.937 158.769 128.581 158.944 128.133H160.307C160.088 128.888 159.667 129.517 159.043 130.02C158.43 130.513 157.642 130.759 156.679 130.759ZM156.679 123.389C156.023 123.389 155.437 123.592 154.923 123.996C154.42 124.39 154.13 124.97 154.053 125.736H159.174C159.141 125.003 158.89 124.429 158.419 124.013C157.949 123.597 157.369 123.389 156.679 123.389Z" fill="white"/>
<path d="M165.565 130.759C164.886 130.759 164.323 130.644 163.874 130.414C163.425 130.184 163.092 129.878 162.873 129.495C162.654 129.112 162.545 128.696 162.545 128.248C162.545 127.416 162.862 126.776 163.497 126.327C164.131 125.879 164.996 125.654 166.09 125.654H168.289V125.556C168.289 124.844 168.103 124.308 167.731 123.947C167.359 123.575 166.861 123.389 166.238 123.389C165.701 123.389 165.236 123.526 164.842 123.799C164.459 124.062 164.219 124.451 164.12 124.965H162.709C162.763 124.374 162.96 123.876 163.3 123.471C163.65 123.066 164.082 122.76 164.596 122.552C165.111 122.333 165.658 122.224 166.238 122.224C167.376 122.224 168.229 122.53 168.798 123.143C169.378 123.745 169.668 124.549 169.668 125.556V130.562H168.437L168.355 129.101C168.125 129.561 167.786 129.955 167.337 130.283C166.9 130.6 166.309 130.759 165.565 130.759ZM165.778 129.593C166.303 129.593 166.752 129.457 167.124 129.183C167.507 128.91 167.797 128.554 167.994 128.116C168.191 127.679 168.289 127.219 168.289 126.738V126.721H166.205C165.395 126.721 164.821 126.863 164.481 127.148C164.153 127.421 163.989 127.766 163.989 128.182C163.989 128.609 164.142 128.953 164.449 129.216C164.766 129.468 165.209 129.593 165.778 129.593Z" fill="white"/>
<path d="M175.221 130.562C174.477 130.562 173.892 130.381 173.465 130.02C173.038 129.659 172.825 129.008 172.825 128.067V123.586H171.413V122.421H172.825L173.006 120.468H174.204V122.421H176.6V123.586H174.204V128.067C174.204 128.581 174.308 128.931 174.516 129.117C174.724 129.293 175.09 129.38 175.615 129.38H176.469V130.562H175.221Z" fill="white"/>
<path d="M182.28 130.759C181.503 130.759 180.814 130.584 180.212 130.234C179.61 129.872 179.134 129.375 178.784 128.74C178.445 128.105 178.275 127.356 178.275 126.491C178.275 125.638 178.445 124.894 178.784 124.259C179.123 123.613 179.594 123.116 180.195 122.765C180.808 122.404 181.514 122.224 182.313 122.224C183.101 122.224 183.779 122.404 184.348 122.765C184.928 123.116 185.371 123.581 185.678 124.161C185.984 124.741 186.137 125.364 186.137 126.032C186.137 126.152 186.132 126.272 186.121 126.393C186.121 126.513 186.121 126.65 186.121 126.803H179.637C179.67 127.427 179.812 127.947 180.064 128.362C180.327 128.767 180.65 129.074 181.033 129.282C181.426 129.49 181.842 129.593 182.28 129.593C182.849 129.593 183.325 129.462 183.708 129.2C184.091 128.937 184.37 128.581 184.545 128.133H185.907C185.689 128.888 185.267 129.517 184.644 130.02C184.031 130.513 183.243 130.759 182.28 130.759ZM182.28 123.389C181.623 123.389 181.038 123.592 180.524 123.996C180.02 124.39 179.73 124.97 179.654 125.736H184.775C184.742 125.003 184.49 124.429 184.02 124.013C183.549 123.597 182.969 123.389 182.28 123.389Z" fill="white"/>
<path d="M196.001 130.759C195.323 130.759 194.759 130.644 194.311 130.414C193.862 130.184 193.528 129.878 193.31 129.495C193.091 129.112 192.981 128.696 192.981 128.248C192.981 127.416 193.299 126.776 193.933 126.327C194.568 125.879 195.432 125.654 196.527 125.654H198.726V125.556C198.726 124.844 198.54 124.308 198.168 123.947C197.796 123.575 197.298 123.389 196.674 123.389C196.138 123.389 195.673 123.526 195.279 123.799C194.896 124.062 194.655 124.451 194.557 124.965H193.145C193.2 124.374 193.397 123.876 193.736 123.471C194.087 123.066 194.519 122.76 195.033 122.552C195.547 122.333 196.094 122.224 196.674 122.224C197.812 122.224 198.666 122.53 199.235 123.143C199.815 123.745 200.105 124.549 200.105 125.556V130.562H198.874L198.792 129.101C198.562 129.561 198.223 129.955 197.774 130.283C197.336 130.6 196.745 130.759 196.001 130.759ZM196.215 129.593C196.74 129.593 197.189 129.457 197.561 129.183C197.944 128.91 198.234 128.554 198.431 128.116C198.628 127.679 198.726 127.219 198.726 126.738V126.721H196.642C195.832 126.721 195.257 126.863 194.918 127.148C194.59 127.421 194.426 127.766 194.426 128.182C194.426 128.609 194.579 128.953 194.885 129.216C195.203 129.468 195.646 129.593 196.215 129.593Z" fill="white"/>
<path d="M202.666 130.562V122.421H203.913L203.995 123.882C204.258 123.367 204.635 122.962 205.128 122.667C205.62 122.372 206.178 122.224 206.802 122.224C207.765 122.224 208.531 122.519 209.1 123.11C209.68 123.69 209.97 124.587 209.97 125.802V130.562H208.591V125.95C208.591 124.254 207.89 123.406 206.49 123.406C205.79 123.406 205.204 123.663 204.734 124.177C204.274 124.68 204.044 125.403 204.044 126.344V130.562H202.666Z" fill="white"/>
<path d="M54.5337 149.41C53.7568 149.41 53.0674 149.235 52.4656 148.885C51.8638 148.524 51.3878 148.026 51.0376 147.392C50.6984 146.757 50.5288 146.007 50.5288 145.143C50.5288 144.289 50.6984 143.545 51.0376 142.911C51.3768 142.265 51.8474 141.767 52.4492 141.417C53.062 141.056 53.7677 140.875 54.5665 140.875C55.3544 140.875 56.0328 141.056 56.6018 141.417C57.1817 141.767 57.6249 142.232 57.9313 142.812C58.2377 143.392 58.3909 144.016 58.3909 144.683C58.3909 144.804 58.3854 144.924 58.3745 145.045C58.3745 145.165 58.3745 145.302 58.3745 145.455H51.8911C51.924 146.079 52.0662 146.598 52.3179 147.014C52.5805 147.419 52.9033 147.725 53.2863 147.933C53.6802 148.141 54.096 148.245 54.5337 148.245C55.1027 148.245 55.5787 148.114 55.9617 147.851C56.3447 147.589 56.6237 147.233 56.7988 146.784H58.1611C57.9422 147.539 57.521 148.169 56.8972 148.672C56.2845 149.164 55.4966 149.41 54.5337 149.41ZM54.5337 142.041C53.8772 142.041 53.2917 142.243 52.7775 142.648C52.2741 143.042 51.9841 143.622 51.9075 144.388H57.0285C56.9957 143.655 56.744 143.08 56.2735 142.665C55.803 142.249 55.2231 142.041 54.5337 142.041Z" fill="white"/>
<path d="M60.7107 149.214V141.072H61.9581L62.0402 142.533C62.3028 142.019 62.6803 141.614 63.1727 141.319C63.6651 141.023 64.2232 140.875 64.8469 140.875C65.8098 140.875 66.5758 141.171 67.1448 141.762C67.7247 142.342 68.0147 143.239 68.0147 144.454V149.214H66.636V144.601C66.636 142.905 65.9356 142.057 64.535 142.057C63.8347 142.057 63.2493 142.314 62.7788 142.829C62.3192 143.332 62.0894 144.054 62.0894 144.995V149.214H60.7107Z" fill="white"/>
<path d="M72.7828 149.214L69.6971 141.072H71.1415L73.5871 147.884L76.0491 141.072H77.4606L74.3749 149.214H72.7828Z" fill="white"/>
<path d="M80.3245 139.267C80.051 139.267 79.8212 139.179 79.6352 139.004C79.4601 138.818 79.3726 138.589 79.3726 138.315C79.3726 138.052 79.4601 137.834 79.6352 137.658C79.8212 137.483 80.051 137.396 80.3245 137.396C80.5872 137.396 80.8115 137.483 80.9975 137.658C81.1835 137.834 81.2765 138.052 81.2765 138.315C81.2765 138.589 81.1835 138.818 80.9975 139.004C80.8115 139.179 80.5872 139.267 80.3245 139.267ZM79.6352 149.214V141.072H81.0139V149.214H79.6352Z" fill="white"/>
<path d="M83.9069 149.214V141.072H85.1543L85.2692 142.632C85.5209 142.096 85.9039 141.669 86.4182 141.351C86.9325 141.034 87.5671 140.875 88.3221 140.875V142.32H87.9446C87.4632 142.32 87.02 142.407 86.6151 142.582C86.2103 142.747 85.8875 143.031 85.6467 143.436C85.406 143.841 85.2856 144.399 85.2856 145.11V149.214H83.9069Z" fill="white"/>
<path d="M93.7669 149.41C93.001 149.41 92.3116 149.235 91.6988 148.885C91.0861 148.535 90.5991 148.043 90.238 147.408C89.8879 146.762 89.7128 146.007 89.7128 145.143C89.7128 144.279 89.8933 143.529 90.2544 142.894C90.6155 142.249 91.1025 141.751 91.7152 141.401C92.339 141.051 93.0338 140.875 93.7998 140.875C94.5657 140.875 95.2551 141.051 95.8679 141.401C96.4806 141.751 96.9621 142.249 97.3122 142.894C97.6733 143.529 97.8539 144.279 97.8539 145.143C97.8539 146.007 97.6733 146.762 97.3122 147.408C96.9511 148.043 96.4587 148.535 95.835 148.885C95.2223 149.235 94.5329 149.41 93.7669 149.41ZM93.7669 148.229C94.2374 148.229 94.6751 148.114 95.08 147.884C95.4849 147.654 95.8131 147.31 96.0648 146.85C96.3165 146.39 96.4423 145.821 96.4423 145.143C96.4423 144.465 96.3165 143.896 96.0648 143.436C95.8241 142.976 95.5013 142.632 95.0964 142.402C94.6916 142.172 94.2593 142.057 93.7998 142.057C93.3292 142.057 92.8915 142.172 92.4867 142.402C92.0818 142.632 91.7535 142.976 91.5019 143.436C91.2502 143.896 91.1244 144.465 91.1244 145.143C91.1244 145.821 91.2502 146.39 91.5019 146.85C91.7535 147.31 92.0763 147.654 92.4703 147.884C92.8751 148.114 93.3074 148.229 93.7669 148.229Z" fill="white"/>
<path d="M100.263 149.214V141.072H101.511L101.593 142.533C101.855 142.019 102.233 141.614 102.725 141.319C103.218 141.023 103.776 140.875 104.4 140.875C105.362 140.875 106.128 141.171 106.697 141.762C107.277 142.342 107.567 143.239 107.567 144.454V149.214H106.189V144.601C106.189 142.905 105.488 142.057 104.088 142.057C103.387 142.057 102.802 142.314 102.331 142.829C101.872 143.332 101.642 144.054 101.642 144.995V149.214H100.263Z" fill="white"/>
<path d="M110.149 149.214V141.072H111.396L111.495 142.254C111.757 141.817 112.107 141.477 112.545 141.237C112.983 140.996 113.475 140.875 114.022 140.875C114.668 140.875 115.22 141.007 115.68 141.269C116.15 141.532 116.512 141.931 116.763 142.468C117.048 141.975 117.436 141.587 117.929 141.302C118.432 141.018 118.974 140.875 119.554 140.875C120.527 140.875 121.304 141.171 121.884 141.762C122.464 142.342 122.754 143.239 122.754 144.454V149.214H121.392V144.601C121.392 143.759 121.222 143.124 120.883 142.697C120.544 142.271 120.057 142.057 119.422 142.057C118.766 142.057 118.219 142.314 117.781 142.829C117.354 143.332 117.141 144.054 117.141 144.995V149.214H115.762V144.601C115.762 143.759 115.592 143.124 115.253 142.697C114.914 142.271 114.427 142.057 113.792 142.057C113.147 142.057 112.605 142.314 112.167 142.829C111.741 143.332 111.527 144.054 111.527 144.995V149.214H110.149Z" fill="white"/>
<path d="M128.984 149.41C128.207 149.41 127.517 149.235 126.915 148.885C126.314 148.524 125.838 148.026 125.488 147.392C125.148 146.757 124.979 146.007 124.979 145.143C124.979 144.289 125.148 143.545 125.488 142.911C125.827 142.265 126.297 141.767 126.899 141.417C127.512 141.056 128.218 140.875 129.016 140.875C129.804 140.875 130.483 141.056 131.052 141.417C131.632 141.767 132.075 142.232 132.381 142.812C132.688 143.392 132.841 144.016 132.841 144.683C132.841 144.804 132.835 144.924 132.824 145.045C132.824 145.165 132.824 145.302 132.824 145.455H126.341C126.374 146.079 126.516 146.598 126.768 147.014C127.03 147.419 127.353 147.725 127.736 147.933C128.13 148.141 128.546 148.245 128.984 148.245C129.553 148.245 130.029 148.114 130.412 147.851C130.795 147.589 131.074 147.233 131.249 146.784H132.611C132.392 147.539 131.971 148.169 131.347 148.672C130.734 149.164 129.947 149.41 128.984 149.41ZM128.984 142.041C128.327 142.041 127.742 142.243 127.227 142.648C126.724 143.042 126.434 143.622 126.357 144.388H131.478C131.446 143.655 131.194 143.08 130.723 142.665C130.253 142.249 129.673 142.041 128.984 142.041Z" fill="white"/>
<path d="M135.161 149.214V141.072H136.408L136.49 142.533C136.753 142.019 137.13 141.614 137.623 141.319C138.115 141.023 138.673 140.875 139.297 140.875C140.26 140.875 141.026 141.171 141.595 141.762C142.175 142.342 142.465 143.239 142.465 144.454V149.214H141.086V144.601C141.086 142.905 140.386 142.057 138.985 142.057C138.285 142.057 137.699 142.314 137.229 142.829C136.769 143.332 136.539 144.054 136.539 144.995V149.214H135.161Z" fill="white"/>
<path d="M148.263 149.214C147.519 149.214 146.933 149.033 146.507 148.672C146.08 148.311 145.867 147.66 145.867 146.719V142.238H144.455V141.072H145.867L146.047 139.119H147.245V141.072H149.642V142.238H147.245V146.719C147.245 147.233 147.349 147.583 147.557 147.769C147.765 147.944 148.132 148.032 148.657 148.032H149.51V149.214H148.263Z" fill="white"/>
<path d="M159.939 149.214C159.195 149.214 158.609 149.033 158.183 148.672C157.756 148.311 157.543 147.66 157.543 146.719V142.238H156.131V141.072H157.543L157.723 139.119H158.921V141.072H161.318V142.238H158.921V146.719C158.921 147.233 159.025 147.583 159.233 147.769C159.441 147.944 159.808 148.032 160.333 148.032H161.186V149.214H159.939Z" fill="white"/>
<path d="M167.047 149.41C166.281 149.41 165.591 149.235 164.979 148.885C164.366 148.535 163.879 148.043 163.518 147.408C163.168 146.762 162.993 146.007 162.993 145.143C162.993 144.279 163.173 143.529 163.534 142.894C163.895 142.249 164.382 141.751 164.995 141.401C165.619 141.051 166.314 140.875 167.08 140.875C167.846 140.875 168.535 141.051 169.148 141.401C169.76 141.751 170.242 142.249 170.592 142.894C170.953 143.529 171.134 144.279 171.134 145.143C171.134 146.007 170.953 146.762 170.592 147.408C170.231 148.043 169.739 148.535 169.115 148.885C168.502 149.235 167.813 149.41 167.047 149.41ZM167.047 148.229C167.517 148.229 167.955 148.114 168.36 147.884C168.765 147.654 169.093 147.31 169.345 146.85C169.596 146.39 169.722 145.821 169.722 145.143C169.722 144.465 169.596 143.896 169.345 143.436C169.104 142.976 168.781 142.632 168.376 142.402C167.971 142.172 167.539 142.057 167.08 142.057C166.609 142.057 166.171 142.172 165.766 142.402C165.362 142.632 165.033 142.976 164.782 143.436C164.53 143.896 164.404 144.465 164.404 145.143C164.404 145.821 164.53 146.39 164.782 146.85C165.033 147.31 165.356 147.654 165.75 147.884C166.155 148.114 166.587 148.229 167.047 148.229Z" fill="white"/>
<path d="M178.379 149.214V137.396H179.758V142.468C180.032 141.964 180.42 141.576 180.923 141.302C181.427 141.018 181.974 140.875 182.565 140.875C183.506 140.875 184.261 141.171 184.83 141.762C185.399 142.342 185.683 143.239 185.683 144.454V149.214H184.321V144.601C184.321 142.905 183.637 142.057 182.269 142.057C181.558 142.057 180.962 142.314 180.48 142.829C179.999 143.332 179.758 144.054 179.758 144.995V149.214H178.379Z" fill="white"/>
<path d="M191.925 149.41C191.148 149.41 190.459 149.235 189.857 148.885C189.255 148.524 188.779 148.026 188.429 147.392C188.09 146.757 187.92 146.007 187.92 145.143C187.92 144.289 188.09 143.545 188.429 142.911C188.768 142.265 189.238 141.767 189.84 141.417C190.453 141.056 191.159 140.875 191.958 140.875C192.745 140.875 193.424 141.056 193.993 141.417C194.573 141.767 195.016 142.232 195.322 142.812C195.629 143.392 195.782 144.016 195.782 144.683C195.782 144.804 195.777 144.924 195.766 145.045C195.766 145.165 195.766 145.302 195.766 145.455H189.282C189.315 146.079 189.457 146.598 189.709 147.014C189.972 147.419 190.294 147.725 190.677 147.933C191.071 148.141 191.487 148.245 191.925 148.245C192.494 148.245 192.97 148.114 193.353 147.851C193.736 147.589 194.015 147.233 194.19 146.784H195.552C195.333 147.539 194.912 148.169 194.288 148.672C193.676 149.164 192.888 149.41 191.925 149.41ZM191.925 142.041C191.268 142.041 190.683 142.243 190.169 142.648C189.665 143.042 189.375 143.622 189.299 144.388H194.42C194.387 143.655 194.135 143.08 193.665 142.665C193.194 142.249 192.614 142.041 191.925 142.041Z" fill="white"/>
<path d="M198.102 149.214V137.396H199.481V149.214H198.102Z" fill="white"/>
<path d="M202.233 152.824V141.072H203.48L203.611 142.418C203.874 142.024 204.246 141.669 204.728 141.351C205.22 141.034 205.844 140.875 206.599 140.875C207.408 140.875 208.114 141.062 208.716 141.434C209.318 141.806 209.783 142.314 210.111 142.96C210.45 143.606 210.62 144.339 210.62 145.159C210.62 145.98 210.45 146.713 210.111 147.359C209.783 147.993 209.312 148.497 208.7 148.869C208.098 149.23 207.392 149.41 206.582 149.41C205.915 149.41 205.318 149.274 204.793 149C204.279 148.727 203.885 148.344 203.611 147.851V152.824H202.233ZM206.435 148.212C206.982 148.212 207.463 148.086 207.879 147.835C208.295 147.572 208.623 147.211 208.864 146.752C209.105 146.292 209.225 145.756 209.225 145.143C209.225 144.53 209.105 143.994 208.864 143.534C208.623 143.075 208.295 142.719 207.879 142.468C207.463 142.205 206.982 142.074 206.435 142.074C205.887 142.074 205.406 142.205 204.99 142.468C204.574 142.719 204.246 143.075 204.005 143.534C203.765 143.994 203.644 144.53 203.644 145.143C203.644 145.756 203.765 146.292 204.005 146.752C204.246 147.211 204.574 147.572 204.99 147.835C205.406 148.086 205.887 148.212 206.435 148.212Z" fill="white"/>
<path d="M57.7957 168.062C57.1282 168.062 56.5318 167.925 56.0066 167.652C55.4923 167.378 55.0984 166.995 54.8248 166.503L54.6935 167.865H53.4461V156.048H54.8248V161.07C55.0875 160.676 55.4595 160.32 55.941 160.003C56.4334 159.686 57.0571 159.527 57.8121 159.527C58.6218 159.527 59.3276 159.713 59.9294 160.085C60.5313 160.457 60.9963 160.966 61.3246 161.612C61.6638 162.257 61.8334 162.99 61.8334 163.811C61.8334 164.632 61.6638 165.365 61.3246 166.01C60.9963 166.645 60.5258 167.148 59.913 167.521C59.3112 167.882 58.6054 168.062 57.7957 168.062ZM57.648 166.864C58.1951 166.864 58.6765 166.738 59.0924 166.486C59.5082 166.224 59.8364 165.863 60.0772 165.403C60.3179 164.944 60.4383 164.407 60.4383 163.795C60.4383 163.182 60.3179 162.646 60.0772 162.186C59.8364 161.727 59.5082 161.371 59.0924 161.119C58.6765 160.857 58.1951 160.725 57.648 160.725C57.1008 160.725 56.6194 160.857 56.2036 161.119C55.7878 161.371 55.4595 161.727 55.2188 162.186C54.978 162.646 54.8577 163.182 54.8577 163.795C54.8577 164.407 54.978 164.944 55.2188 165.403C55.4595 165.863 55.7878 166.224 56.2036 166.486C56.6194 166.738 57.1008 166.864 57.648 166.864Z" fill="white"/>
<path d="M64.245 167.865V159.724H65.4925L65.6074 161.283C65.859 160.747 66.242 160.32 66.7563 160.003C67.2706 159.686 67.9052 159.527 68.6603 159.527V160.972H68.2827C67.8013 160.972 67.3581 161.059 66.9533 161.234C66.5484 161.398 66.2256 161.683 65.9849 162.088C65.7441 162.493 65.6238 163.051 65.6238 163.762V167.865H64.245Z" fill="white"/>
<path d="M74.0558 168.062C73.2789 168.062 72.5895 167.887 71.9877 167.537C71.3859 167.176 70.9099 166.678 70.5597 166.043C70.2205 165.409 70.0509 164.659 70.0509 163.795C70.0509 162.941 70.2205 162.197 70.5597 161.562C70.8989 160.917 71.3695 160.419 71.9713 160.069C72.5841 159.708 73.2898 159.527 74.0886 159.527C74.8765 159.527 75.5549 159.708 76.1239 160.069C76.7038 160.419 77.147 160.884 77.4534 161.464C77.7598 162.044 77.913 162.668 77.913 163.335C77.913 163.455 77.9075 163.576 77.8966 163.696C77.8966 163.817 77.8966 163.953 77.8966 164.107H71.4132C71.4461 164.73 71.5883 165.25 71.84 165.666C72.1026 166.071 72.4254 166.377 72.8084 166.585C73.2023 166.793 73.6181 166.897 74.0558 166.897C74.6248 166.897 75.1008 166.766 75.4838 166.503C75.8668 166.24 76.1458 165.885 76.3209 165.436H77.6832C77.4643 166.191 77.0431 166.82 76.4193 167.324C75.8066 167.816 75.0187 168.062 74.0558 168.062ZM74.0558 160.693C73.3993 160.693 72.8139 160.895 72.2996 161.3C71.7962 161.694 71.5062 162.274 71.4296 163.04H76.5507C76.5178 162.307 76.2662 161.732 75.7956 161.316C75.3251 160.9 74.7452 160.693 74.0558 160.693Z" fill="white"/>
<path d="M82.941 168.062C82.2626 168.062 81.6991 167.947 81.2504 167.717C80.8018 167.488 80.4681 167.181 80.2492 166.798C80.0304 166.415 79.9209 166 79.9209 165.551C79.9209 164.719 80.2383 164.079 80.8729 163.631C81.5076 163.182 82.372 162.958 83.4662 162.958H85.6657V162.859C85.6657 162.148 85.4796 161.612 85.1076 161.251C84.7356 160.879 84.2377 160.693 83.614 160.693C83.0778 160.693 82.6127 160.829 82.2188 161.103C81.8358 161.365 81.5951 161.754 81.4966 162.268H80.0851C80.1398 161.677 80.3367 161.179 80.676 160.775C81.0261 160.37 81.4583 160.063 81.9726 159.855C82.4869 159.637 83.034 159.527 83.614 159.527C84.752 159.527 85.6055 159.834 86.1745 160.446C86.7544 161.048 87.0444 161.852 87.0444 162.859V167.865H85.8134L85.7313 166.404C85.5015 166.864 85.1623 167.258 84.7137 167.586C84.276 167.904 83.6851 168.062 82.941 168.062ZM83.1544 166.897C83.6796 166.897 84.1283 166.76 84.5003 166.486C84.8833 166.213 85.1732 165.857 85.3702 165.42C85.5672 164.982 85.6657 164.522 85.6657 164.041V164.024H83.5811C82.7714 164.024 82.1969 164.167 81.8577 164.451C81.5295 164.725 81.3653 165.069 81.3653 165.485C81.3653 165.912 81.5185 166.257 81.8249 166.519C82.1422 166.771 82.5854 166.897 83.1544 166.897Z" fill="white"/>
<path d="M89.6051 167.865V156.048H90.9839V163.155L94.3158 159.724H96.0064L92.3954 163.401L96.466 167.865H94.7097L90.9839 163.647V167.865H89.6051Z" fill="white"/>
<path d="M106.422 167.865C105.678 167.865 105.092 167.685 104.665 167.324C104.239 166.962 104.025 166.311 104.025 165.37V160.889H102.614V159.724H104.025L104.206 157.771H105.404V159.724H107.8V160.889H105.404V165.37C105.404 165.885 105.508 166.235 105.716 166.421C105.924 166.596 106.29 166.683 106.816 166.683H107.669V167.865H106.422Z" fill="white"/>
<path d="M113.48 168.062C112.703 168.062 112.014 167.887 111.412 167.537C110.81 167.176 110.334 166.678 109.984 166.043C109.645 165.409 109.475 164.659 109.475 163.795C109.475 162.941 109.645 162.197 109.984 161.562C110.323 160.917 110.794 160.419 111.396 160.069C112.008 159.708 112.714 159.527 113.513 159.527C114.301 159.527 114.979 159.708 115.548 160.069C116.128 160.419 116.571 160.884 116.878 161.464C117.184 162.044 117.337 162.668 117.337 163.335C117.337 163.455 117.332 163.576 117.321 163.696C117.321 163.817 117.321 163.953 117.321 164.107H110.838C110.87 164.73 111.013 165.25 111.264 165.666C111.527 166.071 111.85 166.377 112.233 166.585C112.627 166.793 113.043 166.897 113.48 166.897C114.049 166.897 114.525 166.766 114.908 166.503C115.291 166.24 115.57 165.885 115.745 165.436H117.108C116.889 166.191 116.467 166.82 115.844 167.324C115.231 167.816 114.443 168.062 113.48 168.062ZM113.48 160.693C112.824 160.693 112.238 160.895 111.724 161.3C111.221 161.694 110.931 162.274 110.854 163.04H115.975C115.942 162.307 115.691 161.732 115.22 161.316C114.75 160.9 114.17 160.693 113.48 160.693Z" fill="white"/>
<path d="M123.399 168.062C122.623 168.062 121.922 167.887 121.299 167.537C120.686 167.176 120.199 166.678 119.838 166.043C119.488 165.398 119.313 164.648 119.313 163.795C119.313 162.941 119.488 162.197 119.838 161.562C120.199 160.917 120.686 160.419 121.299 160.069C121.922 159.708 122.623 159.527 123.399 159.527C124.362 159.527 125.172 159.779 125.829 160.282C126.496 160.786 126.917 161.458 127.093 162.301H125.681C125.572 161.798 125.303 161.409 124.877 161.136C124.45 160.851 123.952 160.709 123.383 160.709C122.923 160.709 122.491 160.824 122.086 161.054C121.682 161.283 121.353 161.628 121.102 162.088C120.85 162.547 120.724 163.116 120.724 163.795C120.724 164.473 120.85 165.042 121.102 165.502C121.353 165.961 121.682 166.311 122.086 166.552C122.491 166.782 122.923 166.897 123.383 166.897C123.952 166.897 124.45 166.76 124.877 166.486C125.303 166.202 125.572 165.803 125.681 165.288H127.093C126.928 166.109 126.513 166.776 125.845 167.291C125.178 167.805 124.362 168.062 123.399 168.062Z" fill="white"/>
<path d="M129.51 167.865V156.048H130.889V161.119C131.163 160.616 131.551 160.227 132.055 159.954C132.558 159.669 133.105 159.527 133.696 159.527C134.637 159.527 135.392 159.823 135.961 160.413C136.53 160.993 136.814 161.891 136.814 163.105V167.865H135.452V163.253C135.452 161.557 134.768 160.709 133.4 160.709C132.689 160.709 132.093 160.966 131.611 161.48C131.13 161.984 130.889 162.706 130.889 163.647V167.865H129.51Z" fill="white"/>
<path d="M145.069 157.919C144.795 157.919 144.566 157.831 144.38 157.656C144.205 157.47 144.117 157.24 144.117 156.967C144.117 156.704 144.205 156.485 144.38 156.31C144.566 156.135 144.795 156.048 145.069 156.048C145.332 156.048 145.556 156.135 145.742 156.31C145.928 156.485 146.021 156.704 146.021 156.967C146.021 157.24 145.928 157.47 145.742 157.656C145.556 157.831 145.332 157.919 145.069 157.919ZM144.38 167.865V159.724H145.758V167.865H144.38Z" fill="white"/>
<path d="M148.651 167.865V159.724H149.899L149.981 161.185C150.243 160.671 150.621 160.266 151.113 159.97C151.606 159.675 152.164 159.527 152.788 159.527C153.75 159.527 154.516 159.823 155.085 160.413C155.665 160.993 155.955 161.891 155.955 163.105V167.865H154.577V163.253C154.577 161.557 153.876 160.709 152.476 160.709C151.775 160.709 151.19 160.966 150.719 161.48C150.26 161.984 150.03 162.706 150.03 163.647V167.865H148.651Z" fill="white"/>
<path d="M162.23 168.062C161.42 168.062 160.709 167.876 160.096 167.504C159.494 167.132 159.024 166.623 158.684 165.978C158.356 165.332 158.192 164.599 158.192 163.778C158.192 162.958 158.362 162.23 158.701 161.595C159.04 160.95 159.511 160.446 160.112 160.085C160.714 159.713 161.425 159.527 162.246 159.527C162.914 159.527 163.504 159.664 164.019 159.938C164.533 160.211 164.932 160.594 165.217 161.086V156.048H166.596V167.865H165.348L165.217 166.519C164.954 166.913 164.577 167.269 164.084 167.586C163.592 167.904 162.974 168.062 162.23 168.062ZM162.377 166.864C162.925 166.864 163.406 166.738 163.822 166.486C164.249 166.224 164.577 165.863 164.807 165.403C165.047 164.944 165.168 164.407 165.168 163.795C165.168 163.182 165.047 162.646 164.807 162.186C164.577 161.727 164.249 161.371 163.822 161.119C163.406 160.857 162.925 160.725 162.377 160.725C161.841 160.725 161.36 160.857 160.933 161.119C160.517 161.371 160.189 161.727 159.948 162.186C159.718 162.646 159.604 163.182 159.604 163.795C159.604 164.407 159.718 164.944 159.948 165.403C160.189 165.863 160.517 166.224 160.933 166.486C161.36 166.738 161.841 166.864 162.377 166.864Z" fill="white"/>
<path d="M172.306 168.062C171.343 168.062 170.578 167.772 170.009 167.192C169.44 166.601 169.155 165.699 169.155 164.484V159.724H170.534V164.336C170.534 166.032 171.229 166.88 172.618 166.88C173.33 166.88 173.915 166.629 174.375 166.125C174.845 165.611 175.08 164.883 175.08 163.942V159.724H176.459V167.865H175.212L175.113 166.404C174.861 166.919 174.484 167.324 173.981 167.619C173.488 167.914 172.93 168.062 172.306 168.062Z" fill="white"/>
<path d="M182.339 168.062C181.366 168.062 180.556 167.816 179.91 167.324C179.265 166.831 178.887 166.164 178.778 165.321H180.189C180.277 165.748 180.501 166.12 180.862 166.437C181.234 166.744 181.732 166.897 182.356 166.897C182.936 166.897 183.363 166.776 183.636 166.536C183.91 166.284 184.046 165.989 184.046 165.649C184.046 165.157 183.866 164.829 183.505 164.665C183.155 164.5 182.657 164.353 182.011 164.221C181.573 164.134 181.136 164.008 180.698 163.844C180.26 163.68 179.894 163.45 179.598 163.155C179.303 162.848 179.155 162.449 179.155 161.956C179.155 161.245 179.418 160.665 179.943 160.217C180.479 159.757 181.201 159.527 182.11 159.527C182.974 159.527 183.68 159.746 184.227 160.184C184.785 160.61 185.108 161.223 185.195 162.022H183.833C183.778 161.606 183.598 161.283 183.291 161.054C182.996 160.813 182.597 160.693 182.093 160.693C181.601 160.693 181.218 160.796 180.944 161.004C180.682 161.212 180.55 161.486 180.55 161.825C180.55 162.153 180.72 162.41 181.059 162.596C181.409 162.783 181.88 162.941 182.471 163.072C182.974 163.182 183.45 163.319 183.899 163.483C184.358 163.636 184.73 163.871 185.015 164.189C185.31 164.495 185.458 164.944 185.458 165.535C185.469 166.268 185.19 166.875 184.621 167.356C184.063 167.827 183.302 168.062 182.339 168.062Z" fill="white"/>
<path d="M190.768 167.865C190.024 167.865 189.439 167.685 189.012 167.324C188.585 166.962 188.372 166.311 188.372 165.37V160.889H186.96V159.724H188.372L188.553 157.771H189.751V159.724H192.147V160.889H189.751V165.37C189.751 165.885 189.855 166.235 190.063 166.421C190.27 166.596 190.637 166.683 191.162 166.683H192.016V167.865H190.768Z" fill="white"/>
<path d="M194.391 167.865V159.724H195.639L195.753 161.283C196.005 160.747 196.388 160.32 196.902 160.003C197.417 159.686 198.051 159.527 198.806 159.527V160.972H198.429C197.947 160.972 197.504 161.059 197.099 161.234C196.695 161.398 196.372 161.683 196.131 162.088C195.89 162.493 195.77 163.051 195.77 163.762V167.865H194.391Z" fill="white"/>
<path d="M201.733 171.476L203.751 167.077H203.275L200.042 159.724H201.536L204.227 166.06L207.083 159.724H208.511L203.177 171.476H201.733Z" fill="white"/>
<path d="M69.4028 186.714C68.4289 186.714 67.6192 186.468 66.9736 185.975C66.328 185.483 65.9505 184.815 65.8411 183.973H67.2526C67.3401 184.4 67.5645 184.772 67.9256 185.089C68.2976 185.395 68.7955 185.549 69.4192 185.549C69.9991 185.549 70.4259 185.428 70.6994 185.187C70.973 184.936 71.1098 184.64 71.1098 184.301C71.1098 183.809 70.9292 183.48 70.5681 183.316C70.218 183.152 69.7201 183.004 69.0745 182.873C68.6368 182.786 68.1991 182.66 67.7614 182.496C67.3237 182.331 66.9572 182.102 66.6617 181.806C66.3663 181.5 66.2186 181.1 66.2186 180.608C66.2186 179.897 66.4812 179.317 67.0064 178.868C67.5426 178.409 68.2648 178.179 69.173 178.179C70.0374 178.179 70.7432 178.398 71.2903 178.835C71.8484 179.262 72.1712 179.875 72.2587 180.674H70.8964C70.8417 180.258 70.6611 179.935 70.3548 179.705C70.0593 179.465 69.6599 179.344 69.1566 179.344C68.6642 179.344 68.2812 179.448 68.0076 179.656C67.745 179.864 67.6137 180.138 67.6137 180.477C67.6137 180.805 67.7833 181.062 68.1225 181.248C68.4727 181.434 68.9432 181.593 69.5341 181.724C70.0374 181.834 70.5134 181.97 70.9621 182.135C71.4216 182.288 71.7937 182.523 72.0782 182.84C72.3736 183.147 72.5213 183.595 72.5213 184.186C72.5323 184.919 72.2533 185.527 71.6843 186.008C71.1262 186.479 70.3657 186.714 69.4028 186.714Z" fill="white"/>
<path d="M77.8317 186.517C77.0877 186.517 76.5023 186.336 76.0755 185.975C75.6488 185.614 75.4354 184.963 75.4354 184.022V179.541H74.0238V178.376H75.4354L75.6159 176.423H76.8141V178.376H79.2105V179.541H76.8141V184.022C76.8141 184.536 76.9181 184.886 77.126 185.073C77.3339 185.248 77.7004 185.335 78.2257 185.335H79.0792V186.517H77.8317Z" fill="white"/>
<path d="M84.8903 186.714C84.1134 186.714 83.424 186.539 82.8222 186.189C82.2204 185.828 81.7444 185.33 81.3942 184.695C81.055 184.06 80.8854 183.311 80.8854 182.446C80.8854 181.593 81.055 180.849 81.3942 180.214C81.7334 179.569 82.204 179.071 82.8058 178.72C83.4186 178.359 84.1243 178.179 84.9231 178.179C85.711 178.179 86.3894 178.359 86.9584 178.72C87.5383 179.071 87.9815 179.536 88.2879 180.116C88.5943 180.696 88.7475 181.319 88.7475 181.987C88.7475 182.107 88.742 182.228 88.7311 182.348C88.7311 182.468 88.7311 182.605 88.7311 182.758H82.2477C82.2806 183.382 82.4228 183.902 82.6745 184.317C82.9371 184.722 83.2599 185.029 83.6429 185.237C84.0368 185.445 84.4526 185.549 84.8903 185.549C85.4593 185.549 85.9353 185.417 86.3183 185.155C86.7013 184.892 86.9803 184.536 87.1554 184.088H88.5177C88.2988 184.843 87.8776 185.472 87.2538 185.975C86.6411 186.468 85.8532 186.714 84.8903 186.714ZM84.8903 179.344C84.2338 179.344 83.6484 179.547 83.1341 179.952C82.6307 180.345 82.3407 180.925 82.2642 181.691H87.3852C87.3523 180.958 87.1007 180.384 86.6301 179.968C86.1596 179.552 85.5797 179.344 84.8903 179.344Z" fill="white"/>
<path d="M91.0673 186.517V178.376H92.3147L92.4296 179.935C92.6813 179.399 93.0643 178.972 93.5786 178.655C94.0928 178.338 94.7275 178.179 95.4825 178.179V179.623H95.105C94.6235 179.623 94.1804 179.711 93.7755 179.886C93.3707 180.05 93.0479 180.334 92.8071 180.739C92.5664 181.144 92.446 181.702 92.446 182.414V186.517H91.0673Z" fill="white"/>
<path d="M100.878 186.714C100.101 186.714 99.4118 186.539 98.81 186.189C98.2081 185.828 97.7322 185.33 97.382 184.695C97.0428 184.06 96.8732 183.311 96.8732 182.446C96.8732 181.593 97.0428 180.849 97.382 180.214C97.7212 179.569 98.1917 179.071 98.7936 178.72C99.4063 178.359 100.112 178.179 100.911 178.179C101.699 178.179 102.377 178.359 102.946 178.72C103.526 179.071 103.969 179.536 104.276 180.116C104.582 180.696 104.735 181.319 104.735 181.987C104.735 182.107 104.73 182.228 104.719 182.348C104.719 182.468 104.719 182.605 104.719 182.758H98.2355C98.2683 183.382 98.4106 183.902 98.6623 184.317C98.9249 184.722 99.2477 185.029 99.6306 185.237C100.025 185.445 100.44 185.549 100.878 185.549C101.447 185.549 101.923 185.417 102.306 185.155C102.689 184.892 102.968 184.536 103.143 184.088H104.505C104.287 184.843 103.865 185.472 103.242 185.975C102.629 186.468 101.841 186.714 100.878 186.714ZM100.878 179.344C100.222 179.344 99.6361 179.547 99.1218 179.952C98.6185 180.345 98.3285 180.925 98.2519 181.691H103.373C103.34 180.958 103.088 180.384 102.618 179.968C102.147 179.552 101.567 179.344 100.878 179.344Z" fill="white"/>
<path d="M110.764 186.714C109.999 186.714 109.309 186.539 108.696 186.189C108.084 185.838 107.597 185.346 107.236 184.711C106.885 184.066 106.71 183.311 106.71 182.446C106.71 181.582 106.891 180.832 107.252 180.198C107.613 179.552 108.1 179.054 108.713 178.704C109.337 178.354 110.031 178.179 110.797 178.179C111.563 178.179 112.253 178.354 112.865 178.704C113.478 179.054 113.96 179.552 114.31 180.198C114.671 180.832 114.851 181.582 114.851 182.446C114.851 183.311 114.671 184.066 114.31 184.711C113.949 185.346 113.456 185.838 112.833 186.189C112.22 186.539 111.53 186.714 110.764 186.714ZM110.764 185.532C111.235 185.532 111.673 185.417 112.078 185.187C112.482 184.958 112.811 184.613 113.062 184.153C113.314 183.694 113.44 183.125 113.44 182.446C113.44 181.768 113.314 181.199 113.062 180.739C112.822 180.28 112.499 179.935 112.094 179.705C111.689 179.476 111.257 179.361 110.797 179.361C110.327 179.361 109.889 179.476 109.484 179.705C109.079 179.935 108.751 180.28 108.499 180.739C108.248 181.199 108.122 181.768 108.122 182.446C108.122 183.125 108.248 183.694 108.499 184.153C108.751 184.613 109.074 184.958 109.468 185.187C109.873 185.417 110.305 185.532 110.764 185.532Z" fill="white"/>
<path d="M120.157 186.517C119.413 186.517 118.828 186.336 118.401 185.975C117.974 185.614 117.761 184.963 117.761 184.022V179.541H116.349V178.376H117.761L117.942 176.423H119.14V178.376H121.536V179.541H119.14V184.022C119.14 184.536 119.244 184.886 119.452 185.073C119.66 185.248 120.026 185.335 120.551 185.335H121.405V186.517H120.157Z" fill="white"/>
<path d="M124.666 190.128L126.685 185.729H126.209L122.976 178.376H124.47L127.161 184.711L130.017 178.376H131.445L126.111 190.128H124.666Z" fill="white"/>
<path d="M133.393 190.128V178.376H134.64L134.772 179.722C135.034 179.328 135.406 178.972 135.888 178.655C136.38 178.338 137.004 178.179 137.759 178.179C138.569 178.179 139.274 178.365 139.876 178.737C140.478 179.109 140.943 179.618 141.271 180.263C141.611 180.909 141.78 181.642 141.78 182.463C141.78 183.283 141.611 184.017 141.271 184.662C140.943 185.297 140.473 185.8 139.86 186.172C139.258 186.533 138.552 186.714 137.743 186.714C137.075 186.714 136.479 186.577 135.953 186.304C135.439 186.03 135.045 185.647 134.772 185.155V190.128H133.393ZM137.595 185.516C138.142 185.516 138.623 185.39 139.039 185.138C139.455 184.876 139.783 184.514 140.024 184.055C140.265 183.595 140.385 183.059 140.385 182.446C140.385 181.834 140.265 181.297 140.024 180.838C139.783 180.378 139.455 180.023 139.039 179.771C138.623 179.508 138.142 179.377 137.595 179.377C137.048 179.377 136.566 179.508 136.15 179.771C135.735 180.023 135.406 180.378 135.166 180.838C134.925 181.297 134.804 181.834 134.804 182.446C134.804 183.059 134.925 183.595 135.166 184.055C135.406 184.514 135.735 184.876 136.15 185.138C136.566 185.39 137.048 185.516 137.595 185.516Z" fill="white"/>
<path d="M147.852 186.714C147.075 186.714 146.386 186.539 145.784 186.189C145.182 185.828 144.706 185.33 144.356 184.695C144.017 184.06 143.847 183.311 143.847 182.446C143.847 181.593 144.017 180.849 144.356 180.214C144.695 179.569 145.166 179.071 145.768 178.72C146.38 178.359 147.086 178.179 147.885 178.179C148.673 178.179 149.351 178.359 149.92 178.72C150.5 179.071 150.943 179.536 151.25 180.116C151.556 180.696 151.709 181.319 151.709 181.987C151.709 182.107 151.704 182.228 151.693 182.348C151.693 182.468 151.693 182.605 151.693 182.758H145.209C145.242 183.382 145.385 183.902 145.636 184.317C145.899 184.722 146.222 185.029 146.605 185.237C146.999 185.445 147.414 185.549 147.852 185.549C148.421 185.549 148.897 185.417 149.28 185.155C149.663 184.892 149.942 184.536 150.117 184.088H151.479C151.261 184.843 150.839 185.472 150.216 185.975C149.603 186.468 148.815 186.714 147.852 186.714ZM147.852 179.344C147.196 179.344 146.61 179.547 146.096 179.952C145.592 180.345 145.302 180.925 145.226 181.691H150.347C150.314 180.958 150.062 180.384 149.592 179.968C149.121 179.552 148.541 179.344 147.852 179.344Z" fill="white"/>
<path d="M157.148 186.714C156.174 186.714 155.364 186.468 154.718 185.975C154.073 185.483 153.695 184.815 153.586 183.973H154.997C155.085 184.4 155.309 184.772 155.67 185.089C156.042 185.395 156.54 185.549 157.164 185.549C157.744 185.549 158.171 185.428 158.444 185.187C158.718 184.936 158.855 184.64 158.855 184.301C158.855 183.809 158.674 183.48 158.313 183.316C157.963 183.152 157.465 183.004 156.819 182.873C156.382 182.786 155.944 182.66 155.506 182.496C155.069 182.331 154.702 182.102 154.407 181.806C154.111 181.5 153.963 181.1 153.963 180.608C153.963 179.897 154.226 179.317 154.751 178.868C155.287 178.409 156.01 178.179 156.918 178.179C157.782 178.179 158.488 178.398 159.035 178.835C159.593 179.262 159.916 179.875 160.004 180.674H158.641C158.587 180.258 158.406 179.935 158.1 179.705C157.804 179.465 157.405 179.344 156.901 179.344C156.409 179.344 156.026 179.448 155.752 179.656C155.49 179.864 155.359 180.138 155.359 180.477C155.359 180.805 155.528 181.062 155.867 181.248C156.217 181.434 156.688 181.593 157.279 181.724C157.782 181.834 158.258 181.97 158.707 182.135C159.166 182.288 159.538 182.523 159.823 182.84C160.118 183.147 160.266 183.595 160.266 184.186C160.277 184.919 159.998 185.527 159.429 186.008C158.871 186.479 158.111 186.714 157.148 186.714Z" fill="white"/>
<path d="M170.273 186.714C169.594 186.714 169.031 186.599 168.582 186.369C168.133 186.139 167.8 185.833 167.581 185.45C167.362 185.067 167.253 184.651 167.253 184.203C167.253 183.371 167.57 182.731 168.205 182.282C168.839 181.834 169.704 181.609 170.798 181.609H172.997V181.511C172.997 180.8 172.811 180.263 172.439 179.902C172.067 179.53 171.569 179.344 170.946 179.344C170.409 179.344 169.944 179.481 169.55 179.755C169.167 180.017 168.927 180.406 168.828 180.92H167.417C167.471 180.329 167.668 179.831 168.008 179.426C168.358 179.021 168.79 178.715 169.304 178.507C169.819 178.288 170.366 178.179 170.946 178.179C172.084 178.179 172.937 178.485 173.506 179.098C174.086 179.7 174.376 180.504 174.376 181.511V186.517H173.145L173.063 185.056C172.833 185.516 172.494 185.91 172.045 186.238C171.608 186.555 171.017 186.714 170.273 186.714ZM170.486 185.549C171.011 185.549 171.46 185.412 171.832 185.138C172.215 184.865 172.505 184.509 172.702 184.071C172.899 183.634 172.997 183.174 172.997 182.693V182.676H170.913C170.103 182.676 169.529 182.818 169.189 183.103C168.861 183.376 168.697 183.721 168.697 184.137C168.697 184.564 168.85 184.908 169.156 185.171C169.474 185.423 169.917 185.549 170.486 185.549Z" fill="white"/>
<path d="M176.937 186.517V178.376H178.184L178.266 179.837C178.529 179.322 178.906 178.917 179.399 178.622C179.891 178.327 180.449 178.179 181.073 178.179C182.036 178.179 182.802 178.474 183.371 179.065C183.951 179.645 184.241 180.542 184.241 181.757V186.517H182.862V181.905C182.862 180.209 182.162 179.361 180.761 179.361C180.061 179.361 179.475 179.618 179.005 180.132C178.545 180.635 178.315 181.358 178.315 182.299V186.517H176.937Z" fill="white"/>
<path d="M190.515 186.714C189.705 186.714 188.994 186.528 188.381 186.156C187.779 185.784 187.309 185.275 186.97 184.629C186.641 183.984 186.477 183.251 186.477 182.43C186.477 181.609 186.647 180.882 186.986 180.247C187.325 179.601 187.796 179.098 188.398 178.737C189 178.365 189.711 178.179 190.531 178.179C191.199 178.179 191.79 178.316 192.304 178.589C192.818 178.863 193.218 179.246 193.502 179.738V174.699H194.881V186.517H193.634L193.502 185.171C193.24 185.565 192.862 185.921 192.37 186.238C191.877 186.555 191.259 186.714 190.515 186.714ZM190.663 185.516C191.21 185.516 191.691 185.39 192.107 185.138C192.534 184.876 192.862 184.514 193.092 184.055C193.333 183.595 193.453 183.059 193.453 182.446C193.453 181.834 193.333 181.297 193.092 180.838C192.862 180.378 192.534 180.023 192.107 179.771C191.691 179.508 191.21 179.377 190.663 179.377C190.127 179.377 189.645 179.508 189.218 179.771C188.803 180.023 188.474 180.378 188.234 180.838C188.004 181.297 187.889 181.834 187.889 182.446C187.889 183.059 188.004 183.595 188.234 184.055C188.474 184.514 188.803 184.876 189.218 185.138C189.645 185.39 190.127 185.516 190.663 185.516Z" fill="white"/>
<path d="M61.8577 205.366C60.8838 205.366 60.0741 205.119 59.4285 204.627C58.7829 204.135 58.4054 203.467 58.296 202.624H59.7075C59.7951 203.051 60.0194 203.423 60.3805 203.741C60.7525 204.047 61.2504 204.2 61.8741 204.2C62.4541 204.2 62.8808 204.08 63.1544 203.839C63.4279 203.587 63.5647 203.292 63.5647 202.953C63.5647 202.46 63.3842 202.132 63.0231 201.968C62.6729 201.804 62.175 201.656 61.5294 201.525C61.0917 201.437 60.654 201.311 60.2164 201.147C59.7787 200.983 59.4121 200.753 59.1166 200.458C58.8212 200.152 58.6735 199.752 58.6735 199.26C58.6735 198.548 58.9361 197.969 59.4613 197.52C59.9975 197.06 60.7197 196.831 61.6279 196.831C62.4924 196.831 63.1981 197.049 63.7453 197.487C64.3033 197.914 64.6261 198.527 64.7136 199.325H63.3513C63.2966 198.91 63.1161 198.587 62.8097 198.357C62.5142 198.116 62.1148 197.996 61.6115 197.996C61.1191 197.996 60.7361 198.1 60.4626 198.308C60.1999 198.516 60.0686 198.789 60.0686 199.128C60.0686 199.457 60.2382 199.714 60.5774 199.9C60.9276 200.086 61.3981 200.245 61.989 200.376C62.4924 200.485 62.9683 200.622 63.417 200.786C63.8766 200.939 64.2486 201.175 64.5331 201.492C64.8285 201.798 64.9763 202.247 64.9763 202.838C64.9872 203.571 64.7082 204.178 64.1392 204.66C63.5811 205.13 62.8206 205.366 61.8577 205.366Z" fill="white"/>
<path d="M67.4383 205.169V193.351H68.817V198.423C69.0906 197.919 69.479 197.531 69.9824 197.257C70.4857 196.973 71.0328 196.831 71.6237 196.831C72.5648 196.831 73.3198 197.126 73.8888 197.717C74.4578 198.297 74.7423 199.194 74.7423 200.409V205.169H73.38V200.556C73.38 198.86 72.6961 198.012 71.3283 198.012C70.617 198.012 70.0207 198.269 69.5392 198.784C69.0577 199.287 68.817 200.009 68.817 200.95V205.169H67.4383Z" fill="white"/>
<path d="M81.033 205.366C80.267 205.366 79.5777 205.19 78.9649 204.84C78.3521 204.49 77.8652 203.998 77.5041 203.363C77.154 202.717 76.9789 201.962 76.9789 201.098C76.9789 200.234 77.1594 199.484 77.5205 198.849C77.8816 198.204 78.3686 197.706 78.9813 197.356C79.605 197.006 80.2999 196.831 81.0658 196.831C81.8318 196.831 82.5212 197.006 83.1339 197.356C83.7467 197.706 84.2282 198.204 84.5783 198.849C84.9394 199.484 85.12 200.234 85.12 201.098C85.12 201.962 84.9394 202.717 84.5783 203.363C84.2172 203.998 83.7248 204.49 83.1011 204.84C82.4883 205.19 81.799 205.366 81.033 205.366ZM81.033 204.184C81.5035 204.184 81.9412 204.069 82.3461 203.839C82.751 203.609 83.0792 203.265 83.3309 202.805C83.5826 202.345 83.7084 201.776 83.7084 201.098C83.7084 200.42 83.5826 199.851 83.3309 199.391C83.0902 198.931 82.7674 198.587 82.3625 198.357C81.9576 198.127 81.5254 198.012 81.0658 198.012C80.5953 198.012 80.1576 198.127 79.7528 198.357C79.3479 198.587 79.0196 198.931 78.7679 199.391C78.5163 199.851 78.3904 200.42 78.3904 201.098C78.3904 201.776 78.5163 202.345 78.7679 202.805C79.0196 203.265 79.3424 203.609 79.7363 203.839C80.1412 204.069 80.5734 204.184 81.033 204.184Z" fill="white"/>
<path d="M88.8662 205.169L86.4863 197.027H87.865L89.5884 203.412L91.4924 197.027H93.0517L94.972 203.412L96.679 197.027H98.0742L95.6942 205.169H94.2827L92.2802 198.455L90.2778 205.169H88.8662Z" fill="white"/>
<path d="M108.145 205.169C107.401 205.169 106.815 204.988 106.389 204.627C105.962 204.266 105.748 203.615 105.748 202.674V198.193H104.337V197.027H105.748L105.929 195.074H107.127V197.027H109.523V198.193H107.127V202.674C107.127 203.188 107.231 203.538 107.439 203.724C107.647 203.899 108.013 203.987 108.539 203.987H109.392V205.169H108.145Z" fill="white"/>
<path d="M111.768 205.169V193.351H113.146V198.423C113.42 197.919 113.808 197.531 114.312 197.257C114.815 196.973 115.362 196.831 115.953 196.831C116.894 196.831 117.649 197.126 118.218 197.717C118.787 198.297 119.072 199.194 119.072 200.409V205.169H117.709V200.556C117.709 198.86 117.025 198.012 115.658 198.012C114.946 198.012 114.35 198.269 113.868 198.784C113.387 199.287 113.146 200.009 113.146 200.95V205.169H111.768Z" fill="white"/>
<path d="M124.361 205.366C123.683 205.366 123.119 205.251 122.67 205.021C122.222 204.791 121.888 204.485 121.669 204.102C121.45 203.719 121.341 203.303 121.341 202.854C121.341 202.023 121.658 201.383 122.293 200.934C122.928 200.485 123.792 200.261 124.886 200.261H127.086V200.162C127.086 199.451 126.9 198.915 126.528 198.554C126.156 198.182 125.658 197.996 125.034 197.996C124.498 197.996 124.033 198.133 123.639 198.406C123.256 198.669 123.015 199.057 122.917 199.572H121.505C121.56 198.981 121.757 198.483 122.096 198.078C122.446 197.673 122.878 197.367 123.393 197.159C123.907 196.94 124.454 196.831 125.034 196.831C126.172 196.831 127.025 197.137 127.594 197.75C128.174 198.352 128.464 199.156 128.464 200.162V205.169H127.233L127.151 203.708C126.922 204.167 126.582 204.561 126.134 204.89C125.696 205.207 125.105 205.366 124.361 205.366ZM124.574 204.2C125.1 204.2 125.548 204.063 125.92 203.79C126.303 203.516 126.593 203.161 126.79 202.723C126.987 202.285 127.086 201.826 127.086 201.344V201.328H125.001C124.191 201.328 123.617 201.47 123.278 201.755C122.949 202.028 122.785 202.373 122.785 202.789C122.785 203.215 122.939 203.56 123.245 203.823C123.562 204.074 124.005 204.2 124.574 204.2Z" fill="white"/>
<path d="M134.018 205.169C133.274 205.169 132.688 204.988 132.262 204.627C131.835 204.266 131.621 203.615 131.621 202.674V198.193H130.21V197.027H131.621L131.802 195.074H133V197.027H135.397V198.193H133V202.674C133 203.188 133.104 203.538 133.312 203.724C133.52 203.899 133.886 203.987 134.412 203.987H135.265V205.169H134.018Z" fill="white"/>
<path d="M142.92 205.169V198.193H141.689V197.027H142.92V195.616C142.92 194.828 143.117 194.254 143.511 193.893C143.905 193.531 144.479 193.351 145.234 193.351H146.055V194.533H145.448C145.032 194.533 144.736 194.62 144.561 194.795C144.386 194.959 144.299 195.244 144.299 195.649V197.027H146.301V198.193H144.299V205.169H142.92Z" fill="white"/>
<path d="M151.775 205.366C150.998 205.366 150.308 205.19 149.707 204.84C149.105 204.479 148.629 203.981 148.279 203.347C147.939 202.712 147.77 201.962 147.77 201.098C147.77 200.245 147.939 199.5 148.279 198.866C148.618 198.22 149.088 197.722 149.69 197.372C150.303 197.011 151.009 196.831 151.807 196.831C152.595 196.831 153.274 197.011 153.843 197.372C154.423 197.722 154.866 198.187 155.172 198.767C155.479 199.347 155.632 199.971 155.632 200.638C155.632 200.759 155.626 200.879 155.615 201C155.615 201.12 155.615 201.257 155.615 201.41H149.132C149.165 202.034 149.307 202.553 149.559 202.969C149.821 203.374 150.144 203.68 150.527 203.888C150.921 204.096 151.337 204.2 151.775 204.2C152.344 204.2 152.82 204.069 153.203 203.806C153.586 203.544 153.865 203.188 154.04 202.739H155.402C155.183 203.494 154.762 204.124 154.138 204.627C153.525 205.119 152.738 205.366 151.775 205.366ZM151.775 197.996C151.118 197.996 150.533 198.198 150.018 198.603C149.515 198.997 149.225 199.577 149.148 200.343H154.269C154.237 199.61 153.985 199.035 153.514 198.62C153.044 198.204 152.464 197.996 151.775 197.996Z" fill="white"/>
<path d="M157.952 205.169V197.027H159.199L159.298 198.209C159.56 197.772 159.91 197.432 160.348 197.192C160.786 196.951 161.278 196.831 161.825 196.831C162.471 196.831 163.023 196.962 163.483 197.224C163.953 197.487 164.315 197.886 164.566 198.423C164.851 197.93 165.239 197.542 165.732 197.257C166.235 196.973 166.777 196.831 167.357 196.831C168.33 196.831 169.107 197.126 169.687 197.717C170.267 198.297 170.557 199.194 170.557 200.409V205.169H169.195V200.556C169.195 199.714 169.025 199.079 168.686 198.652C168.347 198.226 167.86 198.012 167.225 198.012C166.569 198.012 166.022 198.269 165.584 198.784C165.157 199.287 164.944 200.009 164.944 200.95V205.169H163.565V200.556C163.565 199.714 163.395 199.079 163.056 198.652C162.717 198.226 162.23 198.012 161.595 198.012C160.95 198.012 160.408 198.269 159.97 198.784C159.544 199.287 159.33 200.009 159.33 200.95V205.169H157.952Z" fill="white"/>
<path d="M175.835 205.366C175.156 205.366 174.593 205.251 174.144 205.021C173.695 204.791 173.362 204.485 173.143 204.102C172.924 203.719 172.815 203.303 172.815 202.854C172.815 202.023 173.132 201.383 173.767 200.934C174.401 200.485 175.266 200.261 176.36 200.261H178.559V200.162C178.559 199.451 178.373 198.915 178.001 198.554C177.629 198.182 177.131 197.996 176.508 197.996C175.971 197.996 175.506 198.133 175.112 198.406C174.729 198.669 174.489 199.057 174.39 199.572H172.979C173.033 198.981 173.23 198.483 173.57 198.078C173.92 197.673 174.352 197.367 174.866 197.159C175.38 196.94 175.928 196.831 176.508 196.831C177.646 196.831 178.499 197.137 179.068 197.75C179.648 198.352 179.938 199.156 179.938 200.162V205.169H178.707L178.625 203.708C178.395 204.167 178.056 204.561 177.607 204.89C177.17 205.207 176.579 205.366 175.835 205.366ZM176.048 204.2C176.573 204.2 177.022 204.063 177.394 203.79C177.777 203.516 178.067 203.161 178.264 202.723C178.461 202.285 178.559 201.826 178.559 201.344V201.328H176.475C175.665 201.328 175.091 201.47 174.751 201.755C174.423 202.028 174.259 202.373 174.259 202.789C174.259 203.215 174.412 203.56 174.718 203.823C175.036 204.074 175.479 204.2 176.048 204.2Z" fill="white"/>
<path d="M182.499 205.169V193.351H183.877V205.169H182.499Z" fill="white"/>
<path d="M190.29 205.366C189.513 205.366 188.824 205.19 188.222 204.84C187.62 204.479 187.144 203.981 186.794 203.347C186.455 202.712 186.285 201.962 186.285 201.098C186.285 200.245 186.455 199.5 186.794 198.866C187.133 198.22 187.604 197.722 188.205 197.372C188.818 197.011 189.524 196.831 190.323 196.831C191.111 196.831 191.789 197.011 192.358 197.372C192.938 197.722 193.381 198.187 193.687 198.767C193.994 199.347 194.147 199.971 194.147 200.638C194.147 200.759 194.142 200.879 194.131 201C194.131 201.12 194.131 201.257 194.131 201.41H187.647C187.68 202.034 187.822 202.553 188.074 202.969C188.337 203.374 188.659 203.68 189.042 203.888C189.436 204.096 189.852 204.2 190.29 204.2C190.859 204.2 191.335 204.069 191.718 203.806C192.101 203.544 192.38 203.188 192.555 202.739H193.917C193.698 203.494 193.277 204.124 192.653 204.627C192.041 205.119 191.253 205.366 190.29 205.366ZM190.29 197.996C189.633 197.996 189.048 198.198 188.534 198.603C188.03 198.997 187.74 199.577 187.664 200.343H192.785C192.752 199.61 192.5 199.035 192.03 198.62C191.559 198.204 190.979 197.996 190.29 197.996Z" fill="white"/>
<path d="M199.585 205.366C198.612 205.366 197.802 205.119 197.156 204.627C196.511 204.135 196.133 203.467 196.024 202.624H197.435C197.523 203.051 197.747 203.423 198.108 203.741C198.48 204.047 198.978 204.2 199.602 204.2C200.182 204.2 200.609 204.08 200.882 203.839C201.156 203.587 201.292 203.292 201.292 202.953C201.292 202.46 201.112 202.132 200.751 201.968C200.401 201.804 199.903 201.656 199.257 201.525C198.819 201.437 198.382 201.311 197.944 201.147C197.506 200.983 197.14 200.753 196.844 200.458C196.549 200.152 196.401 199.752 196.401 199.26C196.401 198.548 196.664 197.969 197.189 197.52C197.725 197.06 198.447 196.831 199.356 196.831C200.22 196.831 200.926 197.049 201.473 197.487C202.031 197.914 202.354 198.527 202.441 199.325H201.079C201.024 198.91 200.844 198.587 200.537 198.357C200.242 198.116 199.843 197.996 199.339 197.996C198.847 197.996 198.464 198.1 198.19 198.308C197.928 198.516 197.796 198.789 197.796 199.128C197.796 199.457 197.966 199.714 198.305 199.9C198.655 200.086 199.126 200.245 199.717 200.376C200.22 200.485 200.696 200.622 201.145 200.786C201.604 200.939 201.976 201.175 202.261 201.492C202.556 201.798 202.704 202.247 202.704 202.838C202.715 203.571 202.436 204.178 201.867 204.66C201.309 205.13 200.548 205.366 199.585 205.366Z" fill="white"/>
<path d="M89.1935 224.017C88.5151 224.017 87.9516 223.902 87.5029 223.673C87.0543 223.443 86.7206 223.136 86.5017 222.753C86.2829 222.37 86.1734 221.955 86.1734 221.506C86.1734 220.674 86.4908 220.034 87.1254 219.586C87.7601 219.137 88.6245 218.913 89.7188 218.913H91.9182V218.814C91.9182 218.103 91.7321 217.567 91.3601 217.206C90.9881 216.834 90.4902 216.648 89.8665 216.648C89.3303 216.648 88.8653 216.784 88.4713 217.058C88.0884 217.321 87.8476 217.709 87.7491 218.223H86.3376C86.3923 217.632 86.5893 217.135 86.9285 216.73C87.2786 216.325 87.7108 216.018 88.2251 215.81C88.7394 215.592 89.2865 215.482 89.8665 215.482C91.0045 215.482 91.858 215.789 92.427 216.401C93.0069 217.003 93.2969 217.807 93.2969 218.814V223.82H92.0659L91.9838 222.359C91.754 222.819 91.4148 223.213 90.9662 223.541C90.5285 223.859 89.9376 224.017 89.1935 224.017ZM89.4069 222.852C89.9321 222.852 90.3808 222.715 90.7528 222.442C91.1358 222.168 91.4258 221.812 91.6227 221.375C91.8197 220.937 91.9182 220.477 91.9182 219.996V219.98H89.8337C89.0239 219.98 88.4494 220.122 88.1102 220.406C87.782 220.68 87.6178 221.024 87.6178 221.44C87.6178 221.867 87.771 222.212 88.0774 222.474C88.3947 222.726 88.8379 222.852 89.4069 222.852Z" fill="white"/>
<path d="M95.8577 223.82V215.679H97.1051L97.1871 217.14C97.4498 216.626 97.8273 216.221 98.3197 215.925C98.8121 215.63 99.3701 215.482 99.9939 215.482C100.957 215.482 101.723 215.778 102.292 216.369C102.872 216.948 103.162 217.846 103.162 219.06V223.82H101.783V219.208C101.783 217.512 101.083 216.664 99.682 216.664C98.9817 216.664 98.3963 216.921 97.9258 217.435C97.4662 217.939 97.2364 218.661 97.2364 219.602V223.82H95.8577Z" fill="white"/>
<path d="M109.436 224.017C108.626 224.017 107.915 223.831 107.302 223.459C106.7 223.087 106.23 222.578 105.891 221.933C105.562 221.287 105.398 220.554 105.398 219.733C105.398 218.913 105.568 218.185 105.907 217.55C106.246 216.905 106.717 216.401 107.319 216.04C107.92 215.668 108.632 215.482 109.452 215.482C110.12 215.482 110.711 215.619 111.225 215.893C111.739 216.166 112.139 216.549 112.423 217.041V212.003H113.802V223.82H112.555L112.423 222.474C112.161 222.868 111.783 223.224 111.291 223.541C110.798 223.859 110.18 224.017 109.436 224.017ZM109.584 222.819C110.131 222.819 110.612 222.693 111.028 222.442C111.455 222.179 111.783 221.818 112.013 221.358C112.254 220.899 112.374 220.362 112.374 219.75C112.374 219.137 112.254 218.601 112.013 218.141C111.783 217.682 111.455 217.326 111.028 217.074C110.612 216.812 110.131 216.68 109.584 216.68C109.048 216.68 108.566 216.812 108.139 217.074C107.723 217.326 107.395 217.682 107.154 218.141C106.925 218.601 106.81 219.137 106.81 219.75C106.81 220.362 106.925 220.899 107.154 221.358C107.395 221.818 107.723 222.179 108.139 222.442C108.566 222.693 109.048 222.819 109.584 222.819Z" fill="white"/>
<path d="M124.595 221.26C124.136 221.26 123.714 221.2 123.331 221.079L122.511 221.851C122.631 221.938 122.779 222.015 122.954 222.08C123.14 222.135 123.402 222.19 123.742 222.245C124.081 222.288 124.557 222.338 125.17 222.392C126.264 222.469 127.046 222.721 127.517 223.147C127.987 223.574 128.222 224.132 128.222 224.821C128.222 225.292 128.091 225.741 127.829 226.167C127.577 226.594 127.183 226.944 126.647 227.218C126.122 227.491 125.443 227.628 124.612 227.628C123.878 227.628 123.227 227.53 122.658 227.333C122.089 227.147 121.646 226.857 121.329 226.463C121.011 226.08 120.853 225.593 120.853 225.002C120.853 224.696 120.935 224.362 121.099 224.001C121.263 223.651 121.57 223.317 122.018 223C121.777 222.901 121.57 222.797 121.394 222.688C121.23 222.567 121.077 222.436 120.935 222.294V221.916L122.33 220.538C121.684 219.99 121.362 219.268 121.362 218.371C121.362 217.835 121.487 217.348 121.739 216.91C121.991 216.472 122.357 216.128 122.839 215.876C123.32 215.614 123.906 215.482 124.595 215.482C125.066 215.482 125.492 215.548 125.875 215.679H128.879V216.713L127.353 216.779C127.67 217.238 127.829 217.769 127.829 218.371C127.829 218.907 127.697 219.394 127.435 219.832C127.183 220.269 126.816 220.62 126.335 220.882C125.864 221.134 125.284 221.26 124.595 221.26ZM124.595 220.127C125.175 220.127 125.635 219.98 125.974 219.684C126.324 219.378 126.499 218.94 126.499 218.371C126.499 217.813 126.324 217.386 125.974 217.091C125.635 216.784 125.175 216.631 124.595 216.631C124.004 216.631 123.534 216.784 123.184 217.091C122.844 217.386 122.675 217.813 122.675 218.371C122.675 218.94 122.844 219.378 123.184 219.684C123.534 219.98 124.004 220.127 124.595 220.127ZM122.199 224.871C122.199 225.418 122.429 225.823 122.888 226.085C123.348 226.359 123.922 226.496 124.612 226.496C125.29 226.496 125.832 226.348 126.236 226.052C126.652 225.757 126.86 225.363 126.86 224.871C126.86 224.521 126.718 224.214 126.433 223.952C126.149 223.7 125.624 223.552 124.858 223.508C124.256 223.465 123.736 223.41 123.298 223.344C122.85 223.585 122.554 223.842 122.412 224.116C122.27 224.4 122.199 224.652 122.199 224.871Z" fill="white"/>
<path d="M134.266 224.017C133.489 224.017 132.8 223.842 132.198 223.492C131.596 223.131 131.12 222.633 130.77 221.998C130.431 221.364 130.261 220.614 130.261 219.75C130.261 218.896 130.431 218.152 130.77 217.517C131.11 216.872 131.58 216.374 132.182 216.024C132.795 215.663 133.5 215.482 134.299 215.482C135.087 215.482 135.765 215.663 136.334 216.024C136.914 216.374 137.358 216.839 137.664 217.419C137.97 217.999 138.124 218.623 138.124 219.29C138.124 219.411 138.118 219.531 138.107 219.651C138.107 219.772 138.107 219.908 138.107 220.062H131.624C131.657 220.685 131.799 221.205 132.051 221.621C132.313 222.026 132.636 222.332 133.019 222.54C133.413 222.748 133.829 222.852 134.266 222.852C134.835 222.852 135.311 222.721 135.694 222.458C136.077 222.195 136.356 221.84 136.531 221.391H137.894C137.675 222.146 137.254 222.775 136.63 223.279C136.017 223.771 135.229 224.017 134.266 224.017ZM134.266 216.648C133.61 216.648 133.024 216.85 132.51 217.255C132.007 217.649 131.717 218.229 131.64 218.995H136.761C136.728 218.262 136.477 217.687 136.006 217.271C135.536 216.855 134.956 216.648 134.266 216.648Z" fill="white"/>
<path d="M140.443 223.82V215.679H141.691L141.773 217.14C142.035 216.626 142.413 216.221 142.905 215.925C143.398 215.63 143.956 215.482 144.58 215.482C145.542 215.482 146.308 215.778 146.877 216.369C147.457 216.948 147.747 217.846 147.747 219.06V223.82H146.369V219.208C146.369 217.512 145.668 216.664 144.268 216.664C143.567 216.664 142.982 216.921 142.511 217.435C142.052 217.939 141.822 218.661 141.822 219.602V223.82H140.443Z" fill="white"/>
<path d="M154.022 224.017C153.212 224.017 152.501 223.831 151.888 223.459C151.286 223.087 150.816 222.578 150.476 221.933C150.148 221.287 149.984 220.554 149.984 219.733C149.984 218.913 150.154 218.185 150.493 217.55C150.832 216.905 151.302 216.401 151.904 216.04C152.506 215.668 153.217 215.482 154.038 215.482C154.706 215.482 155.296 215.619 155.811 215.893C156.325 216.166 156.724 216.549 157.009 217.041V212.003H158.388V223.82H157.14L157.009 222.474C156.746 222.868 156.369 223.224 155.876 223.541C155.384 223.859 154.766 224.017 154.022 224.017ZM154.169 222.819C154.716 222.819 155.198 222.693 155.614 222.442C156.041 222.179 156.369 221.818 156.599 221.358C156.839 220.899 156.96 220.362 156.96 219.75C156.96 219.137 156.839 218.601 156.599 218.141C156.369 217.682 156.041 217.326 155.614 217.074C155.198 216.812 154.716 216.68 154.169 216.68C153.633 216.68 153.152 216.812 152.725 217.074C152.309 217.326 151.981 217.682 151.74 218.141C151.51 218.601 151.396 219.137 151.396 219.75C151.396 220.362 151.51 220.899 151.74 221.358C151.981 221.818 152.309 222.179 152.725 222.442C153.152 222.693 153.633 222.819 154.169 222.819Z" fill="white"/>
<path d="M164.788 224.017C164.011 224.017 163.321 223.842 162.72 223.492C162.118 223.131 161.642 222.633 161.292 221.998C160.952 221.364 160.783 220.614 160.783 219.75C160.783 218.896 160.952 218.152 161.292 217.517C161.631 216.872 162.101 216.374 162.703 216.024C163.316 215.663 164.022 215.482 164.821 215.482C165.608 215.482 166.287 215.663 166.856 216.024C167.436 216.374 167.879 216.839 168.185 217.419C168.492 217.999 168.645 218.623 168.645 219.29C168.645 219.411 168.639 219.531 168.629 219.651C168.629 219.772 168.629 219.908 168.629 220.062H162.145C162.178 220.685 162.32 221.205 162.572 221.621C162.835 222.026 163.157 222.332 163.54 222.54C163.934 222.748 164.35 222.852 164.788 222.852C165.357 222.852 165.833 222.721 166.216 222.458C166.599 222.195 166.878 221.84 167.053 221.391H168.415C168.196 222.146 167.775 222.775 167.151 223.279C166.539 223.771 165.751 224.017 164.788 224.017ZM164.788 216.648C164.131 216.648 163.546 216.85 163.032 217.255C162.528 217.649 162.238 218.229 162.162 218.995H167.283C167.25 218.262 166.998 217.687 166.528 217.271C166.057 216.855 165.477 216.648 164.788 216.648Z" fill="white"/>
<path d="M170.965 223.82V215.679H172.212L172.327 217.238C172.579 216.702 172.962 216.276 173.476 215.958C173.99 215.641 174.625 215.482 175.38 215.482V216.927H175.002C174.521 216.927 174.078 217.014 173.673 217.189C173.268 217.353 172.945 217.638 172.705 218.043C172.464 218.448 172.343 219.006 172.343 219.717V223.82H170.965Z" fill="white"/>
<path d="M62.1533 242.472V234.331H63.4007L63.4992 235.513C63.7618 235.075 64.1119 234.736 64.5496 234.495C64.9873 234.254 65.4797 234.134 66.0269 234.134C66.6725 234.134 67.225 234.265 67.6846 234.528C68.1551 234.79 68.5162 235.19 68.7679 235.726C69.0524 235.234 69.4409 234.845 69.9333 234.561C70.4366 234.276 70.9783 234.134 71.5582 234.134C72.5321 234.134 73.309 234.429 73.8889 235.02C74.4689 235.6 74.7588 236.497 74.7588 237.712V242.472H73.3965V237.86C73.3965 237.017 73.2269 236.383 72.8877 235.956C72.5485 235.529 72.0615 235.316 71.4269 235.316C70.7704 235.316 70.2232 235.573 69.7855 236.087C69.3588 236.59 69.1454 237.313 69.1454 238.254V242.472H67.7667V237.86C67.7667 237.017 67.5971 236.383 67.2579 235.956C66.9187 235.529 66.4317 235.316 65.7971 235.316C65.1515 235.316 64.6098 235.573 64.1721 236.087C63.7454 236.59 63.532 237.313 63.532 238.254V242.472H62.1533Z" fill="white"/>
<path d="M78.1651 232.525C77.8916 232.525 77.6618 232.438 77.4758 232.263C77.3007 232.077 77.2132 231.847 77.2132 231.573C77.2132 231.311 77.3007 231.092 77.4758 230.917C77.6618 230.742 77.8916 230.654 78.1651 230.654C78.4278 230.654 78.6521 230.742 78.8381 230.917C79.0241 231.092 79.1171 231.311 79.1171 231.573C79.1171 231.847 79.0241 232.077 78.8381 232.263C78.6521 232.438 78.4278 232.525 78.1651 232.525ZM77.4758 242.472V234.331H78.8545V242.472H77.4758Z" fill="white"/>
<path d="M81.7475 242.472V234.331H82.9949L83.077 235.792C83.3396 235.277 83.7171 234.873 84.2095 234.577C84.7019 234.282 85.26 234.134 85.8837 234.134C86.8466 234.134 87.6126 234.429 88.1816 235.02C88.7615 235.6 89.0515 236.497 89.0515 237.712V242.472H87.6728V237.86C87.6728 236.164 86.9725 235.316 85.5718 235.316C84.8715 235.316 84.2861 235.573 83.8156 236.087C83.356 236.59 83.1262 237.313 83.1262 238.254V242.472H81.7475Z" fill="white"/>
<path d="M95.3422 242.669C94.5763 242.669 93.8869 242.494 93.2741 242.144C92.6614 241.794 92.1744 241.301 91.8133 240.666C91.4632 240.021 91.2881 239.266 91.2881 238.401C91.2881 237.537 91.4687 236.787 91.8298 236.153C92.1908 235.507 92.6778 235.009 93.2906 234.659C93.9143 234.309 94.6091 234.134 95.3751 234.134C96.141 234.134 96.8304 234.309 97.4432 234.659C98.0559 235.009 98.5374 235.507 98.8875 236.153C99.2486 236.787 99.4292 237.537 99.4292 238.401C99.4292 239.266 99.2486 240.021 98.8875 240.666C98.5265 241.301 98.034 241.794 97.4103 242.144C96.7976 242.494 96.1082 242.669 95.3422 242.669ZM95.3422 241.487C95.8128 241.487 96.2504 241.372 96.6553 241.142C97.0602 240.913 97.3884 240.568 97.6401 240.108C97.8918 239.649 98.0176 239.08 98.0176 238.401C98.0176 237.723 97.8918 237.154 97.6401 236.694C97.3994 236.235 97.0766 235.89 96.6717 235.66C96.2669 235.431 95.8346 235.316 95.3751 235.316C94.9045 235.316 94.4668 235.431 94.062 235.66C93.6571 235.89 93.3288 236.235 93.0772 236.694C92.8255 237.154 92.6997 237.723 92.6997 238.401C92.6997 239.08 92.8255 239.649 93.0772 240.108C93.3288 240.568 93.6516 240.913 94.0456 241.142C94.4504 241.372 94.8827 241.487 95.3422 241.487Z" fill="white"/>
<path d="M101.839 242.472V234.331H103.086L103.201 235.89C103.453 235.354 103.836 234.927 104.35 234.61C104.864 234.293 105.499 234.134 106.254 234.134V235.578H105.876C105.395 235.578 104.952 235.666 104.547 235.841C104.142 236.005 103.819 236.29 103.578 236.694C103.338 237.099 103.217 237.657 103.217 238.369V242.472H101.839Z" fill="white"/>
<path d="M109.131 232.525C108.857 232.525 108.628 232.438 108.441 232.263C108.266 232.077 108.179 231.847 108.179 231.573C108.179 231.311 108.266 231.092 108.441 230.917C108.628 230.742 108.857 230.654 109.131 230.654C109.393 230.654 109.618 230.742 109.804 230.917C109.99 231.092 110.083 231.311 110.083 231.573C110.083 231.847 109.99 232.077 109.804 232.263C109.618 232.438 109.393 232.525 109.131 232.525ZM108.441 242.472V234.331H109.82V242.472H108.441Z" fill="white"/>
<path d="M115.93 242.472C115.186 242.472 114.601 242.291 114.174 241.93C113.747 241.569 113.534 240.918 113.534 239.977V235.496H112.122V234.331H113.534L113.714 232.378H114.913V234.331H117.309V235.496H114.913V239.977C114.913 240.491 115.017 240.842 115.224 241.028C115.432 241.203 115.799 241.29 116.324 241.29H117.178V242.472H115.93Z" fill="white"/>
<path d="M120.39 232.525C120.117 232.525 119.887 232.438 119.701 232.263C119.526 232.077 119.438 231.847 119.438 231.573C119.438 231.311 119.526 231.092 119.701 230.917C119.887 230.742 120.117 230.654 120.39 230.654C120.653 230.654 120.877 230.742 121.063 230.917C121.249 231.092 121.342 231.311 121.342 231.573C121.342 231.847 121.249 232.077 121.063 232.263C120.877 232.438 120.653 232.525 120.39 232.525ZM119.701 242.472V234.331H121.079V242.472H119.701Z" fill="white"/>
<path d="M127.633 242.669C126.856 242.669 126.166 242.494 125.565 242.144C124.963 241.783 124.487 241.285 124.137 240.65C123.797 240.015 123.628 239.266 123.628 238.401C123.628 237.548 123.797 236.804 124.137 236.169C124.476 235.524 124.946 235.026 125.548 234.676C126.161 234.314 126.867 234.134 127.666 234.134C128.453 234.134 129.132 234.314 129.701 234.676C130.281 235.026 130.724 235.491 131.03 236.071C131.337 236.651 131.49 237.274 131.49 237.942C131.49 238.062 131.484 238.183 131.473 238.303C131.473 238.423 131.473 238.56 131.473 238.713H124.99C125.023 239.337 125.165 239.857 125.417 240.273C125.679 240.677 126.002 240.984 126.385 241.192C126.779 241.4 127.195 241.504 127.633 241.504C128.202 241.504 128.678 241.372 129.061 241.11C129.444 240.847 129.723 240.491 129.898 240.043H131.26C131.041 240.798 130.62 241.427 129.996 241.93C129.383 242.423 128.596 242.669 127.633 242.669ZM127.633 235.299C126.976 235.299 126.391 235.502 125.876 235.907C125.373 236.3 125.083 236.88 125.007 237.646H130.128C130.095 236.913 129.843 236.339 129.373 235.923C128.902 235.507 128.322 235.299 127.633 235.299Z" fill="white"/>
<path d="M136.928 242.669C135.954 242.669 135.145 242.423 134.499 241.93C133.853 241.438 133.476 240.77 133.367 239.928H134.778C134.866 240.355 135.09 240.727 135.451 241.044C135.823 241.35 136.321 241.504 136.945 241.504C137.525 241.504 137.951 241.383 138.225 241.142C138.498 240.891 138.635 240.595 138.635 240.256C138.635 239.764 138.455 239.435 138.094 239.271C137.743 239.107 137.246 238.959 136.6 238.828C136.162 238.741 135.725 238.615 135.287 238.451C134.849 238.287 134.483 238.057 134.187 237.761C133.892 237.455 133.744 237.055 133.744 236.563C133.744 235.852 134.007 235.272 134.532 234.823C135.068 234.364 135.79 234.134 136.698 234.134C137.563 234.134 138.269 234.353 138.816 234.79C139.374 235.217 139.697 235.83 139.784 236.629H138.422C138.367 236.213 138.187 235.89 137.88 235.66C137.585 235.42 137.185 235.299 136.682 235.299C136.19 235.299 135.807 235.403 135.533 235.611C135.27 235.819 135.139 236.093 135.139 236.432C135.139 236.76 135.309 237.017 135.648 237.203C135.998 237.389 136.469 237.548 137.06 237.679C137.563 237.789 138.039 237.925 138.488 238.09C138.947 238.243 139.319 238.478 139.604 238.795C139.899 239.102 140.047 239.55 140.047 240.141C140.058 240.874 139.779 241.482 139.21 241.963C138.652 242.434 137.891 242.669 136.928 242.669Z" fill="white"/>
<path d="M151.695 242.669C151.027 242.669 150.431 242.532 149.906 242.259C149.391 241.985 148.997 241.602 148.724 241.11L148.592 242.472H147.345V230.654H148.724V235.677C148.986 235.283 149.358 234.927 149.84 234.61C150.332 234.293 150.956 234.134 151.711 234.134C152.521 234.134 153.227 234.32 153.828 234.692C154.43 235.064 154.895 235.573 155.223 236.218C155.563 236.864 155.732 237.597 155.732 238.418C155.732 239.238 155.563 239.972 155.223 240.617C154.895 241.252 154.425 241.755 153.812 242.127C153.21 242.488 152.504 242.669 151.695 242.669ZM151.547 241.471C152.094 241.471 152.575 241.345 152.991 241.093C153.407 240.831 153.735 240.469 153.976 240.01C154.217 239.55 154.337 239.014 154.337 238.401C154.337 237.789 154.217 237.252 153.976 236.793C153.735 236.333 153.407 235.978 152.991 235.726C152.575 235.463 152.094 235.332 151.547 235.332C151 235.332 150.518 235.463 150.102 235.726C149.687 235.978 149.358 236.333 149.118 236.793C148.877 237.252 148.757 237.789 148.757 238.401C148.757 239.014 148.877 239.55 149.118 240.01C149.358 240.469 149.687 240.831 150.102 241.093C150.518 241.345 151 241.471 151.547 241.471Z" fill="white"/>
<path d="M161.804 242.669C161.027 242.669 160.338 242.494 159.736 242.144C159.134 241.783 158.658 241.285 158.308 240.65C157.969 240.015 157.799 239.266 157.799 238.401C157.799 237.548 157.969 236.804 158.308 236.169C158.647 235.524 159.118 235.026 159.72 234.676C160.332 234.314 161.038 234.134 161.837 234.134C162.625 234.134 163.303 234.314 163.872 234.676C164.452 235.026 164.895 235.491 165.202 236.071C165.508 236.651 165.661 237.274 165.661 237.942C165.661 238.062 165.656 238.183 165.645 238.303C165.645 238.423 165.645 238.56 165.645 238.713H159.162C159.194 239.337 159.337 239.857 159.588 240.273C159.851 240.677 160.174 240.984 160.557 241.192C160.951 241.4 161.366 241.504 161.804 241.504C162.373 241.504 162.849 241.372 163.232 241.11C163.615 240.847 163.894 240.491 164.069 240.043H165.432C165.213 240.798 164.791 241.427 164.168 241.93C163.555 242.423 162.767 242.669 161.804 242.669ZM161.804 235.299C161.148 235.299 160.562 235.502 160.048 235.907C159.545 236.3 159.255 236.88 159.178 237.646H164.299C164.266 236.913 164.015 236.339 163.544 235.923C163.073 235.507 162.494 235.299 161.804 235.299Z" fill="white"/>
<path d="M167.981 242.472V230.654H169.36V242.472H167.981Z" fill="white"/>
<path d="M175.822 242.669C175.056 242.669 174.366 242.494 173.753 242.144C173.141 241.794 172.654 241.301 172.293 240.666C171.942 240.021 171.767 239.266 171.767 238.401C171.767 237.537 171.948 236.787 172.309 236.153C172.67 235.507 173.157 235.009 173.77 234.659C174.394 234.309 175.088 234.134 175.854 234.134C176.62 234.134 177.31 234.309 177.922 234.659C178.535 235.009 179.017 235.507 179.367 236.153C179.728 236.787 179.908 237.537 179.908 238.401C179.908 239.266 179.728 240.021 179.367 240.666C179.006 241.301 178.513 241.794 177.89 242.144C177.277 242.494 176.587 242.669 175.822 242.669ZM175.822 241.487C176.292 241.487 176.73 241.372 177.135 241.142C177.539 240.913 177.868 240.568 178.119 240.108C178.371 239.649 178.497 239.08 178.497 238.401C178.497 237.723 178.371 237.154 178.119 236.694C177.879 236.235 177.556 235.89 177.151 235.66C176.746 235.431 176.314 235.316 175.854 235.316C175.384 235.316 174.946 235.431 174.541 235.66C174.136 235.89 173.808 236.235 173.556 236.694C173.305 237.154 173.179 237.723 173.179 238.401C173.179 239.08 173.305 239.649 173.556 240.108C173.808 240.568 174.131 240.913 174.525 241.142C174.93 241.372 175.362 241.487 175.822 241.487Z" fill="white"/>
<path d="M182.318 242.472V234.331H183.565L183.647 235.792C183.91 235.277 184.288 234.873 184.78 234.577C185.272 234.282 185.83 234.134 186.454 234.134C187.417 234.134 188.183 234.429 188.752 235.02C189.332 235.6 189.622 236.497 189.622 237.712V242.472H188.243V237.86C188.243 236.164 187.543 235.316 186.142 235.316C185.442 235.316 184.857 235.573 184.386 236.087C183.926 236.59 183.697 237.313 183.697 238.254V242.472H182.318Z" fill="white"/>
<path d="M195.42 239.911C194.961 239.911 194.539 239.851 194.156 239.731L193.336 240.502C193.456 240.59 193.604 240.666 193.779 240.732C193.965 240.787 194.228 240.842 194.567 240.896C194.906 240.94 195.382 240.989 195.995 241.044C197.089 241.121 197.871 241.372 198.342 241.799C198.812 242.226 199.048 242.784 199.048 243.473C199.048 243.944 198.916 244.392 198.654 244.819C198.402 245.246 198.008 245.596 197.472 245.87C196.947 246.143 196.268 246.28 195.437 246.28C194.704 246.28 194.052 246.181 193.483 245.984C192.914 245.798 192.471 245.508 192.154 245.115C191.837 244.732 191.678 244.245 191.678 243.654C191.678 243.347 191.76 243.014 191.924 242.652C192.088 242.302 192.395 241.969 192.843 241.651C192.603 241.553 192.395 241.449 192.22 241.339C192.055 241.219 191.902 241.088 191.76 240.946V240.568L193.155 239.189C192.51 238.642 192.187 237.92 192.187 237.023C192.187 236.486 192.313 236 192.564 235.562C192.816 235.124 193.183 234.779 193.664 234.528C194.145 234.265 194.731 234.134 195.42 234.134C195.891 234.134 196.318 234.2 196.701 234.331H199.704V235.365L198.178 235.431C198.495 235.89 198.654 236.421 198.654 237.023C198.654 237.559 198.522 238.046 198.26 238.483C198.008 238.921 197.642 239.271 197.16 239.534C196.69 239.786 196.11 239.911 195.42 239.911ZM195.42 238.779C196 238.779 196.46 238.631 196.799 238.336C197.149 238.029 197.324 237.592 197.324 237.023C197.324 236.465 197.149 236.038 196.799 235.742C196.46 235.436 196 235.283 195.42 235.283C194.829 235.283 194.359 235.436 194.009 235.742C193.669 236.038 193.5 236.465 193.5 237.023C193.5 237.592 193.669 238.029 194.009 238.336C194.359 238.631 194.829 238.779 195.42 238.779ZM193.024 243.522C193.024 244.07 193.254 244.474 193.713 244.737C194.173 245.011 194.747 245.147 195.437 245.147C196.115 245.147 196.657 245 197.062 244.704C197.477 244.409 197.685 244.015 197.685 243.522C197.685 243.172 197.543 242.866 197.259 242.603C196.974 242.352 196.449 242.204 195.683 242.16C195.081 242.116 194.561 242.062 194.124 241.996C193.675 242.237 193.38 242.494 193.237 242.767C193.095 243.052 193.024 243.304 193.024 243.522Z" fill="white"/>
<path d="M80.9833 261.321C80.3048 261.321 79.7413 261.206 79.2927 260.976C78.844 260.746 78.5103 260.44 78.2914 260.057C78.0726 259.674 77.9632 259.258 77.9632 258.809C77.9632 257.978 78.2805 257.338 78.9152 256.889C79.5498 256.44 80.4143 256.216 81.5085 256.216H83.7079V256.118C83.7079 255.406 83.5219 254.87 83.1498 254.509C82.7778 254.137 82.2799 253.951 81.6562 253.951C81.12 253.951 80.655 254.088 80.2611 254.361C79.8781 254.624 79.6374 255.012 79.5389 255.527H78.1273C78.182 254.936 78.379 254.438 78.7182 254.033C79.0683 253.628 79.5006 253.322 80.0149 253.114C80.5292 252.895 81.0763 252.786 81.6562 252.786C82.7942 252.786 83.6477 253.092 84.2167 253.705C84.7967 254.307 85.0866 255.111 85.0866 256.118V261.124H83.8556L83.7736 259.663C83.5438 260.122 83.2045 260.516 82.7559 260.845C82.3182 261.162 81.7273 261.321 80.9833 261.321ZM81.1966 260.155C81.7219 260.155 82.1705 260.018 82.5425 259.745C82.9255 259.471 83.2155 259.116 83.4125 258.678C83.6094 258.24 83.7079 257.781 83.7079 257.299V257.283H81.6234C80.8137 257.283 80.2392 257.425 79.9 257.71C79.5717 257.983 79.4076 258.328 79.4076 258.744C79.4076 259.17 79.5608 259.515 79.8671 259.778C80.1845 260.029 80.6276 260.155 81.1966 260.155Z" fill="white"/>
<path d="M87.6474 261.124V252.983H88.8948L88.9769 254.443C89.2395 253.929 89.617 253.524 90.1094 253.229C90.6018 252.933 91.1599 252.786 91.7836 252.786C92.7465 252.786 93.5125 253.081 94.0815 253.672C94.6614 254.252 94.9514 255.149 94.9514 256.364V261.124H93.5727V256.511C93.5727 254.815 92.8723 253.967 91.4717 253.967C90.7714 253.967 90.186 254.225 89.7155 254.739C89.2559 255.242 89.0261 255.964 89.0261 256.905V261.124H87.6474Z" fill="white"/>
<path d="M101.226 261.321C100.416 261.321 99.7047 261.135 99.0919 260.763C98.4901 260.391 98.0196 259.882 97.6804 259.236C97.3521 258.59 97.188 257.857 97.188 257.037C97.188 256.216 97.3576 255.488 97.6968 254.854C98.036 254.208 98.5065 253.705 99.1084 253.344C99.7102 252.972 100.421 252.786 101.242 252.786C101.91 252.786 102.5 252.922 103.015 253.196C103.529 253.469 103.928 253.852 104.213 254.345V249.306H105.592V261.124H104.344L104.213 259.778C103.95 260.172 103.573 260.527 103.08 260.845C102.588 261.162 101.97 261.321 101.226 261.321ZM101.373 260.122C101.921 260.122 102.402 259.997 102.818 259.745C103.245 259.482 103.573 259.121 103.803 258.662C104.043 258.202 104.164 257.666 104.164 257.053C104.164 256.44 104.043 255.904 103.803 255.445C103.573 254.985 103.245 254.629 102.818 254.378C102.402 254.115 101.921 253.984 101.373 253.984C100.837 253.984 100.356 254.115 99.929 254.378C99.5132 254.629 99.185 254.985 98.9442 255.445C98.7144 255.904 98.5995 256.44 98.5995 257.053C98.5995 257.666 98.7144 258.202 98.9442 258.662C99.185 259.121 99.5132 259.482 99.929 259.745C100.356 259.997 100.837 260.122 101.373 260.122Z" fill="white"/>
<path d="M116.286 261.321C115.312 261.321 114.503 261.074 113.857 260.582C113.212 260.09 112.834 259.422 112.725 258.58H114.136C114.224 259.006 114.448 259.378 114.809 259.696C115.181 260.002 115.679 260.155 116.303 260.155C116.883 260.155 117.309 260.035 117.583 259.794C117.857 259.542 117.993 259.247 117.993 258.908C117.993 258.415 117.813 258.087 117.452 257.923C117.102 257.759 116.604 257.611 115.958 257.48C115.52 257.392 115.083 257.266 114.645 257.102C114.207 256.938 113.841 256.708 113.545 256.413C113.25 256.107 113.102 255.707 113.102 255.215C113.102 254.504 113.365 253.924 113.89 253.475C114.426 253.015 115.148 252.786 116.057 252.786C116.921 252.786 117.627 253.004 118.174 253.442C118.732 253.869 119.055 254.482 119.142 255.28H117.78C117.725 254.865 117.545 254.542 117.238 254.312C116.943 254.071 116.544 253.951 116.04 253.951C115.548 253.951 115.165 254.055 114.891 254.263C114.629 254.471 114.497 254.744 114.497 255.083C114.497 255.412 114.667 255.669 115.006 255.855C115.356 256.041 115.827 256.2 116.418 256.331C116.921 256.44 117.397 256.577 117.846 256.741C118.305 256.894 118.677 257.13 118.962 257.447C119.257 257.753 119.405 258.202 119.405 258.793C119.416 259.526 119.137 260.133 118.568 260.615C118.01 261.085 117.249 261.321 116.286 261.321Z" fill="white"/>
<path d="M124.838 261.321C123.875 261.321 123.109 261.031 122.54 260.451C121.971 259.86 121.686 258.957 121.686 257.742V252.983H123.065V257.595C123.065 259.291 123.76 260.139 125.15 260.139C125.861 260.139 126.446 259.887 126.906 259.384C127.376 258.87 127.612 258.142 127.612 257.201V252.983H128.99V261.124H127.743L127.644 259.663C127.393 260.177 127.015 260.582 126.512 260.877C126.02 261.173 125.461 261.321 124.838 261.321Z" fill="white"/>
<path d="M135.494 261.321C134.718 261.321 134.017 261.146 133.394 260.795C132.781 260.434 132.294 259.936 131.933 259.302C131.583 258.656 131.408 257.907 131.408 257.053C131.408 256.2 131.583 255.456 131.933 254.821C132.294 254.175 132.781 253.677 133.394 253.327C134.017 252.966 134.718 252.786 135.494 252.786C136.457 252.786 137.267 253.037 137.924 253.541C138.591 254.044 139.012 254.717 139.188 255.559H137.776C137.667 255.056 137.398 254.668 136.972 254.394C136.545 254.11 136.047 253.967 135.478 253.967C135.019 253.967 134.586 254.082 134.181 254.312C133.777 254.542 133.448 254.887 133.197 255.346C132.945 255.806 132.819 256.375 132.819 257.053C132.819 257.732 132.945 258.301 133.197 258.76C133.448 259.22 133.777 259.57 134.181 259.811C134.586 260.04 135.019 260.155 135.478 260.155C136.047 260.155 136.545 260.018 136.972 259.745C137.398 259.46 137.667 259.061 137.776 258.547H139.188C139.023 259.367 138.608 260.035 137.94 260.549C137.273 261.063 136.457 261.321 135.494 261.321Z" fill="white"/>
<path d="M145.348 261.321C144.571 261.321 143.87 261.146 143.247 260.795C142.634 260.434 142.147 259.936 141.786 259.302C141.436 258.656 141.261 257.907 141.261 257.053C141.261 256.2 141.436 255.456 141.786 254.821C142.147 254.175 142.634 253.677 143.247 253.327C143.87 252.966 144.571 252.786 145.348 252.786C146.311 252.786 147.12 253.037 147.777 253.541C148.444 254.044 148.866 254.717 149.041 255.559H147.629C147.52 255.056 147.252 254.668 146.825 254.394C146.398 254.11 145.9 253.967 145.331 253.967C144.872 253.967 144.439 254.082 144.035 254.312C143.63 254.542 143.301 254.887 143.05 255.346C142.798 255.806 142.672 256.375 142.672 257.053C142.672 257.732 142.798 258.301 143.05 258.76C143.301 259.22 143.63 259.57 144.035 259.811C144.439 260.04 144.872 260.155 145.331 260.155C145.9 260.155 146.398 260.018 146.825 259.745C147.252 259.46 147.52 259.061 147.629 258.547H149.041C148.877 259.367 148.461 260.035 147.793 260.549C147.126 261.063 146.311 261.321 145.348 261.321Z" fill="white"/>
<path d="M155.119 261.321C154.342 261.321 153.653 261.146 153.051 260.795C152.449 260.434 151.973 259.936 151.623 259.302C151.284 258.667 151.114 257.918 151.114 257.053C151.114 256.2 151.284 255.456 151.623 254.821C151.962 254.175 152.433 253.677 153.034 253.327C153.647 252.966 154.353 252.786 155.152 252.786C155.94 252.786 156.618 252.966 157.187 253.327C157.767 253.677 158.21 254.142 158.516 254.722C158.823 255.302 158.976 255.926 158.976 256.594C158.976 256.714 158.971 256.834 158.96 256.955C158.96 257.075 158.96 257.212 158.96 257.365H152.476C152.509 257.989 152.651 258.508 152.903 258.924C153.166 259.329 153.488 259.635 153.871 259.843C154.265 260.051 154.681 260.155 155.119 260.155C155.688 260.155 156.164 260.024 156.547 259.761C156.93 259.499 157.209 259.143 157.384 258.694H158.746C158.527 259.449 158.106 260.079 157.482 260.582C156.87 261.074 156.082 261.321 155.119 261.321ZM155.119 253.951C154.462 253.951 153.877 254.153 153.363 254.558C152.859 254.952 152.569 255.532 152.493 256.298H157.614C157.581 255.565 157.329 254.99 156.859 254.575C156.388 254.159 155.808 253.951 155.119 253.951Z" fill="white"/>
<path d="M164.956 261.321C164.179 261.321 163.49 261.146 162.888 260.795C162.286 260.434 161.81 259.936 161.46 259.302C161.121 258.667 160.951 257.918 160.951 257.053C160.951 256.2 161.121 255.456 161.46 254.821C161.799 254.175 162.27 253.677 162.872 253.327C163.484 252.966 164.19 252.786 164.989 252.786C165.777 252.786 166.455 252.966 167.024 253.327C167.604 253.677 168.047 254.142 168.354 254.722C168.66 255.302 168.813 255.926 168.813 256.594C168.813 256.714 168.808 256.834 168.797 256.955C168.797 257.075 168.797 257.212 168.797 257.365H162.313C162.346 257.989 162.489 258.508 162.74 258.924C163.003 259.329 163.326 259.635 163.709 259.843C164.103 260.051 164.518 260.155 164.956 260.155C165.525 260.155 166.001 260.024 166.384 259.761C166.767 259.499 167.046 259.143 167.221 258.694H168.583C168.365 259.449 167.943 260.079 167.32 260.582C166.707 261.074 165.919 261.321 164.956 261.321ZM164.956 253.951C164.3 253.951 163.714 254.153 163.2 254.558C162.696 254.952 162.407 255.532 162.33 256.298H167.451C167.418 255.565 167.166 254.99 166.696 254.575C166.225 254.159 165.645 253.951 164.956 253.951Z" fill="white"/>
<path d="M174.826 261.321C174.016 261.321 173.305 261.135 172.692 260.763C172.09 260.391 171.62 259.882 171.281 259.236C170.952 258.59 170.788 257.857 170.788 257.037C170.788 256.216 170.958 255.488 171.297 254.854C171.636 254.208 172.107 253.705 172.709 253.344C173.311 252.972 174.022 252.786 174.842 252.786C175.51 252.786 176.101 252.922 176.615 253.196C177.129 253.469 177.529 253.852 177.813 254.345V249.306H179.192V261.124H177.945L177.813 259.778C177.551 260.172 177.173 260.527 176.681 260.845C176.188 261.162 175.57 261.321 174.826 261.321ZM174.974 260.122C175.521 260.122 176.002 259.997 176.418 259.745C176.845 259.482 177.173 259.121 177.403 258.662C177.644 258.202 177.764 257.666 177.764 257.053C177.764 256.44 177.644 255.904 177.403 255.445C177.173 254.985 176.845 254.629 176.418 254.378C176.002 254.115 175.521 253.984 174.974 253.984C174.438 253.984 173.956 254.115 173.529 254.378C173.114 254.629 172.785 254.985 172.545 255.445C172.315 255.904 172.2 256.44 172.2 257.053C172.2 257.666 172.315 258.202 172.545 258.662C172.785 259.121 173.114 259.482 173.529 259.745C173.956 259.997 174.438 260.122 174.974 260.122Z" fill="white"/>
<path d="M182.408 261.206C182.134 261.206 181.905 261.118 181.719 260.943C181.544 260.757 181.456 260.533 181.456 260.27C181.456 260.008 181.544 259.789 181.719 259.614C181.905 259.428 182.134 259.335 182.408 259.335C182.671 259.335 182.889 259.428 183.064 259.614C183.251 259.789 183.344 260.008 183.344 260.27C183.344 260.533 183.251 260.757 183.064 260.943C182.889 261.118 182.671 261.206 182.408 261.206Z" fill="white"/>
</svg>
