<svg width="500" height="445" viewBox="0 0 500 445" fill="none" xmlns="http://www.w3.org/2000/svg">
<g clip-path="url(#clip0)">
<path d="M247.062 249.747H217.908V286.862H247.062V249.747Z" fill="#BDA5CF"/>
<path d="M239.774 259.545C231.83 263.648 224.421 264.589 217.908 263.429V268.693C224.693 270.183 232.51 269.382 240.925 265.035C243.15 263.457 245.207 261.652 247.062 259.651V252.879C244.913 255.39 242.465 257.628 239.774 259.545Z" fill="#6A5C94"/>
<path d="M192.23 210.011L193.867 205.94C189.454 206.119 185.277 207.981 182.189 211.144C179.101 214.307 177.336 218.533 177.256 222.956C177.175 227.38 178.785 231.667 181.755 234.941C184.726 238.214 188.833 240.228 193.236 240.568C191.187 230.331 192.499 217.445 192.23 210.011Z" fill="#443B77"/>
<path d="M303.549 184.036C290.794 176.735 280.468 181.602 280.468 181.602C284.112 176.735 276.824 167 276.824 167C269.716 170.405 268.587 175.856 269.189 180.391C268.174 179.528 267.262 178.717 266.498 177.952C258.603 170.042 242.203 170.042 229.448 171.259C216.693 172.476 201.509 179.777 190.908 206.199C190.908 206.199 230.663 244.88 247.375 252.91C264.088 260.94 279.861 250.964 288.972 224.801C293.219 212.603 290.336 203.315 285.249 196.073C297.736 198.588 303.549 184.036 303.549 184.036Z" fill="#443B77"/>
<path d="M192.011 212.083C192.296 220.815 190.166 237.637 195.086 247.372C202.041 261.135 219.458 272.149 240.596 261.366C240.596 261.366 247.976 256.499 252.281 248.589C256.586 240.68 267.655 202.348 267.655 202.348L219.071 184.704L198.776 195.655L192.011 212.083Z" fill="#BDA4D3"/>
<path d="M238.009 251.321C243.207 251.321 247.421 247.221 247.421 242.162C247.421 237.104 243.207 233.003 238.009 233.003C232.81 233.003 228.596 237.104 228.596 242.162C228.596 247.221 232.81 251.321 238.009 251.321Z" fill="#B67EB3"/>
<path opacity="0.75" d="M253.326 218.753C253.326 218.753 242.234 232.208 247.221 241C252.208 249.793 260.74 250.756 267.793 241.838C274.846 232.92 279.848 224.31 279.765 223.761C279.683 223.212 257.796 213.591 257.796 213.591L253.326 218.753Z" fill="#322966"/>
<path d="M251.314 214.458C251.314 214.458 236.129 227.235 240.381 237.579C244.633 247.922 254.351 250.356 264.069 241.838C273.787 233.32 281.075 224.801 281.075 224.193C281.075 223.585 257.388 209.591 257.388 209.591L251.314 214.458Z" fill="#443B77"/>
<path d="M265.587 193.971C264.238 194.005 262.911 194.332 261.7 194.93C260.489 195.527 259.421 196.381 258.571 197.432C258.235 191.129 257.979 185.326 257.979 185.326L215.093 180.385L196.1 197.058L189.361 213.114L191.68 212.911C191.68 212.911 197.938 194.588 211.417 193.353C224.895 192.118 238.374 196.441 240.825 209.409C242.532 218.445 251.374 216.687 256.374 214.791C258.21 218.954 261.647 221.759 265.587 221.759C271.458 221.759 276.216 215.538 276.216 207.865C276.216 200.191 271.458 193.971 265.587 193.971Z" fill="#443B77"/>
<path opacity="0.75" d="M286.101 224.516C279.681 243.952 269.772 254.446 258.603 255.27C270.939 256.171 282.014 245.608 288.981 224.516C292.958 212.475 290.343 203.272 285.634 196.071C284.605 196.1 283.576 196.005 282.569 195.788C287.395 203.03 290.13 212.318 286.101 224.516Z" fill="#443B77"/>
<path opacity="0.75" d="M180.858 233.904C182.266 235.813 184.065 237.398 186.134 238.553C188.203 239.709 190.495 240.409 192.856 240.605C192.029 235.779 191.649 230.887 191.719 225.99C189.061 232.672 184.235 233.94 180.858 233.904Z" fill="#312965"/>
<path d="M194.683 422C199.375 373.233 205.24 360.306 212.279 348.555C219.317 336.804 255.683 332.052 255.683 332.052C255.683 332.052 285.596 336.216 304.952 366.182C324.308 396.147 329 422 329 422H194.683Z" fill="#605991"/>
<path d="M253.336 290.387C253.336 290.387 259.202 271.585 253.336 273.935C247.471 276.286 213.452 286.862 211.106 290.387C208.76 293.912 202.308 307.426 215.211 327.991C223.716 348.262 220.784 345.324 220.784 345.324L248.058 340.329L253.336 290.387Z" fill="#605991"/>
<path d="M241.019 282.749C228.734 281.679 224.596 289.212 221.077 300.375C217.558 311.539 213.452 325.053 221.077 330.928C228.702 336.804 242.192 343.267 250.404 337.392C258.615 331.516 259.788 324.465 258.029 306.839C256.269 289.212 254.51 283.924 241.019 282.749Z" fill="#D1BBDB"/>
<path d="M184.308 300.083L191.424 299.259L212.787 323.681L224.41 336.969L247.816 338.935L246.668 342.754C238.41 364.282 223.111 356.593 217.34 349.851L204.272 330.162L184.308 300.083Z" fill="#BDA4D3"/>
<path d="M245.711 330.929C244.941 330.928 244.178 331.079 243.467 331.374C242.755 331.67 242.109 332.103 241.564 332.649C241.054 331.912 240.401 331.285 239.645 330.804C238.889 330.323 238.045 329.998 237.162 329.848C236.279 329.698 235.375 329.727 234.503 329.931C233.631 330.136 232.809 330.513 232.084 331.041C231.526 330.021 230.679 329.19 229.649 328.653C228.62 328.116 227.454 327.897 226.301 328.024C225.147 328.151 224.056 328.618 223.168 329.366C222.279 330.114 221.631 331.109 221.308 332.226C220.984 333.342 220.998 334.53 221.348 335.639C221.698 336.747 222.369 337.727 223.275 338.453C224.181 339.18 225.282 339.621 226.439 339.72C227.595 339.82 228.755 339.574 229.772 339.012C230.209 340.114 230.928 341.081 231.857 341.815C232.786 342.55 233.891 343.027 235.063 343.197C236.234 343.368 237.429 343.226 238.528 342.787C239.627 342.347 240.592 341.626 241.324 340.694C241.973 341.429 242.795 341.989 243.716 342.323C244.637 342.657 245.627 342.755 246.595 342.608C247.563 342.461 248.479 342.073 249.259 341.479C250.039 340.886 250.658 340.107 251.06 339.212C251.462 338.317 251.634 337.336 251.56 336.358C251.486 335.38 251.169 334.436 250.637 333.612C250.105 332.788 249.375 332.111 248.515 331.642C247.655 331.174 246.691 330.928 245.711 330.929Z" fill="white"/>
<path d="M201.955 228.202C203.933 228.202 205.536 226.33 205.536 224.022C205.536 221.713 203.933 219.841 201.955 219.841C199.977 219.841 198.374 221.713 198.374 224.022C198.374 226.33 199.977 228.202 201.955 228.202Z" fill="#342B67"/>
<path d="M228.746 228.202C230.724 228.202 232.327 226.33 232.327 224.022C232.327 221.713 230.724 219.841 228.746 219.841C226.768 219.841 225.165 221.713 225.165 224.022C225.165 226.33 226.768 228.202 228.746 228.202Z" fill="#342B67"/>
<path d="M212.227 228.617V236.096C212.227 236.159 212.213 236.22 212.186 236.276C212.16 236.332 212.121 236.382 212.073 236.421C212.025 236.461 211.969 236.489 211.909 236.504C211.849 236.519 211.786 236.521 211.725 236.509L207.577 235.678C207.51 235.664 207.448 235.635 207.395 235.592C207.342 235.549 207.301 235.494 207.274 235.432C207.247 235.369 207.236 235.301 207.241 235.234C207.246 235.166 207.267 235.1 207.303 235.043L211.451 228.394C211.5 228.317 211.572 228.257 211.657 228.224C211.742 228.192 211.835 228.188 211.923 228.213C212.01 228.238 212.087 228.291 212.142 228.364C212.197 228.437 212.227 228.526 212.227 228.617V228.617Z" fill="#B67EB3"/>
<path d="M224.038 241.605C223.749 242.405 223.269 243.123 222.639 243.694C222.041 244.408 221.31 244.998 220.486 245.431C219.64 245.729 218.744 245.86 217.848 245.816C216.909 245.813 215.985 245.587 215.15 245.156C214.138 244.657 213.245 246.177 214.262 246.678C215.324 247.217 216.487 247.527 217.675 247.59C218.864 247.653 220.052 247.468 221.165 247.045C222.201 246.531 223.125 245.815 223.883 244.94C224.728 244.154 225.365 243.168 225.735 242.074C225.788 241.851 225.752 241.617 225.636 241.42C225.52 241.223 225.332 241.079 225.112 241.019C224.892 240.958 224.657 240.985 224.457 241.094C224.257 241.204 224.106 241.387 224.038 241.605Z" fill="#B67EB3"/>
<path d="M191.996 232.249C192.153 237.605 192.883 242.836 194.922 246.904C195.242 247.544 195.594 248.176 195.961 248.804C197.336 248.102 198.501 247.048 199.337 245.749C200.174 244.451 200.654 242.954 200.727 241.41C200.866 236.722 197.019 232.767 191.996 232.249Z" fill="#B67EB3"/>
<path d="M195.083 234.196C195.952 234.196 196.657 233.491 196.657 232.62C196.657 231.749 195.952 231.044 195.083 231.044C194.214 231.044 193.51 231.749 193.51 232.62C193.51 233.491 194.214 234.196 195.083 234.196Z" fill="white"/>
<path d="M234.381 235.372C235.25 235.372 235.955 234.666 235.955 233.795C235.955 232.925 235.25 232.219 234.381 232.219C233.512 232.219 232.808 232.925 232.808 233.795C232.808 234.666 233.512 235.372 234.381 235.372Z" fill="white"/>
<path d="M198.411 219.293C199.295 219.95 200.38 220.278 201.48 220.222C203.527 220.222 200.457 221.151 200.457 221.151C200.457 221.151 197.388 220.222 198.411 219.293Z" fill="#342B67"/>
<path d="M224.805 219.293C225.69 219.95 226.775 220.278 227.875 220.222C229.921 220.222 226.851 221.151 226.851 221.151C226.851 221.151 223.782 220.222 224.805 219.293Z" fill="#342B67"/>
<path d="M174.993 290.451L182.467 290.514L182.467 293.806L176.576 293.806L174.993 290.451Z" fill="white"/>
<path d="M163.239 271.857L161.418 273.054L195.528 325.125L197.349 323.928L163.239 271.857Z" fill="#FBD59C"/>
<path d="M163.784 272.669C164.797 272.036 164.569 269.836 163.274 267.755C161.978 265.675 160.106 264.502 159.092 265.136C158.078 265.769 158.307 267.969 159.602 270.05C160.898 272.13 162.77 273.303 163.784 272.669Z" fill="#FBD59C"/>
<path d="M164.778 272.049C165.176 270.92 163.626 269.344 161.318 268.529C159.009 267.714 156.816 267.968 156.419 269.097C156.021 270.226 157.571 271.802 159.879 272.618C162.188 273.433 164.381 273.178 164.778 272.049Z" fill="#FBD59C"/>
<path d="M165.999 269.587C166.813 267.274 166.559 265.077 165.432 264.679C164.305 264.281 162.732 265.833 161.918 268.146C161.104 270.458 161.358 272.655 162.485 273.053C163.612 273.451 165.186 271.899 165.999 269.587Z" fill="#FBD59C"/>
<path d="M166.614 272.561C168.926 271.754 170.481 270.184 170.088 269.053C169.695 267.923 167.502 267.661 165.191 268.467C162.879 269.274 161.324 270.845 161.717 271.975C162.11 273.105 164.303 273.368 166.614 272.561Z" fill="#FBD59C"/>
<path d="M169.69 273.819C170.088 272.69 168.538 271.114 166.23 270.299C163.921 269.484 161.728 269.738 161.33 270.867C160.933 271.996 162.483 273.572 164.791 274.387C167.1 275.202 169.293 274.948 169.69 273.819Z" fill="#FBD59C"/>
<path d="M160.773 274.839C163.085 274.032 164.64 272.462 164.247 271.331C163.853 270.201 161.661 269.938 159.349 270.745C157.038 271.552 155.483 273.122 155.876 274.253C156.269 275.383 158.462 275.646 160.773 274.839Z" fill="#FBD59C"/>
<path d="M163.95 275.388C164.764 273.076 164.51 270.878 163.383 270.48C162.256 270.082 160.682 271.635 159.869 273.947C159.055 276.26 159.309 278.457 160.436 278.855C161.563 279.253 163.136 277.701 163.95 275.388Z" fill="#FBD59C"/>
<path d="M166.894 278.108C167.908 277.475 167.68 275.274 166.384 273.194C165.088 271.114 163.216 269.941 162.202 270.574C161.189 271.208 161.417 273.408 162.712 275.488C164.008 277.569 165.88 278.742 166.894 278.108Z" fill="#FBD59C"/>
<path d="M185.312 291.732C184.475 290.804 183.225 290.365 181.992 290.566V290.566C178.227 291.18 177.763 296.419 181.362 297.684L182.708 298.156C183.859 298.56 185.138 298.299 186.04 297.476V297.476C187.391 296.244 187.493 294.149 186.268 292.792L185.312 291.732Z" fill="white"/>
<path d="M185.065 293.146L175.834 294.027C174.364 294.167 173.285 295.473 173.424 296.943V296.943C173.564 298.413 174.869 299.491 176.339 299.351L185.57 298.47L185.065 293.146Z" fill="white"/>
<path d="M187.768 297.721L178.537 298.602C177.067 298.742 175.988 300.047 176.127 301.517V301.517C176.267 302.988 177.572 304.066 179.042 303.926L188.273 303.045L187.768 297.721Z" fill="white"/>
<path d="M191.064 302.254L181.833 303.134C180.362 303.274 179.284 304.58 179.423 306.05V306.05C179.563 307.52 180.867 308.598 182.337 308.458L191.569 307.578L191.064 302.254Z" fill="white"/>
<path d="M178.962 293.855L186.448 293.023L208.773 318.495L199.786 325.203L178.962 293.855Z" fill="white"/>
<rect width="13.1355" height="2.96968" rx="1.48484" transform="matrix(0.801979 -0.597538 0.596053 0.802807 198.54 324.91)" fill="white"/>
<path d="M150.106 255.721C152.049 255.721 153.625 254.143 153.625 252.196C153.625 250.249 152.049 248.67 150.106 248.67C148.162 248.67 146.586 250.249 146.586 252.196C146.586 254.143 148.162 255.721 150.106 255.721Z" fill="white"/>
<path d="M153.039 243.382C153.686 243.382 154.212 242.856 154.212 242.207C154.212 241.558 153.686 241.032 153.039 241.032C152.391 241.032 151.865 241.558 151.865 242.207C151.865 242.856 152.391 243.382 153.039 243.382Z" fill="white"/>
<path d="M156.851 258.659C157.661 258.659 158.317 258.001 158.317 257.19C158.317 256.379 157.661 255.721 156.851 255.721C156.041 255.721 155.385 256.379 155.385 257.19C155.385 258.001 156.041 258.659 156.851 258.659Z" fill="white"/>
<path d="M259.555 198.72C260.637 197.527 259.536 194.759 257.095 192.538C254.653 190.318 251.797 189.486 250.715 190.679C249.633 191.873 250.735 194.641 253.176 196.861C255.617 199.082 258.473 199.914 259.555 198.72Z" fill="#FBD59C"/>
<path d="M260.618 197.551C260.719 195.942 258.134 194.469 254.843 194.26C251.552 194.052 248.802 195.188 248.701 196.797C248.599 198.407 251.185 199.88 254.476 200.088C257.766 200.296 260.516 199.161 260.618 197.551Z" fill="#FBD59C"/>
<path d="M261.298 193.91C261.506 190.614 260.372 187.859 258.765 187.757C257.159 187.656 255.688 190.246 255.48 193.542C255.272 196.839 256.406 199.593 258.013 199.695C259.619 199.797 261.09 197.207 261.298 193.91Z" fill="#FBD59C"/>
<path d="M263.185 197.539C265.885 195.644 267.326 193.037 266.402 191.716C265.479 190.396 262.541 190.862 259.84 192.757C257.14 194.652 255.699 197.259 256.623 198.58C257.546 199.9 260.484 199.434 263.185 197.539Z" fill="#FBD59C"/>
<path d="M267.632 198.039C267.734 196.43 265.148 194.957 261.858 194.749C258.567 194.54 255.817 195.676 255.715 197.286C255.614 198.895 258.199 200.368 261.49 200.576C264.781 200.785 267.531 199.649 267.632 198.039Z" fill="#FBD59C"/>
<path d="M256.448 202.638C259.148 200.743 260.589 198.136 259.665 196.816C258.742 195.495 255.804 195.961 253.103 197.856C250.402 199.751 248.962 202.358 249.885 203.679C250.809 204.999 253.747 204.534 256.448 202.638Z" fill="#FBD59C"/>
<path d="M260.766 202.183C260.974 198.887 259.84 196.132 258.234 196.03C256.627 195.929 255.156 198.519 254.949 201.815C254.741 205.112 255.875 207.866 257.481 207.968C259.088 208.07 260.558 205.48 260.766 202.183Z" fill="#FBD59C"/>
<path d="M265.578 204.627C266.661 203.433 265.559 200.665 263.118 198.445C260.677 196.224 257.821 195.392 256.738 196.586C255.656 197.78 256.758 200.547 259.199 202.768C261.64 204.988 264.496 205.821 265.578 204.627Z" fill="#FBD59C"/>
<path d="M200.603 187.868C200.454 188.046 200.304 188.218 200.155 188.4C223.074 183.099 251.99 197.693 251.99 197.693C227.281 182.747 208.584 185.477 200.603 187.868Z" fill="#FBD59C"/>
<path d="M203.668 184.169C203.591 184.281 203.515 184.394 203.438 184.507C226.482 178.65 256.1 193.599 256.1 193.599C230.237 178.4 210.964 181.872 203.668 184.169Z" fill="#FBD59C"/>
<path d="M269.76 183.452C271.055 183.452 272.106 182.399 272.106 181.101C272.106 179.803 271.055 178.751 269.76 178.751C268.464 178.751 267.414 179.803 267.414 181.101C267.414 182.399 268.464 183.452 269.76 183.452Z" fill="#FBD59C"/>
<path d="M284.13 198.141C285.911 198.141 287.356 196.694 287.356 194.909C287.356 193.124 285.911 191.677 284.13 191.677C282.348 191.677 280.904 193.124 280.904 194.909C280.904 196.694 282.348 198.141 284.13 198.141Z" fill="#FBD59C"/>
<path d="M276.265 233.394C277.885 233.394 279.198 232.079 279.198 230.456C279.198 228.834 277.885 227.519 276.265 227.519C274.645 227.519 273.332 228.834 273.332 230.456C273.332 232.079 274.645 233.394 276.265 233.394Z" fill="#FBD59C"/>
</g>
<rect x="125.226" y="148.21" width="3.96283" height="248.866" transform="rotate(-90 125.226 148.21)" fill="#7B7E96"/>
<rect x="162.285" y="61.2607" width="3.96283" height="121.359" transform="rotate(-45 162.285 61.2607)" fill="#7B7E96"/>
<rect width="3.96283" height="121.359" transform="matrix(-0.707107 -0.707107 -0.707107 0.707107 338.274 60.6597)" fill="#7B7E96"/>
<rect x="248.399" y="15.3691" width="4" height="130" fill="#7B7E96"/>
<path fill-rule="evenodd" clip-rule="evenodd" d="M252.399 148.2H248.399V282.946H125.226V286.909H248.399V436.2H252.399V286.909H374.092V282.946H252.399V148.2Z" fill="#DAD4DF" fill-opacity="0.56"/>
<path fill-rule="evenodd" clip-rule="evenodd" d="M249.658 0C331.513 0 397.868 66.3559 397.868 148.21L397.868 444.63H101.449V148.342L101.448 148.21C101.448 66.3559 167.804 0 249.658 0ZM374.62 420.853V156.345L374.62 156.136C374.62 83.036 318.791 23.7771 249.923 23.7771C181.055 23.7771 125.226 83.036 125.226 156.136L125.226 156.136V420.853H374.62Z" fill="white"/>
<path fill-rule="evenodd" clip-rule="evenodd" d="M0 23.7774V420.853H124.961V156.136L124.961 156.136C124.961 83.0361 69.1325 23.7771 0.264183 23.7771C0.176101 23.7771 0.0880396 23.7772 0 23.7774Z" fill="#FAD49B"/>
<path d="M20.3428 278.243C20.3428 274.551 23.3357 271.558 27.0277 271.558H99.2551C102.947 271.558 105.94 274.551 105.94 278.243C105.94 281.935 102.947 284.928 99.2551 284.928H27.0277C23.3357 284.928 20.3428 281.935 20.3428 278.243Z" fill="#FDFCF7"/>
<path d="M19.8142 353.933C19.8142 350.241 22.8071 347.248 26.4991 347.248H98.7265C102.418 347.248 105.411 350.241 105.411 353.933C105.411 357.625 102.418 360.618 98.7265 360.618H26.4991C22.8071 360.618 19.8142 357.625 19.8142 353.933Z" fill="#FDFCF7"/>
<path d="M19.8142 316.088C19.8142 312.396 22.8071 309.403 26.4991 309.403H98.7265C102.418 309.403 105.411 312.396 105.411 316.088C105.411 319.78 102.418 322.773 98.7265 322.773H26.4991C22.8071 322.773 19.8142 319.78 19.8142 316.088Z" fill="#FDFCF7"/>
<path fill-rule="evenodd" clip-rule="evenodd" d="M499.053 420.717H374.091V156.136V156C374.16 82.9627 429.963 23.7771 498.788 23.7771C498.877 23.7771 498.965 23.7772 499.053 23.7774V420.717Z" fill="#FAD49B"/>
<path d="M397.538 278.243C397.538 274.551 400.531 271.558 404.223 271.558H476.45C480.142 271.558 483.135 274.551 483.135 278.243C483.135 281.935 480.142 284.928 476.45 284.928H404.223C400.531 284.928 397.538 281.935 397.538 278.243Z" fill="#FDFCF7"/>
<path d="M397.009 353.933C397.009 350.241 400.002 347.248 403.694 347.248H475.922C479.614 347.248 482.606 350.241 482.606 353.933C482.606 357.625 479.614 360.618 475.922 360.618H403.694C400.002 360.618 397.009 357.625 397.009 353.933Z" fill="#FDFCF7"/>
<path d="M397.009 316.088C397.009 312.396 400.002 309.403 403.694 309.403H475.922C479.614 309.403 482.606 312.396 482.606 316.088C482.606 319.78 479.614 322.773 475.922 322.773H403.694C400.002 322.773 397.009 319.78 397.009 316.088Z" fill="#FDFCF7"/>
<defs>
<clipPath id="clip0">
<rect width="183" height="255" fill="white" transform="translate(146 167)"/>
</clipPath>
</defs>
</svg>
